<svg width="277" height="96" viewBox="0 0 277 96" fill="none" xmlns="http://www.w3.org/2000/svg">
<rect x="184" y="65" width="93" height="31" fill="#C4C4C4"/>
<path d="M209.51 71.168H210.518L211.226 74.54C211.282 74.82 211.334 75.092 211.382 75.356C211.43 75.62 211.474 75.888 211.514 76.16H211.562C211.618 75.888 211.674 75.62 211.73 75.356C211.786 75.084 211.846 74.812 211.91 74.54L212.618 71.516H213.458L214.178 74.54C214.242 74.82 214.302 75.092 214.358 75.356C214.414 75.62 214.474 75.888 214.538 76.16H214.586C214.642 75.888 214.69 75.62 214.73 75.356C214.778 75.092 214.826 74.82 214.874 74.54L215.582 71.168H216.518L215.246 77H214.058L213.362 74.048C213.306 73.768 213.254 73.492 213.206 73.22C213.158 72.94 213.102 72.652 213.038 72.356H212.99C212.942 72.612 212.894 72.876 212.846 73.148C212.798 73.42 212.738 73.724 212.666 74.06L211.994 77H210.818L209.51 71.168ZM217.689 71.168H221.385V77H220.401V71.972H217.689V71.168ZM220.785 69.968C220.553 69.968 220.361 69.9 220.209 69.764C220.065 69.628 219.993 69.444 219.993 69.212C219.993 68.98 220.065 68.796 220.209 68.66C220.361 68.516 220.553 68.444 220.785 68.444C221.009 68.444 221.197 68.516 221.349 68.66C221.501 68.796 221.577 68.98 221.577 69.212C221.577 69.444 221.501 69.628 221.349 69.764C221.197 69.9 221.009 69.968 220.785 69.968ZM224.921 71.168H225.737L225.821 72.164H225.869C226.173 71.836 226.501 71.564 226.853 71.348C227.205 71.132 227.609 71.024 228.065 71.024C228.761 71.024 229.269 71.224 229.589 71.624C229.917 72.016 230.081 72.6 230.081 73.376V77H229.097V73.508C229.097 72.956 228.993 72.548 228.785 72.284C228.577 72.012 228.233 71.876 227.753 71.876C227.577 71.876 227.413 71.9 227.261 71.948C227.117 71.988 226.973 72.052 226.829 72.14C226.685 72.228 226.537 72.34 226.385 72.476C226.233 72.604 226.073 72.756 225.905 72.932V77H224.921V71.168ZM231.72 74.096C231.72 73.624 231.792 73.2 231.936 72.824C232.088 72.44 232.284 72.116 232.524 71.852C232.772 71.588 233.056 71.384 233.376 71.24C233.696 71.096 234.028 71.024 234.372 71.024C234.732 71.024 235.048 71.092 235.32 71.228C235.592 71.364 235.864 71.548 236.136 71.78L236.1 70.7V68.456H237.084V77H236.268L236.184 76.232H236.148C235.908 76.48 235.62 76.696 235.284 76.88C234.956 77.056 234.612 77.144 234.252 77.144C233.868 77.144 233.52 77.076 233.208 76.94C232.904 76.804 232.64 76.608 232.416 76.352C232.192 76.088 232.02 75.768 231.9 75.392C231.78 75.016 231.72 74.584 231.72 74.096ZM232.74 74.084C232.74 74.788 232.888 75.336 233.184 75.728C233.488 76.12 233.912 76.316 234.456 76.316C235.032 76.316 235.58 76.024 236.1 75.44V72.536C235.836 72.288 235.576 72.112 235.32 72.008C235.072 71.904 234.82 71.852 234.564 71.852C234.308 71.852 234.068 71.908 233.844 72.02C233.628 72.124 233.436 72.276 233.268 72.476C233.108 72.668 232.98 72.9 232.884 73.172C232.788 73.444 232.74 73.748 232.74 74.084ZM238.915 74.096C238.915 73.608 238.991 73.176 239.143 72.8C239.303 72.416 239.515 72.092 239.779 71.828C240.043 71.564 240.347 71.364 240.691 71.228C241.043 71.092 241.411 71.024 241.795 71.024C242.179 71.024 242.543 71.092 242.887 71.228C243.239 71.364 243.547 71.564 243.811 71.828C244.075 72.092 244.283 72.416 244.435 72.8C244.595 73.176 244.675 73.608 244.675 74.096C244.675 74.576 244.595 75.008 244.435 75.392C244.283 75.768 244.075 76.088 243.811 76.352C243.547 76.608 243.239 76.804 242.887 76.94C242.543 77.076 242.179 77.144 241.795 77.144C241.411 77.144 241.043 77.076 240.691 76.94C240.347 76.804 240.043 76.608 239.779 76.352C239.515 76.088 239.303 75.768 239.143 75.392C238.991 75.008 238.915 74.576 238.915 74.096ZM239.935 74.096C239.935 74.432 239.979 74.736 240.067 75.008C240.155 75.28 240.279 75.516 240.439 75.716C240.607 75.908 240.803 76.06 241.027 76.172C241.259 76.276 241.515 76.328 241.795 76.328C242.075 76.328 242.327 76.276 242.551 76.172C242.783 76.06 242.979 75.908 243.139 75.716C243.307 75.516 243.435 75.28 243.523 75.008C243.611 74.736 243.655 74.432 243.655 74.096C243.655 73.76 243.611 73.456 243.523 73.184C243.435 72.904 243.307 72.664 243.139 72.464C242.979 72.264 242.783 72.112 242.551 72.008C242.327 71.896 242.075 71.84 241.795 71.84C241.515 71.84 241.259 71.896 241.027 72.008C240.803 72.112 240.607 72.264 240.439 72.464C240.279 72.664 240.155 72.904 240.067 73.184C239.979 73.456 239.935 73.76 239.935 74.096ZM245.487 71.168H246.495L247.203 74.54C247.259 74.82 247.311 75.092 247.359 75.356C247.407 75.62 247.451 75.888 247.491 76.16H247.539C247.595 75.888 247.651 75.62 247.707 75.356C247.763 75.084 247.823 74.812 247.887 74.54L248.595 71.516H249.435L250.155 74.54C250.219 74.82 250.279 75.092 250.335 75.356C250.391 75.62 250.451 75.888 250.515 76.16H250.563C250.619 75.888 250.667 75.62 250.707 75.356C250.755 75.092 250.803 74.82 250.851 74.54L251.559 71.168H252.495L251.223 77H250.035L249.339 74.048C249.283 73.768 249.231 73.492 249.183 73.22C249.135 72.94 249.079 72.652 249.015 72.356H248.967C248.919 72.612 248.871 72.876 248.823 73.148C248.775 73.42 248.715 73.724 248.643 74.06L247.971 77H246.795L245.487 71.168Z" fill="black"/>
<path d="M209.414 78.2H252.591V78.8H209.414V78.2Z" fill="black"/>
<rect x="184" width="93" height="37" fill="#C4C4C4"/>
<path d="M187.96 21.2413H190.728V24.9693C190.728 25.2093 190.699 25.4386 190.64 25.6573C190.587 25.876 190.488 26.068 190.344 26.2333C190.205 26.3986 190.016 26.5293 189.776 26.6253C189.541 26.7266 189.245 26.7773 188.888 26.7773C188.643 26.7773 188.419 26.7506 188.216 26.6973C188.019 26.6493 187.835 26.5853 187.664 26.5053L188.008 25.6653C188.168 25.74 188.312 25.7906 188.44 25.8173C188.573 25.844 188.699 25.8573 188.816 25.8573C189.099 25.8573 189.291 25.788 189.392 25.6493C189.499 25.516 189.552 25.3053 189.552 25.0173V22.1613H187.96V21.2413ZM190.088 20.6573C189.859 20.6573 189.669 20.5933 189.52 20.4653C189.376 20.3373 189.304 20.164 189.304 19.9453C189.304 19.7266 189.376 19.5506 189.52 19.4173C189.669 19.2786 189.859 19.2093 190.088 19.2093C190.317 19.2093 190.504 19.2786 190.648 19.4173C190.797 19.5506 190.872 19.7266 190.872 19.9453C190.872 20.164 190.797 20.3373 190.648 20.4653C190.504 20.5933 190.317 20.6573 190.088 20.6573ZM192.501 23.2253C192.501 22.8946 192.557 22.6013 192.669 22.3453C192.781 22.084 192.93 21.8653 193.117 21.6893C193.309 21.5133 193.525 21.38 193.765 21.2893C194.01 21.1933 194.264 21.1453 194.525 21.1453C194.786 21.1453 195.037 21.1933 195.277 21.2893C195.522 21.38 195.738 21.5133 195.925 21.6893C196.117 21.8653 196.269 22.084 196.381 22.3453C196.493 22.6013 196.549 22.8946 196.549 23.2253C196.549 23.556 196.493 23.852 196.381 24.1133C196.269 24.3693 196.117 24.5853 195.925 24.7613C195.738 24.9373 195.522 25.0733 195.277 25.1693C195.037 25.26 194.786 25.3053 194.525 25.3053C194.264 25.3053 194.01 25.26 193.765 25.1693C193.525 25.0733 193.309 24.9373 193.117 24.7613C192.93 24.5853 192.781 24.3693 192.669 24.1133C192.557 23.852 192.501 23.556 192.501 23.2253ZM193.709 23.2253C193.709 23.572 193.776 23.8466 193.909 24.0493C194.048 24.252 194.253 24.3533 194.525 24.3533C194.797 24.3533 195 24.252 195.133 24.0493C195.272 23.8466 195.341 23.572 195.341 23.2253C195.341 22.8786 195.272 22.604 195.133 22.4013C195 22.1986 194.797 22.0973 194.525 22.0973C194.253 22.0973 194.048 22.1986 193.909 22.4013C193.776 22.604 193.709 22.8786 193.709 23.2253ZM197.498 19.6013H198.674V20.9773L198.642 21.6013C198.797 21.4573 198.97 21.3453 199.162 21.2653C199.359 21.1853 199.554 21.1453 199.746 21.1453C199.991 21.1453 200.213 21.1933 200.41 21.2893C200.613 21.3853 200.781 21.5213 200.914 21.6973C201.053 21.868 201.159 22.0786 201.234 22.3293C201.309 22.5746 201.346 22.8493 201.346 23.1533C201.346 23.4946 201.298 23.7986 201.202 24.0653C201.106 24.332 200.978 24.5586 200.818 24.7453C200.658 24.9266 200.474 25.0653 200.266 25.1613C200.063 25.2573 199.85 25.3053 199.626 25.3053C199.439 25.3053 199.253 25.26 199.066 25.1693C198.885 25.0786 198.711 24.948 198.546 24.7773H198.514L198.418 25.2093H197.498V19.6013ZM198.674 24.0813C198.786 24.1773 198.901 24.2466 199.018 24.2893C199.141 24.3266 199.255 24.3453 199.362 24.3453C199.581 24.3453 199.765 24.2546 199.914 24.0733C200.063 23.8866 200.138 23.588 200.138 23.1773C200.138 22.4626 199.895 22.1053 199.41 22.1053C199.159 22.1053 198.914 22.228 198.674 22.4733V24.0813ZM203.191 21.7853C203.191 21.652 203.212 21.5293 203.255 21.4173C203.303 21.3 203.367 21.1986 203.447 21.1133C203.527 21.028 203.623 20.9613 203.735 20.9133C203.852 20.8653 203.98 20.8413 204.119 20.8413C204.257 20.8413 204.383 20.8653 204.495 20.9133C204.612 20.9613 204.711 21.028 204.791 21.1133C204.871 21.1986 204.932 21.3 204.975 21.4173C205.023 21.5293 205.047 21.652 205.047 21.7853C205.047 22.052 204.961 22.276 204.791 22.4573C204.62 22.6333 204.396 22.7213 204.119 22.7213C203.841 22.7213 203.617 22.6333 203.447 22.4573C203.276 22.276 203.191 22.052 203.191 21.7853ZM203.191 24.3693C203.191 24.236 203.212 24.1133 203.255 24.0013C203.303 23.884 203.367 23.7826 203.447 23.6973C203.527 23.612 203.623 23.5453 203.735 23.4973C203.852 23.4493 203.98 23.4253 204.119 23.4253C204.257 23.4253 204.383 23.4493 204.495 23.4973C204.612 23.5453 204.711 23.612 204.791 23.6973C204.871 23.7826 204.932 23.884 204.975 24.0013C205.023 24.1133 205.047 24.236 205.047 24.3693C205.047 24.636 204.961 24.86 204.791 25.0413C204.62 25.2173 204.396 25.3053 204.119 25.3053C203.841 25.3053 203.617 25.2173 203.447 25.0413C203.276 24.86 203.191 24.636 203.191 24.3693ZM213.433 20.2573C213.15 20.3853 212.934 20.54 212.785 20.7213C212.641 20.9026 212.558 21.1213 212.537 21.3773C212.59 21.3613 212.646 21.3533 212.705 21.3533C212.918 21.3533 213.091 21.42 213.225 21.5533C213.363 21.6813 213.433 21.8573 213.433 22.0813C213.433 22.3266 213.361 22.524 213.217 22.6733C213.073 22.8173 212.889 22.8893 212.665 22.8893C212.366 22.8893 212.134 22.7773 211.969 22.5533C211.809 22.3293 211.729 22.0146 211.729 21.6093C211.729 21.172 211.843 20.788 212.073 20.4573C212.307 20.1213 212.659 19.8466 213.129 19.6333L213.433 20.2573ZM215.553 20.2573C215.27 20.3853 215.054 20.54 214.905 20.7213C214.761 20.9026 214.678 21.1213 214.657 21.3773C214.71 21.3613 214.766 21.3533 214.825 21.3533C215.038 21.3533 215.211 21.42 215.345 21.5533C215.483 21.6813 215.553 21.8573 215.553 22.0813C215.553 22.3266 215.481 22.524 215.337 22.6733C215.193 22.8173 215.009 22.8893 214.785 22.8893C214.486 22.8893 214.254 22.7773 214.089 22.5533C213.929 22.3293 213.849 22.0146 213.849 21.6093C213.849 21.172 213.963 20.788 214.193 20.4573C214.427 20.1213 214.779 19.8466 215.249 19.6333L215.553 20.2573ZM220.565 20.5853C220.304 20.484 220.027 20.4333 219.733 20.4333C219.477 20.4333 219.288 20.4893 219.165 20.6013C219.048 20.7133 218.989 20.8893 218.989 21.1293V21.2413H220.357V22.1613H218.989V25.2093H217.813V22.1613H216.765V21.2893L217.813 21.2413V21.1373C217.813 20.908 217.848 20.6946 217.917 20.4973C217.987 20.3 218.093 20.1293 218.237 19.9853C218.381 19.836 218.565 19.7186 218.789 19.6333C219.013 19.548 219.28 19.5053 219.589 19.5053C219.819 19.5053 220.032 19.5266 220.229 19.5693C220.432 19.612 220.619 19.6626 220.789 19.7213L220.565 20.5853ZM221.538 21.2413H224.306V25.2093H223.13V22.1613H221.538V21.2413ZM223.666 20.6573C223.437 20.6573 223.248 20.5933 223.098 20.4653C222.954 20.3373 222.882 20.164 222.882 19.9453C222.882 19.7266 222.954 19.5506 223.098 19.4173C223.248 19.2786 223.437 19.2093 223.666 19.2093C223.896 19.2093 224.082 19.2786 224.226 19.4173C224.376 19.5506 224.45 19.7266 224.45 19.9453C224.45 20.164 224.376 20.3373 224.226 20.4653C224.082 20.5933 223.896 20.6573 223.666 20.6573ZM227.079 25.7053C227.079 25.8546 227.167 25.9666 227.343 26.0413C227.524 26.1213 227.772 26.1613 228.087 26.1613C228.407 26.1613 228.666 26.1133 228.863 26.0173C229.06 25.9266 229.159 25.812 229.159 25.6733C229.159 25.5453 229.1 25.46 228.983 25.4173C228.866 25.38 228.692 25.3613 228.463 25.3613H227.967C227.823 25.3613 227.703 25.356 227.607 25.3453C227.516 25.34 227.434 25.3293 227.359 25.3133C227.258 25.3773 227.186 25.4386 227.143 25.4973C227.1 25.5613 227.079 25.6306 227.079 25.7053ZM226.119 25.8813C226.119 25.556 226.324 25.292 226.735 25.0893V25.0573C226.628 24.988 226.535 24.9 226.455 24.7933C226.375 24.6866 226.335 24.548 226.335 24.3773C226.335 24.244 226.378 24.1106 226.463 23.9773C226.554 23.844 226.668 23.7293 226.807 23.6333V23.6013C226.663 23.5053 226.54 23.372 226.439 23.2013C226.338 23.0253 226.287 22.82 226.287 22.5853C226.287 22.3453 226.332 22.1373 226.423 21.9613C226.519 21.78 226.644 21.6306 226.799 21.5133C226.954 21.3906 227.132 21.3 227.335 21.2413C227.543 21.1773 227.759 21.1453 227.983 21.1453C228.228 21.1453 228.447 21.1773 228.639 21.2413H230.247V22.0973H229.439C229.487 22.156 229.53 22.2333 229.567 22.3293C229.604 22.42 229.623 22.5186 229.623 22.6253C229.623 22.8546 229.58 23.052 229.495 23.2173C229.41 23.3826 229.292 23.5213 229.143 23.6333C228.999 23.74 228.826 23.82 228.623 23.8733C228.426 23.9266 228.212 23.9533 227.983 23.9533C227.812 23.9533 227.631 23.9266 227.439 23.8733C227.38 23.916 227.335 23.9586 227.303 24.0013C227.276 24.044 227.263 24.0973 227.263 24.1613C227.263 24.268 227.316 24.3453 227.423 24.3933C227.53 24.4413 227.7 24.4653 227.935 24.4653H228.671C229.194 24.4653 229.591 24.5426 229.863 24.6973C230.14 24.852 230.279 25.108 230.279 25.4653C230.279 25.6733 230.223 25.8653 230.111 26.0413C229.999 26.2173 229.842 26.3666 229.639 26.4893C229.436 26.6173 229.188 26.716 228.895 26.7853C228.602 26.86 228.276 26.8973 227.919 26.8973C227.663 26.8973 227.423 26.876 227.199 26.8333C226.98 26.796 226.791 26.7346 226.631 26.6493C226.471 26.5693 226.346 26.4653 226.255 26.3373C226.164 26.2093 226.119 26.0573 226.119 25.8813ZM227.983 23.2413C228.148 23.2413 228.29 23.188 228.407 23.0813C228.53 22.9693 228.591 22.804 228.591 22.5853C228.591 22.372 228.53 22.212 228.407 22.1053C228.29 21.9933 228.148 21.9373 227.983 21.9373C227.818 21.9373 227.676 21.9933 227.559 22.1053C227.447 22.212 227.391 22.372 227.391 22.5853C227.391 22.804 227.447 22.9693 227.559 23.0813C227.676 23.188 227.818 23.2413 227.983 23.2413ZM231.076 19.6013H232.252V20.9773L232.188 21.7373C232.268 21.6626 232.353 21.5906 232.444 21.5213C232.54 21.4466 232.641 21.3826 232.748 21.3293C232.86 21.2706 232.98 21.2253 233.108 21.1933C233.241 21.1613 233.383 21.1453 233.532 21.1453C233.98 21.1453 234.305 21.2893 234.508 21.5773C234.716 21.8653 234.82 22.26 234.82 22.7613V25.2093H233.644V22.9133C233.644 22.6466 233.601 22.452 233.516 22.3293C233.431 22.2066 233.279 22.1453 233.06 22.1453C232.9 22.1453 232.759 22.18 232.636 22.2493C232.519 22.3186 232.391 22.4226 232.252 22.5613V25.2093H231.076V19.6013ZM236.689 22.1613H235.689V21.2893L236.745 21.2413L236.897 20.1853H237.865V21.2413H239.545V22.1613H237.865V23.5533C237.865 23.8573 237.932 24.0733 238.065 24.2013C238.198 24.324 238.409 24.3853 238.697 24.3853C238.852 24.3853 238.993 24.372 239.121 24.3453C239.249 24.3186 239.372 24.284 239.489 24.2413L239.697 25.0893C239.521 25.1426 239.324 25.1906 239.105 25.2333C238.892 25.2813 238.657 25.3053 238.401 25.3053C238.086 25.3053 237.82 25.2626 237.601 25.1773C237.382 25.092 237.204 24.9746 237.065 24.8253C236.932 24.6706 236.836 24.4866 236.777 24.2733C236.718 24.06 236.689 23.8226 236.689 23.5613V22.1613ZM245.427 23.2253C245.427 22.8946 245.488 22.6013 245.611 22.3453C245.739 22.084 245.907 21.8653 246.115 21.6893C246.328 21.5133 246.573 21.38 246.851 21.2893C247.128 21.1933 247.419 21.1453 247.723 21.1453C248.037 21.1453 248.32 21.196 248.571 21.2973C248.827 21.3986 249.04 21.5266 249.211 21.6813L248.667 22.4093C248.373 22.2013 248.08 22.0973 247.787 22.0973C247.445 22.0973 247.168 22.1986 246.955 22.4013C246.741 22.604 246.635 22.8786 246.635 23.2253C246.635 23.572 246.736 23.8466 246.939 24.0493C247.147 24.252 247.416 24.3533 247.747 24.3533C247.955 24.3533 248.147 24.316 248.323 24.2413C248.499 24.1666 248.656 24.0786 248.795 23.9773L249.275 24.7213C249.035 24.924 248.768 25.0733 248.475 25.1693C248.187 25.26 247.907 25.3053 247.635 25.3053C247.32 25.3053 247.029 25.26 246.763 25.1693C246.496 25.0733 246.261 24.9373 246.059 24.7613C245.861 24.5853 245.707 24.3693 245.595 24.1133C245.483 23.852 245.427 23.556 245.427 23.2253ZM250.616 21.2413H251.576L251.672 22.1053H251.696C251.893 21.78 252.13 21.54 252.408 21.3853C252.685 21.2253 252.984 21.1453 253.304 21.1453C253.48 21.1453 253.621 21.1586 253.727 21.1853C253.84 21.212 253.954 21.252 254.072 21.3053L253.832 22.2893C253.709 22.252 253.597 22.2253 253.496 22.2093C253.4 22.188 253.277 22.1773 253.128 22.1773C252.882 22.1773 252.64 22.2493 252.4 22.3933C252.165 22.5373 251.962 22.788 251.792 23.1453V25.2093H250.616V21.2413ZM255.116 21.2413H257.884V25.2093H256.708V22.1613H255.116V21.2413ZM257.244 20.6573C257.015 20.6573 256.826 20.5933 256.676 20.4653C256.532 20.3373 256.46 20.164 256.46 19.9453C256.46 19.7266 256.532 19.5506 256.676 19.4173C256.826 19.2786 257.015 19.2093 257.244 19.2093C257.474 19.2093 257.66 19.2786 257.804 19.4173C257.954 19.5506 258.028 19.7266 258.028 19.9453C258.028 20.164 257.954 20.3373 257.804 20.4653C257.66 20.5933 257.474 20.6573 257.244 20.6573ZM259.569 21.2413H260.449L260.537 21.7373H260.569C260.644 21.572 260.745 21.4333 260.873 21.3213C261.007 21.204 261.188 21.1453 261.417 21.1453C261.593 21.1453 261.74 21.2013 261.857 21.3133C261.98 21.42 262.065 21.58 262.113 21.7933C262.188 21.612 262.295 21.46 262.433 21.3373C262.577 21.2093 262.761 21.1453 262.985 21.1453C263.263 21.1453 263.479 21.26 263.633 21.4893C263.788 21.7133 263.865 22.0253 263.865 22.4253V25.2093H262.761V22.5133C262.761 22.268 262.687 22.1453 262.537 22.1453C262.393 22.1453 262.271 22.2733 262.169 22.5293V25.2093H261.265V22.5133C261.265 22.268 261.188 22.1453 261.033 22.1453C260.959 22.1453 260.895 22.1773 260.841 22.2413C260.788 22.3053 260.732 22.4013 260.673 22.5293V25.2093H259.569V21.2413ZM264.518 23.2253C264.518 22.9 264.574 22.6093 264.686 22.3533C264.803 22.0973 264.958 21.8813 265.15 21.7053C265.342 21.524 265.561 21.3853 265.806 21.2893C266.057 21.1933 266.315 21.1453 266.582 21.1453C266.886 21.1453 267.155 21.1933 267.39 21.2893C267.625 21.3853 267.819 21.5186 267.974 21.6893C268.129 21.86 268.246 22.0626 268.326 22.2973C268.406 22.5266 268.446 22.7773 268.446 23.0493C268.446 23.156 268.441 23.2573 268.43 23.3533C268.419 23.4493 268.409 23.5213 268.398 23.5693H265.726C265.769 23.868 265.897 24.084 266.11 24.2173C266.329 24.3453 266.585 24.4093 266.878 24.4093C267.059 24.4093 267.23 24.388 267.39 24.3453C267.555 24.2973 267.726 24.228 267.902 24.1373L268.286 24.8413C268.062 24.9853 267.811 25.1 267.534 25.1853C267.257 25.2653 266.985 25.3053 266.718 25.3053C266.409 25.3053 266.121 25.26 265.854 25.1693C265.587 25.0733 265.355 24.9373 265.158 24.7613C264.961 24.58 264.803 24.3613 264.686 24.1053C264.574 23.8493 264.518 23.556 264.518 23.2253ZM267.382 22.7933C267.382 22.5693 267.321 22.388 267.198 22.2493C267.075 22.1106 266.878 22.0413 266.606 22.0413C266.393 22.0413 266.203 22.1026 266.038 22.2253C265.873 22.348 265.763 22.5373 265.71 22.7933H267.382ZM269.435 22.2653C269.995 22.0146 270.294 21.644 270.331 21.1533C270.272 21.1693 270.219 21.1773 270.171 21.1773C269.952 21.1773 269.774 21.1106 269.635 20.9773C269.502 20.844 269.435 20.6653 269.435 20.4413C269.435 20.196 269.507 20.0013 269.651 19.8573C269.795 19.708 269.979 19.6333 270.203 19.6333C270.507 19.6333 270.739 19.748 270.899 19.9773C271.059 20.2013 271.139 20.5133 271.139 20.9133C271.139 21.3506 271.024 21.7373 270.795 22.0733C270.566 22.404 270.216 22.676 269.747 22.8893L269.435 22.2653ZM271.555 22.2653C272.115 22.0146 272.414 21.644 272.451 21.1533C272.392 21.1693 272.339 21.1773 272.291 21.1773C272.072 21.1773 271.894 21.1106 271.755 20.9773C271.622 20.844 271.555 20.6653 271.555 20.4413C271.555 20.196 271.627 20.0013 271.771 19.8573C271.915 19.708 272.099 19.6333 272.323 19.6333C272.627 19.6333 272.859 19.748 273.019 19.9773C273.179 20.2013 273.259 20.5133 273.259 20.9133C273.259 21.3506 273.144 21.7373 272.915 22.0733C272.686 22.404 272.336 22.676 271.867 22.8893L271.555 22.2653Z" fill="black"/>
<path d="M191.022 6.168H192.03L192.738 9.54C192.794 9.82 192.846 10.092 192.894 10.356C192.942 10.62 192.986 10.888 193.026 11.16H193.074C193.13 10.888 193.186 10.62 193.242 10.356C193.298 10.084 193.358 9.812 193.422 9.54L194.13 6.516H194.97L195.69 9.54C195.754 9.82 195.814 10.092 195.87 10.356C195.926 10.62 195.986 10.888 196.05 11.16H196.098C196.154 10.888 196.202 10.62 196.242 10.356C196.29 10.092 196.338 9.82 196.386 9.54L197.094 6.168H198.03L196.758 12H195.57L194.874 9.048C194.818 8.768 194.766 8.492 194.718 8.22C194.67 7.94 194.614 7.652 194.55 7.356H194.502C194.454 7.612 194.406 7.876 194.358 8.148C194.31 8.42 194.25 8.724 194.178 9.06L193.506 12H192.33L191.022 6.168ZM198.841 9.096C198.841 8.608 198.917 8.176 199.069 7.8C199.229 7.416 199.441 7.092 199.705 6.828C199.969 6.564 200.273 6.364 200.617 6.228C200.969 6.092 201.337 6.024 201.721 6.024C202.105 6.024 202.469 6.092 202.813 6.228C203.165 6.364 203.473 6.564 203.737 6.828C204.001 7.092 204.209 7.416 204.361 7.8C204.521 8.176 204.601 8.608 204.601 9.096C204.601 9.576 204.521 10.008 204.361 10.392C204.209 10.768 204.001 11.088 203.737 11.352C203.473 11.608 203.165 11.804 202.813 11.94C202.469 12.076 202.105 12.144 201.721 12.144C201.337 12.144 200.969 12.076 200.617 11.94C200.273 11.804 199.969 11.608 199.705 11.352C199.441 11.088 199.229 10.768 199.069 10.392C198.917 10.008 198.841 9.576 198.841 9.096ZM199.861 9.096C199.861 9.432 199.905 9.736 199.993 10.008C200.081 10.28 200.205 10.516 200.365 10.716C200.533 10.908 200.729 11.06 200.953 11.172C201.185 11.276 201.441 11.328 201.721 11.328C202.001 11.328 202.253 11.276 202.477 11.172C202.709 11.06 202.905 10.908 203.065 10.716C203.233 10.516 203.361 10.28 203.449 10.008C203.537 9.736 203.581 9.432 203.581 9.096C203.581 8.76 203.537 8.456 203.449 8.184C203.361 7.904 203.233 7.664 203.065 7.464C202.905 7.264 202.709 7.112 202.477 7.008C202.253 6.896 202.001 6.84 201.721 6.84C201.441 6.84 201.185 6.896 200.953 7.008C200.729 7.112 200.533 7.264 200.365 7.464C200.205 7.664 200.081 7.904 199.993 8.184C199.905 8.456 199.861 8.76 199.861 9.096ZM206.432 6.168H207.248L207.332 7.164H207.38C207.684 6.836 208.012 6.564 208.364 6.348C208.716 6.132 209.12 6.024 209.576 6.024C210.272 6.024 210.78 6.224 211.1 6.624C211.428 7.016 211.592 7.6 211.592 8.376V12H210.608V8.508C210.608 7.956 210.504 7.548 210.296 7.284C210.088 7.012 209.744 6.876 209.264 6.876C209.088 6.876 208.924 6.9 208.772 6.948C208.628 6.988 208.484 7.052 208.34 7.14C208.196 7.228 208.048 7.34 207.896 7.476C207.744 7.604 207.584 7.756 207.416 7.932V12H206.432V6.168ZM213.232 9.096C213.232 8.624 213.304 8.2 213.448 7.824C213.6 7.44 213.796 7.116 214.036 6.852C214.284 6.588 214.568 6.384 214.888 6.24C215.208 6.096 215.54 6.024 215.884 6.024C216.244 6.024 216.56 6.092 216.832 6.228C217.104 6.364 217.376 6.548 217.648 6.78L217.612 5.7V3.456H218.596V12H217.78L217.696 11.232H217.66C217.42 11.48 217.132 11.696 216.796 11.88C216.468 12.056 216.124 12.144 215.764 12.144C215.38 12.144 215.032 12.076 214.72 11.94C214.416 11.804 214.152 11.608 213.928 11.352C213.704 11.088 213.532 10.768 213.412 10.392C213.292 10.016 213.232 9.584 213.232 9.096ZM214.252 9.084C214.252 9.788 214.4 10.336 214.696 10.728C215 11.12 215.424 11.316 215.968 11.316C216.544 11.316 217.092 11.024 217.612 10.44V7.536C217.348 7.288 217.088 7.112 216.832 7.008C216.584 6.904 216.332 6.852 216.076 6.852C215.82 6.852 215.58 6.908 215.356 7.02C215.14 7.124 214.948 7.276 214.78 7.476C214.62 7.668 214.492 7.9 214.396 8.172C214.3 8.444 214.252 8.748 214.252 9.084ZM220.535 9.096C220.535 8.616 220.619 8.188 220.787 7.812C220.955 7.428 221.175 7.104 221.447 6.84C221.727 6.576 222.043 6.376 222.395 6.24C222.755 6.096 223.123 6.024 223.499 6.024C223.915 6.024 224.287 6.092 224.615 6.228C224.943 6.356 225.219 6.54 225.443 6.78C225.675 7.02 225.851 7.308 225.971 7.644C226.091 7.98 226.151 8.352 226.151 8.76C226.151 8.864 226.147 8.968 226.139 9.072C226.139 9.168 226.131 9.252 226.115 9.324H221.555C221.563 9.636 221.623 9.916 221.735 10.164C221.855 10.412 222.011 10.624 222.203 10.8C222.403 10.976 222.635 11.112 222.899 11.208C223.171 11.304 223.467 11.352 223.787 11.352C224.131 11.352 224.443 11.304 224.723 11.208C225.011 11.112 225.291 10.98 225.563 10.812L225.911 11.46C225.623 11.644 225.295 11.804 224.927 11.94C224.559 12.076 224.139 12.144 223.667 12.144C223.235 12.144 222.827 12.076 222.443 11.94C222.067 11.796 221.735 11.596 221.447 11.34C221.167 11.076 220.943 10.756 220.775 10.38C220.615 10.004 220.535 9.576 220.535 9.096ZM225.239 8.616C225.239 8.032 225.087 7.584 224.783 7.272C224.479 6.96 224.055 6.804 223.511 6.804C223.271 6.804 223.039 6.844 222.815 6.924C222.599 7.004 222.403 7.124 222.227 7.284C222.051 7.436 221.903 7.624 221.783 7.848C221.663 8.072 221.583 8.328 221.543 8.616H225.239ZM228.654 6.168H229.47L229.554 7.548H229.59C229.894 7.076 230.266 6.704 230.706 6.432C231.154 6.16 231.65 6.024 232.194 6.024C232.41 6.024 232.61 6.044 232.794 6.084C232.978 6.116 233.162 6.176 233.346 6.264L233.118 7.116C232.91 7.044 232.734 6.992 232.59 6.96C232.454 6.928 232.27 6.912 232.038 6.912C231.598 6.912 231.174 7.04 230.766 7.296C230.366 7.544 229.99 7.972 229.638 8.58V12H228.654V6.168ZM234.194 6.168H235.202L235.91 9.54C235.966 9.82 236.018 10.092 236.066 10.356C236.114 10.62 236.158 10.888 236.198 11.16H236.246C236.302 10.888 236.358 10.62 236.414 10.356C236.47 10.084 236.53 9.812 236.594 9.54L237.302 6.516H238.142L238.862 9.54C238.926 9.82 238.986 10.092 239.042 10.356C239.098 10.62 239.158 10.888 239.222 11.16H239.27C239.326 10.888 239.374 10.62 239.414 10.356C239.462 10.092 239.51 9.82 239.558 9.54L240.266 6.168H241.202L239.93 12H238.742L238.046 9.048C237.99 8.768 237.938 8.492 237.89 8.22C237.842 7.94 237.786 7.652 237.722 7.356H237.674C237.626 7.612 237.578 7.876 237.53 8.148C237.482 8.42 237.422 8.724 237.35 9.06L236.678 12H235.502L234.194 6.168ZM242.013 9.096C242.013 8.608 242.089 8.176 242.241 7.8C242.401 7.416 242.613 7.092 242.877 6.828C243.141 6.564 243.445 6.364 243.789 6.228C244.141 6.092 244.509 6.024 244.893 6.024C245.277 6.024 245.641 6.092 245.985 6.228C246.337 6.364 246.645 6.564 246.909 6.828C247.173 7.092 247.381 7.416 247.533 7.8C247.693 8.176 247.773 8.608 247.773 9.096C247.773 9.576 247.693 10.008 247.533 10.392C247.381 10.768 247.173 11.088 246.909 11.352C246.645 11.608 246.337 11.804 245.985 11.94C245.641 12.076 245.277 12.144 244.893 12.144C244.509 12.144 244.141 12.076 243.789 11.94C243.445 11.804 243.141 11.608 242.877 11.352C242.613 11.088 242.401 10.768 242.241 10.392C242.089 10.008 242.013 9.576 242.013 9.096ZM243.033 9.096C243.033 9.432 243.077 9.736 243.165 10.008C243.253 10.28 243.377 10.516 243.537 10.716C243.705 10.908 243.901 11.06 244.125 11.172C244.357 11.276 244.613 11.328 244.893 11.328C245.173 11.328 245.425 11.276 245.649 11.172C245.881 11.06 246.077 10.908 246.237 10.716C246.405 10.516 246.533 10.28 246.621 10.008C246.709 9.736 246.753 9.432 246.753 9.096C246.753 8.76 246.709 8.456 246.621 8.184C246.533 7.904 246.405 7.664 246.237 7.464C246.077 7.264 245.881 7.112 245.649 7.008C245.425 6.896 245.173 6.84 244.893 6.84C244.613 6.84 244.357 6.896 244.125 7.008C243.901 7.112 243.705 7.264 243.537 7.464C243.377 7.664 243.253 7.904 243.165 8.184C243.077 8.456 243.033 8.76 243.033 9.096ZM249.208 6.168H249.976L250.06 6.936H250.096C250.24 6.664 250.408 6.444 250.6 6.276C250.8 6.108 251.068 6.024 251.404 6.024C251.996 6.024 252.364 6.36 252.508 7.032C252.684 6.728 252.876 6.484 253.084 6.3C253.292 6.116 253.56 6.024 253.888 6.024C254.296 6.024 254.608 6.18 254.824 6.492C255.048 6.796 255.16 7.24 255.16 7.824V12H254.212V7.908C254.212 7.22 254 6.876 253.576 6.876C253.368 6.876 253.188 6.952 253.036 7.104C252.884 7.248 252.732 7.472 252.58 7.776V12H251.788V7.908C251.788 7.22 251.568 6.876 251.128 6.876C250.92 6.876 250.744 6.952 250.6 7.104C250.456 7.248 250.308 7.472 250.156 7.776V12H249.208V6.168ZM256.656 10.488C256.656 10.16 256.732 9.876 256.884 9.636C257.044 9.388 257.292 9.176 257.628 9C257.972 8.824 258.412 8.68 258.948 8.568C259.484 8.456 260.128 8.368 260.88 8.304C260.872 8.104 260.84 7.916 260.784 7.74C260.728 7.564 260.64 7.412 260.52 7.284C260.4 7.148 260.24 7.04 260.04 6.96C259.848 6.88 259.612 6.84 259.332 6.84C258.948 6.84 258.58 6.916 258.228 7.068C257.876 7.212 257.564 7.368 257.292 7.536L256.908 6.864C257.052 6.768 257.22 6.672 257.412 6.576C257.612 6.472 257.82 6.38 258.036 6.3C258.26 6.22 258.496 6.156 258.744 6.108C258.992 6.052 259.244 6.024 259.5 6.024C260.3 6.024 260.892 6.244 261.276 6.684C261.668 7.116 261.864 7.696 261.864 8.424V12H261.06L260.976 11.208H260.94C260.612 11.464 260.248 11.684 259.848 11.868C259.456 12.052 259.052 12.144 258.636 12.144C258.364 12.144 258.108 12.104 257.868 12.024C257.628 11.952 257.416 11.848 257.232 11.712C257.056 11.568 256.916 11.396 256.812 11.196C256.708 10.988 256.656 10.752 256.656 10.488ZM257.616 10.416C257.616 10.584 257.652 10.728 257.724 10.848C257.796 10.96 257.888 11.056 258 11.136C258.12 11.208 258.256 11.264 258.408 11.304C258.568 11.336 258.732 11.352 258.9 11.352C259.236 11.352 259.564 11.28 259.884 11.136C260.212 10.984 260.544 10.768 260.88 10.488V8.952C260.256 9 259.732 9.068 259.308 9.156C258.892 9.244 258.556 9.352 258.3 9.48C258.052 9.6 257.876 9.74 257.772 9.9C257.668 10.052 257.616 10.224 257.616 10.416ZM263.995 6.168H264.811L264.895 7.164H264.943C265.247 6.836 265.575 6.564 265.927 6.348C266.279 6.132 266.683 6.024 267.139 6.024C267.835 6.024 268.343 6.224 268.663 6.624C268.991 7.016 269.155 7.6 269.155 8.376V12H268.171V8.508C268.171 7.956 268.067 7.548 267.859 7.284C267.651 7.012 267.307 6.876 266.827 6.876C266.651 6.876 266.487 6.9 266.335 6.948C266.191 6.988 266.047 7.052 265.903 7.14C265.759 7.228 265.611 7.34 265.459 7.476C265.307 7.604 265.147 7.756 264.979 7.932V12H263.995V6.168Z" fill="black"/>
<path d="M190.926 13.2H270.079V13.8H190.926V13.2Z" fill="black"/>
<rect y="30" width="134" height="66" fill="#C4C4C4"/>
<path d="M57.7441 44.9219C57.4277 45.3008 56.9805 45.5957 56.4023 45.8066C55.8242 46.0137 55.1836 46.1172 54.4805 46.1172C53.7422 46.1172 53.0938 45.957 52.5352 45.6367C51.9805 45.3125 51.5508 44.8438 51.2461 44.2305C50.9453 43.6172 50.791 42.8965 50.7832 42.0684V41.4883C50.7832 40.6367 50.9258 39.9004 51.2109 39.2793C51.5 38.6543 51.9141 38.1777 52.4531 37.8496C52.9961 37.5176 53.6309 37.3516 54.3574 37.3516C55.3691 37.3516 56.1602 37.5938 56.7305 38.0781C57.3008 38.5586 57.6387 39.2598 57.7441 40.1816H56.0332C55.9551 39.6934 55.7812 39.3359 55.5117 39.1094C55.2461 38.8828 54.8789 38.7695 54.4102 38.7695C53.8125 38.7695 53.3574 38.9941 53.0449 39.4434C52.7324 39.8926 52.5742 40.5605 52.5703 41.4473V41.9922C52.5703 42.8867 52.7402 43.5625 53.0801 44.0195C53.4199 44.4766 53.918 44.7051 54.5742 44.7051C55.2344 44.7051 55.7051 44.5645 55.9863 44.2832V42.8125H54.3867V41.5176H57.7441V44.9219ZM60.8496 46H59.1504V37H60.8496V46ZM61.9863 42.7715C61.9863 42.1426 62.1074 41.582 62.3496 41.0898C62.5918 40.5977 62.9395 40.2168 63.3926 39.9473C63.8496 39.6777 64.3789 39.543 64.9805 39.543C65.8359 39.543 66.5332 39.8047 67.0723 40.3281C67.6152 40.8516 67.918 41.5625 67.9805 42.4609L67.9922 42.8945C67.9922 43.8672 67.7207 44.6484 67.1777 45.2383C66.6348 45.8242 65.9062 46.1172 64.9922 46.1172C64.0781 46.1172 63.3477 45.8242 62.8008 45.2383C62.2578 44.6523 61.9863 43.8555 61.9863 42.8477V42.7715ZM63.6797 42.8945C63.6797 43.4961 63.793 43.957 64.0195 44.2773C64.2461 44.5938 64.5703 44.752 64.9922 44.752C65.4023 44.752 65.7227 44.5957 65.9531 44.2832C66.1836 43.9668 66.2988 43.4629 66.2988 42.7715C66.2988 42.1816 66.1836 41.7246 65.9531 41.4004C65.7227 41.0762 65.3984 40.9141 64.9805 40.9141C64.5664 40.9141 64.2461 41.0762 64.0195 41.4004C63.793 41.7207 63.6797 42.2188 63.6797 42.8945ZM74.748 42.8887C74.748 43.9043 74.5312 44.6973 74.0977 45.2676C73.6641 45.834 73.0586 46.1172 72.2812 46.1172C71.5938 46.1172 71.0449 45.8535 70.6348 45.3262L70.5586 46H69.0352V37H70.7285V40.2285C71.1191 39.7715 71.6328 39.543 72.2695 39.543C73.043 39.543 73.6484 39.8281 74.0859 40.3984C74.5273 40.9648 74.748 41.7637 74.748 42.7949V42.8887ZM73.0547 42.7656C73.0547 42.125 72.9531 41.6582 72.75 41.3652C72.5469 41.0684 72.2441 40.9199 71.8418 40.9199C71.3027 40.9199 70.9316 41.1406 70.7285 41.582V44.084C70.9355 44.5293 71.3105 44.752 71.8535 44.752C72.4004 44.752 72.7598 44.4824 72.9316 43.9434C73.0137 43.6855 73.0547 43.293 73.0547 42.7656ZM79.4707 46C79.3926 45.8477 79.3359 45.6582 79.3008 45.4316C78.8906 45.8887 78.3574 46.1172 77.7012 46.1172C77.0801 46.1172 76.5645 45.9375 76.1543 45.5781C75.748 45.2188 75.5449 44.7656 75.5449 44.2188C75.5449 43.5469 75.793 43.0312 76.2891 42.6719C76.7891 42.3125 77.5098 42.1309 78.4512 42.127H79.2305V41.7637C79.2305 41.4707 79.1543 41.2363 79.002 41.0605C78.8535 40.8848 78.6172 40.7969 78.293 40.7969C78.0078 40.7969 77.7832 40.8652 77.6191 41.002C77.459 41.1387 77.3789 41.3262 77.3789 41.5645H75.6855C75.6855 41.1973 75.7988 40.8574 76.0254 40.5449C76.252 40.2324 76.5723 39.9883 76.9863 39.8125C77.4004 39.6328 77.8652 39.543 78.3809 39.543C79.1621 39.543 79.7812 39.7402 80.2383 40.1348C80.6992 40.5254 80.9297 41.0762 80.9297 41.7871V44.5352C80.9336 45.1367 81.0176 45.5918 81.1816 45.9004V46H79.4707ZM78.0703 44.8223C78.3203 44.8223 78.5508 44.7676 78.7617 44.6582C78.9727 44.5449 79.1289 44.3945 79.2305 44.207V43.1172H78.5977C77.75 43.1172 77.2988 43.4102 77.2441 43.9961L77.2383 44.0957C77.2383 44.3066 77.3125 44.4805 77.4609 44.6172C77.6094 44.7539 77.8125 44.8223 78.0703 44.8223ZM84.0176 46H82.3184V37H84.0176V46Z" fill="black"/>
<path d="M23.6191 65.1172C22.7598 65.1172 22.0605 64.8359 21.5215 64.2734C20.9824 63.707 20.7129 62.9512 20.7129 62.0059V61.8066C20.7129 61.1777 20.832 60.6172 21.0703 60.125C21.3125 59.6289 21.6484 59.2422 22.0781 58.9648C22.5117 58.6836 22.9805 58.543 23.4844 58.543C24.3086 58.543 24.9492 58.8145 25.4062 59.3574C25.8633 59.9004 26.0918 60.6777 26.0918 61.6895V62.1406H21.7969C21.8125 62.7656 21.9941 63.2715 22.3418 63.6582C22.6934 64.041 23.1387 64.2324 23.6777 64.2324C24.0605 64.2324 24.3848 64.1543 24.6504 63.998C24.916 63.8418 25.1484 63.6348 25.3477 63.377L26.0098 63.8926C25.4785 64.709 24.6816 65.1172 23.6191 65.1172ZM23.4844 59.4336C23.0469 59.4336 22.6797 59.5938 22.3828 59.9141C22.0859 60.2305 21.9023 60.6758 21.832 61.25H25.0078V61.168C24.9766 60.6172 24.8281 60.1914 24.5625 59.8906C24.2969 59.5859 23.9375 59.4336 23.4844 59.4336ZM29.4785 60.9746L30.8848 58.6602H32.1504L30.0762 61.7949L32.2148 65H30.9609L29.4961 62.627L28.0312 65H26.7715L28.9102 61.7949L26.8359 58.6602H28.0898L29.4785 60.9746ZM35.8184 65.1172C34.959 65.1172 34.2598 64.8359 33.7207 64.2734C33.1816 63.707 32.9121 62.9512 32.9121 62.0059V61.8066C32.9121 61.1777 33.0312 60.6172 33.2695 60.125C33.5117 59.6289 33.8477 59.2422 34.2773 58.9648C34.7109 58.6836 35.1797 58.543 35.6836 58.543C36.5078 58.543 37.1484 58.8145 37.6055 59.3574C38.0625 59.9004 38.291 60.6777 38.291 61.6895V62.1406H33.9961C34.0117 62.7656 34.1934 63.2715 34.541 63.6582C34.8926 64.041 35.3379 64.2324 35.877 64.2324C36.2598 64.2324 36.584 64.1543 36.8496 63.998C37.1152 63.8418 37.3477 63.6348 37.5469 63.377L38.209 63.8926C37.6777 64.709 36.8809 65.1172 35.8184 65.1172ZM35.6836 59.4336C35.2461 59.4336 34.8789 59.5938 34.582 59.9141C34.2852 60.2305 34.1016 60.6758 34.0312 61.25H37.207V61.168C37.1758 60.6172 37.0273 60.1914 36.7617 59.8906C36.4961 59.5859 36.1367 59.4336 35.6836 59.4336ZM42.0938 64.2324C42.4805 64.2324 42.8184 64.1152 43.1074 63.8809C43.3965 63.6465 43.5566 63.3535 43.5879 63.002H44.6133C44.5938 63.3652 44.4688 63.7109 44.2383 64.0391C44.0078 64.3672 43.6992 64.6289 43.3125 64.8242C42.9297 65.0195 42.5234 65.1172 42.0938 65.1172C41.2305 65.1172 40.543 64.8301 40.0312 64.2559C39.5234 63.6777 39.2695 62.8887 39.2695 61.8887V61.707C39.2695 61.0898 39.3828 60.541 39.6094 60.0605C39.8359 59.5801 40.1602 59.207 40.582 58.9414C41.0078 58.6758 41.5098 58.543 42.0879 58.543C42.7988 58.543 43.3887 58.7559 43.8574 59.1816C44.3301 59.6074 44.582 60.1602 44.6133 60.8398H43.5879C43.5566 60.4297 43.4004 60.0938 43.1191 59.832C42.8418 59.5664 42.498 59.4336 42.0879 59.4336C41.5371 59.4336 41.1094 59.6328 40.8047 60.0312C40.5039 60.4258 40.3535 60.998 40.3535 61.748V61.9531C40.3535 62.6836 40.5039 63.2461 40.8047 63.6406C41.1055 64.0352 41.5352 64.2324 42.0938 64.2324ZM49.7461 64.373C49.3242 64.8691 48.7051 65.1172 47.8887 65.1172C47.2129 65.1172 46.6973 64.9219 46.3418 64.5312C45.9902 64.1367 45.8125 63.5547 45.8086 62.7852V58.6602H46.8926V62.7559C46.8926 63.7168 47.2832 64.1973 48.0645 64.1973C48.8926 64.1973 49.4434 63.8887 49.7168 63.2715V58.6602H50.8008V65H49.7695L49.7461 64.373ZM53.9238 57.125V58.6602H55.1074V59.498H53.9238V63.4297C53.9238 63.6836 53.9766 63.875 54.082 64.0039C54.1875 64.1289 54.3672 64.1914 54.6211 64.1914C54.7461 64.1914 54.918 64.168 55.1367 64.1211V65C54.8516 65.0781 54.5742 65.1172 54.3047 65.1172C53.8203 65.1172 53.4551 64.9707 53.209 64.6777C52.9629 64.3848 52.8398 63.9688 52.8398 63.4297V59.498H51.6855V58.6602H52.8398V57.125H53.9238ZM57.5566 65H56.4727V58.6602H57.5566V65ZM56.3848 56.9785C56.3848 56.8027 56.4375 56.6543 56.543 56.5332C56.6523 56.4121 56.8125 56.3516 57.0234 56.3516C57.2344 56.3516 57.3945 56.4121 57.5039 56.5332C57.6133 56.6543 57.668 56.8027 57.668 56.9785C57.668 57.1543 57.6133 57.3008 57.5039 57.418C57.3945 57.5352 57.2344 57.5938 57.0234 57.5938C56.8125 57.5938 56.6523 57.5352 56.543 57.418C56.4375 57.3008 56.3848 57.1543 56.3848 56.9785ZM59.0098 61.7715C59.0098 61.1504 59.1309 60.5918 59.373 60.0957C59.6191 59.5996 59.959 59.2168 60.3926 58.9473C60.8301 58.6777 61.3281 58.543 61.8867 58.543C62.75 58.543 63.4473 58.8418 63.9785 59.4395C64.5137 60.0371 64.7812 60.832 64.7812 61.8242V61.9004C64.7812 62.5176 64.6621 63.0723 64.4238 63.5645C64.1895 64.0527 63.8516 64.4336 63.4102 64.707C62.9727 64.9805 62.4688 65.1172 61.8984 65.1172C61.0391 65.1172 60.3418 64.8184 59.8066 64.2207C59.2754 63.623 59.0098 62.832 59.0098 61.8477V61.7715ZM60.0996 61.9004C60.0996 62.6035 60.2617 63.168 60.5859 63.5938C60.9141 64.0195 61.3516 64.2324 61.8984 64.2324C62.4492 64.2324 62.8867 64.0176 63.2109 63.5879C63.5352 63.1543 63.6973 62.5488 63.6973 61.7715C63.6973 61.0762 63.5312 60.5137 63.1992 60.084C62.8711 59.6504 62.4336 59.4336 61.8867 59.4336C61.3516 59.4336 60.9199 59.6465 60.5918 60.0723C60.2637 60.498 60.0996 61.1074 60.0996 61.9004ZM67.166 58.6602L67.2012 59.457C67.6855 58.8477 68.3184 58.543 69.0996 58.543C70.4395 58.543 71.1152 59.2988 71.127 60.8105V65H70.043V60.8047C70.0391 60.3477 69.9336 60.0098 69.7266 59.791C69.5234 59.5723 69.2051 59.4629 68.7715 59.4629C68.4199 59.4629 68.1113 59.5566 67.8457 59.7441C67.5801 59.9316 67.373 60.1777 67.2246 60.4824V65H66.1406V58.6602H67.166ZM78.2812 64.2324C78.668 64.2324 79.0059 64.1152 79.2949 63.8809C79.584 63.6465 79.7441 63.3535 79.7754 63.002H80.8008C80.7812 63.3652 80.6562 63.7109 80.4258 64.0391C80.1953 64.3672 79.8867 64.6289 79.5 64.8242C79.1172 65.0195 78.7109 65.1172 78.2812 65.1172C77.418 65.1172 76.7305 64.8301 76.2188 64.2559C75.7109 63.6777 75.457 62.8887 75.457 61.8887V61.707C75.457 61.0898 75.5703 60.541 75.7969 60.0605C76.0234 59.5801 76.3477 59.207 76.7695 58.9414C77.1953 58.6758 77.6973 58.543 78.2754 58.543C78.9863 58.543 79.5762 58.7559 80.0449 59.1816C80.5176 59.6074 80.7695 60.1602 80.8008 60.8398H79.7754C79.7441 60.4297 79.5879 60.0938 79.3066 59.832C79.0293 59.5664 78.6855 59.4336 78.2754 59.4336C77.7246 59.4336 77.2969 59.6328 76.9922 60.0312C76.6914 60.4258 76.541 60.998 76.541 61.748V61.9531C76.541 62.6836 76.6914 63.2461 76.9922 63.6406C77.293 64.0352 77.7227 64.2324 78.2812 64.2324ZM81.7324 61.7715C81.7324 61.1504 81.8535 60.5918 82.0957 60.0957C82.3418 59.5996 82.6816 59.2168 83.1152 58.9473C83.5527 58.6777 84.0508 58.543 84.6094 58.543C85.4727 58.543 86.1699 58.8418 86.7012 59.4395C87.2363 60.0371 87.5039 60.832 87.5039 61.8242V61.9004C87.5039 62.5176 87.3848 63.0723 87.1465 63.5645C86.9121 64.0527 86.5742 64.4336 86.1328 64.707C85.6953 64.9805 85.1914 65.1172 84.6211 65.1172C83.7617 65.1172 83.0645 64.8184 82.5293 64.2207C81.998 63.623 81.7324 62.832 81.7324 61.8477V61.7715ZM82.8223 61.9004C82.8223 62.6035 82.9844 63.168 83.3086 63.5938C83.6367 64.0195 84.0742 64.2324 84.6211 64.2324C85.1719 64.2324 85.6094 64.0176 85.9336 63.5879C86.2578 63.1543 86.4199 62.5488 86.4199 61.7715C86.4199 61.0762 86.2539 60.5137 85.9219 60.084C85.5938 59.6504 85.1562 59.4336 84.6094 59.4336C84.0742 59.4336 83.6426 59.6465 83.3145 60.0723C82.9863 60.498 82.8223 61.1074 82.8223 61.9004ZM89.8887 58.6602L89.9238 59.457C90.4082 58.8477 91.041 58.543 91.8223 58.543C93.1621 58.543 93.8379 59.2988 93.8496 60.8105V65H92.7656V60.8047C92.7617 60.3477 92.6562 60.0098 92.4492 59.791C92.2461 59.5723 91.9277 59.4629 91.4941 59.4629C91.1426 59.4629 90.834 59.5566 90.5684 59.7441C90.3027 59.9316 90.0957 60.1777 89.9473 60.4824V65H88.8633V58.6602H89.8887ZM96.9551 57.125V58.6602H98.1387V59.498H96.9551V63.4297C96.9551 63.6836 97.0078 63.875 97.1133 64.0039C97.2188 64.1289 97.3984 64.1914 97.6523 64.1914C97.7773 64.1914 97.9492 64.168 98.168 64.1211V65C97.8828 65.0781 97.6055 65.1172 97.3359 65.1172C96.8516 65.1172 96.4863 64.9707 96.2402 64.6777C95.9941 64.3848 95.8711 63.9688 95.8711 63.4297V59.498H94.7168V58.6602H95.8711V57.125H96.9551ZM102.041 65.1172C101.182 65.1172 100.482 64.8359 99.9434 64.2734C99.4043 63.707 99.1348 62.9512 99.1348 62.0059V61.8066C99.1348 61.1777 99.2539 60.6172 99.4922 60.125C99.7344 59.6289 100.07 59.2422 100.5 58.9648C100.934 58.6836 101.402 58.543 101.906 58.543C102.73 58.543 103.371 58.8145 103.828 59.3574C104.285 59.9004 104.514 60.6777 104.514 61.6895V62.1406H100.219C100.234 62.7656 100.416 63.2715 100.764 63.6582C101.115 64.041 101.561 64.2324 102.1 64.2324C102.482 64.2324 102.807 64.1543 103.072 63.998C103.338 63.8418 103.57 63.6348 103.77 63.377L104.432 63.8926C103.9 64.709 103.104 65.1172 102.041 65.1172ZM101.906 59.4336C101.469 59.4336 101.102 59.5938 100.805 59.9141C100.508 60.2305 100.324 60.6758 100.254 61.25H103.43V61.168C103.398 60.6172 103.25 60.1914 102.984 59.8906C102.719 59.5859 102.359 59.4336 101.906 59.4336ZM107.9 60.9746L109.307 58.6602H110.572L108.498 61.7949L110.637 65H109.383L107.918 62.627L106.453 65H105.193L107.332 61.7949L105.258 58.6602H106.512L107.9 60.9746ZM113.197 57.125V58.6602H114.381V59.498H113.197V63.4297C113.197 63.6836 113.25 63.875 113.355 64.0039C113.461 64.1289 113.641 64.1914 113.895 64.1914C114.02 64.1914 114.191 64.168 114.41 64.1211V65C114.125 65.0781 113.848 65.1172 113.578 65.1172C113.094 65.1172 112.729 64.9707 112.482 64.6777C112.236 64.3848 112.113 63.9688 112.113 63.4297V59.498H110.959V58.6602H112.113V57.125H113.197Z" fill="black"/>
<path d="M55.5814 79.972H53.9374V79.228L55.6174 79.168L55.7494 77.536H56.5654V79.168H59.4334V79.972H56.5654V82.744C56.5654 83.008 56.5894 83.24 56.6374 83.44C56.6854 83.632 56.7654 83.796 56.8774 83.932C56.9894 84.068 57.1414 84.172 57.3334 84.244C57.5254 84.308 57.7614 84.34 58.0414 84.34C58.3214 84.34 58.5734 84.316 58.7974 84.268C59.0214 84.22 59.2374 84.156 59.4454 84.076L59.6614 84.796C59.3974 84.892 59.1054 84.972 58.7854 85.036C58.4654 85.108 58.1454 85.144 57.8254 85.144C57.4014 85.144 57.0454 85.088 56.7574 84.976C56.4694 84.856 56.2374 84.692 56.0614 84.484C55.8934 84.268 55.7694 84.012 55.6894 83.716C55.6174 83.42 55.5814 83.092 55.5814 82.732V79.972ZM61.4207 76.456H62.4047V78.784L62.3567 80.164C62.6687 79.836 63.0007 79.564 63.3527 79.348C63.7047 79.132 64.1087 79.024 64.5647 79.024C65.2607 79.024 65.7687 79.224 66.0887 79.624C66.4167 80.016 66.5807 80.6 66.5807 81.376V85H65.5967V81.508C65.5967 80.956 65.4927 80.548 65.2847 80.284C65.0767 80.012 64.7327 79.876 64.2527 79.876C64.0767 79.876 63.9127 79.9 63.7607 79.948C63.6167 79.988 63.4727 80.052 63.3287 80.14C63.1847 80.228 63.0367 80.34 62.8847 80.476C62.7327 80.604 62.5727 80.756 62.4047 80.932V85H61.4207V76.456ZM68.58 79.168H72.276V85H71.292V79.972H68.58V79.168ZM71.676 77.968C71.444 77.968 71.252 77.9 71.1 77.764C70.956 77.628 70.884 77.444 70.884 77.212C70.884 76.98 70.956 76.796 71.1 76.66C71.252 76.516 71.444 76.444 71.676 76.444C71.9 76.444 72.088 76.516 72.24 76.66C72.392 76.796 72.468 76.98 72.468 77.212C72.468 77.444 72.392 77.628 72.24 77.764C72.088 77.9 71.9 77.968 71.676 77.968ZM76.0393 83.584C76.3673 83.824 76.7193 84.016 77.0953 84.16C77.4713 84.304 77.9233 84.376 78.4513 84.376C78.9793 84.376 79.3713 84.288 79.6273 84.112C79.8833 83.936 80.0113 83.72 80.0113 83.464C80.0113 83.24 79.8713 83.04 79.5913 82.864C79.3193 82.688 78.8273 82.512 78.1153 82.336C77.8113 82.264 77.5233 82.176 77.2513 82.072C76.9873 81.968 76.7553 81.848 76.5553 81.712C76.3553 81.568 76.1953 81.412 76.0753 81.244C75.9553 81.076 75.8953 80.888 75.8953 80.68C75.8953 80.448 75.9473 80.232 76.0513 80.032C76.1553 79.824 76.3073 79.648 76.5073 79.504C76.7153 79.352 76.9713 79.236 77.2753 79.156C77.5873 79.068 77.9433 79.024 78.3433 79.024C78.7833 79.024 79.2113 79.1 79.6273 79.252C80.0433 79.396 80.3953 79.568 80.6833 79.768L80.2033 80.404C79.9473 80.22 79.6633 80.072 79.3513 79.96C79.0393 79.848 78.7033 79.792 78.3433 79.792C78.0713 79.792 77.8433 79.816 77.6593 79.864C77.4753 79.904 77.3273 79.964 77.2153 80.044C77.1033 80.116 77.0233 80.204 76.9753 80.308C76.9273 80.412 76.9033 80.52 76.9033 80.632C76.9033 80.872 77.0673 81.072 77.3953 81.232C77.7233 81.384 78.1513 81.528 78.6793 81.664C79.4713 81.864 80.0553 82.092 80.4313 82.348C80.8153 82.604 81.0073 82.956 81.0073 83.404C81.0073 83.644 80.9513 83.868 80.8393 84.076C80.7273 84.284 80.5593 84.468 80.3353 84.628C80.1193 84.788 79.8473 84.912 79.5193 85C79.1993 85.096 78.8313 85.144 78.4153 85.144C77.8393 85.144 77.3073 85.056 76.8193 84.88C76.3393 84.696 75.9193 84.48 75.5593 84.232L76.0393 83.584Z" fill="black"/>
<path d="M199.354 83.3536C199.549 83.1583 199.549 82.8417 199.354 82.6464L196.172 79.4645C195.976 79.2692 195.66 79.2692 195.464 79.4645C195.269 79.6597 195.269 79.9763 195.464 80.1716L198.293 83L195.464 85.8284C195.269 86.0237 195.269 86.3403 195.464 86.5355C195.66 86.7308 195.976 86.7308 196.172 86.5355L199.354 83.3536ZM85 83.5H199V82.5H85V83.5Z" fill="#B5B5B5"/>
<path d="M199.354 82.3536C199.549 82.1583 199.549 81.8417 199.354 81.6464L196.172 78.4645C195.976 78.2692 195.66 78.2692 195.464 78.4645C195.269 78.6597 195.269 78.9763 195.464 79.1716L198.293 82L195.464 84.8284C195.269 85.0237 195.269 85.3403 195.464 85.5355C195.66 85.7308 195.976 85.7308 196.172 85.5355L199.354 82.3536ZM85 82.5H199V81.5H85V82.5Z" fill="black"/>
</svg>
