<svg width="277" height="135" viewBox="0 0 277 135" fill="none" xmlns="http://www.w3.org/2000/svg">
<rect x="184" y="104" width="93" height="31" fill="#C4C4C4"/>
<path d="M209.51 110.168H210.518L211.226 113.54C211.282 113.82 211.334 114.092 211.382 114.356C211.43 114.62 211.474 114.888 211.514 115.16H211.562C211.618 114.888 211.674 114.62 211.73 114.356C211.786 114.084 211.846 113.812 211.91 113.54L212.618 110.516H213.458L214.178 113.54C214.242 113.82 214.302 114.092 214.358 114.356C214.414 114.62 214.474 114.888 214.538 115.16H214.586C214.642 114.888 214.69 114.62 214.73 114.356C214.778 114.092 214.826 113.82 214.874 113.54L215.582 110.168H216.518L215.246 116H214.058L213.362 113.048C213.306 112.768 213.254 112.492 213.206 112.22C213.158 111.94 213.102 111.652 213.038 111.356H212.99C212.942 111.612 212.894 111.876 212.846 112.148C212.798 112.42 212.738 112.724 212.666 113.06L211.994 116H210.818L209.51 110.168ZM217.689 110.168H221.385V116H220.401V110.972H217.689V110.168ZM220.785 108.968C220.553 108.968 220.361 108.9 220.209 108.764C220.065 108.628 219.993 108.444 219.993 108.212C219.993 107.98 220.065 107.796 220.209 107.66C220.361 107.516 220.553 107.444 220.785 107.444C221.009 107.444 221.197 107.516 221.349 107.66C221.501 107.796 221.577 107.98 221.577 108.212C221.577 108.444 221.501 108.628 221.349 108.764C221.197 108.9 221.009 108.968 220.785 108.968ZM224.921 110.168H225.737L225.821 111.164H225.869C226.173 110.836 226.501 110.564 226.853 110.348C227.205 110.132 227.609 110.024 228.065 110.024C228.761 110.024 229.269 110.224 229.589 110.624C229.917 111.016 230.081 111.6 230.081 112.376V116H229.097V112.508C229.097 111.956 228.993 111.548 228.785 111.284C228.577 111.012 228.233 110.876 227.753 110.876C227.577 110.876 227.413 110.9 227.261 110.948C227.117 110.988 226.973 111.052 226.829 111.14C226.685 111.228 226.537 111.34 226.385 111.476C226.233 111.604 226.073 111.756 225.905 111.932V116H224.921V110.168ZM231.72 113.096C231.72 112.624 231.792 112.2 231.936 111.824C232.088 111.44 232.284 111.116 232.524 110.852C232.772 110.588 233.056 110.384 233.376 110.24C233.696 110.096 234.028 110.024 234.372 110.024C234.732 110.024 235.048 110.092 235.32 110.228C235.592 110.364 235.864 110.548 236.136 110.78L236.1 109.7V107.456H237.084V116H236.268L236.184 115.232H236.148C235.908 115.48 235.62 115.696 235.284 115.88C234.956 116.056 234.612 116.144 234.252 116.144C233.868 116.144 233.52 116.076 233.208 115.94C232.904 115.804 232.64 115.608 232.416 115.352C232.192 115.088 232.02 114.768 231.9 114.392C231.78 114.016 231.72 113.584 231.72 113.096ZM232.74 113.084C232.74 113.788 232.888 114.336 233.184 114.728C233.488 115.12 233.912 115.316 234.456 115.316C235.032 115.316 235.58 115.024 236.1 114.44V111.536C235.836 111.288 235.576 111.112 235.32 111.008C235.072 110.904 234.82 110.852 234.564 110.852C234.308 110.852 234.068 110.908 233.844 111.02C233.628 111.124 233.436 111.276 233.268 111.476C233.108 111.668 232.98 111.9 232.884 112.172C232.788 112.444 232.74 112.748 232.74 113.084ZM238.915 113.096C238.915 112.608 238.991 112.176 239.143 111.8C239.303 111.416 239.515 111.092 239.779 110.828C240.043 110.564 240.347 110.364 240.691 110.228C241.043 110.092 241.411 110.024 241.795 110.024C242.179 110.024 242.543 110.092 242.887 110.228C243.239 110.364 243.547 110.564 243.811 110.828C244.075 111.092 244.283 111.416 244.435 111.8C244.595 112.176 244.675 112.608 244.675 113.096C244.675 113.576 244.595 114.008 244.435 114.392C244.283 114.768 244.075 115.088 243.811 115.352C243.547 115.608 243.239 115.804 242.887 115.94C242.543 116.076 242.179 116.144 241.795 116.144C241.411 116.144 241.043 116.076 240.691 115.94C240.347 115.804 240.043 115.608 239.779 115.352C239.515 115.088 239.303 114.768 239.143 114.392C238.991 114.008 238.915 113.576 238.915 113.096ZM239.935 113.096C239.935 113.432 239.979 113.736 240.067 114.008C240.155 114.28 240.279 114.516 240.439 114.716C240.607 114.908 240.803 115.06 241.027 115.172C241.259 115.276 241.515 115.328 241.795 115.328C242.075 115.328 242.327 115.276 242.551 115.172C242.783 115.06 242.979 114.908 243.139 114.716C243.307 114.516 243.435 114.28 243.523 114.008C243.611 113.736 243.655 113.432 243.655 113.096C243.655 112.76 243.611 112.456 243.523 112.184C243.435 111.904 243.307 111.664 243.139 111.464C242.979 111.264 242.783 111.112 242.551 111.008C242.327 110.896 242.075 110.84 241.795 110.84C241.515 110.84 241.259 110.896 241.027 111.008C240.803 111.112 240.607 111.264 240.439 111.464C240.279 111.664 240.155 111.904 240.067 112.184C239.979 112.456 239.935 112.76 239.935 113.096ZM245.487 110.168H246.495L247.203 113.54C247.259 113.82 247.311 114.092 247.359 114.356C247.407 114.62 247.451 114.888 247.491 115.16H247.539C247.595 114.888 247.651 114.62 247.707 114.356C247.763 114.084 247.823 113.812 247.887 113.54L248.595 110.516H249.435L250.155 113.54C250.219 113.82 250.279 114.092 250.335 114.356C250.391 114.62 250.451 114.888 250.515 115.16H250.563C250.619 114.888 250.667 114.62 250.707 114.356C250.755 114.092 250.803 113.82 250.851 113.54L251.559 110.168H252.495L251.223 116H250.035L249.339 113.048C249.283 112.768 249.231 112.492 249.183 112.22C249.135 111.94 249.079 111.652 249.015 111.356H248.967C248.919 111.612 248.871 111.876 248.823 112.148C248.775 112.42 248.715 112.724 248.643 113.06L247.971 116H246.795L245.487 110.168Z" fill="black"/>
<path d="M209.414 117.2H252.591V117.8H209.414V117.2Z" fill="black"/>
<rect x="184" y="39" width="93" height="37" fill="#C4C4C4"/>
<path d="M187.96 60.2413H190.728V63.9693C190.728 64.2093 190.699 64.4386 190.64 64.6573C190.587 64.876 190.488 65.068 190.344 65.2333C190.205 65.3986 190.016 65.5293 189.776 65.6253C189.541 65.7266 189.245 65.7773 188.888 65.7773C188.643 65.7773 188.419 65.7506 188.216 65.6973C188.019 65.6493 187.835 65.5853 187.664 65.5053L188.008 64.6653C188.168 64.74 188.312 64.7906 188.44 64.8173C188.573 64.844 188.699 64.8573 188.816 64.8573C189.099 64.8573 189.291 64.788 189.392 64.6493C189.499 64.516 189.552 64.3053 189.552 64.0173V61.1613H187.96V60.2413ZM190.088 59.6573C189.859 59.6573 189.669 59.5933 189.52 59.4653C189.376 59.3373 189.304 59.164 189.304 58.9453C189.304 58.7266 189.376 58.5506 189.52 58.4173C189.669 58.2786 189.859 58.2093 190.088 58.2093C190.317 58.2093 190.504 58.2786 190.648 58.4173C190.797 58.5506 190.872 58.7266 190.872 58.9453C190.872 59.164 190.797 59.3373 190.648 59.4653C190.504 59.5933 190.317 59.6573 190.088 59.6573ZM192.501 62.2253C192.501 61.8946 192.557 61.6013 192.669 61.3453C192.781 61.084 192.93 60.8653 193.117 60.6893C193.309 60.5133 193.525 60.38 193.765 60.2893C194.01 60.1933 194.264 60.1453 194.525 60.1453C194.786 60.1453 195.037 60.1933 195.277 60.2893C195.522 60.38 195.738 60.5133 195.925 60.6893C196.117 60.8653 196.269 61.084 196.381 61.3453C196.493 61.6013 196.549 61.8946 196.549 62.2253C196.549 62.556 196.493 62.852 196.381 63.1133C196.269 63.3693 196.117 63.5853 195.925 63.7613C195.738 63.9373 195.522 64.0733 195.277 64.1693C195.037 64.26 194.786 64.3053 194.525 64.3053C194.264 64.3053 194.01 64.26 193.765 64.1693C193.525 64.0733 193.309 63.9373 193.117 63.7613C192.93 63.5853 192.781 63.3693 192.669 63.1133C192.557 62.852 192.501 62.556 192.501 62.2253ZM193.709 62.2253C193.709 62.572 193.776 62.8466 193.909 63.0493C194.048 63.252 194.253 63.3533 194.525 63.3533C194.797 63.3533 195 63.252 195.133 63.0493C195.272 62.8466 195.341 62.572 195.341 62.2253C195.341 61.8786 195.272 61.604 195.133 61.4013C195 61.1986 194.797 61.0973 194.525 61.0973C194.253 61.0973 194.048 61.1986 193.909 61.4013C193.776 61.604 193.709 61.8786 193.709 62.2253ZM197.498 58.6013H198.674V59.9773L198.642 60.6013C198.797 60.4573 198.97 60.3453 199.162 60.2653C199.359 60.1853 199.554 60.1453 199.746 60.1453C199.991 60.1453 200.213 60.1933 200.41 60.2893C200.613 60.3853 200.781 60.5213 200.914 60.6973C201.053 60.868 201.159 61.0786 201.234 61.3293C201.309 61.5746 201.346 61.8493 201.346 62.1533C201.346 62.4946 201.298 62.7986 201.202 63.0653C201.106 63.332 200.978 63.5586 200.818 63.7453C200.658 63.9266 200.474 64.0653 200.266 64.1613C200.063 64.2573 199.85 64.3053 199.626 64.3053C199.439 64.3053 199.253 64.26 199.066 64.1693C198.885 64.0786 198.711 63.948 198.546 63.7773H198.514L198.418 64.2093H197.498V58.6013ZM198.674 63.0813C198.786 63.1773 198.901 63.2466 199.018 63.2893C199.141 63.3266 199.255 63.3453 199.362 63.3453C199.581 63.3453 199.765 63.2546 199.914 63.0733C200.063 62.8866 200.138 62.588 200.138 62.1773C200.138 61.4626 199.895 61.1053 199.41 61.1053C199.159 61.1053 198.914 61.228 198.674 61.4733V63.0813ZM203.191 60.7853C203.191 60.652 203.212 60.5293 203.255 60.4173C203.303 60.3 203.367 60.1986 203.447 60.1133C203.527 60.028 203.623 59.9613 203.735 59.9133C203.852 59.8653 203.98 59.8413 204.119 59.8413C204.257 59.8413 204.383 59.8653 204.495 59.9133C204.612 59.9613 204.711 60.028 204.791 60.1133C204.871 60.1986 204.932 60.3 204.975 60.4173C205.023 60.5293 205.047 60.652 205.047 60.7853C205.047 61.052 204.961 61.276 204.791 61.4573C204.62 61.6333 204.396 61.7213 204.119 61.7213C203.841 61.7213 203.617 61.6333 203.447 61.4573C203.276 61.276 203.191 61.052 203.191 60.7853ZM203.191 63.3693C203.191 63.236 203.212 63.1133 203.255 63.0013C203.303 62.884 203.367 62.7826 203.447 62.6973C203.527 62.612 203.623 62.5453 203.735 62.4973C203.852 62.4493 203.98 62.4253 204.119 62.4253C204.257 62.4253 204.383 62.4493 204.495 62.4973C204.612 62.5453 204.711 62.612 204.791 62.6973C204.871 62.7826 204.932 62.884 204.975 63.0013C205.023 63.1133 205.047 63.236 205.047 63.3693C205.047 63.636 204.961 63.86 204.791 64.0413C204.62 64.2173 204.396 64.3053 204.119 64.3053C203.841 64.3053 203.617 64.2173 203.447 64.0413C203.276 63.86 203.191 63.636 203.191 63.3693ZM213.433 59.2573C213.15 59.3853 212.934 59.54 212.785 59.7213C212.641 59.9026 212.558 60.1213 212.537 60.3773C212.59 60.3613 212.646 60.3533 212.705 60.3533C212.918 60.3533 213.091 60.42 213.225 60.5533C213.363 60.6813 213.433 60.8573 213.433 61.0813C213.433 61.3266 213.361 61.524 213.217 61.6733C213.073 61.8173 212.889 61.8893 212.665 61.8893C212.366 61.8893 212.134 61.7773 211.969 61.5533C211.809 61.3293 211.729 61.0146 211.729 60.6093C211.729 60.172 211.843 59.788 212.073 59.4573C212.307 59.1213 212.659 58.8466 213.129 58.6333L213.433 59.2573ZM215.553 59.2573C215.27 59.3853 215.054 59.54 214.905 59.7213C214.761 59.9026 214.678 60.1213 214.657 60.3773C214.71 60.3613 214.766 60.3533 214.825 60.3533C215.038 60.3533 215.211 60.42 215.345 60.5533C215.483 60.6813 215.553 60.8573 215.553 61.0813C215.553 61.3266 215.481 61.524 215.337 61.6733C215.193 61.8173 215.009 61.8893 214.785 61.8893C214.486 61.8893 214.254 61.7773 214.089 61.5533C213.929 61.3293 213.849 61.0146 213.849 60.6093C213.849 60.172 213.963 59.788 214.193 59.4573C214.427 59.1213 214.779 58.8466 215.249 58.6333L215.553 59.2573ZM220.565 59.5853C220.304 59.484 220.027 59.4333 219.733 59.4333C219.477 59.4333 219.288 59.4893 219.165 59.6013C219.048 59.7133 218.989 59.8893 218.989 60.1293V60.2413H220.357V61.1613H218.989V64.2093H217.813V61.1613H216.765V60.2893L217.813 60.2413V60.1373C217.813 59.908 217.848 59.6946 217.917 59.4973C217.987 59.3 218.093 59.1293 218.237 58.9853C218.381 58.836 218.565 58.7186 218.789 58.6333C219.013 58.548 219.28 58.5053 219.589 58.5053C219.819 58.5053 220.032 58.5266 220.229 58.5693C220.432 58.612 220.619 58.6626 220.789 58.7213L220.565 59.5853ZM221.538 60.2413H224.306V64.2093H223.13V61.1613H221.538V60.2413ZM223.666 59.6573C223.437 59.6573 223.248 59.5933 223.098 59.4653C222.954 59.3373 222.882 59.164 222.882 58.9453C222.882 58.7266 222.954 58.5506 223.098 58.4173C223.248 58.2786 223.437 58.2093 223.666 58.2093C223.896 58.2093 224.082 58.2786 224.226 58.4173C224.376 58.5506 224.45 58.7266 224.45 58.9453C224.45 59.164 224.376 59.3373 224.226 59.4653C224.082 59.5933 223.896 59.6573 223.666 59.6573ZM227.079 64.7053C227.079 64.8546 227.167 64.9666 227.343 65.0413C227.524 65.1213 227.772 65.1613 228.087 65.1613C228.407 65.1613 228.666 65.1133 228.863 65.0173C229.06 64.9266 229.159 64.812 229.159 64.6733C229.159 64.5453 229.1 64.46 228.983 64.4173C228.866 64.38 228.692 64.3613 228.463 64.3613H227.967C227.823 64.3613 227.703 64.356 227.607 64.3453C227.516 64.34 227.434 64.3293 227.359 64.3133C227.258 64.3773 227.186 64.4386 227.143 64.4973C227.1 64.5613 227.079 64.6306 227.079 64.7053ZM226.119 64.8813C226.119 64.556 226.324 64.292 226.735 64.0893V64.0573C226.628 63.988 226.535 63.9 226.455 63.7933C226.375 63.6866 226.335 63.548 226.335 63.3773C226.335 63.244 226.378 63.1106 226.463 62.9773C226.554 62.844 226.668 62.7293 226.807 62.6333V62.6013C226.663 62.5053 226.54 62.372 226.439 62.2013C226.338 62.0253 226.287 61.82 226.287 61.5853C226.287 61.3453 226.332 61.1373 226.423 60.9613C226.519 60.78 226.644 60.6306 226.799 60.5133C226.954 60.3906 227.132 60.3 227.335 60.2413C227.543 60.1773 227.759 60.1453 227.983 60.1453C228.228 60.1453 228.447 60.1773 228.639 60.2413H230.247V61.0973H229.439C229.487 61.156 229.53 61.2333 229.567 61.3293C229.604 61.42 229.623 61.5186 229.623 61.6253C229.623 61.8546 229.58 62.052 229.495 62.2173C229.41 62.3826 229.292 62.5213 229.143 62.6333C228.999 62.74 228.826 62.82 228.623 62.8733C228.426 62.9266 228.212 62.9533 227.983 62.9533C227.812 62.9533 227.631 62.9266 227.439 62.8733C227.38 62.916 227.335 62.9586 227.303 63.0013C227.276 63.044 227.263 63.0973 227.263 63.1613C227.263 63.268 227.316 63.3453 227.423 63.3933C227.53 63.4413 227.7 63.4653 227.935 63.4653H228.671C229.194 63.4653 229.591 63.5426 229.863 63.6973C230.14 63.852 230.279 64.108 230.279 64.4653C230.279 64.6733 230.223 64.8653 230.111 65.0413C229.999 65.2173 229.842 65.3666 229.639 65.4893C229.436 65.6173 229.188 65.716 228.895 65.7853C228.602 65.86 228.276 65.8973 227.919 65.8973C227.663 65.8973 227.423 65.876 227.199 65.8333C226.98 65.796 226.791 65.7346 226.631 65.6493C226.471 65.5693 226.346 65.4653 226.255 65.3373C226.164 65.2093 226.119 65.0573 226.119 64.8813ZM227.983 62.2413C228.148 62.2413 228.29 62.188 228.407 62.0813C228.53 61.9693 228.591 61.804 228.591 61.5853C228.591 61.372 228.53 61.212 228.407 61.1053C228.29 60.9933 228.148 60.9373 227.983 60.9373C227.818 60.9373 227.676 60.9933 227.559 61.1053C227.447 61.212 227.391 61.372 227.391 61.5853C227.391 61.804 227.447 61.9693 227.559 62.0813C227.676 62.188 227.818 62.2413 227.983 62.2413ZM231.076 58.6013H232.252V59.9773L232.188 60.7373C232.268 60.6626 232.353 60.5906 232.444 60.5213C232.54 60.4466 232.641 60.3826 232.748 60.3293C232.86 60.2706 232.98 60.2253 233.108 60.1933C233.241 60.1613 233.383 60.1453 233.532 60.1453C233.98 60.1453 234.305 60.2893 234.508 60.5773C234.716 60.8653 234.82 61.26 234.82 61.7613V64.2093H233.644V61.9133C233.644 61.6466 233.601 61.452 233.516 61.3293C233.431 61.2066 233.279 61.1453 233.06 61.1453C232.9 61.1453 232.759 61.18 232.636 61.2493C232.519 61.3186 232.391 61.4226 232.252 61.5613V64.2093H231.076V58.6013ZM236.689 61.1613H235.689V60.2893L236.745 60.2413L236.897 59.1853H237.865V60.2413H239.545V61.1613H237.865V62.5533C237.865 62.8573 237.932 63.0733 238.065 63.2013C238.198 63.324 238.409 63.3853 238.697 63.3853C238.852 63.3853 238.993 63.372 239.121 63.3453C239.249 63.3186 239.372 63.284 239.489 63.2413L239.697 64.0893C239.521 64.1426 239.324 64.1906 239.105 64.2333C238.892 64.2813 238.657 64.3053 238.401 64.3053C238.086 64.3053 237.82 64.2626 237.601 64.1773C237.382 64.092 237.204 63.9746 237.065 63.8253C236.932 63.6706 236.836 63.4866 236.777 63.2733C236.718 63.06 236.689 62.8226 236.689 62.5613V61.1613ZM245.427 62.2253C245.427 61.8946 245.488 61.6013 245.611 61.3453C245.739 61.084 245.907 60.8653 246.115 60.6893C246.328 60.5133 246.573 60.38 246.851 60.2893C247.128 60.1933 247.419 60.1453 247.723 60.1453C248.037 60.1453 248.32 60.196 248.571 60.2973C248.827 60.3986 249.04 60.5266 249.211 60.6813L248.667 61.4093C248.373 61.2013 248.08 61.0973 247.787 61.0973C247.445 61.0973 247.168 61.1986 246.955 61.4013C246.741 61.604 246.635 61.8786 246.635 62.2253C246.635 62.572 246.736 62.8466 246.939 63.0493C247.147 63.252 247.416 63.3533 247.747 63.3533C247.955 63.3533 248.147 63.316 248.323 63.2413C248.499 63.1666 248.656 63.0786 248.795 62.9773L249.275 63.7213C249.035 63.924 248.768 64.0733 248.475 64.1693C248.187 64.26 247.907 64.3053 247.635 64.3053C247.32 64.3053 247.029 64.26 246.763 64.1693C246.496 64.0733 246.261 63.9373 246.059 63.7613C245.861 63.5853 245.707 63.3693 245.595 63.1133C245.483 62.852 245.427 62.556 245.427 62.2253ZM250.616 60.2413H251.576L251.672 61.1053H251.696C251.893 60.78 252.13 60.54 252.408 60.3853C252.685 60.2253 252.984 60.1453 253.304 60.1453C253.48 60.1453 253.621 60.1586 253.727 60.1853C253.84 60.212 253.954 60.252 254.072 60.3053L253.832 61.2893C253.709 61.252 253.597 61.2253 253.496 61.2093C253.4 61.188 253.277 61.1773 253.128 61.1773C252.882 61.1773 252.64 61.2493 252.4 61.3933C252.165 61.5373 251.962 61.788 251.792 62.1453V64.2093H250.616V60.2413ZM255.116 60.2413H257.884V64.2093H256.708V61.1613H255.116V60.2413ZM257.244 59.6573C257.015 59.6573 256.826 59.5933 256.676 59.4653C256.532 59.3373 256.46 59.164 256.46 58.9453C256.46 58.7266 256.532 58.5506 256.676 58.4173C256.826 58.2786 257.015 58.2093 257.244 58.2093C257.474 58.2093 257.66 58.2786 257.804 58.4173C257.954 58.5506 258.028 58.7266 258.028 58.9453C258.028 59.164 257.954 59.3373 257.804 59.4653C257.66 59.5933 257.474 59.6573 257.244 59.6573ZM259.569 60.2413H260.449L260.537 60.7373H260.569C260.644 60.572 260.745 60.4333 260.873 60.3213C261.007 60.204 261.188 60.1453 261.417 60.1453C261.593 60.1453 261.74 60.2013 261.857 60.3133C261.98 60.42 262.065 60.58 262.113 60.7933C262.188 60.612 262.295 60.46 262.433 60.3373C262.577 60.2093 262.761 60.1453 262.985 60.1453C263.263 60.1453 263.479 60.26 263.633 60.4893C263.788 60.7133 263.865 61.0253 263.865 61.4253V64.2093H262.761V61.5133C262.761 61.268 262.687 61.1453 262.537 61.1453C262.393 61.1453 262.271 61.2733 262.169 61.5293V64.2093H261.265V61.5133C261.265 61.268 261.188 61.1453 261.033 61.1453C260.959 61.1453 260.895 61.1773 260.841 61.2413C260.788 61.3053 260.732 61.4013 260.673 61.5293V64.2093H259.569V60.2413ZM264.518 62.2253C264.518 61.9 264.574 61.6093 264.686 61.3533C264.803 61.0973 264.958 60.8813 265.15 60.7053C265.342 60.524 265.561 60.3853 265.806 60.2893C266.057 60.1933 266.315 60.1453 266.582 60.1453C266.886 60.1453 267.155 60.1933 267.39 60.2893C267.625 60.3853 267.819 60.5186 267.974 60.6893C268.129 60.86 268.246 61.0626 268.326 61.2973C268.406 61.5266 268.446 61.7773 268.446 62.0493C268.446 62.156 268.441 62.2573 268.43 62.3533C268.419 62.4493 268.409 62.5213 268.398 62.5693H265.726C265.769 62.868 265.897 63.084 266.11 63.2173C266.329 63.3453 266.585 63.4093 266.878 63.4093C267.059 63.4093 267.23 63.388 267.39 63.3453C267.555 63.2973 267.726 63.228 267.902 63.1373L268.286 63.8413C268.062 63.9853 267.811 64.1 267.534 64.1853C267.257 64.2653 266.985 64.3053 266.718 64.3053C266.409 64.3053 266.121 64.26 265.854 64.1693C265.587 64.0733 265.355 63.9373 265.158 63.7613C264.961 63.58 264.803 63.3613 264.686 63.1053C264.574 62.8493 264.518 62.556 264.518 62.2253ZM267.382 61.7933C267.382 61.5693 267.321 61.388 267.198 61.2493C267.075 61.1106 266.878 61.0413 266.606 61.0413C266.393 61.0413 266.203 61.1026 266.038 61.2253C265.873 61.348 265.763 61.5373 265.71 61.7933H267.382ZM269.435 61.2653C269.995 61.0146 270.294 60.644 270.331 60.1533C270.272 60.1693 270.219 60.1773 270.171 60.1773C269.952 60.1773 269.774 60.1106 269.635 59.9773C269.502 59.844 269.435 59.6653 269.435 59.4413C269.435 59.196 269.507 59.0013 269.651 58.8573C269.795 58.708 269.979 58.6333 270.203 58.6333C270.507 58.6333 270.739 58.748 270.899 58.9773C271.059 59.2013 271.139 59.5133 271.139 59.9133C271.139 60.3506 271.024 60.7373 270.795 61.0733C270.566 61.404 270.216 61.676 269.747 61.8893L269.435 61.2653ZM271.555 61.2653C272.115 61.0146 272.414 60.644 272.451 60.1533C272.392 60.1693 272.339 60.1773 272.291 60.1773C272.072 60.1773 271.894 60.1106 271.755 59.9773C271.622 59.844 271.555 59.6653 271.555 59.4413C271.555 59.196 271.627 59.0013 271.771 58.8573C271.915 58.708 272.099 58.6333 272.323 58.6333C272.627 58.6333 272.859 58.748 273.019 58.9773C273.179 59.2013 273.259 59.5133 273.259 59.9133C273.259 60.3506 273.144 60.7373 272.915 61.0733C272.686 61.404 272.336 61.676 271.867 61.8893L271.555 61.2653Z" fill="black"/>
<path d="M196.139 45.168H196.955L197.039 46.164H197.087C197.391 45.836 197.719 45.564 198.071 45.348C198.423 45.132 198.827 45.024 199.283 45.024C199.979 45.024 200.487 45.224 200.807 45.624C201.135 46.016 201.299 46.6 201.299 47.376V51H200.315V47.508C200.315 46.956 200.211 46.548 200.003 46.284C199.795 46.012 199.451 45.876 198.971 45.876C198.795 45.876 198.631 45.9 198.479 45.948C198.335 45.988 198.191 46.052 198.047 46.14C197.903 46.228 197.755 46.34 197.603 46.476C197.451 46.604 197.291 46.756 197.123 46.932V51H196.139V45.168ZM203.047 48.096C203.047 47.616 203.131 47.188 203.299 46.812C203.467 46.428 203.687 46.104 203.959 45.84C204.239 45.576 204.555 45.376 204.907 45.24C205.267 45.096 205.635 45.024 206.011 45.024C206.427 45.024 206.799 45.092 207.127 45.228C207.455 45.356 207.731 45.54 207.955 45.78C208.187 46.02 208.363 46.308 208.483 46.644C208.603 46.98 208.663 47.352 208.663 47.76C208.663 47.864 208.659 47.968 208.651 48.072C208.651 48.168 208.643 48.252 208.627 48.324H204.067C204.075 48.636 204.135 48.916 204.247 49.164C204.367 49.412 204.523 49.624 204.715 49.8C204.915 49.976 205.147 50.112 205.411 50.208C205.683 50.304 205.979 50.352 206.299 50.352C206.643 50.352 206.955 50.304 207.235 50.208C207.523 50.112 207.803 49.98 208.075 49.812L208.423 50.46C208.135 50.644 207.807 50.804 207.439 50.94C207.071 51.076 206.651 51.144 206.179 51.144C205.747 51.144 205.339 51.076 204.955 50.94C204.579 50.796 204.247 50.596 203.959 50.34C203.679 50.076 203.455 49.756 203.287 49.38C203.127 49.004 203.047 48.576 203.047 48.096ZM207.751 47.616C207.751 47.032 207.599 46.584 207.295 46.272C206.991 45.96 206.567 45.804 206.023 45.804C205.783 45.804 205.551 45.844 205.327 45.924C205.111 46.004 204.915 46.124 204.739 46.284C204.563 46.436 204.415 46.624 204.295 46.848C204.175 47.072 204.095 47.328 204.055 47.616H207.751ZM209.51 45.168H210.518L211.226 48.54C211.282 48.82 211.334 49.092 211.382 49.356C211.43 49.62 211.474 49.888 211.514 50.16H211.562C211.618 49.888 211.674 49.62 211.73 49.356C211.786 49.084 211.846 48.812 211.91 48.54L212.618 45.516H213.458L214.178 48.54C214.242 48.82 214.302 49.092 214.358 49.356C214.414 49.62 214.474 49.888 214.538 50.16H214.586C214.642 49.888 214.69 49.62 214.73 49.356C214.778 49.092 214.826 48.82 214.874 48.54L215.582 45.168H216.518L215.246 51H214.058L213.362 48.048C213.306 47.768 213.254 47.492 213.206 47.22C213.158 46.94 213.102 46.652 213.038 46.356H212.99C212.942 46.612 212.894 46.876 212.846 47.148C212.798 47.42 212.738 47.724 212.666 48.06L211.994 51H210.818L209.51 45.168ZM224.525 48.096C224.525 47.608 224.601 47.176 224.753 46.8C224.913 46.416 225.125 46.092 225.389 45.828C225.653 45.564 225.957 45.364 226.301 45.228C226.653 45.092 227.021 45.024 227.405 45.024C227.789 45.024 228.153 45.092 228.497 45.228C228.849 45.364 229.157 45.564 229.421 45.828C229.685 46.092 229.893 46.416 230.045 46.8C230.205 47.176 230.285 47.608 230.285 48.096C230.285 48.576 230.205 49.008 230.045 49.392C229.893 49.768 229.685 50.088 229.421 50.352C229.157 50.608 228.849 50.804 228.497 50.94C228.153 51.076 227.789 51.144 227.405 51.144C227.021 51.144 226.653 51.076 226.301 50.94C225.957 50.804 225.653 50.608 225.389 50.352C225.125 50.088 224.913 49.768 224.753 49.392C224.601 49.008 224.525 48.576 224.525 48.096ZM225.545 48.096C225.545 48.432 225.589 48.736 225.677 49.008C225.765 49.28 225.889 49.516 226.049 49.716C226.217 49.908 226.413 50.06 226.637 50.172C226.869 50.276 227.125 50.328 227.405 50.328C227.685 50.328 227.937 50.276 228.161 50.172C228.393 50.06 228.589 49.908 228.749 49.716C228.917 49.516 229.045 49.28 229.133 49.008C229.221 48.736 229.265 48.432 229.265 48.096C229.265 47.76 229.221 47.456 229.133 47.184C229.045 46.904 228.917 46.664 228.749 46.464C228.589 46.264 228.393 46.112 228.161 46.008C227.937 45.896 227.685 45.84 227.405 45.84C227.125 45.84 226.869 45.896 226.637 46.008C226.413 46.112 226.217 46.264 226.049 46.464C225.889 46.664 225.765 46.904 225.677 47.184C225.589 47.456 225.545 47.76 225.545 48.096ZM232.116 42.456H233.1V44.784L233.076 45.912C233.356 45.64 233.668 45.424 234.012 45.264C234.364 45.104 234.712 45.024 235.056 45.024C235.448 45.024 235.796 45.096 236.1 45.24C236.404 45.376 236.656 45.576 236.856 45.84C237.064 46.096 237.22 46.408 237.324 46.776C237.428 47.136 237.48 47.54 237.48 47.988C237.48 48.484 237.408 48.928 237.264 49.32C237.12 49.712 236.924 50.044 236.676 50.316C236.436 50.588 236.156 50.796 235.836 50.94C235.516 51.076 235.184 51.144 234.84 51.144C234.56 51.144 234.256 51.076 233.928 50.94C233.608 50.796 233.308 50.6 233.028 50.352H232.992L232.908 51H232.116V42.456ZM233.1 49.632C233.38 49.88 233.66 50.056 233.94 50.16C234.228 50.264 234.476 50.316 234.684 50.316C234.94 50.316 235.176 50.264 235.392 50.16C235.608 50.048 235.796 49.896 235.956 49.704C236.116 49.504 236.24 49.26 236.328 48.972C236.416 48.684 236.46 48.36 236.46 48C236.46 47.68 236.428 47.388 236.364 47.124C236.3 46.86 236.2 46.636 236.064 46.452C235.936 46.26 235.768 46.112 235.56 46.008C235.352 45.904 235.104 45.852 234.816 45.852C234.56 45.852 234.284 45.924 233.988 46.068C233.7 46.204 233.404 46.424 233.1 46.728V49.632ZM239.275 45.168H242.971V51.144C242.971 51.504 242.931 51.832 242.851 52.128C242.771 52.432 242.635 52.692 242.443 52.908C242.259 53.132 242.011 53.304 241.699 53.424C241.387 53.544 240.995 53.604 240.523 53.604C240.219 53.604 239.923 53.564 239.635 53.484C239.347 53.412 239.087 53.32 238.855 53.208L239.179 52.476C239.387 52.58 239.603 52.66 239.827 52.716C240.059 52.772 240.287 52.8 240.511 52.8C240.799 52.8 241.039 52.764 241.231 52.692C241.423 52.62 241.575 52.516 241.687 52.38C241.799 52.244 241.875 52.076 241.915 51.876C241.963 51.684 241.987 51.464 241.987 51.216V45.972H239.275V45.168ZM242.371 43.968C242.139 43.968 241.947 43.9 241.795 43.764C241.651 43.628 241.579 43.444 241.579 43.212C241.579 42.98 241.651 42.796 241.795 42.66C241.947 42.516 242.139 42.444 242.371 42.444C242.595 42.444 242.783 42.516 242.935 42.66C243.087 42.796 243.163 42.98 243.163 43.212C243.163 43.444 243.087 43.628 242.935 43.764C242.783 43.9 242.595 43.968 242.371 43.968ZM246.219 48.096C246.219 47.616 246.303 47.188 246.471 46.812C246.639 46.428 246.859 46.104 247.131 45.84C247.411 45.576 247.727 45.376 248.079 45.24C248.439 45.096 248.807 45.024 249.183 45.024C249.599 45.024 249.971 45.092 250.299 45.228C250.627 45.356 250.903 45.54 251.127 45.78C251.359 46.02 251.535 46.308 251.655 46.644C251.775 46.98 251.835 47.352 251.835 47.76C251.835 47.864 251.831 47.968 251.823 48.072C251.823 48.168 251.815 48.252 251.799 48.324H247.239C247.247 48.636 247.307 48.916 247.419 49.164C247.539 49.412 247.695 49.624 247.887 49.8C248.087 49.976 248.319 50.112 248.583 50.208C248.855 50.304 249.151 50.352 249.471 50.352C249.815 50.352 250.127 50.304 250.407 50.208C250.695 50.112 250.975 49.98 251.247 49.812L251.595 50.46C251.307 50.644 250.979 50.804 250.611 50.94C250.243 51.076 249.823 51.144 249.351 51.144C248.919 51.144 248.511 51.076 248.127 50.94C247.751 50.796 247.419 50.596 247.131 50.34C246.851 50.076 246.627 49.756 246.459 49.38C246.299 49.004 246.219 48.576 246.219 48.096ZM250.923 47.616C250.923 47.032 250.771 46.584 250.467 46.272C250.163 45.96 249.739 45.804 249.195 45.804C248.955 45.804 248.723 45.844 248.499 45.924C248.283 46.004 248.087 46.124 247.911 46.284C247.735 46.436 247.587 46.624 247.467 46.848C247.347 47.072 247.267 47.328 247.227 47.616H250.923ZM253.546 48.096C253.546 47.608 253.63 47.176 253.798 46.8C253.974 46.416 254.21 46.092 254.506 45.828C254.802 45.564 255.146 45.364 255.538 45.228C255.938 45.092 256.358 45.024 256.798 45.024C257.278 45.024 257.69 45.108 258.034 45.276C258.386 45.444 258.682 45.644 258.922 45.876L258.43 46.512C258.19 46.304 257.938 46.14 257.674 46.02C257.418 45.9 257.138 45.84 256.834 45.84C256.498 45.84 256.19 45.896 255.91 46.008C255.63 46.112 255.39 46.264 255.19 46.464C254.998 46.664 254.846 46.904 254.734 47.184C254.622 47.456 254.566 47.76 254.566 48.096C254.566 48.432 254.618 48.736 254.722 49.008C254.834 49.28 254.986 49.516 255.178 49.716C255.378 49.908 255.614 50.06 255.886 50.172C256.166 50.276 256.474 50.328 256.81 50.328C257.17 50.328 257.498 50.26 257.794 50.124C258.098 49.98 258.374 49.804 258.622 49.596L259.054 50.232C258.734 50.52 258.374 50.744 257.974 50.904C257.582 51.064 257.17 51.144 256.738 51.144C256.282 51.144 255.858 51.076 255.466 50.94C255.082 50.804 254.746 50.608 254.458 50.352C254.17 50.088 253.946 49.768 253.786 49.392C253.626 49.008 253.546 48.576 253.546 48.096ZM262.253 45.972H260.609V45.228L262.289 45.168L262.421 43.536H263.237V45.168H266.105V45.972H263.237V48.744C263.237 49.008 263.261 49.24 263.309 49.44C263.357 49.632 263.437 49.796 263.549 49.932C263.661 50.068 263.813 50.172 264.005 50.244C264.197 50.308 264.433 50.34 264.713 50.34C264.993 50.34 265.245 50.316 265.469 50.268C265.693 50.22 265.909 50.156 266.117 50.076L266.333 50.796C266.069 50.892 265.777 50.972 265.457 51.036C265.137 51.108 264.817 51.144 264.497 51.144C264.073 51.144 263.717 51.088 263.429 50.976C263.141 50.856 262.909 50.692 262.733 50.484C262.565 50.268 262.441 50.012 262.361 49.716C262.289 49.42 262.253 49.092 262.253 48.732V45.972Z" fill="black"/>
<path d="M195.023 52.2H266.981V52.8H195.023V52.2Z" fill="black"/>
<rect y="69" width="134" height="66" fill="#C4C4C4"/>
<path d="M57.7441 83.9219C57.4277 84.3008 56.9805 84.5957 56.4023 84.8066C55.8242 85.0137 55.1836 85.1172 54.4805 85.1172C53.7422 85.1172 53.0938 84.957 52.5352 84.6367C51.9805 84.3125 51.5508 83.8438 51.2461 83.2305C50.9453 82.6172 50.791 81.8965 50.7832 81.0684V80.4883C50.7832 79.6367 50.9258 78.9004 51.2109 78.2793C51.5 77.6543 51.9141 77.1777 52.4531 76.8496C52.9961 76.5176 53.6309 76.3516 54.3574 76.3516C55.3691 76.3516 56.1602 76.5938 56.7305 77.0781C57.3008 77.5586 57.6387 78.2598 57.7441 79.1816H56.0332C55.9551 78.6934 55.7812 78.3359 55.5117 78.1094C55.2461 77.8828 54.8789 77.7695 54.4102 77.7695C53.8125 77.7695 53.3574 77.9941 53.0449 78.4434C52.7324 78.8926 52.5742 79.5605 52.5703 80.4473V80.9922C52.5703 81.8867 52.7402 82.5625 53.0801 83.0195C53.4199 83.4766 53.918 83.7051 54.5742 83.7051C55.2344 83.7051 55.7051 83.5645 55.9863 83.2832V81.8125H54.3867V80.5176H57.7441V83.9219ZM60.8496 85H59.1504V76H60.8496V85ZM61.9863 81.7715C61.9863 81.1426 62.1074 80.582 62.3496 80.0898C62.5918 79.5977 62.9395 79.2168 63.3926 78.9473C63.8496 78.6777 64.3789 78.543 64.9805 78.543C65.8359 78.543 66.5332 78.8047 67.0723 79.3281C67.6152 79.8516 67.918 80.5625 67.9805 81.4609L67.9922 81.8945C67.9922 82.8672 67.7207 83.6484 67.1777 84.2383C66.6348 84.8242 65.9062 85.1172 64.9922 85.1172C64.0781 85.1172 63.3477 84.8242 62.8008 84.2383C62.2578 83.6523 61.9863 82.8555 61.9863 81.8477V81.7715ZM63.6797 81.8945C63.6797 82.4961 63.793 82.957 64.0195 83.2773C64.2461 83.5938 64.5703 83.752 64.9922 83.752C65.4023 83.752 65.7227 83.5957 65.9531 83.2832C66.1836 82.9668 66.2988 82.4629 66.2988 81.7715C66.2988 81.1816 66.1836 80.7246 65.9531 80.4004C65.7227 80.0762 65.3984 79.9141 64.9805 79.9141C64.5664 79.9141 64.2461 80.0762 64.0195 80.4004C63.793 80.7207 63.6797 81.2188 63.6797 81.8945ZM74.748 81.8887C74.748 82.9043 74.5312 83.6973 74.0977 84.2676C73.6641 84.834 73.0586 85.1172 72.2812 85.1172C71.5938 85.1172 71.0449 84.8535 70.6348 84.3262L70.5586 85H69.0352V76H70.7285V79.2285C71.1191 78.7715 71.6328 78.543 72.2695 78.543C73.043 78.543 73.6484 78.8281 74.0859 79.3984C74.5273 79.9648 74.748 80.7637 74.748 81.7949V81.8887ZM73.0547 81.7656C73.0547 81.125 72.9531 80.6582 72.75 80.3652C72.5469 80.0684 72.2441 79.9199 71.8418 79.9199C71.3027 79.9199 70.9316 80.1406 70.7285 80.582V83.084C70.9355 83.5293 71.3105 83.752 71.8535 83.752C72.4004 83.752 72.7598 83.4824 72.9316 82.9434C73.0137 82.6855 73.0547 82.293 73.0547 81.7656ZM79.4707 85C79.3926 84.8477 79.3359 84.6582 79.3008 84.4316C78.8906 84.8887 78.3574 85.1172 77.7012 85.1172C77.0801 85.1172 76.5645 84.9375 76.1543 84.5781C75.748 84.2188 75.5449 83.7656 75.5449 83.2188C75.5449 82.5469 75.793 82.0312 76.2891 81.6719C76.7891 81.3125 77.5098 81.1309 78.4512 81.127H79.2305V80.7637C79.2305 80.4707 79.1543 80.2363 79.002 80.0605C78.8535 79.8848 78.6172 79.7969 78.293 79.7969C78.0078 79.7969 77.7832 79.8652 77.6191 80.002C77.459 80.1387 77.3789 80.3262 77.3789 80.5645H75.6855C75.6855 80.1973 75.7988 79.8574 76.0254 79.5449C76.252 79.2324 76.5723 78.9883 76.9863 78.8125C77.4004 78.6328 77.8652 78.543 78.3809 78.543C79.1621 78.543 79.7812 78.7402 80.2383 79.1348C80.6992 79.5254 80.9297 80.0762 80.9297 80.7871V83.5352C80.9336 84.1367 81.0176 84.5918 81.1816 84.9004V85H79.4707ZM78.0703 83.8223C78.3203 83.8223 78.5508 83.7676 78.7617 83.6582C78.9727 83.5449 79.1289 83.3945 79.2305 83.207V82.1172H78.5977C77.75 82.1172 77.2988 82.4102 77.2441 82.9961L77.2383 83.0957C77.2383 83.3066 77.3125 83.4805 77.4609 83.6172C77.6094 83.7539 77.8125 83.8223 78.0703 83.8223ZM84.0176 85H82.3184V76H84.0176V85Z" fill="black"/>
<path d="M23.6191 104.117C22.7598 104.117 22.0605 103.836 21.5215 103.273C20.9824 102.707 20.7129 101.951 20.7129 101.006V100.807C20.7129 100.178 20.832 99.6172 21.0703 99.125C21.3125 98.6289 21.6484 98.2422 22.0781 97.9648C22.5117 97.6836 22.9805 97.543 23.4844 97.543C24.3086 97.543 24.9492 97.8145 25.4062 98.3574C25.8633 98.9004 26.0918 99.6777 26.0918 100.689V101.141H21.7969C21.8125 101.766 21.9941 102.271 22.3418 102.658C22.6934 103.041 23.1387 103.232 23.6777 103.232C24.0605 103.232 24.3848 103.154 24.6504 102.998C24.916 102.842 25.1484 102.635 25.3477 102.377L26.0098 102.893C25.4785 103.709 24.6816 104.117 23.6191 104.117ZM23.4844 98.4336C23.0469 98.4336 22.6797 98.5938 22.3828 98.9141C22.0859 99.2305 21.9023 99.6758 21.832 100.25H25.0078V100.168C24.9766 99.6172 24.8281 99.1914 24.5625 98.8906C24.2969 98.5859 23.9375 98.4336 23.4844 98.4336ZM29.4785 99.9746L30.8848 97.6602H32.1504L30.0762 100.795L32.2148 104H30.9609L29.4961 101.627L28.0312 104H26.7715L28.9102 100.795L26.8359 97.6602H28.0898L29.4785 99.9746ZM35.8184 104.117C34.959 104.117 34.2598 103.836 33.7207 103.273C33.1816 102.707 32.9121 101.951 32.9121 101.006V100.807C32.9121 100.178 33.0312 99.6172 33.2695 99.125C33.5117 98.6289 33.8477 98.2422 34.2773 97.9648C34.7109 97.6836 35.1797 97.543 35.6836 97.543C36.5078 97.543 37.1484 97.8145 37.6055 98.3574C38.0625 98.9004 38.291 99.6777 38.291 100.689V101.141H33.9961C34.0117 101.766 34.1934 102.271 34.541 102.658C34.8926 103.041 35.3379 103.232 35.877 103.232C36.2598 103.232 36.584 103.154 36.8496 102.998C37.1152 102.842 37.3477 102.635 37.5469 102.377L38.209 102.893C37.6777 103.709 36.8809 104.117 35.8184 104.117ZM35.6836 98.4336C35.2461 98.4336 34.8789 98.5938 34.582 98.9141C34.2852 99.2305 34.1016 99.6758 34.0312 100.25H37.207V100.168C37.1758 99.6172 37.0273 99.1914 36.7617 98.8906C36.4961 98.5859 36.1367 98.4336 35.6836 98.4336ZM42.0938 103.232C42.4805 103.232 42.8184 103.115 43.1074 102.881C43.3965 102.646 43.5566 102.354 43.5879 102.002H44.6133C44.5938 102.365 44.4688 102.711 44.2383 103.039C44.0078 103.367 43.6992 103.629 43.3125 103.824C42.9297 104.02 42.5234 104.117 42.0938 104.117C41.2305 104.117 40.543 103.83 40.0312 103.256C39.5234 102.678 39.2695 101.889 39.2695 100.889V100.707C39.2695 100.09 39.3828 99.541 39.6094 99.0605C39.8359 98.5801 40.1602 98.207 40.582 97.9414C41.0078 97.6758 41.5098 97.543 42.0879 97.543C42.7988 97.543 43.3887 97.7559 43.8574 98.1816C44.3301 98.6074 44.582 99.1602 44.6133 99.8398H43.5879C43.5566 99.4297 43.4004 99.0938 43.1191 98.832C42.8418 98.5664 42.498 98.4336 42.0879 98.4336C41.5371 98.4336 41.1094 98.6328 40.8047 99.0312C40.5039 99.4258 40.3535 99.998 40.3535 100.748V100.953C40.3535 101.684 40.5039 102.246 40.8047 102.641C41.1055 103.035 41.5352 103.232 42.0938 103.232ZM49.7461 103.373C49.3242 103.869 48.7051 104.117 47.8887 104.117C47.2129 104.117 46.6973 103.922 46.3418 103.531C45.9902 103.137 45.8125 102.555 45.8086 101.785V97.6602H46.8926V101.756C46.8926 102.717 47.2832 103.197 48.0645 103.197C48.8926 103.197 49.4434 102.889 49.7168 102.271V97.6602H50.8008V104H49.7695L49.7461 103.373ZM53.9238 96.125V97.6602H55.1074V98.498H53.9238V102.43C53.9238 102.684 53.9766 102.875 54.082 103.004C54.1875 103.129 54.3672 103.191 54.6211 103.191C54.7461 103.191 54.918 103.168 55.1367 103.121V104C54.8516 104.078 54.5742 104.117 54.3047 104.117C53.8203 104.117 53.4551 103.971 53.209 103.678C52.9629 103.385 52.8398 102.969 52.8398 102.43V98.498H51.6855V97.6602H52.8398V96.125H53.9238ZM57.5566 104H56.4727V97.6602H57.5566V104ZM56.3848 95.9785C56.3848 95.8027 56.4375 95.6543 56.543 95.5332C56.6523 95.4121 56.8125 95.3516 57.0234 95.3516C57.2344 95.3516 57.3945 95.4121 57.5039 95.5332C57.6133 95.6543 57.668 95.8027 57.668 95.9785C57.668 96.1543 57.6133 96.3008 57.5039 96.418C57.3945 96.5352 57.2344 96.5938 57.0234 96.5938C56.8125 96.5938 56.6523 96.5352 56.543 96.418C56.4375 96.3008 56.3848 96.1543 56.3848 95.9785ZM59.0098 100.771C59.0098 100.15 59.1309 99.5918 59.373 99.0957C59.6191 98.5996 59.959 98.2168 60.3926 97.9473C60.8301 97.6777 61.3281 97.543 61.8867 97.543C62.75 97.543 63.4473 97.8418 63.9785 98.4395C64.5137 99.0371 64.7812 99.832 64.7812 100.824V100.9C64.7812 101.518 64.6621 102.072 64.4238 102.564C64.1895 103.053 63.8516 103.434 63.4102 103.707C62.9727 103.98 62.4688 104.117 61.8984 104.117C61.0391 104.117 60.3418 103.818 59.8066 103.221C59.2754 102.623 59.0098 101.832 59.0098 100.848V100.771ZM60.0996 100.9C60.0996 101.604 60.2617 102.168 60.5859 102.594C60.9141 103.02 61.3516 103.232 61.8984 103.232C62.4492 103.232 62.8867 103.018 63.2109 102.588C63.5352 102.154 63.6973 101.549 63.6973 100.771C63.6973 100.076 63.5312 99.5137 63.1992 99.084C62.8711 98.6504 62.4336 98.4336 61.8867 98.4336C61.3516 98.4336 60.9199 98.6465 60.5918 99.0723C60.2637 99.498 60.0996 100.107 60.0996 100.9ZM67.166 97.6602L67.2012 98.457C67.6855 97.8477 68.3184 97.543 69.0996 97.543C70.4395 97.543 71.1152 98.2988 71.127 99.8105V104H70.043V99.8047C70.0391 99.3477 69.9336 99.0098 69.7266 98.791C69.5234 98.5723 69.2051 98.4629 68.7715 98.4629C68.4199 98.4629 68.1113 98.5566 67.8457 98.7441C67.5801 98.9316 67.373 99.1777 67.2246 99.4824V104H66.1406V97.6602H67.166ZM78.2812 103.232C78.668 103.232 79.0059 103.115 79.2949 102.881C79.584 102.646 79.7441 102.354 79.7754 102.002H80.8008C80.7812 102.365 80.6562 102.711 80.4258 103.039C80.1953 103.367 79.8867 103.629 79.5 103.824C79.1172 104.02 78.7109 104.117 78.2812 104.117C77.418 104.117 76.7305 103.83 76.2188 103.256C75.7109 102.678 75.457 101.889 75.457 100.889V100.707C75.457 100.09 75.5703 99.541 75.7969 99.0605C76.0234 98.5801 76.3477 98.207 76.7695 97.9414C77.1953 97.6758 77.6973 97.543 78.2754 97.543C78.9863 97.543 79.5762 97.7559 80.0449 98.1816C80.5176 98.6074 80.7695 99.1602 80.8008 99.8398H79.7754C79.7441 99.4297 79.5879 99.0938 79.3066 98.832C79.0293 98.5664 78.6855 98.4336 78.2754 98.4336C77.7246 98.4336 77.2969 98.6328 76.9922 99.0312C76.6914 99.4258 76.541 99.998 76.541 100.748V100.953C76.541 101.684 76.6914 102.246 76.9922 102.641C77.293 103.035 77.7227 103.232 78.2812 103.232ZM81.7324 100.771C81.7324 100.15 81.8535 99.5918 82.0957 99.0957C82.3418 98.5996 82.6816 98.2168 83.1152 97.9473C83.5527 97.6777 84.0508 97.543 84.6094 97.543C85.4727 97.543 86.1699 97.8418 86.7012 98.4395C87.2363 99.0371 87.5039 99.832 87.5039 100.824V100.9C87.5039 101.518 87.3848 102.072 87.1465 102.564C86.9121 103.053 86.5742 103.434 86.1328 103.707C85.6953 103.98 85.1914 104.117 84.6211 104.117C83.7617 104.117 83.0645 103.818 82.5293 103.221C81.998 102.623 81.7324 101.832 81.7324 100.848V100.771ZM82.8223 100.9C82.8223 101.604 82.9844 102.168 83.3086 102.594C83.6367 103.02 84.0742 103.232 84.6211 103.232C85.1719 103.232 85.6094 103.018 85.9336 102.588C86.2578 102.154 86.4199 101.549 86.4199 100.771C86.4199 100.076 86.2539 99.5137 85.9219 99.084C85.5938 98.6504 85.1562 98.4336 84.6094 98.4336C84.0742 98.4336 83.6426 98.6465 83.3145 99.0723C82.9863 99.498 82.8223 100.107 82.8223 100.9ZM89.8887 97.6602L89.9238 98.457C90.4082 97.8477 91.041 97.543 91.8223 97.543C93.1621 97.543 93.8379 98.2988 93.8496 99.8105V104H92.7656V99.8047C92.7617 99.3477 92.6562 99.0098 92.4492 98.791C92.2461 98.5723 91.9277 98.4629 91.4941 98.4629C91.1426 98.4629 90.834 98.5566 90.5684 98.7441C90.3027 98.9316 90.0957 99.1777 89.9473 99.4824V104H88.8633V97.6602H89.8887ZM96.9551 96.125V97.6602H98.1387V98.498H96.9551V102.43C96.9551 102.684 97.0078 102.875 97.1133 103.004C97.2188 103.129 97.3984 103.191 97.6523 103.191C97.7773 103.191 97.9492 103.168 98.168 103.121V104C97.8828 104.078 97.6055 104.117 97.3359 104.117C96.8516 104.117 96.4863 103.971 96.2402 103.678C95.9941 103.385 95.8711 102.969 95.8711 102.43V98.498H94.7168V97.6602H95.8711V96.125H96.9551ZM102.041 104.117C101.182 104.117 100.482 103.836 99.9434 103.273C99.4043 102.707 99.1348 101.951 99.1348 101.006V100.807C99.1348 100.178 99.2539 99.6172 99.4922 99.125C99.7344 98.6289 100.07 98.2422 100.5 97.9648C100.934 97.6836 101.402 97.543 101.906 97.543C102.73 97.543 103.371 97.8145 103.828 98.3574C104.285 98.9004 104.514 99.6777 104.514 100.689V101.141H100.219C100.234 101.766 100.416 102.271 100.764 102.658C101.115 103.041 101.561 103.232 102.1 103.232C102.482 103.232 102.807 103.154 103.072 102.998C103.338 102.842 103.57 102.635 103.77 102.377L104.432 102.893C103.9 103.709 103.104 104.117 102.041 104.117ZM101.906 98.4336C101.469 98.4336 101.102 98.5938 100.805 98.9141C100.508 99.2305 100.324 99.6758 100.254 100.25H103.43V100.168C103.398 99.6172 103.25 99.1914 102.984 98.8906C102.719 98.5859 102.359 98.4336 101.906 98.4336ZM107.9 99.9746L109.307 97.6602H110.572L108.498 100.795L110.637 104H109.383L107.918 101.627L106.453 104H105.193L107.332 100.795L105.258 97.6602H106.512L107.9 99.9746ZM113.197 96.125V97.6602H114.381V98.498H113.197V102.43C113.197 102.684 113.25 102.875 113.355 103.004C113.461 103.129 113.641 103.191 113.895 103.191C114.02 103.191 114.191 103.168 114.41 103.121V104C114.125 104.078 113.848 104.117 113.578 104.117C113.094 104.117 112.729 103.971 112.482 103.678C112.236 103.385 112.113 102.969 112.113 102.43V98.498H110.959V97.6602H112.113V96.125H113.197Z" fill="black"/>
<path d="M55.5814 118.972H53.9374V118.228L55.6174 118.168L55.7494 116.536H56.5654V118.168H59.4334V118.972H56.5654V121.744C56.5654 122.008 56.5894 122.24 56.6374 122.44C56.6854 122.632 56.7654 122.796 56.8774 122.932C56.9894 123.068 57.1414 123.172 57.3334 123.244C57.5254 123.308 57.7614 123.34 58.0414 123.34C58.3214 123.34 58.5734 123.316 58.7974 123.268C59.0214 123.22 59.2374 123.156 59.4454 123.076L59.6614 123.796C59.3974 123.892 59.1054 123.972 58.7854 124.036C58.4654 124.108 58.1454 124.144 57.8254 124.144C57.4014 124.144 57.0454 124.088 56.7574 123.976C56.4694 123.856 56.2374 123.692 56.0614 123.484C55.8934 123.268 55.7694 123.012 55.6894 122.716C55.6174 122.42 55.5814 122.092 55.5814 121.732V118.972ZM61.4207 115.456H62.4047V117.784L62.3567 119.164C62.6687 118.836 63.0007 118.564 63.3527 118.348C63.7047 118.132 64.1087 118.024 64.5647 118.024C65.2607 118.024 65.7687 118.224 66.0887 118.624C66.4167 119.016 66.5807 119.6 66.5807 120.376V124H65.5967V120.508C65.5967 119.956 65.4927 119.548 65.2847 119.284C65.0767 119.012 64.7327 118.876 64.2527 118.876C64.0767 118.876 63.9127 118.9 63.7607 118.948C63.6167 118.988 63.4727 119.052 63.3287 119.14C63.1847 119.228 63.0367 119.34 62.8847 119.476C62.7327 119.604 62.5727 119.756 62.4047 119.932V124H61.4207V115.456ZM68.58 118.168H72.276V124H71.292V118.972H68.58V118.168ZM71.676 116.968C71.444 116.968 71.252 116.9 71.1 116.764C70.956 116.628 70.884 116.444 70.884 116.212C70.884 115.98 70.956 115.796 71.1 115.66C71.252 115.516 71.444 115.444 71.676 115.444C71.9 115.444 72.088 115.516 72.24 115.66C72.392 115.796 72.468 115.98 72.468 116.212C72.468 116.444 72.392 116.628 72.24 116.764C72.088 116.9 71.9 116.968 71.676 116.968ZM76.0393 122.584C76.3673 122.824 76.7193 123.016 77.0953 123.16C77.4713 123.304 77.9233 123.376 78.4513 123.376C78.9793 123.376 79.3713 123.288 79.6273 123.112C79.8833 122.936 80.0113 122.72 80.0113 122.464C80.0113 122.24 79.8713 122.04 79.5913 121.864C79.3193 121.688 78.8273 121.512 78.1153 121.336C77.8113 121.264 77.5233 121.176 77.2513 121.072C76.9873 120.968 76.7553 120.848 76.5553 120.712C76.3553 120.568 76.1953 120.412 76.0753 120.244C75.9553 120.076 75.8953 119.888 75.8953 119.68C75.8953 119.448 75.9473 119.232 76.0513 119.032C76.1553 118.824 76.3073 118.648 76.5073 118.504C76.7153 118.352 76.9713 118.236 77.2753 118.156C77.5873 118.068 77.9433 118.024 78.3433 118.024C78.7833 118.024 79.2113 118.1 79.6273 118.252C80.0433 118.396 80.3953 118.568 80.6833 118.768L80.2033 119.404C79.9473 119.22 79.6633 119.072 79.3513 118.96C79.0393 118.848 78.7033 118.792 78.3433 118.792C78.0713 118.792 77.8433 118.816 77.6593 118.864C77.4753 118.904 77.3273 118.964 77.2153 119.044C77.1033 119.116 77.0233 119.204 76.9753 119.308C76.9273 119.412 76.9033 119.52 76.9033 119.632C76.9033 119.872 77.0673 120.072 77.3953 120.232C77.7233 120.384 78.1513 120.528 78.6793 120.664C79.4713 120.864 80.0553 121.092 80.4313 121.348C80.8153 121.604 81.0073 121.956 81.0073 122.404C81.0073 122.644 80.9513 122.868 80.8393 123.076C80.7273 123.284 80.5593 123.468 80.3353 123.628C80.1193 123.788 79.8473 123.912 79.5193 124C79.1993 124.096 78.8313 124.144 78.4153 124.144C77.8393 124.144 77.3073 124.056 76.8193 123.88C76.3393 123.696 75.9193 123.48 75.5593 123.232L76.0393 122.584Z" fill="black"/>
<rect width="134" height="66" fill="#C4C4C4"/>
<path d="M44.2363 13.7617C44.2363 13.4297 44.1191 13.1758 43.8848 13C43.6504 12.8203 43.2285 12.6328 42.6191 12.4375C42.0098 12.2383 41.5273 12.043 41.1719 11.8516C40.2031 11.3281 39.7188 10.623 39.7188 9.73633C39.7188 9.27539 39.8477 8.86523 40.1055 8.50586C40.3672 8.14258 40.7402 7.85938 41.2246 7.65625C41.7129 7.45312 42.2598 7.35156 42.8652 7.35156C43.4746 7.35156 44.0176 7.46289 44.4941 7.68555C44.9707 7.9043 45.3398 8.21484 45.6016 8.61719C45.8672 9.01953 46 9.47656 46 9.98828H44.2422C44.2422 9.59766 44.1191 9.29492 43.873 9.08008C43.627 8.86133 43.2812 8.75195 42.8359 8.75195C42.4062 8.75195 42.0723 8.84375 41.834 9.02734C41.5957 9.20703 41.4766 9.44531 41.4766 9.74219C41.4766 10.0195 41.6152 10.252 41.8926 10.4395C42.1738 10.627 42.5859 10.8027 43.1289 10.9668C44.1289 11.2676 44.8574 11.6406 45.3145 12.0859C45.7715 12.5312 46 13.0859 46 13.75C46 14.4883 45.7207 15.0684 45.1621 15.4902C44.6035 15.9082 43.8516 16.1172 42.9062 16.1172C42.25 16.1172 41.6523 15.998 41.1133 15.7598C40.5742 15.5176 40.1621 15.1875 39.877 14.7695C39.5957 14.3516 39.4551 13.8672 39.4551 13.3164H41.2188C41.2188 14.2578 41.7812 14.7285 42.9062 14.7285C43.3242 14.7285 43.6504 14.6445 43.8848 14.4766C44.1191 14.3047 44.2363 14.0664 44.2363 13.7617ZM50.8809 15.3555C50.4629 15.8633 49.8848 16.1172 49.1465 16.1172C48.4668 16.1172 47.9473 15.9219 47.5879 15.5312C47.2324 15.1406 47.0508 14.5684 47.043 13.8145V9.66016H48.7363V13.7559C48.7363 14.416 49.0371 14.7461 49.6387 14.7461C50.2129 14.7461 50.6074 14.5469 50.8223 14.1484V9.66016H52.5215V16H50.9277L50.8809 15.3555ZM59.5059 12.8887C59.5059 13.8652 59.2832 14.6484 58.8379 15.2383C58.3965 15.8242 57.7988 16.1172 57.0449 16.1172C56.4043 16.1172 55.8867 15.8945 55.4922 15.4492V18.4375H53.7988V9.66016H55.3691L55.4277 10.2812C55.8379 9.78906 56.373 9.54297 57.0332 9.54297C57.8145 9.54297 58.4219 9.83203 58.8555 10.4102C59.2891 10.9883 59.5059 11.7852 59.5059 12.8008V12.8887ZM57.8125 12.7656C57.8125 12.1758 57.707 11.7207 57.4961 11.4004C57.2891 11.0801 56.9863 10.9199 56.5879 10.9199C56.0566 10.9199 55.6914 11.123 55.4922 11.5293V14.125C55.6992 14.543 56.0684 14.752 56.5996 14.752C57.4082 14.752 57.8125 14.0898 57.8125 12.7656ZM63.4785 16.1172C62.5488 16.1172 61.791 15.832 61.2051 15.2617C60.623 14.6914 60.332 13.9316 60.332 12.9824V12.8184C60.332 12.1816 60.4551 11.6133 60.7012 11.1133C60.9473 10.6094 61.2949 10.2227 61.7441 9.95312C62.1973 9.67969 62.7129 9.54297 63.291 9.54297C64.1582 9.54297 64.8398 9.81641 65.3359 10.3633C65.8359 10.9102 66.0859 11.6855 66.0859 12.6895V13.3809H62.0488C62.1035 13.7949 62.2676 14.127 62.541 14.377C62.8184 14.627 63.168 14.752 63.5898 14.752C64.2422 14.752 64.752 14.5156 65.1191 14.043L65.9512 14.9746C65.6973 15.334 65.3535 15.6152 64.9199 15.8184C64.4863 16.0176 64.0059 16.1172 63.4785 16.1172ZM63.2852 10.9141C62.9492 10.9141 62.6758 11.0273 62.4648 11.2539C62.2578 11.4805 62.125 11.8047 62.0664 12.2266H64.4219V12.0918C64.4141 11.7168 64.3125 11.4277 64.1172 11.2246C63.9219 11.0176 63.6445 10.9141 63.2852 10.9141ZM70.6152 11.248C70.3848 11.2168 70.1816 11.2012 70.0059 11.2012C69.3652 11.2012 68.9453 11.418 68.7461 11.8516V16H67.0527V9.66016H68.6523L68.6992 10.416C69.0391 9.83398 69.5098 9.54297 70.1113 9.54297C70.2988 9.54297 70.4746 9.56836 70.6387 9.61914L70.6152 11.248ZM73.0879 10.3516C73.5371 9.8125 74.1016 9.54297 74.7812 9.54297C76.1562 9.54297 76.8535 10.3418 76.873 11.9395V16H75.1797V11.9863C75.1797 11.623 75.1016 11.3555 74.9453 11.1836C74.7891 11.0078 74.5293 10.9199 74.166 10.9199C73.6699 10.9199 73.3105 11.1113 73.0879 11.4941V16H71.3945V7H73.0879V10.3516ZM81.0684 16.1172C80.1387 16.1172 79.3809 15.832 78.7949 15.2617C78.2129 14.6914 77.9219 13.9316 77.9219 12.9824V12.8184C77.9219 12.1816 78.0449 11.6133 78.291 11.1133C78.5371 10.6094 78.8848 10.2227 79.334 9.95312C79.7871 9.67969 80.3027 9.54297 80.8809 9.54297C81.748 9.54297 82.4297 9.81641 82.9258 10.3633C83.4258 10.9102 83.6758 11.6855 83.6758 12.6895V13.3809H79.6387C79.6934 13.7949 79.8574 14.127 80.1309 14.377C80.4082 14.627 80.7578 14.752 81.1797 14.752C81.832 14.752 82.3418 14.5156 82.709 14.043L83.541 14.9746C83.2871 15.334 82.9434 15.6152 82.5098 15.8184C82.0762 16.0176 81.5957 16.1172 81.0684 16.1172ZM80.875 10.9141C80.5391 10.9141 80.2656 11.0273 80.0547 11.2539C79.8477 11.4805 79.7148 11.8047 79.6562 12.2266H82.0117V12.0918C82.0039 11.7168 81.9023 11.4277 81.707 11.2246C81.5117 11.0176 81.2344 10.9141 80.875 10.9141ZM88.2051 11.248C87.9746 11.2168 87.7715 11.2012 87.5957 11.2012C86.9551 11.2012 86.5352 11.418 86.3359 11.8516V16H84.6426V9.66016H86.2422L86.2891 10.416C86.6289 9.83398 87.0996 9.54297 87.7012 9.54297C87.8887 9.54297 88.0645 9.56836 88.2285 9.61914L88.2051 11.248ZM88.5508 12.7715C88.5508 12.1426 88.6719 11.582 88.9141 11.0898C89.1562 10.5977 89.5039 10.2168 89.957 9.94727C90.4141 9.67773 90.9434 9.54297 91.5449 9.54297C92.4004 9.54297 93.0977 9.80469 93.6367 10.3281C94.1797 10.8516 94.4824 11.5625 94.5449 12.4609L94.5566 12.8945C94.5566 13.8672 94.2852 14.6484 93.7422 15.2383C93.1992 15.8242 92.4707 16.1172 91.5566 16.1172C90.6426 16.1172 89.9121 15.8242 89.3652 15.2383C88.8223 14.6523 88.5508 13.8555 88.5508 12.8477V12.7715ZM90.2441 12.8945C90.2441 13.4961 90.3574 13.957 90.584 14.2773C90.8105 14.5938 91.1348 14.752 91.5566 14.752C91.9668 14.752 92.2871 14.5957 92.5176 14.2832C92.748 13.9668 92.8633 13.4629 92.8633 12.7715C92.8633 12.1816 92.748 11.7246 92.5176 11.4004C92.2871 11.0762 91.9629 10.9141 91.5449 10.9141C91.1309 10.9141 90.8105 11.0762 90.584 11.4004C90.3574 11.7207 90.2441 12.2188 90.2441 12.8945Z" fill="black"/>
<path d="M23.6191 35.1172C22.7598 35.1172 22.0605 34.8359 21.5215 34.2734C20.9824 33.707 20.7129 32.9512 20.7129 32.0059V31.8066C20.7129 31.1777 20.832 30.6172 21.0703 30.125C21.3125 29.6289 21.6484 29.2422 22.0781 28.9648C22.5117 28.6836 22.9805 28.543 23.4844 28.543C24.3086 28.543 24.9492 28.8145 25.4062 29.3574C25.8633 29.9004 26.0918 30.6777 26.0918 31.6895V32.1406H21.7969C21.8125 32.7656 21.9941 33.2715 22.3418 33.6582C22.6934 34.041 23.1387 34.2324 23.6777 34.2324C24.0605 34.2324 24.3848 34.1543 24.6504 33.998C24.916 33.8418 25.1484 33.6348 25.3477 33.377L26.0098 33.8926C25.4785 34.709 24.6816 35.1172 23.6191 35.1172ZM23.4844 29.4336C23.0469 29.4336 22.6797 29.5938 22.3828 29.9141C22.0859 30.2305 21.9023 30.6758 21.832 31.25H25.0078V31.168C24.9766 30.6172 24.8281 30.1914 24.5625 29.8906C24.2969 29.5859 23.9375 29.4336 23.4844 29.4336ZM29.4785 30.9746L30.8848 28.6602H32.1504L30.0762 31.7949L32.2148 35H30.9609L29.4961 32.627L28.0312 35H26.7715L28.9102 31.7949L26.8359 28.6602H28.0898L29.4785 30.9746ZM35.8184 35.1172C34.959 35.1172 34.2598 34.8359 33.7207 34.2734C33.1816 33.707 32.9121 32.9512 32.9121 32.0059V31.8066C32.9121 31.1777 33.0312 30.6172 33.2695 30.125C33.5117 29.6289 33.8477 29.2422 34.2773 28.9648C34.7109 28.6836 35.1797 28.543 35.6836 28.543C36.5078 28.543 37.1484 28.8145 37.6055 29.3574C38.0625 29.9004 38.291 30.6777 38.291 31.6895V32.1406H33.9961C34.0117 32.7656 34.1934 33.2715 34.541 33.6582C34.8926 34.041 35.3379 34.2324 35.877 34.2324C36.2598 34.2324 36.584 34.1543 36.8496 33.998C37.1152 33.8418 37.3477 33.6348 37.5469 33.377L38.209 33.8926C37.6777 34.709 36.8809 35.1172 35.8184 35.1172ZM35.6836 29.4336C35.2461 29.4336 34.8789 29.5938 34.582 29.9141C34.2852 30.2305 34.1016 30.6758 34.0312 31.25H37.207V31.168C37.1758 30.6172 37.0273 30.1914 36.7617 29.8906C36.4961 29.5859 36.1367 29.4336 35.6836 29.4336ZM42.0938 34.2324C42.4805 34.2324 42.8184 34.1152 43.1074 33.8809C43.3965 33.6465 43.5566 33.3535 43.5879 33.002H44.6133C44.5938 33.3652 44.4688 33.7109 44.2383 34.0391C44.0078 34.3672 43.6992 34.6289 43.3125 34.8242C42.9297 35.0195 42.5234 35.1172 42.0938 35.1172C41.2305 35.1172 40.543 34.8301 40.0312 34.2559C39.5234 33.6777 39.2695 32.8887 39.2695 31.8887V31.707C39.2695 31.0898 39.3828 30.541 39.6094 30.0605C39.8359 29.5801 40.1602 29.207 40.582 28.9414C41.0078 28.6758 41.5098 28.543 42.0879 28.543C42.7988 28.543 43.3887 28.7559 43.8574 29.1816C44.3301 29.6074 44.582 30.1602 44.6133 30.8398H43.5879C43.5566 30.4297 43.4004 30.0938 43.1191 29.832C42.8418 29.5664 42.498 29.4336 42.0879 29.4336C41.5371 29.4336 41.1094 29.6328 40.8047 30.0312C40.5039 30.4258 40.3535 30.998 40.3535 31.748V31.9531C40.3535 32.6836 40.5039 33.2461 40.8047 33.6406C41.1055 34.0352 41.5352 34.2324 42.0938 34.2324ZM49.7461 34.373C49.3242 34.8691 48.7051 35.1172 47.8887 35.1172C47.2129 35.1172 46.6973 34.9219 46.3418 34.5312C45.9902 34.1367 45.8125 33.5547 45.8086 32.7852V28.6602H46.8926V32.7559C46.8926 33.7168 47.2832 34.1973 48.0645 34.1973C48.8926 34.1973 49.4434 33.8887 49.7168 33.2715V28.6602H50.8008V35H49.7695L49.7461 34.373ZM53.9238 27.125V28.6602H55.1074V29.498H53.9238V33.4297C53.9238 33.6836 53.9766 33.875 54.082 34.0039C54.1875 34.1289 54.3672 34.1914 54.6211 34.1914C54.7461 34.1914 54.918 34.168 55.1367 34.1211V35C54.8516 35.0781 54.5742 35.1172 54.3047 35.1172C53.8203 35.1172 53.4551 34.9707 53.209 34.6777C52.9629 34.3848 52.8398 33.9688 52.8398 33.4297V29.498H51.6855V28.6602H52.8398V27.125H53.9238ZM57.5566 35H56.4727V28.6602H57.5566V35ZM56.3848 26.9785C56.3848 26.8027 56.4375 26.6543 56.543 26.5332C56.6523 26.4121 56.8125 26.3516 57.0234 26.3516C57.2344 26.3516 57.3945 26.4121 57.5039 26.5332C57.6133 26.6543 57.668 26.8027 57.668 26.9785C57.668 27.1543 57.6133 27.3008 57.5039 27.418C57.3945 27.5352 57.2344 27.5938 57.0234 27.5938C56.8125 27.5938 56.6523 27.5352 56.543 27.418C56.4375 27.3008 56.3848 27.1543 56.3848 26.9785ZM59.0098 31.7715C59.0098 31.1504 59.1309 30.5918 59.373 30.0957C59.6191 29.5996 59.959 29.2168 60.3926 28.9473C60.8301 28.6777 61.3281 28.543 61.8867 28.543C62.75 28.543 63.4473 28.8418 63.9785 29.4395C64.5137 30.0371 64.7812 30.832 64.7812 31.8242V31.9004C64.7812 32.5176 64.6621 33.0723 64.4238 33.5645C64.1895 34.0527 63.8516 34.4336 63.4102 34.707C62.9727 34.9805 62.4688 35.1172 61.8984 35.1172C61.0391 35.1172 60.3418 34.8184 59.8066 34.2207C59.2754 33.623 59.0098 32.832 59.0098 31.8477V31.7715ZM60.0996 31.9004C60.0996 32.6035 60.2617 33.168 60.5859 33.5938C60.9141 34.0195 61.3516 34.2324 61.8984 34.2324C62.4492 34.2324 62.8867 34.0176 63.2109 33.5879C63.5352 33.1543 63.6973 32.5488 63.6973 31.7715C63.6973 31.0762 63.5312 30.5137 63.1992 30.084C62.8711 29.6504 62.4336 29.4336 61.8867 29.4336C61.3516 29.4336 60.9199 29.6465 60.5918 30.0723C60.2637 30.498 60.0996 31.1074 60.0996 31.9004ZM67.166 28.6602L67.2012 29.457C67.6855 28.8477 68.3184 28.543 69.0996 28.543C70.4395 28.543 71.1152 29.2988 71.127 30.8105V35H70.043V30.8047C70.0391 30.3477 69.9336 30.0098 69.7266 29.791C69.5234 29.5723 69.2051 29.4629 68.7715 29.4629C68.4199 29.4629 68.1113 29.5566 67.8457 29.7441C67.5801 29.9316 67.373 30.1777 67.2246 30.4824V35H66.1406V28.6602H67.166ZM78.2812 34.2324C78.668 34.2324 79.0059 34.1152 79.2949 33.8809C79.584 33.6465 79.7441 33.3535 79.7754 33.002H80.8008C80.7812 33.3652 80.6562 33.7109 80.4258 34.0391C80.1953 34.3672 79.8867 34.6289 79.5 34.8242C79.1172 35.0195 78.7109 35.1172 78.2812 35.1172C77.418 35.1172 76.7305 34.8301 76.2188 34.2559C75.7109 33.6777 75.457 32.8887 75.457 31.8887V31.707C75.457 31.0898 75.5703 30.541 75.7969 30.0605C76.0234 29.5801 76.3477 29.207 76.7695 28.9414C77.1953 28.6758 77.6973 28.543 78.2754 28.543C78.9863 28.543 79.5762 28.7559 80.0449 29.1816C80.5176 29.6074 80.7695 30.1602 80.8008 30.8398H79.7754C79.7441 30.4297 79.5879 30.0938 79.3066 29.832C79.0293 29.5664 78.6855 29.4336 78.2754 29.4336C77.7246 29.4336 77.2969 29.6328 76.9922 30.0312C76.6914 30.4258 76.541 30.998 76.541 31.748V31.9531C76.541 32.6836 76.6914 33.2461 76.9922 33.6406C77.293 34.0352 77.7227 34.2324 78.2812 34.2324ZM81.7324 31.7715C81.7324 31.1504 81.8535 30.5918 82.0957 30.0957C82.3418 29.5996 82.6816 29.2168 83.1152 28.9473C83.5527 28.6777 84.0508 28.543 84.6094 28.543C85.4727 28.543 86.1699 28.8418 86.7012 29.4395C87.2363 30.0371 87.5039 30.832 87.5039 31.8242V31.9004C87.5039 32.5176 87.3848 33.0723 87.1465 33.5645C86.9121 34.0527 86.5742 34.4336 86.1328 34.707C85.6953 34.9805 85.1914 35.1172 84.6211 35.1172C83.7617 35.1172 83.0645 34.8184 82.5293 34.2207C81.998 33.623 81.7324 32.832 81.7324 31.8477V31.7715ZM82.8223 31.9004C82.8223 32.6035 82.9844 33.168 83.3086 33.5938C83.6367 34.0195 84.0742 34.2324 84.6211 34.2324C85.1719 34.2324 85.6094 34.0176 85.9336 33.5879C86.2578 33.1543 86.4199 32.5488 86.4199 31.7715C86.4199 31.0762 86.2539 30.5137 85.9219 30.084C85.5938 29.6504 85.1562 29.4336 84.6094 29.4336C84.0742 29.4336 83.6426 29.6465 83.3145 30.0723C82.9863 30.498 82.8223 31.1074 82.8223 31.9004ZM89.8887 28.6602L89.9238 29.457C90.4082 28.8477 91.041 28.543 91.8223 28.543C93.1621 28.543 93.8379 29.2988 93.8496 30.8105V35H92.7656V30.8047C92.7617 30.3477 92.6562 30.0098 92.4492 29.791C92.2461 29.5723 91.9277 29.4629 91.4941 29.4629C91.1426 29.4629 90.834 29.5566 90.5684 29.7441C90.3027 29.9316 90.0957 30.1777 89.9473 30.4824V35H88.8633V28.6602H89.8887ZM96.9551 27.125V28.6602H98.1387V29.498H96.9551V33.4297C96.9551 33.6836 97.0078 33.875 97.1133 34.0039C97.2188 34.1289 97.3984 34.1914 97.6523 34.1914C97.7773 34.1914 97.9492 34.168 98.168 34.1211V35C97.8828 35.0781 97.6055 35.1172 97.3359 35.1172C96.8516 35.1172 96.4863 34.9707 96.2402 34.6777C95.9941 34.3848 95.8711 33.9688 95.8711 33.4297V29.498H94.7168V28.6602H95.8711V27.125H96.9551ZM102.041 35.1172C101.182 35.1172 100.482 34.8359 99.9434 34.2734C99.4043 33.707 99.1348 32.9512 99.1348 32.0059V31.8066C99.1348 31.1777 99.2539 30.6172 99.4922 30.125C99.7344 29.6289 100.07 29.2422 100.5 28.9648C100.934 28.6836 101.402 28.543 101.906 28.543C102.73 28.543 103.371 28.8145 103.828 29.3574C104.285 29.9004 104.514 30.6777 104.514 31.6895V32.1406H100.219C100.234 32.7656 100.416 33.2715 100.764 33.6582C101.115 34.041 101.561 34.2324 102.1 34.2324C102.482 34.2324 102.807 34.1543 103.072 33.998C103.338 33.8418 103.57 33.6348 103.77 33.377L104.432 33.8926C103.9 34.709 103.104 35.1172 102.041 35.1172ZM101.906 29.4336C101.469 29.4336 101.102 29.5938 100.805 29.9141C100.508 30.2305 100.324 30.6758 100.254 31.25H103.43V31.168C103.398 30.6172 103.25 30.1914 102.984 29.8906C102.719 29.5859 102.359 29.4336 101.906 29.4336ZM107.9 30.9746L109.307 28.6602H110.572L108.498 31.7949L110.637 35H109.383L107.918 32.627L106.453 35H105.193L107.332 31.7949L105.258 28.6602H106.512L107.9 30.9746ZM113.197 27.125V28.6602H114.381V29.498H113.197V33.4297C113.197 33.6836 113.25 33.875 113.355 34.0039C113.461 34.1289 113.641 34.1914 113.895 34.1914C114.02 34.1914 114.191 34.168 114.41 34.1211V35C114.125 35.0781 113.848 35.1172 113.578 35.1172C113.094 35.1172 112.729 34.9707 112.482 34.6777C112.236 34.3848 112.113 33.9688 112.113 33.4297V29.498H110.959V28.6602H112.113V27.125H113.197Z" fill="black"/>
<path d="M55.5814 49.972H53.9374V49.228L55.6174 49.168L55.7494 47.536H56.5654V49.168H59.4334V49.972H56.5654V52.744C56.5654 53.008 56.5894 53.24 56.6374 53.44C56.6854 53.632 56.7654 53.796 56.8774 53.932C56.9894 54.068 57.1414 54.172 57.3334 54.244C57.5254 54.308 57.7614 54.34 58.0414 54.34C58.3214 54.34 58.5734 54.316 58.7974 54.268C59.0214 54.22 59.2374 54.156 59.4454 54.076L59.6614 54.796C59.3974 54.892 59.1054 54.972 58.7854 55.036C58.4654 55.108 58.1454 55.144 57.8254 55.144C57.4014 55.144 57.0454 55.088 56.7574 54.976C56.4694 54.856 56.2374 54.692 56.0614 54.484C55.8934 54.268 55.7694 54.012 55.6894 53.716C55.6174 53.42 55.5814 53.092 55.5814 52.732V49.972ZM61.4207 46.456H62.4047V48.784L62.3567 50.164C62.6687 49.836 63.0007 49.564 63.3527 49.348C63.7047 49.132 64.1087 49.024 64.5647 49.024C65.2607 49.024 65.7687 49.224 66.0887 49.624C66.4167 50.016 66.5807 50.6 66.5807 51.376V55H65.5967V51.508C65.5967 50.956 65.4927 50.548 65.2847 50.284C65.0767 50.012 64.7327 49.876 64.2527 49.876C64.0767 49.876 63.9127 49.9 63.7607 49.948C63.6167 49.988 63.4727 50.052 63.3287 50.14C63.1847 50.228 63.0367 50.34 62.8847 50.476C62.7327 50.604 62.5727 50.756 62.4047 50.932V55H61.4207V46.456ZM68.58 49.168H72.276V55H71.292V49.972H68.58V49.168ZM71.676 47.968C71.444 47.968 71.252 47.9 71.1 47.764C70.956 47.628 70.884 47.444 70.884 47.212C70.884 46.98 70.956 46.796 71.1 46.66C71.252 46.516 71.444 46.444 71.676 46.444C71.9 46.444 72.088 46.516 72.24 46.66C72.392 46.796 72.468 46.98 72.468 47.212C72.468 47.444 72.392 47.628 72.24 47.764C72.088 47.9 71.9 47.968 71.676 47.968ZM76.0393 53.584C76.3673 53.824 76.7193 54.016 77.0953 54.16C77.4713 54.304 77.9233 54.376 78.4513 54.376C78.9793 54.376 79.3713 54.288 79.6273 54.112C79.8833 53.936 80.0113 53.72 80.0113 53.464C80.0113 53.24 79.8713 53.04 79.5913 52.864C79.3193 52.688 78.8273 52.512 78.1153 52.336C77.8113 52.264 77.5233 52.176 77.2513 52.072C76.9873 51.968 76.7553 51.848 76.5553 51.712C76.3553 51.568 76.1953 51.412 76.0753 51.244C75.9553 51.076 75.8953 50.888 75.8953 50.68C75.8953 50.448 75.9473 50.232 76.0513 50.032C76.1553 49.824 76.3073 49.648 76.5073 49.504C76.7153 49.352 76.9713 49.236 77.2753 49.156C77.5873 49.068 77.9433 49.024 78.3433 49.024C78.7833 49.024 79.2113 49.1 79.6273 49.252C80.0433 49.396 80.3953 49.568 80.6833 49.768L80.2033 50.404C79.9473 50.22 79.6633 50.072 79.3513 49.96C79.0393 49.848 78.7033 49.792 78.3433 49.792C78.0713 49.792 77.8433 49.816 77.6593 49.864C77.4753 49.904 77.3273 49.964 77.2153 50.044C77.1033 50.116 77.0233 50.204 76.9753 50.308C76.9273 50.412 76.9033 50.52 76.9033 50.632C76.9033 50.872 77.0673 51.072 77.3953 51.232C77.7233 51.384 78.1513 51.528 78.6793 51.664C79.4713 51.864 80.0553 52.092 80.4313 52.348C80.8153 52.604 81.0073 52.956 81.0073 53.404C81.0073 53.644 80.9513 53.868 80.8393 54.076C80.7273 54.284 80.5593 54.468 80.3353 54.628C80.1193 54.788 79.8473 54.912 79.5193 55C79.1993 55.096 78.8313 55.144 78.4153 55.144C77.8393 55.144 77.3073 55.056 76.8193 54.88C76.3393 54.696 75.9193 54.48 75.5593 54.232L76.0393 53.584Z" fill="black"/>
<path d="M199.354 122.354C199.549 122.158 199.549 121.842 199.354 121.646L196.172 118.464C195.976 118.269 195.66 118.269 195.464 118.464C195.269 118.66 195.269 118.976 195.464 119.172L198.293 122L195.464 124.828C195.269 125.024 195.269 125.34 195.464 125.536C195.66 125.731 195.976 125.731 196.172 125.536L199.354 122.354ZM85 122.5H199V121.5H85V122.5Z" fill="#B5B5B5"/>
<path d="M199.354 121.354C199.549 121.158 199.549 120.842 199.354 120.646L196.172 117.464C195.976 117.269 195.66 117.269 195.464 117.464C195.269 117.66 195.269 117.976 195.464 118.172L198.293 121L195.464 123.828C195.269 124.024 195.269 124.34 195.464 124.536C195.66 124.731 195.976 124.731 196.172 124.536L199.354 121.354ZM85 121.5H199V120.5H85V121.5Z" fill="black"/>
<path d="M187.354 53.3536C187.549 53.1583 187.549 52.8417 187.354 52.6464L184.172 49.4645C183.976 49.2692 183.66 49.2692 183.464 49.4645C183.269 49.6597 183.269 49.9763 183.464 50.1716L186.293 53L183.464 55.8284C183.269 56.0237 183.269 56.3403 183.464 56.5355C183.66 56.7308 183.976 56.7308 184.172 56.5355L187.354 53.3536ZM85 53.5H187V52.5H85V53.5Z" fill="#B5B5B5"/>
<path d="M187.354 52.3536C187.549 52.1583 187.549 51.8417 187.354 51.6464L184.172 48.4645C183.976 48.2692 183.66 48.2692 183.464 48.4645C183.269 48.6597 183.269 48.9763 183.464 49.1716L186.293 52L183.464 54.8284C183.269 55.0237 183.269 55.3403 183.464 55.5355C183.66 55.7308 183.976 55.7308 184.172 55.5355L187.354 52.3536ZM85 52.5H187V51.5H85V52.5Z" fill="black"/>
</svg>
