<svg width="277" height="135" viewBox="0 0 277 135" fill="none" xmlns="http://www.w3.org/2000/svg">
<rect x="184" y="104" width="93" height="31" fill="#C4C4C4"/>
<path d="M209.51 110.168H210.518L211.226 113.54C211.282 113.82 211.334 114.092 211.382 114.356C211.43 114.62 211.474 114.888 211.514 115.16H211.562C211.618 114.888 211.674 114.62 211.73 114.356C211.786 114.084 211.846 113.812 211.91 113.54L212.618 110.516H213.458L214.178 113.54C214.242 113.82 214.302 114.092 214.358 114.356C214.414 114.62 214.474 114.888 214.538 115.16H214.586C214.642 114.888 214.69 114.62 214.73 114.356C214.778 114.092 214.826 113.82 214.874 113.54L215.582 110.168H216.518L215.246 116H214.058L213.362 113.048C213.306 112.768 213.254 112.492 213.206 112.22C213.158 111.94 213.102 111.652 213.038 111.356H212.99C212.942 111.612 212.894 111.876 212.846 112.148C212.798 112.42 212.738 112.724 212.666 113.06L211.994 116H210.818L209.51 110.168ZM217.689 110.168H221.385V116H220.401V110.972H217.689V110.168ZM220.785 108.968C220.553 108.968 220.361 108.9 220.209 108.764C220.065 108.628 219.993 108.444 219.993 108.212C219.993 107.98 220.065 107.796 220.209 107.66C220.361 107.516 220.553 107.444 220.785 107.444C221.009 107.444 221.197 107.516 221.349 107.66C221.501 107.796 221.577 107.98 221.577 108.212C221.577 108.444 221.501 108.628 221.349 108.764C221.197 108.9 221.009 108.968 220.785 108.968ZM224.921 110.168H225.737L225.821 111.164H225.869C226.173 110.836 226.501 110.564 226.853 110.348C227.205 110.132 227.609 110.024 228.065 110.024C228.761 110.024 229.269 110.224 229.589 110.624C229.917 111.016 230.081 111.6 230.081 112.376V116H229.097V112.508C229.097 111.956 228.993 111.548 228.785 111.284C228.577 111.012 228.233 110.876 227.753 110.876C227.577 110.876 227.413 110.9 227.261 110.948C227.117 110.988 226.973 111.052 226.829 111.14C226.685 111.228 226.537 111.34 226.385 111.476C226.233 111.604 226.073 111.756 225.905 111.932V116H224.921V110.168ZM231.72 113.096C231.72 112.624 231.792 112.2 231.936 111.824C232.088 111.44 232.284 111.116 232.524 110.852C232.772 110.588 233.056 110.384 233.376 110.24C233.696 110.096 234.028 110.024 234.372 110.024C234.732 110.024 235.048 110.092 235.32 110.228C235.592 110.364 235.864 110.548 236.136 110.78L236.1 109.7V107.456H237.084V116H236.268L236.184 115.232H236.148C235.908 115.48 235.62 115.696 235.284 115.88C234.956 116.056 234.612 116.144 234.252 116.144C233.868 116.144 233.52 116.076 233.208 115.94C232.904 115.804 232.64 115.608 232.416 115.352C232.192 115.088 232.02 114.768 231.9 114.392C231.78 114.016 231.72 113.584 231.72 113.096ZM232.74 113.084C232.74 113.788 232.888 114.336 233.184 114.728C233.488 115.12 233.912 115.316 234.456 115.316C235.032 115.316 235.58 115.024 236.1 114.44V111.536C235.836 111.288 235.576 111.112 235.32 111.008C235.072 110.904 234.82 110.852 234.564 110.852C234.308 110.852 234.068 110.908 233.844 111.02C233.628 111.124 233.436 111.276 233.268 111.476C233.108 111.668 232.98 111.9 232.884 112.172C232.788 112.444 232.74 112.748 232.74 113.084ZM238.915 113.096C238.915 112.608 238.991 112.176 239.143 111.8C239.303 111.416 239.515 111.092 239.779 110.828C240.043 110.564 240.347 110.364 240.691 110.228C241.043 110.092 241.411 110.024 241.795 110.024C242.179 110.024 242.543 110.092 242.887 110.228C243.239 110.364 243.547 110.564 243.811 110.828C244.075 111.092 244.283 111.416 244.435 111.8C244.595 112.176 244.675 112.608 244.675 113.096C244.675 113.576 244.595 114.008 244.435 114.392C244.283 114.768 244.075 115.088 243.811 115.352C243.547 115.608 243.239 115.804 242.887 115.94C242.543 116.076 242.179 116.144 241.795 116.144C241.411 116.144 241.043 116.076 240.691 115.94C240.347 115.804 240.043 115.608 239.779 115.352C239.515 115.088 239.303 114.768 239.143 114.392C238.991 114.008 238.915 113.576 238.915 113.096ZM239.935 113.096C239.935 113.432 239.979 113.736 240.067 114.008C240.155 114.28 240.279 114.516 240.439 114.716C240.607 114.908 240.803 115.06 241.027 115.172C241.259 115.276 241.515 115.328 241.795 115.328C242.075 115.328 242.327 115.276 242.551 115.172C242.783 115.06 242.979 114.908 243.139 114.716C243.307 114.516 243.435 114.28 243.523 114.008C243.611 113.736 243.655 113.432 243.655 113.096C243.655 112.76 243.611 112.456 243.523 112.184C243.435 111.904 243.307 111.664 243.139 111.464C242.979 111.264 242.783 111.112 242.551 111.008C242.327 110.896 242.075 110.84 241.795 110.84C241.515 110.84 241.259 110.896 241.027 111.008C240.803 111.112 240.607 111.264 240.439 111.464C240.279 111.664 240.155 111.904 240.067 112.184C239.979 112.456 239.935 112.76 239.935 113.096ZM245.487 110.168H246.495L247.203 113.54C247.259 113.82 247.311 114.092 247.359 114.356C247.407 114.62 247.451 114.888 247.491 115.16H247.539C247.595 114.888 247.651 114.62 247.707 114.356C247.763 114.084 247.823 113.812 247.887 113.54L248.595 110.516H249.435L250.155 113.54C250.219 113.82 250.279 114.092 250.335 114.356C250.391 114.62 250.451 114.888 250.515 115.16H250.563C250.619 114.888 250.667 114.62 250.707 114.356C250.755 114.092 250.803 113.82 250.851 113.54L251.559 110.168H252.495L251.223 116H250.035L249.339 113.048C249.283 112.768 249.231 112.492 249.183 112.22C249.135 111.94 249.079 111.652 249.015 111.356H248.967C248.919 111.612 248.871 111.876 248.823 112.148C248.775 112.42 248.715 112.724 248.643 113.06L247.971 116H246.795L245.487 110.168Z" fill="black"/>
<path d="M209.414 117.2H252.591V117.8H209.414V117.2Z" fill="black"/>
<rect x="184" y="31" width="93" height="36" fill="#C4C4C4"/>
<path d="M196.139 37.168H196.955L197.039 38.164H197.087C197.391 37.836 197.719 37.564 198.071 37.348C198.423 37.132 198.827 37.024 199.283 37.024C199.979 37.024 200.487 37.224 200.807 37.624C201.135 38.016 201.299 38.6 201.299 39.376V43H200.315V39.508C200.315 38.956 200.211 38.548 200.003 38.284C199.795 38.012 199.451 37.876 198.971 37.876C198.795 37.876 198.631 37.9 198.479 37.948C198.335 37.988 198.191 38.052 198.047 38.14C197.903 38.228 197.755 38.34 197.603 38.476C197.451 38.604 197.291 38.756 197.123 38.932V43H196.139V37.168ZM203.047 40.096C203.047 39.616 203.131 39.188 203.299 38.812C203.467 38.428 203.687 38.104 203.959 37.84C204.239 37.576 204.555 37.376 204.907 37.24C205.267 37.096 205.635 37.024 206.011 37.024C206.427 37.024 206.799 37.092 207.127 37.228C207.455 37.356 207.731 37.54 207.955 37.78C208.187 38.02 208.363 38.308 208.483 38.644C208.603 38.98 208.663 39.352 208.663 39.76C208.663 39.864 208.659 39.968 208.651 40.072C208.651 40.168 208.643 40.252 208.627 40.324H204.067C204.075 40.636 204.135 40.916 204.247 41.164C204.367 41.412 204.523 41.624 204.715 41.8C204.915 41.976 205.147 42.112 205.411 42.208C205.683 42.304 205.979 42.352 206.299 42.352C206.643 42.352 206.955 42.304 207.235 42.208C207.523 42.112 207.803 41.98 208.075 41.812L208.423 42.46C208.135 42.644 207.807 42.804 207.439 42.94C207.071 43.076 206.651 43.144 206.179 43.144C205.747 43.144 205.339 43.076 204.955 42.94C204.579 42.796 204.247 42.596 203.959 42.34C203.679 42.076 203.455 41.756 203.287 41.38C203.127 41.004 203.047 40.576 203.047 40.096ZM207.751 39.616C207.751 39.032 207.599 38.584 207.295 38.272C206.991 37.96 206.567 37.804 206.023 37.804C205.783 37.804 205.551 37.844 205.327 37.924C205.111 38.004 204.915 38.124 204.739 38.284C204.563 38.436 204.415 38.624 204.295 38.848C204.175 39.072 204.095 39.328 204.055 39.616H207.751ZM209.51 37.168H210.518L211.226 40.54C211.282 40.82 211.334 41.092 211.382 41.356C211.43 41.62 211.474 41.888 211.514 42.16H211.562C211.618 41.888 211.674 41.62 211.73 41.356C211.786 41.084 211.846 40.812 211.91 40.54L212.618 37.516H213.458L214.178 40.54C214.242 40.82 214.302 41.092 214.358 41.356C214.414 41.62 214.474 41.888 214.538 42.16H214.586C214.642 41.888 214.69 41.62 214.73 41.356C214.778 41.092 214.826 40.82 214.874 40.54L215.582 37.168H216.518L215.246 43H214.058L213.362 40.048C213.306 39.768 213.254 39.492 213.206 39.22C213.158 38.94 213.102 38.652 213.038 38.356H212.99C212.942 38.612 212.894 38.876 212.846 39.148C212.798 39.42 212.738 39.724 212.666 40.06L211.994 43H210.818L209.51 37.168ZM224.525 40.096C224.525 39.608 224.601 39.176 224.753 38.8C224.913 38.416 225.125 38.092 225.389 37.828C225.653 37.564 225.957 37.364 226.301 37.228C226.653 37.092 227.021 37.024 227.405 37.024C227.789 37.024 228.153 37.092 228.497 37.228C228.849 37.364 229.157 37.564 229.421 37.828C229.685 38.092 229.893 38.416 230.045 38.8C230.205 39.176 230.285 39.608 230.285 40.096C230.285 40.576 230.205 41.008 230.045 41.392C229.893 41.768 229.685 42.088 229.421 42.352C229.157 42.608 228.849 42.804 228.497 42.94C228.153 43.076 227.789 43.144 227.405 43.144C227.021 43.144 226.653 43.076 226.301 42.94C225.957 42.804 225.653 42.608 225.389 42.352C225.125 42.088 224.913 41.768 224.753 41.392C224.601 41.008 224.525 40.576 224.525 40.096ZM225.545 40.096C225.545 40.432 225.589 40.736 225.677 41.008C225.765 41.28 225.889 41.516 226.049 41.716C226.217 41.908 226.413 42.06 226.637 42.172C226.869 42.276 227.125 42.328 227.405 42.328C227.685 42.328 227.937 42.276 228.161 42.172C228.393 42.06 228.589 41.908 228.749 41.716C228.917 41.516 229.045 41.28 229.133 41.008C229.221 40.736 229.265 40.432 229.265 40.096C229.265 39.76 229.221 39.456 229.133 39.184C229.045 38.904 228.917 38.664 228.749 38.464C228.589 38.264 228.393 38.112 228.161 38.008C227.937 37.896 227.685 37.84 227.405 37.84C227.125 37.84 226.869 37.896 226.637 38.008C226.413 38.112 226.217 38.264 226.049 38.464C225.889 38.664 225.765 38.904 225.677 39.184C225.589 39.456 225.545 39.76 225.545 40.096ZM232.116 34.456H233.1V36.784L233.076 37.912C233.356 37.64 233.668 37.424 234.012 37.264C234.364 37.104 234.712 37.024 235.056 37.024C235.448 37.024 235.796 37.096 236.1 37.24C236.404 37.376 236.656 37.576 236.856 37.84C237.064 38.096 237.22 38.408 237.324 38.776C237.428 39.136 237.48 39.54 237.48 39.988C237.48 40.484 237.408 40.928 237.264 41.32C237.12 41.712 236.924 42.044 236.676 42.316C236.436 42.588 236.156 42.796 235.836 42.94C235.516 43.076 235.184 43.144 234.84 43.144C234.56 43.144 234.256 43.076 233.928 42.94C233.608 42.796 233.308 42.6 233.028 42.352H232.992L232.908 43H232.116V34.456ZM233.1 41.632C233.38 41.88 233.66 42.056 233.94 42.16C234.228 42.264 234.476 42.316 234.684 42.316C234.94 42.316 235.176 42.264 235.392 42.16C235.608 42.048 235.796 41.896 235.956 41.704C236.116 41.504 236.24 41.26 236.328 40.972C236.416 40.684 236.46 40.36 236.46 40C236.46 39.68 236.428 39.388 236.364 39.124C236.3 38.86 236.2 38.636 236.064 38.452C235.936 38.26 235.768 38.112 235.56 38.008C235.352 37.904 235.104 37.852 234.816 37.852C234.56 37.852 234.284 37.924 233.988 38.068C233.7 38.204 233.404 38.424 233.1 38.728V41.632ZM239.275 37.168H242.971V43.144C242.971 43.504 242.931 43.832 242.851 44.128C242.771 44.432 242.635 44.692 242.443 44.908C242.259 45.132 242.011 45.304 241.699 45.424C241.387 45.544 240.995 45.604 240.523 45.604C240.219 45.604 239.923 45.564 239.635 45.484C239.347 45.412 239.087 45.32 238.855 45.208L239.179 44.476C239.387 44.58 239.603 44.66 239.827 44.716C240.059 44.772 240.287 44.8 240.511 44.8C240.799 44.8 241.039 44.764 241.231 44.692C241.423 44.62 241.575 44.516 241.687 44.38C241.799 44.244 241.875 44.076 241.915 43.876C241.963 43.684 241.987 43.464 241.987 43.216V37.972H239.275V37.168ZM242.371 35.968C242.139 35.968 241.947 35.9 241.795 35.764C241.651 35.628 241.579 35.444 241.579 35.212C241.579 34.98 241.651 34.796 241.795 34.66C241.947 34.516 242.139 34.444 242.371 34.444C242.595 34.444 242.783 34.516 242.935 34.66C243.087 34.796 243.163 34.98 243.163 35.212C243.163 35.444 243.087 35.628 242.935 35.764C242.783 35.9 242.595 35.968 242.371 35.968ZM246.219 40.096C246.219 39.616 246.303 39.188 246.471 38.812C246.639 38.428 246.859 38.104 247.131 37.84C247.411 37.576 247.727 37.376 248.079 37.24C248.439 37.096 248.807 37.024 249.183 37.024C249.599 37.024 249.971 37.092 250.299 37.228C250.627 37.356 250.903 37.54 251.127 37.78C251.359 38.02 251.535 38.308 251.655 38.644C251.775 38.98 251.835 39.352 251.835 39.76C251.835 39.864 251.831 39.968 251.823 40.072C251.823 40.168 251.815 40.252 251.799 40.324H247.239C247.247 40.636 247.307 40.916 247.419 41.164C247.539 41.412 247.695 41.624 247.887 41.8C248.087 41.976 248.319 42.112 248.583 42.208C248.855 42.304 249.151 42.352 249.471 42.352C249.815 42.352 250.127 42.304 250.407 42.208C250.695 42.112 250.975 41.98 251.247 41.812L251.595 42.46C251.307 42.644 250.979 42.804 250.611 42.94C250.243 43.076 249.823 43.144 249.351 43.144C248.919 43.144 248.511 43.076 248.127 42.94C247.751 42.796 247.419 42.596 247.131 42.34C246.851 42.076 246.627 41.756 246.459 41.38C246.299 41.004 246.219 40.576 246.219 40.096ZM250.923 39.616C250.923 39.032 250.771 38.584 250.467 38.272C250.163 37.96 249.739 37.804 249.195 37.804C248.955 37.804 248.723 37.844 248.499 37.924C248.283 38.004 248.087 38.124 247.911 38.284C247.735 38.436 247.587 38.624 247.467 38.848C247.347 39.072 247.267 39.328 247.227 39.616H250.923ZM253.546 40.096C253.546 39.608 253.63 39.176 253.798 38.8C253.974 38.416 254.21 38.092 254.506 37.828C254.802 37.564 255.146 37.364 255.538 37.228C255.938 37.092 256.358 37.024 256.798 37.024C257.278 37.024 257.69 37.108 258.034 37.276C258.386 37.444 258.682 37.644 258.922 37.876L258.43 38.512C258.19 38.304 257.938 38.14 257.674 38.02C257.418 37.9 257.138 37.84 256.834 37.84C256.498 37.84 256.19 37.896 255.91 38.008C255.63 38.112 255.39 38.264 255.19 38.464C254.998 38.664 254.846 38.904 254.734 39.184C254.622 39.456 254.566 39.76 254.566 40.096C254.566 40.432 254.618 40.736 254.722 41.008C254.834 41.28 254.986 41.516 255.178 41.716C255.378 41.908 255.614 42.06 255.886 42.172C256.166 42.276 256.474 42.328 256.81 42.328C257.17 42.328 257.498 42.26 257.794 42.124C258.098 41.98 258.374 41.804 258.622 41.596L259.054 42.232C258.734 42.52 258.374 42.744 257.974 42.904C257.582 43.064 257.17 43.144 256.738 43.144C256.282 43.144 255.858 43.076 255.466 42.94C255.082 42.804 254.746 42.608 254.458 42.352C254.17 42.088 253.946 41.768 253.786 41.392C253.626 41.008 253.546 40.576 253.546 40.096ZM262.253 37.972H260.609V37.228L262.289 37.168L262.421 35.536H263.237V37.168H266.105V37.972H263.237V40.744C263.237 41.008 263.261 41.24 263.309 41.44C263.357 41.632 263.437 41.796 263.549 41.932C263.661 42.068 263.813 42.172 264.005 42.244C264.197 42.308 264.433 42.34 264.713 42.34C264.993 42.34 265.245 42.316 265.469 42.268C265.693 42.22 265.909 42.156 266.117 42.076L266.333 42.796C266.069 42.892 265.777 42.972 265.457 43.036C265.137 43.108 264.817 43.144 264.497 43.144C264.073 43.144 263.717 43.088 263.429 42.976C263.141 42.856 262.909 42.692 262.733 42.484C262.565 42.268 262.441 42.012 262.361 41.716C262.289 41.42 262.253 41.092 262.253 40.732V37.972Z" fill="black"/>
<path d="M195.023 44.2H266.981V44.8H195.023V44.2Z" fill="black"/>
<rect y="69" width="134" height="66" fill="#C4C4C4"/>
<path d="M57.7441 83.9219C57.4277 84.3008 56.9805 84.5957 56.4023 84.8066C55.8242 85.0137 55.1836 85.1172 54.4805 85.1172C53.7422 85.1172 53.0938 84.957 52.5352 84.6367C51.9805 84.3125 51.5508 83.8438 51.2461 83.2305C50.9453 82.6172 50.791 81.8965 50.7832 81.0684V80.4883C50.7832 79.6367 50.9258 78.9004 51.2109 78.2793C51.5 77.6543 51.9141 77.1777 52.4531 76.8496C52.9961 76.5176 53.6309 76.3516 54.3574 76.3516C55.3691 76.3516 56.1602 76.5938 56.7305 77.0781C57.3008 77.5586 57.6387 78.2598 57.7441 79.1816H56.0332C55.9551 78.6934 55.7812 78.3359 55.5117 78.1094C55.2461 77.8828 54.8789 77.7695 54.4102 77.7695C53.8125 77.7695 53.3574 77.9941 53.0449 78.4434C52.7324 78.8926 52.5742 79.5605 52.5703 80.4473V80.9922C52.5703 81.8867 52.7402 82.5625 53.0801 83.0195C53.4199 83.4766 53.918 83.7051 54.5742 83.7051C55.2344 83.7051 55.7051 83.5645 55.9863 83.2832V81.8125H54.3867V80.5176H57.7441V83.9219ZM60.8496 85H59.1504V76H60.8496V85ZM61.9863 81.7715C61.9863 81.1426 62.1074 80.582 62.3496 80.0898C62.5918 79.5977 62.9395 79.2168 63.3926 78.9473C63.8496 78.6777 64.3789 78.543 64.9805 78.543C65.8359 78.543 66.5332 78.8047 67.0723 79.3281C67.6152 79.8516 67.918 80.5625 67.9805 81.4609L67.9922 81.8945C67.9922 82.8672 67.7207 83.6484 67.1777 84.2383C66.6348 84.8242 65.9062 85.1172 64.9922 85.1172C64.0781 85.1172 63.3477 84.8242 62.8008 84.2383C62.2578 83.6523 61.9863 82.8555 61.9863 81.8477V81.7715ZM63.6797 81.8945C63.6797 82.4961 63.793 82.957 64.0195 83.2773C64.2461 83.5938 64.5703 83.752 64.9922 83.752C65.4023 83.752 65.7227 83.5957 65.9531 83.2832C66.1836 82.9668 66.2988 82.4629 66.2988 81.7715C66.2988 81.1816 66.1836 80.7246 65.9531 80.4004C65.7227 80.0762 65.3984 79.9141 64.9805 79.9141C64.5664 79.9141 64.2461 80.0762 64.0195 80.4004C63.793 80.7207 63.6797 81.2188 63.6797 81.8945ZM74.748 81.8887C74.748 82.9043 74.5312 83.6973 74.0977 84.2676C73.6641 84.834 73.0586 85.1172 72.2812 85.1172C71.5938 85.1172 71.0449 84.8535 70.6348 84.3262L70.5586 85H69.0352V76H70.7285V79.2285C71.1191 78.7715 71.6328 78.543 72.2695 78.543C73.043 78.543 73.6484 78.8281 74.0859 79.3984C74.5273 79.9648 74.748 80.7637 74.748 81.7949V81.8887ZM73.0547 81.7656C73.0547 81.125 72.9531 80.6582 72.75 80.3652C72.5469 80.0684 72.2441 79.9199 71.8418 79.9199C71.3027 79.9199 70.9316 80.1406 70.7285 80.582V83.084C70.9355 83.5293 71.3105 83.752 71.8535 83.752C72.4004 83.752 72.7598 83.4824 72.9316 82.9434C73.0137 82.6855 73.0547 82.293 73.0547 81.7656ZM79.4707 85C79.3926 84.8477 79.3359 84.6582 79.3008 84.4316C78.8906 84.8887 78.3574 85.1172 77.7012 85.1172C77.0801 85.1172 76.5645 84.9375 76.1543 84.5781C75.748 84.2188 75.5449 83.7656 75.5449 83.2188C75.5449 82.5469 75.793 82.0312 76.2891 81.6719C76.7891 81.3125 77.5098 81.1309 78.4512 81.127H79.2305V80.7637C79.2305 80.4707 79.1543 80.2363 79.002 80.0605C78.8535 79.8848 78.6172 79.7969 78.293 79.7969C78.0078 79.7969 77.7832 79.8652 77.6191 80.002C77.459 80.1387 77.3789 80.3262 77.3789 80.5645H75.6855C75.6855 80.1973 75.7988 79.8574 76.0254 79.5449C76.252 79.2324 76.5723 78.9883 76.9863 78.8125C77.4004 78.6328 77.8652 78.543 78.3809 78.543C79.1621 78.543 79.7812 78.7402 80.2383 79.1348C80.6992 79.5254 80.9297 80.0762 80.9297 80.7871V83.5352C80.9336 84.1367 81.0176 84.5918 81.1816 84.9004V85H79.4707ZM78.0703 83.8223C78.3203 83.8223 78.5508 83.7676 78.7617 83.6582C78.9727 83.5449 79.1289 83.3945 79.2305 83.207V82.1172H78.5977C77.75 82.1172 77.2988 82.4102 77.2441 82.9961L77.2383 83.0957C77.2383 83.3066 77.3125 83.4805 77.4609 83.6172C77.6094 83.7539 77.8125 83.8223 78.0703 83.8223ZM84.0176 85H82.3184V76H84.0176V85Z" fill="black"/>
<path d="M23.6191 104.117C22.7598 104.117 22.0605 103.836 21.5215 103.273C20.9824 102.707 20.7129 101.951 20.7129 101.006V100.807C20.7129 100.178 20.832 99.6172 21.0703 99.125C21.3125 98.6289 21.6484 98.2422 22.0781 97.9648C22.5117 97.6836 22.9805 97.543 23.4844 97.543C24.3086 97.543 24.9492 97.8145 25.4062 98.3574C25.8633 98.9004 26.0918 99.6777 26.0918 100.689V101.141H21.7969C21.8125 101.766 21.9941 102.271 22.3418 102.658C22.6934 103.041 23.1387 103.232 23.6777 103.232C24.0605 103.232 24.3848 103.154 24.6504 102.998C24.916 102.842 25.1484 102.635 25.3477 102.377L26.0098 102.893C25.4785 103.709 24.6816 104.117 23.6191 104.117ZM23.4844 98.4336C23.0469 98.4336 22.6797 98.5938 22.3828 98.9141C22.0859 99.2305 21.9023 99.6758 21.832 100.25H25.0078V100.168C24.9766 99.6172 24.8281 99.1914 24.5625 98.8906C24.2969 98.5859 23.9375 98.4336 23.4844 98.4336ZM29.4785 99.9746L30.8848 97.6602H32.1504L30.0762 100.795L32.2148 104H30.9609L29.4961 101.627L28.0312 104H26.7715L28.9102 100.795L26.8359 97.6602H28.0898L29.4785 99.9746ZM35.8184 104.117C34.959 104.117 34.2598 103.836 33.7207 103.273C33.1816 102.707 32.9121 101.951 32.9121 101.006V100.807C32.9121 100.178 33.0312 99.6172 33.2695 99.125C33.5117 98.6289 33.8477 98.2422 34.2773 97.9648C34.7109 97.6836 35.1797 97.543 35.6836 97.543C36.5078 97.543 37.1484 97.8145 37.6055 98.3574C38.0625 98.9004 38.291 99.6777 38.291 100.689V101.141H33.9961C34.0117 101.766 34.1934 102.271 34.541 102.658C34.8926 103.041 35.3379 103.232 35.877 103.232C36.2598 103.232 36.584 103.154 36.8496 102.998C37.1152 102.842 37.3477 102.635 37.5469 102.377L38.209 102.893C37.6777 103.709 36.8809 104.117 35.8184 104.117ZM35.6836 98.4336C35.2461 98.4336 34.8789 98.5938 34.582 98.9141C34.2852 99.2305 34.1016 99.6758 34.0312 100.25H37.207V100.168C37.1758 99.6172 37.0273 99.1914 36.7617 98.8906C36.4961 98.5859 36.1367 98.4336 35.6836 98.4336ZM42.0938 103.232C42.4805 103.232 42.8184 103.115 43.1074 102.881C43.3965 102.646 43.5566 102.354 43.5879 102.002H44.6133C44.5938 102.365 44.4688 102.711 44.2383 103.039C44.0078 103.367 43.6992 103.629 43.3125 103.824C42.9297 104.02 42.5234 104.117 42.0938 104.117C41.2305 104.117 40.543 103.83 40.0312 103.256C39.5234 102.678 39.2695 101.889 39.2695 100.889V100.707C39.2695 100.09 39.3828 99.541 39.6094 99.0605C39.8359 98.5801 40.1602 98.207 40.582 97.9414C41.0078 97.6758 41.5098 97.543 42.0879 97.543C42.7988 97.543 43.3887 97.7559 43.8574 98.1816C44.3301 98.6074 44.582 99.1602 44.6133 99.8398H43.5879C43.5566 99.4297 43.4004 99.0938 43.1191 98.832C42.8418 98.5664 42.498 98.4336 42.0879 98.4336C41.5371 98.4336 41.1094 98.6328 40.8047 99.0312C40.5039 99.4258 40.3535 99.998 40.3535 100.748V100.953C40.3535 101.684 40.5039 102.246 40.8047 102.641C41.1055 103.035 41.5352 103.232 42.0938 103.232ZM49.7461 103.373C49.3242 103.869 48.7051 104.117 47.8887 104.117C47.2129 104.117 46.6973 103.922 46.3418 103.531C45.9902 103.137 45.8125 102.555 45.8086 101.785V97.6602H46.8926V101.756C46.8926 102.717 47.2832 103.197 48.0645 103.197C48.8926 103.197 49.4434 102.889 49.7168 102.271V97.6602H50.8008V104H49.7695L49.7461 103.373ZM53.9238 96.125V97.6602H55.1074V98.498H53.9238V102.43C53.9238 102.684 53.9766 102.875 54.082 103.004C54.1875 103.129 54.3672 103.191 54.6211 103.191C54.7461 103.191 54.918 103.168 55.1367 103.121V104C54.8516 104.078 54.5742 104.117 54.3047 104.117C53.8203 104.117 53.4551 103.971 53.209 103.678C52.9629 103.385 52.8398 102.969 52.8398 102.43V98.498H51.6855V97.6602H52.8398V96.125H53.9238ZM57.5566 104H56.4727V97.6602H57.5566V104ZM56.3848 95.9785C56.3848 95.8027 56.4375 95.6543 56.543 95.5332C56.6523 95.4121 56.8125 95.3516 57.0234 95.3516C57.2344 95.3516 57.3945 95.4121 57.5039 95.5332C57.6133 95.6543 57.668 95.8027 57.668 95.9785C57.668 96.1543 57.6133 96.3008 57.5039 96.418C57.3945 96.5352 57.2344 96.5938 57.0234 96.5938C56.8125 96.5938 56.6523 96.5352 56.543 96.418C56.4375 96.3008 56.3848 96.1543 56.3848 95.9785ZM59.0098 100.771C59.0098 100.15 59.1309 99.5918 59.373 99.0957C59.6191 98.5996 59.959 98.2168 60.3926 97.9473C60.8301 97.6777 61.3281 97.543 61.8867 97.543C62.75 97.543 63.4473 97.8418 63.9785 98.4395C64.5137 99.0371 64.7812 99.832 64.7812 100.824V100.9C64.7812 101.518 64.6621 102.072 64.4238 102.564C64.1895 103.053 63.8516 103.434 63.4102 103.707C62.9727 103.98 62.4688 104.117 61.8984 104.117C61.0391 104.117 60.3418 103.818 59.8066 103.221C59.2754 102.623 59.0098 101.832 59.0098 100.848V100.771ZM60.0996 100.9C60.0996 101.604 60.2617 102.168 60.5859 102.594C60.9141 103.02 61.3516 103.232 61.8984 103.232C62.4492 103.232 62.8867 103.018 63.2109 102.588C63.5352 102.154 63.6973 101.549 63.6973 100.771C63.6973 100.076 63.5312 99.5137 63.1992 99.084C62.8711 98.6504 62.4336 98.4336 61.8867 98.4336C61.3516 98.4336 60.9199 98.6465 60.5918 99.0723C60.2637 99.498 60.0996 100.107 60.0996 100.9ZM67.166 97.6602L67.2012 98.457C67.6855 97.8477 68.3184 97.543 69.0996 97.543C70.4395 97.543 71.1152 98.2988 71.127 99.8105V104H70.043V99.8047C70.0391 99.3477 69.9336 99.0098 69.7266 98.791C69.5234 98.5723 69.2051 98.4629 68.7715 98.4629C68.4199 98.4629 68.1113 98.5566 67.8457 98.7441C67.5801 98.9316 67.373 99.1777 67.2246 99.4824V104H66.1406V97.6602H67.166ZM78.2812 103.232C78.668 103.232 79.0059 103.115 79.2949 102.881C79.584 102.646 79.7441 102.354 79.7754 102.002H80.8008C80.7812 102.365 80.6562 102.711 80.4258 103.039C80.1953 103.367 79.8867 103.629 79.5 103.824C79.1172 104.02 78.7109 104.117 78.2812 104.117C77.418 104.117 76.7305 103.83 76.2188 103.256C75.7109 102.678 75.457 101.889 75.457 100.889V100.707C75.457 100.09 75.5703 99.541 75.7969 99.0605C76.0234 98.5801 76.3477 98.207 76.7695 97.9414C77.1953 97.6758 77.6973 97.543 78.2754 97.543C78.9863 97.543 79.5762 97.7559 80.0449 98.1816C80.5176 98.6074 80.7695 99.1602 80.8008 99.8398H79.7754C79.7441 99.4297 79.5879 99.0938 79.3066 98.832C79.0293 98.5664 78.6855 98.4336 78.2754 98.4336C77.7246 98.4336 77.2969 98.6328 76.9922 99.0312C76.6914 99.4258 76.541 99.998 76.541 100.748V100.953C76.541 101.684 76.6914 102.246 76.9922 102.641C77.293 103.035 77.7227 103.232 78.2812 103.232ZM81.7324 100.771C81.7324 100.15 81.8535 99.5918 82.0957 99.0957C82.3418 98.5996 82.6816 98.2168 83.1152 97.9473C83.5527 97.6777 84.0508 97.543 84.6094 97.543C85.4727 97.543 86.1699 97.8418 86.7012 98.4395C87.2363 99.0371 87.5039 99.832 87.5039 100.824V100.9C87.5039 101.518 87.3848 102.072 87.1465 102.564C86.9121 103.053 86.5742 103.434 86.1328 103.707C85.6953 103.98 85.1914 104.117 84.6211 104.117C83.7617 104.117 83.0645 103.818 82.5293 103.221C81.998 102.623 81.7324 101.832 81.7324 100.848V100.771ZM82.8223 100.9C82.8223 101.604 82.9844 102.168 83.3086 102.594C83.6367 103.02 84.0742 103.232 84.6211 103.232C85.1719 103.232 85.6094 103.018 85.9336 102.588C86.2578 102.154 86.4199 101.549 86.4199 100.771C86.4199 100.076 86.2539 99.5137 85.9219 99.084C85.5938 98.6504 85.1562 98.4336 84.6094 98.4336C84.0742 98.4336 83.6426 98.6465 83.3145 99.0723C82.9863 99.498 82.8223 100.107 82.8223 100.9ZM89.8887 97.6602L89.9238 98.457C90.4082 97.8477 91.041 97.543 91.8223 97.543C93.1621 97.543 93.8379 98.2988 93.8496 99.8105V104H92.7656V99.8047C92.7617 99.3477 92.6562 99.0098 92.4492 98.791C92.2461 98.5723 91.9277 98.4629 91.4941 98.4629C91.1426 98.4629 90.834 98.5566 90.5684 98.7441C90.3027 98.9316 90.0957 99.1777 89.9473 99.4824V104H88.8633V97.6602H89.8887ZM96.9551 96.125V97.6602H98.1387V98.498H96.9551V102.43C96.9551 102.684 97.0078 102.875 97.1133 103.004C97.2188 103.129 97.3984 103.191 97.6523 103.191C97.7773 103.191 97.9492 103.168 98.168 103.121V104C97.8828 104.078 97.6055 104.117 97.3359 104.117C96.8516 104.117 96.4863 103.971 96.2402 103.678C95.9941 103.385 95.8711 102.969 95.8711 102.43V98.498H94.7168V97.6602H95.8711V96.125H96.9551ZM102.041 104.117C101.182 104.117 100.482 103.836 99.9434 103.273C99.4043 102.707 99.1348 101.951 99.1348 101.006V100.807C99.1348 100.178 99.2539 99.6172 99.4922 99.125C99.7344 98.6289 100.07 98.2422 100.5 97.9648C100.934 97.6836 101.402 97.543 101.906 97.543C102.73 97.543 103.371 97.8145 103.828 98.3574C104.285 98.9004 104.514 99.6777 104.514 100.689V101.141H100.219C100.234 101.766 100.416 102.271 100.764 102.658C101.115 103.041 101.561 103.232 102.1 103.232C102.482 103.232 102.807 103.154 103.072 102.998C103.338 102.842 103.57 102.635 103.77 102.377L104.432 102.893C103.9 103.709 103.104 104.117 102.041 104.117ZM101.906 98.4336C101.469 98.4336 101.102 98.5938 100.805 98.9141C100.508 99.2305 100.324 99.6758 100.254 100.25H103.43V100.168C103.398 99.6172 103.25 99.1914 102.984 98.8906C102.719 98.5859 102.359 98.4336 101.906 98.4336ZM107.9 99.9746L109.307 97.6602H110.572L108.498 100.795L110.637 104H109.383L107.918 101.627L106.453 104H105.193L107.332 100.795L105.258 97.6602H106.512L107.9 99.9746ZM113.197 96.125V97.6602H114.381V98.498H113.197V102.43C113.197 102.684 113.25 102.875 113.355 103.004C113.461 103.129 113.641 103.191 113.895 103.191C114.02 103.191 114.191 103.168 114.41 103.121V104C114.125 104.078 113.848 104.117 113.578 104.117C113.094 104.117 112.729 103.971 112.482 103.678C112.236 103.385 112.113 102.969 112.113 102.43V98.498H110.959V97.6602H112.113V96.125H113.197Z" fill="black"/>
<path d="M55.5814 118.972H53.9374V118.228L55.6174 118.168L55.7494 116.536H56.5654V118.168H59.4334V118.972H56.5654V121.744C56.5654 122.008 56.5894 122.24 56.6374 122.44C56.6854 122.632 56.7654 122.796 56.8774 122.932C56.9894 123.068 57.1414 123.172 57.3334 123.244C57.5254 123.308 57.7614 123.34 58.0414 123.34C58.3214 123.34 58.5734 123.316 58.7974 123.268C59.0214 123.22 59.2374 123.156 59.4454 123.076L59.6614 123.796C59.3974 123.892 59.1054 123.972 58.7854 124.036C58.4654 124.108 58.1454 124.144 57.8254 124.144C57.4014 124.144 57.0454 124.088 56.7574 123.976C56.4694 123.856 56.2374 123.692 56.0614 123.484C55.8934 123.268 55.7694 123.012 55.6894 122.716C55.6174 122.42 55.5814 122.092 55.5814 121.732V118.972ZM61.4207 115.456H62.4047V117.784L62.3567 119.164C62.6687 118.836 63.0007 118.564 63.3527 118.348C63.7047 118.132 64.1087 118.024 64.5647 118.024C65.2607 118.024 65.7687 118.224 66.0887 118.624C66.4167 119.016 66.5807 119.6 66.5807 120.376V124H65.5967V120.508C65.5967 119.956 65.4927 119.548 65.2847 119.284C65.0767 119.012 64.7327 118.876 64.2527 118.876C64.0767 118.876 63.9127 118.9 63.7607 118.948C63.6167 118.988 63.4727 119.052 63.3287 119.14C63.1847 119.228 63.0367 119.34 62.8847 119.476C62.7327 119.604 62.5727 119.756 62.4047 119.932V124H61.4207V115.456ZM68.58 118.168H72.276V124H71.292V118.972H68.58V118.168ZM71.676 116.968C71.444 116.968 71.252 116.9 71.1 116.764C70.956 116.628 70.884 116.444 70.884 116.212C70.884 115.98 70.956 115.796 71.1 115.66C71.252 115.516 71.444 115.444 71.676 115.444C71.9 115.444 72.088 115.516 72.24 115.66C72.392 115.796 72.468 115.98 72.468 116.212C72.468 116.444 72.392 116.628 72.24 116.764C72.088 116.9 71.9 116.968 71.676 116.968ZM76.0393 122.584C76.3673 122.824 76.7193 123.016 77.0953 123.16C77.4713 123.304 77.9233 123.376 78.4513 123.376C78.9793 123.376 79.3713 123.288 79.6273 123.112C79.8833 122.936 80.0113 122.72 80.0113 122.464C80.0113 122.24 79.8713 122.04 79.5913 121.864C79.3193 121.688 78.8273 121.512 78.1153 121.336C77.8113 121.264 77.5233 121.176 77.2513 121.072C76.9873 120.968 76.7553 120.848 76.5553 120.712C76.3553 120.568 76.1953 120.412 76.0753 120.244C75.9553 120.076 75.8953 119.888 75.8953 119.68C75.8953 119.448 75.9473 119.232 76.0513 119.032C76.1553 118.824 76.3073 118.648 76.5073 118.504C76.7153 118.352 76.9713 118.236 77.2753 118.156C77.5873 118.068 77.9433 118.024 78.3433 118.024C78.7833 118.024 79.2113 118.1 79.6273 118.252C80.0433 118.396 80.3953 118.568 80.6833 118.768L80.2033 119.404C79.9473 119.22 79.6633 119.072 79.3513 118.96C79.0393 118.848 78.7033 118.792 78.3433 118.792C78.0713 118.792 77.8433 118.816 77.6593 118.864C77.4753 118.904 77.3273 118.964 77.2153 119.044C77.1033 119.116 77.0233 119.204 76.9753 119.308C76.9273 119.412 76.9033 119.52 76.9033 119.632C76.9033 119.872 77.0673 120.072 77.3953 120.232C77.7233 120.384 78.1513 120.528 78.6793 120.664C79.4713 120.864 80.0553 121.092 80.4313 121.348C80.8153 121.604 81.0073 121.956 81.0073 122.404C81.0073 122.644 80.9513 122.868 80.8393 123.076C80.7273 123.284 80.5593 123.468 80.3353 123.628C80.1193 123.788 79.8473 123.912 79.5193 124C79.1993 124.096 78.8313 124.144 78.4153 124.144C77.8393 124.144 77.3073 124.056 76.8193 123.88C76.3393 123.696 75.9193 123.48 75.5593 123.232L76.0393 122.584Z" fill="black"/>
<rect width="134" height="66" fill="#C4C4C4"/>
<path d="M44.2363 13.7617C44.2363 13.4297 44.1191 13.1758 43.8848 13C43.6504 12.8203 43.2285 12.6328 42.6191 12.4375C42.0098 12.2383 41.5273 12.043 41.1719 11.8516C40.2031 11.3281 39.7188 10.623 39.7188 9.73633C39.7188 9.27539 39.8477 8.86523 40.1055 8.50586C40.3672 8.14258 40.7402 7.85938 41.2246 7.65625C41.7129 7.45312 42.2598 7.35156 42.8652 7.35156C43.4746 7.35156 44.0176 7.46289 44.4941 7.68555C44.9707 7.9043 45.3398 8.21484 45.6016 8.61719C45.8672 9.01953 46 9.47656 46 9.98828H44.2422C44.2422 9.59766 44.1191 9.29492 43.873 9.08008C43.627 8.86133 43.2812 8.75195 42.8359 8.75195C42.4062 8.75195 42.0723 8.84375 41.834 9.02734C41.5957 9.20703 41.4766 9.44531 41.4766 9.74219C41.4766 10.0195 41.6152 10.252 41.8926 10.4395C42.1738 10.627 42.5859 10.8027 43.1289 10.9668C44.1289 11.2676 44.8574 11.6406 45.3145 12.0859C45.7715 12.5312 46 13.0859 46 13.75C46 14.4883 45.7207 15.0684 45.1621 15.4902C44.6035 15.9082 43.8516 16.1172 42.9062 16.1172C42.25 16.1172 41.6523 15.998 41.1133 15.7598C40.5742 15.5176 40.1621 15.1875 39.877 14.7695C39.5957 14.3516 39.4551 13.8672 39.4551 13.3164H41.2188C41.2188 14.2578 41.7812 14.7285 42.9062 14.7285C43.3242 14.7285 43.6504 14.6445 43.8848 14.4766C44.1191 14.3047 44.2363 14.0664 44.2363 13.7617ZM50.8809 15.3555C50.4629 15.8633 49.8848 16.1172 49.1465 16.1172C48.4668 16.1172 47.9473 15.9219 47.5879 15.5312C47.2324 15.1406 47.0508 14.5684 47.043 13.8145V9.66016H48.7363V13.7559C48.7363 14.416 49.0371 14.7461 49.6387 14.7461C50.2129 14.7461 50.6074 14.5469 50.8223 14.1484V9.66016H52.5215V16H50.9277L50.8809 15.3555ZM59.5059 12.8887C59.5059 13.8652 59.2832 14.6484 58.8379 15.2383C58.3965 15.8242 57.7988 16.1172 57.0449 16.1172C56.4043 16.1172 55.8867 15.8945 55.4922 15.4492V18.4375H53.7988V9.66016H55.3691L55.4277 10.2812C55.8379 9.78906 56.373 9.54297 57.0332 9.54297C57.8145 9.54297 58.4219 9.83203 58.8555 10.4102C59.2891 10.9883 59.5059 11.7852 59.5059 12.8008V12.8887ZM57.8125 12.7656C57.8125 12.1758 57.707 11.7207 57.4961 11.4004C57.2891 11.0801 56.9863 10.9199 56.5879 10.9199C56.0566 10.9199 55.6914 11.123 55.4922 11.5293V14.125C55.6992 14.543 56.0684 14.752 56.5996 14.752C57.4082 14.752 57.8125 14.0898 57.8125 12.7656ZM63.4785 16.1172C62.5488 16.1172 61.791 15.832 61.2051 15.2617C60.623 14.6914 60.332 13.9316 60.332 12.9824V12.8184C60.332 12.1816 60.4551 11.6133 60.7012 11.1133C60.9473 10.6094 61.2949 10.2227 61.7441 9.95312C62.1973 9.67969 62.7129 9.54297 63.291 9.54297C64.1582 9.54297 64.8398 9.81641 65.3359 10.3633C65.8359 10.9102 66.0859 11.6855 66.0859 12.6895V13.3809H62.0488C62.1035 13.7949 62.2676 14.127 62.541 14.377C62.8184 14.627 63.168 14.752 63.5898 14.752C64.2422 14.752 64.752 14.5156 65.1191 14.043L65.9512 14.9746C65.6973 15.334 65.3535 15.6152 64.9199 15.8184C64.4863 16.0176 64.0059 16.1172 63.4785 16.1172ZM63.2852 10.9141C62.9492 10.9141 62.6758 11.0273 62.4648 11.2539C62.2578 11.4805 62.125 11.8047 62.0664 12.2266H64.4219V12.0918C64.4141 11.7168 64.3125 11.4277 64.1172 11.2246C63.9219 11.0176 63.6445 10.9141 63.2852 10.9141ZM70.6152 11.248C70.3848 11.2168 70.1816 11.2012 70.0059 11.2012C69.3652 11.2012 68.9453 11.418 68.7461 11.8516V16H67.0527V9.66016H68.6523L68.6992 10.416C69.0391 9.83398 69.5098 9.54297 70.1113 9.54297C70.2988 9.54297 70.4746 9.56836 70.6387 9.61914L70.6152 11.248ZM73.0879 10.3516C73.5371 9.8125 74.1016 9.54297 74.7812 9.54297C76.1562 9.54297 76.8535 10.3418 76.873 11.9395V16H75.1797V11.9863C75.1797 11.623 75.1016 11.3555 74.9453 11.1836C74.7891 11.0078 74.5293 10.9199 74.166 10.9199C73.6699 10.9199 73.3105 11.1113 73.0879 11.4941V16H71.3945V7H73.0879V10.3516ZM81.0684 16.1172C80.1387 16.1172 79.3809 15.832 78.7949 15.2617C78.2129 14.6914 77.9219 13.9316 77.9219 12.9824V12.8184C77.9219 12.1816 78.0449 11.6133 78.291 11.1133C78.5371 10.6094 78.8848 10.2227 79.334 9.95312C79.7871 9.67969 80.3027 9.54297 80.8809 9.54297C81.748 9.54297 82.4297 9.81641 82.9258 10.3633C83.4258 10.9102 83.6758 11.6855 83.6758 12.6895V13.3809H79.6387C79.6934 13.7949 79.8574 14.127 80.1309 14.377C80.4082 14.627 80.7578 14.752 81.1797 14.752C81.832 14.752 82.3418 14.5156 82.709 14.043L83.541 14.9746C83.2871 15.334 82.9434 15.6152 82.5098 15.8184C82.0762 16.0176 81.5957 16.1172 81.0684 16.1172ZM80.875 10.9141C80.5391 10.9141 80.2656 11.0273 80.0547 11.2539C79.8477 11.4805 79.7148 11.8047 79.6562 12.2266H82.0117V12.0918C82.0039 11.7168 81.9023 11.4277 81.707 11.2246C81.5117 11.0176 81.2344 10.9141 80.875 10.9141ZM88.2051 11.248C87.9746 11.2168 87.7715 11.2012 87.5957 11.2012C86.9551 11.2012 86.5352 11.418 86.3359 11.8516V16H84.6426V9.66016H86.2422L86.2891 10.416C86.6289 9.83398 87.0996 9.54297 87.7012 9.54297C87.8887 9.54297 88.0645 9.56836 88.2285 9.61914L88.2051 11.248ZM88.5508 12.7715C88.5508 12.1426 88.6719 11.582 88.9141 11.0898C89.1562 10.5977 89.5039 10.2168 89.957 9.94727C90.4141 9.67773 90.9434 9.54297 91.5449 9.54297C92.4004 9.54297 93.0977 9.80469 93.6367 10.3281C94.1797 10.8516 94.4824 11.5625 94.5449 12.4609L94.5566 12.8945C94.5566 13.8672 94.2852 14.6484 93.7422 15.2383C93.1992 15.8242 92.4707 16.1172 91.5566 16.1172C90.6426 16.1172 89.9121 15.8242 89.3652 15.2383C88.8223 14.6523 88.5508 13.8555 88.5508 12.8477V12.7715ZM90.2441 12.8945C90.2441 13.4961 90.3574 13.957 90.584 14.2773C90.8105 14.5938 91.1348 14.752 91.5566 14.752C91.9668 14.752 92.2871 14.5957 92.5176 14.2832C92.748 13.9668 92.8633 13.4629 92.8633 12.7715C92.8633 12.1816 92.748 11.7246 92.5176 11.4004C92.2871 11.0762 91.9629 10.9141 91.5449 10.9141C91.1309 10.9141 90.8105 11.0762 90.584 11.4004C90.3574 11.7207 90.2441 12.2188 90.2441 12.8945Z" fill="black"/>
<path d="M23.6191 35.1172C22.7598 35.1172 22.0605 34.8359 21.5215 34.2734C20.9824 33.707 20.7129 32.9512 20.7129 32.0059V31.8066C20.7129 31.1777 20.832 30.6172 21.0703 30.125C21.3125 29.6289 21.6484 29.2422 22.0781 28.9648C22.5117 28.6836 22.9805 28.543 23.4844 28.543C24.3086 28.543 24.9492 28.8145 25.4062 29.3574C25.8633 29.9004 26.0918 30.6777 26.0918 31.6895V32.1406H21.7969C21.8125 32.7656 21.9941 33.2715 22.3418 33.6582C22.6934 34.041 23.1387 34.2324 23.6777 34.2324C24.0605 34.2324 24.3848 34.1543 24.6504 33.998C24.916 33.8418 25.1484 33.6348 25.3477 33.377L26.0098 33.8926C25.4785 34.709 24.6816 35.1172 23.6191 35.1172ZM23.4844 29.4336C23.0469 29.4336 22.6797 29.5938 22.3828 29.9141C22.0859 30.2305 21.9023 30.6758 21.832 31.25H25.0078V31.168C24.9766 30.6172 24.8281 30.1914 24.5625 29.8906C24.2969 29.5859 23.9375 29.4336 23.4844 29.4336ZM29.4785 30.9746L30.8848 28.6602H32.1504L30.0762 31.7949L32.2148 35H30.9609L29.4961 32.627L28.0312 35H26.7715L28.9102 31.7949L26.8359 28.6602H28.0898L29.4785 30.9746ZM35.8184 35.1172C34.959 35.1172 34.2598 34.8359 33.7207 34.2734C33.1816 33.707 32.9121 32.9512 32.9121 32.0059V31.8066C32.9121 31.1777 33.0312 30.6172 33.2695 30.125C33.5117 29.6289 33.8477 29.2422 34.2773 28.9648C34.7109 28.6836 35.1797 28.543 35.6836 28.543C36.5078 28.543 37.1484 28.8145 37.6055 29.3574C38.0625 29.9004 38.291 30.6777 38.291 31.6895V32.1406H33.9961C34.0117 32.7656 34.1934 33.2715 34.541 33.6582C34.8926 34.041 35.3379 34.2324 35.877 34.2324C36.2598 34.2324 36.584 34.1543 36.8496 33.998C37.1152 33.8418 37.3477 33.6348 37.5469 33.377L38.209 33.8926C37.6777 34.709 36.8809 35.1172 35.8184 35.1172ZM35.6836 29.4336C35.2461 29.4336 34.8789 29.5938 34.582 29.9141C34.2852 30.2305 34.1016 30.6758 34.0312 31.25H37.207V31.168C37.1758 30.6172 37.0273 30.1914 36.7617 29.8906C36.4961 29.5859 36.1367 29.4336 35.6836 29.4336ZM42.0938 34.2324C42.4805 34.2324 42.8184 34.1152 43.1074 33.8809C43.3965 33.6465 43.5566 33.3535 43.5879 33.002H44.6133C44.5938 33.3652 44.4688 33.7109 44.2383 34.0391C44.0078 34.3672 43.6992 34.6289 43.3125 34.8242C42.9297 35.0195 42.5234 35.1172 42.0938 35.1172C41.2305 35.1172 40.543 34.8301 40.0312 34.2559C39.5234 33.6777 39.2695 32.8887 39.2695 31.8887V31.707C39.2695 31.0898 39.3828 30.541 39.6094 30.0605C39.8359 29.5801 40.1602 29.207 40.582 28.9414C41.0078 28.6758 41.5098 28.543 42.0879 28.543C42.7988 28.543 43.3887 28.7559 43.8574 29.1816C44.3301 29.6074 44.582 30.1602 44.6133 30.8398H43.5879C43.5566 30.4297 43.4004 30.0938 43.1191 29.832C42.8418 29.5664 42.498 29.4336 42.0879 29.4336C41.5371 29.4336 41.1094 29.6328 40.8047 30.0312C40.5039 30.4258 40.3535 30.998 40.3535 31.748V31.9531C40.3535 32.6836 40.5039 33.2461 40.8047 33.6406C41.1055 34.0352 41.5352 34.2324 42.0938 34.2324ZM49.7461 34.373C49.3242 34.8691 48.7051 35.1172 47.8887 35.1172C47.2129 35.1172 46.6973 34.9219 46.3418 34.5312C45.9902 34.1367 45.8125 33.5547 45.8086 32.7852V28.6602H46.8926V32.7559C46.8926 33.7168 47.2832 34.1973 48.0645 34.1973C48.8926 34.1973 49.4434 33.8887 49.7168 33.2715V28.6602H50.8008V35H49.7695L49.7461 34.373ZM53.9238 27.125V28.6602H55.1074V29.498H53.9238V33.4297C53.9238 33.6836 53.9766 33.875 54.082 34.0039C54.1875 34.1289 54.3672 34.1914 54.6211 34.1914C54.7461 34.1914 54.918 34.168 55.1367 34.1211V35C54.8516 35.0781 54.5742 35.1172 54.3047 35.1172C53.8203 35.1172 53.4551 34.9707 53.209 34.6777C52.9629 34.3848 52.8398 33.9688 52.8398 33.4297V29.498H51.6855V28.6602H52.8398V27.125H53.9238ZM57.5566 35H56.4727V28.6602H57.5566V35ZM56.3848 26.9785C56.3848 26.8027 56.4375 26.6543 56.543 26.5332C56.6523 26.4121 56.8125 26.3516 57.0234 26.3516C57.2344 26.3516 57.3945 26.4121 57.5039 26.5332C57.6133 26.6543 57.668 26.8027 57.668 26.9785C57.668 27.1543 57.6133 27.3008 57.5039 27.418C57.3945 27.5352 57.2344 27.5938 57.0234 27.5938C56.8125 27.5938 56.6523 27.5352 56.543 27.418C56.4375 27.3008 56.3848 27.1543 56.3848 26.9785ZM59.0098 31.7715C59.0098 31.1504 59.1309 30.5918 59.373 30.0957C59.6191 29.5996 59.959 29.2168 60.3926 28.9473C60.8301 28.6777 61.3281 28.543 61.8867 28.543C62.75 28.543 63.4473 28.8418 63.9785 29.4395C64.5137 30.0371 64.7812 30.832 64.7812 31.8242V31.9004C64.7812 32.5176 64.6621 33.0723 64.4238 33.5645C64.1895 34.0527 63.8516 34.4336 63.4102 34.707C62.9727 34.9805 62.4688 35.1172 61.8984 35.1172C61.0391 35.1172 60.3418 34.8184 59.8066 34.2207C59.2754 33.623 59.0098 32.832 59.0098 31.8477V31.7715ZM60.0996 31.9004C60.0996 32.6035 60.2617 33.168 60.5859 33.5938C60.9141 34.0195 61.3516 34.2324 61.8984 34.2324C62.4492 34.2324 62.8867 34.0176 63.2109 33.5879C63.5352 33.1543 63.6973 32.5488 63.6973 31.7715C63.6973 31.0762 63.5312 30.5137 63.1992 30.084C62.8711 29.6504 62.4336 29.4336 61.8867 29.4336C61.3516 29.4336 60.9199 29.6465 60.5918 30.0723C60.2637 30.498 60.0996 31.1074 60.0996 31.9004ZM67.166 28.6602L67.2012 29.457C67.6855 28.8477 68.3184 28.543 69.0996 28.543C70.4395 28.543 71.1152 29.2988 71.127 30.8105V35H70.043V30.8047C70.0391 30.3477 69.9336 30.0098 69.7266 29.791C69.5234 29.5723 69.2051 29.4629 68.7715 29.4629C68.4199 29.4629 68.1113 29.5566 67.8457 29.7441C67.5801 29.9316 67.373 30.1777 67.2246 30.4824V35H66.1406V28.6602H67.166ZM78.2812 34.2324C78.668 34.2324 79.0059 34.1152 79.2949 33.8809C79.584 33.6465 79.7441 33.3535 79.7754 33.002H80.8008C80.7812 33.3652 80.6562 33.7109 80.4258 34.0391C80.1953 34.3672 79.8867 34.6289 79.5 34.8242C79.1172 35.0195 78.7109 35.1172 78.2812 35.1172C77.418 35.1172 76.7305 34.8301 76.2188 34.2559C75.7109 33.6777 75.457 32.8887 75.457 31.8887V31.707C75.457 31.0898 75.5703 30.541 75.7969 30.0605C76.0234 29.5801 76.3477 29.207 76.7695 28.9414C77.1953 28.6758 77.6973 28.543 78.2754 28.543C78.9863 28.543 79.5762 28.7559 80.0449 29.1816C80.5176 29.6074 80.7695 30.1602 80.8008 30.8398H79.7754C79.7441 30.4297 79.5879 30.0938 79.3066 29.832C79.0293 29.5664 78.6855 29.4336 78.2754 29.4336C77.7246 29.4336 77.2969 29.6328 76.9922 30.0312C76.6914 30.4258 76.541 30.998 76.541 31.748V31.9531C76.541 32.6836 76.6914 33.2461 76.9922 33.6406C77.293 34.0352 77.7227 34.2324 78.2812 34.2324ZM81.7324 31.7715C81.7324 31.1504 81.8535 30.5918 82.0957 30.0957C82.3418 29.5996 82.6816 29.2168 83.1152 28.9473C83.5527 28.6777 84.0508 28.543 84.6094 28.543C85.4727 28.543 86.1699 28.8418 86.7012 29.4395C87.2363 30.0371 87.5039 30.832 87.5039 31.8242V31.9004C87.5039 32.5176 87.3848 33.0723 87.1465 33.5645C86.9121 34.0527 86.5742 34.4336 86.1328 34.707C85.6953 34.9805 85.1914 35.1172 84.6211 35.1172C83.7617 35.1172 83.0645 34.8184 82.5293 34.2207C81.998 33.623 81.7324 32.832 81.7324 31.8477V31.7715ZM82.8223 31.9004C82.8223 32.6035 82.9844 33.168 83.3086 33.5938C83.6367 34.0195 84.0742 34.2324 84.6211 34.2324C85.1719 34.2324 85.6094 34.0176 85.9336 33.5879C86.2578 33.1543 86.4199 32.5488 86.4199 31.7715C86.4199 31.0762 86.2539 30.5137 85.9219 30.084C85.5938 29.6504 85.1562 29.4336 84.6094 29.4336C84.0742 29.4336 83.6426 29.6465 83.3145 30.0723C82.9863 30.498 82.8223 31.1074 82.8223 31.9004ZM89.8887 28.6602L89.9238 29.457C90.4082 28.8477 91.041 28.543 91.8223 28.543C93.1621 28.543 93.8379 29.2988 93.8496 30.8105V35H92.7656V30.8047C92.7617 30.3477 92.6562 30.0098 92.4492 29.791C92.2461 29.5723 91.9277 29.4629 91.4941 29.4629C91.1426 29.4629 90.834 29.5566 90.5684 29.7441C90.3027 29.9316 90.0957 30.1777 89.9473 30.4824V35H88.8633V28.6602H89.8887ZM96.9551 27.125V28.6602H98.1387V29.498H96.9551V33.4297C96.9551 33.6836 97.0078 33.875 97.1133 34.0039C97.2188 34.1289 97.3984 34.1914 97.6523 34.1914C97.7773 34.1914 97.9492 34.168 98.168 34.1211V35C97.8828 35.0781 97.6055 35.1172 97.3359 35.1172C96.8516 35.1172 96.4863 34.9707 96.2402 34.6777C95.9941 34.3848 95.8711 33.9688 95.8711 33.4297V29.498H94.7168V28.6602H95.8711V27.125H96.9551ZM102.041 35.1172C101.182 35.1172 100.482 34.8359 99.9434 34.2734C99.4043 33.707 99.1348 32.9512 99.1348 32.0059V31.8066C99.1348 31.1777 99.2539 30.6172 99.4922 30.125C99.7344 29.6289 100.07 29.2422 100.5 28.9648C100.934 28.6836 101.402 28.543 101.906 28.543C102.73 28.543 103.371 28.8145 103.828 29.3574C104.285 29.9004 104.514 30.6777 104.514 31.6895V32.1406H100.219C100.234 32.7656 100.416 33.2715 100.764 33.6582C101.115 34.041 101.561 34.2324 102.1 34.2324C102.482 34.2324 102.807 34.1543 103.072 33.998C103.338 33.8418 103.57 33.6348 103.77 33.377L104.432 33.8926C103.9 34.709 103.104 35.1172 102.041 35.1172ZM101.906 29.4336C101.469 29.4336 101.102 29.5938 100.805 29.9141C100.508 30.2305 100.324 30.6758 100.254 31.25H103.43V31.168C103.398 30.6172 103.25 30.1914 102.984 29.8906C102.719 29.5859 102.359 29.4336 101.906 29.4336ZM107.9 30.9746L109.307 28.6602H110.572L108.498 31.7949L110.637 35H109.383L107.918 32.627L106.453 35H105.193L107.332 31.7949L105.258 28.6602H106.512L107.9 30.9746ZM113.197 27.125V28.6602H114.381V29.498H113.197V33.4297C113.197 33.6836 113.25 33.875 113.355 34.0039C113.461 34.1289 113.641 34.1914 113.895 34.1914C114.02 34.1914 114.191 34.168 114.41 34.1211V35C114.125 35.0781 113.848 35.1172 113.578 35.1172C113.094 35.1172 112.729 34.9707 112.482 34.6777C112.236 34.3848 112.113 33.9688 112.113 33.4297V29.498H110.959V28.6602H112.113V27.125H113.197Z" fill="black"/>
<path d="M55.5814 49.972H53.9374V49.228L55.6174 49.168L55.7494 47.536H56.5654V49.168H59.4334V49.972H56.5654V52.744C56.5654 53.008 56.5894 53.24 56.6374 53.44C56.6854 53.632 56.7654 53.796 56.8774 53.932C56.9894 54.068 57.1414 54.172 57.3334 54.244C57.5254 54.308 57.7614 54.34 58.0414 54.34C58.3214 54.34 58.5734 54.316 58.7974 54.268C59.0214 54.22 59.2374 54.156 59.4454 54.076L59.6614 54.796C59.3974 54.892 59.1054 54.972 58.7854 55.036C58.4654 55.108 58.1454 55.144 57.8254 55.144C57.4014 55.144 57.0454 55.088 56.7574 54.976C56.4694 54.856 56.2374 54.692 56.0614 54.484C55.8934 54.268 55.7694 54.012 55.6894 53.716C55.6174 53.42 55.5814 53.092 55.5814 52.732V49.972ZM61.4207 46.456H62.4047V48.784L62.3567 50.164C62.6687 49.836 63.0007 49.564 63.3527 49.348C63.7047 49.132 64.1087 49.024 64.5647 49.024C65.2607 49.024 65.7687 49.224 66.0887 49.624C66.4167 50.016 66.5807 50.6 66.5807 51.376V55H65.5967V51.508C65.5967 50.956 65.4927 50.548 65.2847 50.284C65.0767 50.012 64.7327 49.876 64.2527 49.876C64.0767 49.876 63.9127 49.9 63.7607 49.948C63.6167 49.988 63.4727 50.052 63.3287 50.14C63.1847 50.228 63.0367 50.34 62.8847 50.476C62.7327 50.604 62.5727 50.756 62.4047 50.932V55H61.4207V46.456ZM68.58 49.168H72.276V55H71.292V49.972H68.58V49.168ZM71.676 47.968C71.444 47.968 71.252 47.9 71.1 47.764C70.956 47.628 70.884 47.444 70.884 47.212C70.884 46.98 70.956 46.796 71.1 46.66C71.252 46.516 71.444 46.444 71.676 46.444C71.9 46.444 72.088 46.516 72.24 46.66C72.392 46.796 72.468 46.98 72.468 47.212C72.468 47.444 72.392 47.628 72.24 47.764C72.088 47.9 71.9 47.968 71.676 47.968ZM76.0393 53.584C76.3673 53.824 76.7193 54.016 77.0953 54.16C77.4713 54.304 77.9233 54.376 78.4513 54.376C78.9793 54.376 79.3713 54.288 79.6273 54.112C79.8833 53.936 80.0113 53.72 80.0113 53.464C80.0113 53.24 79.8713 53.04 79.5913 52.864C79.3193 52.688 78.8273 52.512 78.1153 52.336C77.8113 52.264 77.5233 52.176 77.2513 52.072C76.9873 51.968 76.7553 51.848 76.5553 51.712C76.3553 51.568 76.1953 51.412 76.0753 51.244C75.9553 51.076 75.8953 50.888 75.8953 50.68C75.8953 50.448 75.9473 50.232 76.0513 50.032C76.1553 49.824 76.3073 49.648 76.5073 49.504C76.7153 49.352 76.9713 49.236 77.2753 49.156C77.5873 49.068 77.9433 49.024 78.3433 49.024C78.7833 49.024 79.2113 49.1 79.6273 49.252C80.0433 49.396 80.3953 49.568 80.6833 49.768L80.2033 50.404C79.9473 50.22 79.6633 50.072 79.3513 49.96C79.0393 49.848 78.7033 49.792 78.3433 49.792C78.0713 49.792 77.8433 49.816 77.6593 49.864C77.4753 49.904 77.3273 49.964 77.2153 50.044C77.1033 50.116 77.0233 50.204 76.9753 50.308C76.9273 50.412 76.9033 50.52 76.9033 50.632C76.9033 50.872 77.0673 51.072 77.3953 51.232C77.7233 51.384 78.1513 51.528 78.6793 51.664C79.4713 51.864 80.0553 52.092 80.4313 52.348C80.8153 52.604 81.0073 52.956 81.0073 53.404C81.0073 53.644 80.9513 53.868 80.8393 54.076C80.7273 54.284 80.5593 54.468 80.3353 54.628C80.1193 54.788 79.8473 54.912 79.5193 55C79.1993 55.096 78.8313 55.144 78.4153 55.144C77.8393 55.144 77.3073 55.056 76.8193 54.88C76.3393 54.696 75.9193 54.48 75.5593 54.232L76.0393 53.584Z" fill="black"/>
<path d="M199.354 122.354C199.549 122.158 199.549 121.842 199.354 121.646L196.172 118.464C195.976 118.269 195.66 118.269 195.464 118.464C195.269 118.66 195.269 118.976 195.464 119.172L198.293 122L195.464 124.828C195.269 125.024 195.269 125.34 195.464 125.536C195.66 125.731 195.976 125.731 196.172 125.536L199.354 122.354ZM85 122.5H199V121.5H85V122.5Z" fill="#B5B5B5"/>
<path d="M199.354 121.354C199.549 121.158 199.549 120.842 199.354 120.646L196.172 117.464C195.976 117.269 195.66 117.269 195.464 117.464C195.269 117.66 195.269 117.976 195.464 118.172L198.293 121L195.464 123.828C195.269 124.024 195.269 124.34 195.464 124.536C195.66 124.731 195.976 124.731 196.172 124.536L199.354 121.354ZM85 121.5H199V120.5H85V121.5Z" fill="black"/>
<path d="M195.354 53.3536C195.549 53.1583 195.549 52.8417 195.354 52.6464L192.172 49.4645C191.976 49.2692 191.66 49.2692 191.464 49.4645C191.269 49.6597 191.269 49.9763 191.464 50.1716L194.293 53L191.464 55.8284C191.269 56.0237 191.269 56.3403 191.464 56.5355C191.66 56.7308 191.976 56.7308 192.172 56.5355L195.354 53.3536ZM85 53.5H195V52.5H85V53.5Z" fill="#B5B5B5"/>
<path d="M195.354 52.3536C195.549 52.1583 195.549 51.8417 195.354 51.6464L192.172 48.4645C191.976 48.2692 191.66 48.2692 191.464 48.4645C191.269 48.6597 191.269 48.9763 191.464 49.1716L194.293 52L191.464 54.8284C191.269 55.0237 191.269 55.3403 191.464 55.5355C191.66 55.7308 191.976 55.7308 192.172 55.5355L195.354 52.3536ZM85 52.5H195V51.5H85V52.5Z" fill="black"/>
</svg>
