<svg width="277" height="134" viewBox="0 0 277 134" fill="none" xmlns="http://www.w3.org/2000/svg">
<rect x="184" y="103" width="93" height="31" fill="#C4C4C4"/>
<rect y="68" width="134" height="66" fill="#C4C4C4"/>
<path d="M57.7441 82.9219C57.4277 83.3008 56.9805 83.5957 56.4023 83.8066C55.8242 84.0137 55.1836 84.1172 54.4805 84.1172C53.7422 84.1172 53.0938 83.957 52.5352 83.6367C51.9805 83.3125 51.5508 82.8438 51.2461 82.2305C50.9453 81.6172 50.791 80.8965 50.7832 80.0684V79.4883C50.7832 78.6367 50.9258 77.9004 51.2109 77.2793C51.5 76.6543 51.9141 76.1777 52.4531 75.8496C52.9961 75.5176 53.6309 75.3516 54.3574 75.3516C55.3691 75.3516 56.1602 75.5938 56.7305 76.0781C57.3008 76.5586 57.6387 77.2598 57.7441 78.1816H56.0332C55.9551 77.6934 55.7812 77.3359 55.5117 77.1094C55.2461 76.8828 54.8789 76.7695 54.4102 76.7695C53.8125 76.7695 53.3574 76.9941 53.0449 77.4434C52.7324 77.8926 52.5742 78.5605 52.5703 79.4473V79.9922C52.5703 80.8867 52.7402 81.5625 53.0801 82.0195C53.4199 82.4766 53.918 82.7051 54.5742 82.7051C55.2344 82.7051 55.7051 82.5645 55.9863 82.2832V80.8125H54.3867V79.5176H57.7441V82.9219ZM60.8496 84H59.1504V75H60.8496V84ZM61.9863 80.7715C61.9863 80.1426 62.1074 79.582 62.3496 79.0898C62.5918 78.5977 62.9395 78.2168 63.3926 77.9473C63.8496 77.6777 64.3789 77.543 64.9805 77.543C65.8359 77.543 66.5332 77.8047 67.0723 78.3281C67.6152 78.8516 67.918 79.5625 67.9805 80.4609L67.9922 80.8945C67.9922 81.8672 67.7207 82.6484 67.1777 83.2383C66.6348 83.8242 65.9062 84.1172 64.9922 84.1172C64.0781 84.1172 63.3477 83.8242 62.8008 83.2383C62.2578 82.6523 61.9863 81.8555 61.9863 80.8477V80.7715ZM63.6797 80.8945C63.6797 81.4961 63.793 81.957 64.0195 82.2773C64.2461 82.5938 64.5703 82.752 64.9922 82.752C65.4023 82.752 65.7227 82.5957 65.9531 82.2832C66.1836 81.9668 66.2988 81.4629 66.2988 80.7715C66.2988 80.1816 66.1836 79.7246 65.9531 79.4004C65.7227 79.0762 65.3984 78.9141 64.9805 78.9141C64.5664 78.9141 64.2461 79.0762 64.0195 79.4004C63.793 79.7207 63.6797 80.2188 63.6797 80.8945ZM74.748 80.8887C74.748 81.9043 74.5312 82.6973 74.0977 83.2676C73.6641 83.834 73.0586 84.1172 72.2812 84.1172C71.5938 84.1172 71.0449 83.8535 70.6348 83.3262L70.5586 84H69.0352V75H70.7285V78.2285C71.1191 77.7715 71.6328 77.543 72.2695 77.543C73.043 77.543 73.6484 77.8281 74.0859 78.3984C74.5273 78.9648 74.748 79.7637 74.748 80.7949V80.8887ZM73.0547 80.7656C73.0547 80.125 72.9531 79.6582 72.75 79.3652C72.5469 79.0684 72.2441 78.9199 71.8418 78.9199C71.3027 78.9199 70.9316 79.1406 70.7285 79.582V82.084C70.9355 82.5293 71.3105 82.752 71.8535 82.752C72.4004 82.752 72.7598 82.4824 72.9316 81.9434C73.0137 81.6855 73.0547 81.293 73.0547 80.7656ZM79.4707 84C79.3926 83.8477 79.3359 83.6582 79.3008 83.4316C78.8906 83.8887 78.3574 84.1172 77.7012 84.1172C77.0801 84.1172 76.5645 83.9375 76.1543 83.5781C75.748 83.2188 75.5449 82.7656 75.5449 82.2188C75.5449 81.5469 75.793 81.0312 76.2891 80.6719C76.7891 80.3125 77.5098 80.1309 78.4512 80.127H79.2305V79.7637C79.2305 79.4707 79.1543 79.2363 79.002 79.0605C78.8535 78.8848 78.6172 78.7969 78.293 78.7969C78.0078 78.7969 77.7832 78.8652 77.6191 79.002C77.459 79.1387 77.3789 79.3262 77.3789 79.5645H75.6855C75.6855 79.1973 75.7988 78.8574 76.0254 78.5449C76.252 78.2324 76.5723 77.9883 76.9863 77.8125C77.4004 77.6328 77.8652 77.543 78.3809 77.543C79.1621 77.543 79.7812 77.7402 80.2383 78.1348C80.6992 78.5254 80.9297 79.0762 80.9297 79.7871V82.5352C80.9336 83.1367 81.0176 83.5918 81.1816 83.9004V84H79.4707ZM78.0703 82.8223C78.3203 82.8223 78.5508 82.7676 78.7617 82.6582C78.9727 82.5449 79.1289 82.3945 79.2305 82.207V81.1172H78.5977C77.75 81.1172 77.2988 81.4102 77.2441 81.9961L77.2383 82.0957C77.2383 82.3066 77.3125 82.4805 77.4609 82.6172C77.6094 82.7539 77.8125 82.8223 78.0703 82.8223ZM84.0176 84H82.3184V75H84.0176V84Z" fill="black"/>
<path d="M23.6191 103.117C22.7598 103.117 22.0605 102.836 21.5215 102.273C20.9824 101.707 20.7129 100.951 20.7129 100.006V99.8066C20.7129 99.1777 20.832 98.6172 21.0703 98.125C21.3125 97.6289 21.6484 97.2422 22.0781 96.9648C22.5117 96.6836 22.9805 96.543 23.4844 96.543C24.3086 96.543 24.9492 96.8145 25.4062 97.3574C25.8633 97.9004 26.0918 98.6777 26.0918 99.6895V100.141H21.7969C21.8125 100.766 21.9941 101.271 22.3418 101.658C22.6934 102.041 23.1387 102.232 23.6777 102.232C24.0605 102.232 24.3848 102.154 24.6504 101.998C24.916 101.842 25.1484 101.635 25.3477 101.377L26.0098 101.893C25.4785 102.709 24.6816 103.117 23.6191 103.117ZM23.4844 97.4336C23.0469 97.4336 22.6797 97.5938 22.3828 97.9141C22.0859 98.2305 21.9023 98.6758 21.832 99.25H25.0078V99.168C24.9766 98.6172 24.8281 98.1914 24.5625 97.8906C24.2969 97.5859 23.9375 97.4336 23.4844 97.4336ZM29.4785 98.9746L30.8848 96.6602H32.1504L30.0762 99.7949L32.2148 103H30.9609L29.4961 100.627L28.0312 103H26.7715L28.9102 99.7949L26.8359 96.6602H28.0898L29.4785 98.9746ZM35.8184 103.117C34.959 103.117 34.2598 102.836 33.7207 102.273C33.1816 101.707 32.9121 100.951 32.9121 100.006V99.8066C32.9121 99.1777 33.0312 98.6172 33.2695 98.125C33.5117 97.6289 33.8477 97.2422 34.2773 96.9648C34.7109 96.6836 35.1797 96.543 35.6836 96.543C36.5078 96.543 37.1484 96.8145 37.6055 97.3574C38.0625 97.9004 38.291 98.6777 38.291 99.6895V100.141H33.9961C34.0117 100.766 34.1934 101.271 34.541 101.658C34.8926 102.041 35.3379 102.232 35.877 102.232C36.2598 102.232 36.584 102.154 36.8496 101.998C37.1152 101.842 37.3477 101.635 37.5469 101.377L38.209 101.893C37.6777 102.709 36.8809 103.117 35.8184 103.117ZM35.6836 97.4336C35.2461 97.4336 34.8789 97.5938 34.582 97.9141C34.2852 98.2305 34.1016 98.6758 34.0312 99.25H37.207V99.168C37.1758 98.6172 37.0273 98.1914 36.7617 97.8906C36.4961 97.5859 36.1367 97.4336 35.6836 97.4336ZM42.0938 102.232C42.4805 102.232 42.8184 102.115 43.1074 101.881C43.3965 101.646 43.5566 101.354 43.5879 101.002H44.6133C44.5938 101.365 44.4688 101.711 44.2383 102.039C44.0078 102.367 43.6992 102.629 43.3125 102.824C42.9297 103.02 42.5234 103.117 42.0938 103.117C41.2305 103.117 40.543 102.83 40.0312 102.256C39.5234 101.678 39.2695 100.889 39.2695 99.8887V99.707C39.2695 99.0898 39.3828 98.541 39.6094 98.0605C39.8359 97.5801 40.1602 97.207 40.582 96.9414C41.0078 96.6758 41.5098 96.543 42.0879 96.543C42.7988 96.543 43.3887 96.7559 43.8574 97.1816C44.3301 97.6074 44.582 98.1602 44.6133 98.8398H43.5879C43.5566 98.4297 43.4004 98.0938 43.1191 97.832C42.8418 97.5664 42.498 97.4336 42.0879 97.4336C41.5371 97.4336 41.1094 97.6328 40.8047 98.0312C40.5039 98.4258 40.3535 98.998 40.3535 99.748V99.9531C40.3535 100.684 40.5039 101.246 40.8047 101.641C41.1055 102.035 41.5352 102.232 42.0938 102.232ZM49.7461 102.373C49.3242 102.869 48.7051 103.117 47.8887 103.117C47.2129 103.117 46.6973 102.922 46.3418 102.531C45.9902 102.137 45.8125 101.555 45.8086 100.785V96.6602H46.8926V100.756C46.8926 101.717 47.2832 102.197 48.0645 102.197C48.8926 102.197 49.4434 101.889 49.7168 101.271V96.6602H50.8008V103H49.7695L49.7461 102.373ZM53.9238 95.125V96.6602H55.1074V97.498H53.9238V101.43C53.9238 101.684 53.9766 101.875 54.082 102.004C54.1875 102.129 54.3672 102.191 54.6211 102.191C54.7461 102.191 54.918 102.168 55.1367 102.121V103C54.8516 103.078 54.5742 103.117 54.3047 103.117C53.8203 103.117 53.4551 102.971 53.209 102.678C52.9629 102.385 52.8398 101.969 52.8398 101.43V97.498H51.6855V96.6602H52.8398V95.125H53.9238ZM57.5566 103H56.4727V96.6602H57.5566V103ZM56.3848 94.9785C56.3848 94.8027 56.4375 94.6543 56.543 94.5332C56.6523 94.4121 56.8125 94.3516 57.0234 94.3516C57.2344 94.3516 57.3945 94.4121 57.5039 94.5332C57.6133 94.6543 57.668 94.8027 57.668 94.9785C57.668 95.1543 57.6133 95.3008 57.5039 95.418C57.3945 95.5352 57.2344 95.5938 57.0234 95.5938C56.8125 95.5938 56.6523 95.5352 56.543 95.418C56.4375 95.3008 56.3848 95.1543 56.3848 94.9785ZM59.0098 99.7715C59.0098 99.1504 59.1309 98.5918 59.373 98.0957C59.6191 97.5996 59.959 97.2168 60.3926 96.9473C60.8301 96.6777 61.3281 96.543 61.8867 96.543C62.75 96.543 63.4473 96.8418 63.9785 97.4395C64.5137 98.0371 64.7812 98.832 64.7812 99.8242V99.9004C64.7812 100.518 64.6621 101.072 64.4238 101.564C64.1895 102.053 63.8516 102.434 63.4102 102.707C62.9727 102.98 62.4688 103.117 61.8984 103.117C61.0391 103.117 60.3418 102.818 59.8066 102.221C59.2754 101.623 59.0098 100.832 59.0098 99.8477V99.7715ZM60.0996 99.9004C60.0996 100.604 60.2617 101.168 60.5859 101.594C60.9141 102.02 61.3516 102.232 61.8984 102.232C62.4492 102.232 62.8867 102.018 63.2109 101.588C63.5352 101.154 63.6973 100.549 63.6973 99.7715C63.6973 99.0762 63.5312 98.5137 63.1992 98.084C62.8711 97.6504 62.4336 97.4336 61.8867 97.4336C61.3516 97.4336 60.9199 97.6465 60.5918 98.0723C60.2637 98.498 60.0996 99.1074 60.0996 99.9004ZM67.166 96.6602L67.2012 97.457C67.6855 96.8477 68.3184 96.543 69.0996 96.543C70.4395 96.543 71.1152 97.2988 71.127 98.8105V103H70.043V98.8047C70.0391 98.3477 69.9336 98.0098 69.7266 97.791C69.5234 97.5723 69.2051 97.4629 68.7715 97.4629C68.4199 97.4629 68.1113 97.5566 67.8457 97.7441C67.5801 97.9316 67.373 98.1777 67.2246 98.4824V103H66.1406V96.6602H67.166ZM78.2812 102.232C78.668 102.232 79.0059 102.115 79.2949 101.881C79.584 101.646 79.7441 101.354 79.7754 101.002H80.8008C80.7812 101.365 80.6562 101.711 80.4258 102.039C80.1953 102.367 79.8867 102.629 79.5 102.824C79.1172 103.02 78.7109 103.117 78.2812 103.117C77.418 103.117 76.7305 102.83 76.2188 102.256C75.7109 101.678 75.457 100.889 75.457 99.8887V99.707C75.457 99.0898 75.5703 98.541 75.7969 98.0605C76.0234 97.5801 76.3477 97.207 76.7695 96.9414C77.1953 96.6758 77.6973 96.543 78.2754 96.543C78.9863 96.543 79.5762 96.7559 80.0449 97.1816C80.5176 97.6074 80.7695 98.1602 80.8008 98.8398H79.7754C79.7441 98.4297 79.5879 98.0938 79.3066 97.832C79.0293 97.5664 78.6855 97.4336 78.2754 97.4336C77.7246 97.4336 77.2969 97.6328 76.9922 98.0312C76.6914 98.4258 76.541 98.998 76.541 99.748V99.9531C76.541 100.684 76.6914 101.246 76.9922 101.641C77.293 102.035 77.7227 102.232 78.2812 102.232ZM81.7324 99.7715C81.7324 99.1504 81.8535 98.5918 82.0957 98.0957C82.3418 97.5996 82.6816 97.2168 83.1152 96.9473C83.5527 96.6777 84.0508 96.543 84.6094 96.543C85.4727 96.543 86.1699 96.8418 86.7012 97.4395C87.2363 98.0371 87.5039 98.832 87.5039 99.8242V99.9004C87.5039 100.518 87.3848 101.072 87.1465 101.564C86.9121 102.053 86.5742 102.434 86.1328 102.707C85.6953 102.98 85.1914 103.117 84.6211 103.117C83.7617 103.117 83.0645 102.818 82.5293 102.221C81.998 101.623 81.7324 100.832 81.7324 99.8477V99.7715ZM82.8223 99.9004C82.8223 100.604 82.9844 101.168 83.3086 101.594C83.6367 102.02 84.0742 102.232 84.6211 102.232C85.1719 102.232 85.6094 102.018 85.9336 101.588C86.2578 101.154 86.4199 100.549 86.4199 99.7715C86.4199 99.0762 86.2539 98.5137 85.9219 98.084C85.5938 97.6504 85.1562 97.4336 84.6094 97.4336C84.0742 97.4336 83.6426 97.6465 83.3145 98.0723C82.9863 98.498 82.8223 99.1074 82.8223 99.9004ZM89.8887 96.6602L89.9238 97.457C90.4082 96.8477 91.041 96.543 91.8223 96.543C93.1621 96.543 93.8379 97.2988 93.8496 98.8105V103H92.7656V98.8047C92.7617 98.3477 92.6562 98.0098 92.4492 97.791C92.2461 97.5723 91.9277 97.4629 91.4941 97.4629C91.1426 97.4629 90.834 97.5566 90.5684 97.7441C90.3027 97.9316 90.0957 98.1777 89.9473 98.4824V103H88.8633V96.6602H89.8887ZM96.9551 95.125V96.6602H98.1387V97.498H96.9551V101.43C96.9551 101.684 97.0078 101.875 97.1133 102.004C97.2188 102.129 97.3984 102.191 97.6523 102.191C97.7773 102.191 97.9492 102.168 98.168 102.121V103C97.8828 103.078 97.6055 103.117 97.3359 103.117C96.8516 103.117 96.4863 102.971 96.2402 102.678C95.9941 102.385 95.8711 101.969 95.8711 101.43V97.498H94.7168V96.6602H95.8711V95.125H96.9551ZM102.041 103.117C101.182 103.117 100.482 102.836 99.9434 102.273C99.4043 101.707 99.1348 100.951 99.1348 100.006V99.8066C99.1348 99.1777 99.2539 98.6172 99.4922 98.125C99.7344 97.6289 100.07 97.2422 100.5 96.9648C100.934 96.6836 101.402 96.543 101.906 96.543C102.73 96.543 103.371 96.8145 103.828 97.3574C104.285 97.9004 104.514 98.6777 104.514 99.6895V100.141H100.219C100.234 100.766 100.416 101.271 100.764 101.658C101.115 102.041 101.561 102.232 102.1 102.232C102.482 102.232 102.807 102.154 103.072 101.998C103.338 101.842 103.57 101.635 103.77 101.377L104.432 101.893C103.9 102.709 103.104 103.117 102.041 103.117ZM101.906 97.4336C101.469 97.4336 101.102 97.5938 100.805 97.9141C100.508 98.2305 100.324 98.6758 100.254 99.25H103.43V99.168C103.398 98.6172 103.25 98.1914 102.984 97.8906C102.719 97.5859 102.359 97.4336 101.906 97.4336ZM107.9 98.9746L109.307 96.6602H110.572L108.498 99.7949L110.637 103H109.383L107.918 100.627L106.453 103H105.193L107.332 99.7949L105.258 96.6602H106.512L107.9 98.9746ZM113.197 95.125V96.6602H114.381V97.498H113.197V101.43C113.197 101.684 113.25 101.875 113.355 102.004C113.461 102.129 113.641 102.191 113.895 102.191C114.02 102.191 114.191 102.168 114.41 102.121V103C114.125 103.078 113.848 103.117 113.578 103.117C113.094 103.117 112.729 102.971 112.482 102.678C112.236 102.385 112.113 101.969 112.113 101.43V97.498H110.959V96.6602H112.113V95.125H113.197Z" fill="black"/>
<path d="M55.5814 117.972H53.9374V117.228L55.6174 117.168L55.7494 115.536H56.5654V117.168H59.4334V117.972H56.5654V120.744C56.5654 121.008 56.5894 121.24 56.6374 121.44C56.6854 121.632 56.7654 121.796 56.8774 121.932C56.9894 122.068 57.1414 122.172 57.3334 122.244C57.5254 122.308 57.7614 122.34 58.0414 122.34C58.3214 122.34 58.5734 122.316 58.7974 122.268C59.0214 122.22 59.2374 122.156 59.4454 122.076L59.6614 122.796C59.3974 122.892 59.1054 122.972 58.7854 123.036C58.4654 123.108 58.1454 123.144 57.8254 123.144C57.4014 123.144 57.0454 123.088 56.7574 122.976C56.4694 122.856 56.2374 122.692 56.0614 122.484C55.8934 122.268 55.7694 122.012 55.6894 121.716C55.6174 121.42 55.5814 121.092 55.5814 120.732V117.972ZM61.4207 114.456H62.4047V116.784L62.3567 118.164C62.6687 117.836 63.0007 117.564 63.3527 117.348C63.7047 117.132 64.1087 117.024 64.5647 117.024C65.2607 117.024 65.7687 117.224 66.0887 117.624C66.4167 118.016 66.5807 118.6 66.5807 119.376V123H65.5967V119.508C65.5967 118.956 65.4927 118.548 65.2847 118.284C65.0767 118.012 64.7327 117.876 64.2527 117.876C64.0767 117.876 63.9127 117.9 63.7607 117.948C63.6167 117.988 63.4727 118.052 63.3287 118.14C63.1847 118.228 63.0367 118.34 62.8847 118.476C62.7327 118.604 62.5727 118.756 62.4047 118.932V123H61.4207V114.456ZM68.58 117.168H72.276V123H71.292V117.972H68.58V117.168ZM71.676 115.968C71.444 115.968 71.252 115.9 71.1 115.764C70.956 115.628 70.884 115.444 70.884 115.212C70.884 114.98 70.956 114.796 71.1 114.66C71.252 114.516 71.444 114.444 71.676 114.444C71.9 114.444 72.088 114.516 72.24 114.66C72.392 114.796 72.468 114.98 72.468 115.212C72.468 115.444 72.392 115.628 72.24 115.764C72.088 115.9 71.9 115.968 71.676 115.968ZM76.0393 121.584C76.3673 121.824 76.7193 122.016 77.0953 122.16C77.4713 122.304 77.9233 122.376 78.4513 122.376C78.9793 122.376 79.3713 122.288 79.6273 122.112C79.8833 121.936 80.0113 121.72 80.0113 121.464C80.0113 121.24 79.8713 121.04 79.5913 120.864C79.3193 120.688 78.8273 120.512 78.1153 120.336C77.8113 120.264 77.5233 120.176 77.2513 120.072C76.9873 119.968 76.7553 119.848 76.5553 119.712C76.3553 119.568 76.1953 119.412 76.0753 119.244C75.9553 119.076 75.8953 118.888 75.8953 118.68C75.8953 118.448 75.9473 118.232 76.0513 118.032C76.1553 117.824 76.3073 117.648 76.5073 117.504C76.7153 117.352 76.9713 117.236 77.2753 117.156C77.5873 117.068 77.9433 117.024 78.3433 117.024C78.7833 117.024 79.2113 117.1 79.6273 117.252C80.0433 117.396 80.3953 117.568 80.6833 117.768L80.2033 118.404C79.9473 118.22 79.6633 118.072 79.3513 117.96C79.0393 117.848 78.7033 117.792 78.3433 117.792C78.0713 117.792 77.8433 117.816 77.6593 117.864C77.4753 117.904 77.3273 117.964 77.2153 118.044C77.1033 118.116 77.0233 118.204 76.9753 118.308C76.9273 118.412 76.9033 118.52 76.9033 118.632C76.9033 118.872 77.0673 119.072 77.3953 119.232C77.7233 119.384 78.1513 119.528 78.6793 119.664C79.4713 119.864 80.0553 120.092 80.4313 120.348C80.8153 120.604 81.0073 120.956 81.0073 121.404C81.0073 121.644 80.9513 121.868 80.8393 122.076C80.7273 122.284 80.5593 122.468 80.3353 122.628C80.1193 122.788 79.8473 122.912 79.5193 123C79.1993 123.096 78.8313 123.144 78.4153 123.144C77.8393 123.144 77.3073 123.056 76.8193 122.88C76.3393 122.696 75.9193 122.48 75.5593 122.232L76.0393 121.584Z" fill="black"/>
<path d="M199.354 121.354C199.549 121.158 199.549 120.842 199.354 120.646L196.172 117.464C195.976 117.269 195.66 117.269 195.464 117.464C195.269 117.66 195.269 117.976 195.464 118.172L198.293 121L195.464 123.828C195.269 124.024 195.269 124.34 195.464 124.536C195.66 124.731 195.976 124.731 196.172 124.536L199.354 121.354ZM85 121.5H199V120.5H85V121.5Z" fill="#B5B5B5"/>
<path d="M199.354 120.354C199.549 120.158 199.549 119.842 199.354 119.646L196.172 116.464C195.976 116.269 195.66 116.269 195.464 116.464C195.269 116.66 195.269 116.976 195.464 117.172L198.293 120L195.464 122.828C195.269 123.024 195.269 123.34 195.464 123.536C195.66 123.731 195.976 123.731 196.172 123.536L199.354 120.354ZM85 120.5H199V119.5H85V120.5Z" fill="black"/>
<path d="M209.51 109.168H210.518L211.226 112.54C211.282 112.82 211.334 113.092 211.382 113.356C211.43 113.62 211.474 113.888 211.514 114.16H211.562C211.618 113.888 211.674 113.62 211.73 113.356C211.786 113.084 211.846 112.812 211.91 112.54L212.618 109.516H213.458L214.178 112.54C214.242 112.82 214.302 113.092 214.358 113.356C214.414 113.62 214.474 113.888 214.538 114.16H214.586C214.642 113.888 214.69 113.62 214.73 113.356C214.778 113.092 214.826 112.82 214.874 112.54L215.582 109.168H216.518L215.246 115H214.058L213.362 112.048C213.306 111.768 213.254 111.492 213.206 111.22C213.158 110.94 213.102 110.652 213.038 110.356H212.99C212.942 110.612 212.894 110.876 212.846 111.148C212.798 111.42 212.738 111.724 212.666 112.06L211.994 115H210.818L209.51 109.168ZM217.689 109.168H221.385V115H220.401V109.972H217.689V109.168ZM220.785 107.968C220.553 107.968 220.361 107.9 220.209 107.764C220.065 107.628 219.993 107.444 219.993 107.212C219.993 106.98 220.065 106.796 220.209 106.66C220.361 106.516 220.553 106.444 220.785 106.444C221.009 106.444 221.197 106.516 221.349 106.66C221.501 106.796 221.577 106.98 221.577 107.212C221.577 107.444 221.501 107.628 221.349 107.764C221.197 107.9 221.009 107.968 220.785 107.968ZM224.921 109.168H225.737L225.821 110.164H225.869C226.173 109.836 226.501 109.564 226.853 109.348C227.205 109.132 227.609 109.024 228.065 109.024C228.761 109.024 229.269 109.224 229.589 109.624C229.917 110.016 230.081 110.6 230.081 111.376V115H229.097V111.508C229.097 110.956 228.993 110.548 228.785 110.284C228.577 110.012 228.233 109.876 227.753 109.876C227.577 109.876 227.413 109.9 227.261 109.948C227.117 109.988 226.973 110.052 226.829 110.14C226.685 110.228 226.537 110.34 226.385 110.476C226.233 110.604 226.073 110.756 225.905 110.932V115H224.921V109.168ZM231.72 112.096C231.72 111.624 231.792 111.2 231.936 110.824C232.088 110.44 232.284 110.116 232.524 109.852C232.772 109.588 233.056 109.384 233.376 109.24C233.696 109.096 234.028 109.024 234.372 109.024C234.732 109.024 235.048 109.092 235.32 109.228C235.592 109.364 235.864 109.548 236.136 109.78L236.1 108.7V106.456H237.084V115H236.268L236.184 114.232H236.148C235.908 114.48 235.62 114.696 235.284 114.88C234.956 115.056 234.612 115.144 234.252 115.144C233.868 115.144 233.52 115.076 233.208 114.94C232.904 114.804 232.64 114.608 232.416 114.352C232.192 114.088 232.02 113.768 231.9 113.392C231.78 113.016 231.72 112.584 231.72 112.096ZM232.74 112.084C232.74 112.788 232.888 113.336 233.184 113.728C233.488 114.12 233.912 114.316 234.456 114.316C235.032 114.316 235.58 114.024 236.1 113.44V110.536C235.836 110.288 235.576 110.112 235.32 110.008C235.072 109.904 234.82 109.852 234.564 109.852C234.308 109.852 234.068 109.908 233.844 110.02C233.628 110.124 233.436 110.276 233.268 110.476C233.108 110.668 232.98 110.9 232.884 111.172C232.788 111.444 232.74 111.748 232.74 112.084ZM238.915 112.096C238.915 111.608 238.991 111.176 239.143 110.8C239.303 110.416 239.515 110.092 239.779 109.828C240.043 109.564 240.347 109.364 240.691 109.228C241.043 109.092 241.411 109.024 241.795 109.024C242.179 109.024 242.543 109.092 242.887 109.228C243.239 109.364 243.547 109.564 243.811 109.828C244.075 110.092 244.283 110.416 244.435 110.8C244.595 111.176 244.675 111.608 244.675 112.096C244.675 112.576 244.595 113.008 244.435 113.392C244.283 113.768 244.075 114.088 243.811 114.352C243.547 114.608 243.239 114.804 242.887 114.94C242.543 115.076 242.179 115.144 241.795 115.144C241.411 115.144 241.043 115.076 240.691 114.94C240.347 114.804 240.043 114.608 239.779 114.352C239.515 114.088 239.303 113.768 239.143 113.392C238.991 113.008 238.915 112.576 238.915 112.096ZM239.935 112.096C239.935 112.432 239.979 112.736 240.067 113.008C240.155 113.28 240.279 113.516 240.439 113.716C240.607 113.908 240.803 114.06 241.027 114.172C241.259 114.276 241.515 114.328 241.795 114.328C242.075 114.328 242.327 114.276 242.551 114.172C242.783 114.06 242.979 113.908 243.139 113.716C243.307 113.516 243.435 113.28 243.523 113.008C243.611 112.736 243.655 112.432 243.655 112.096C243.655 111.76 243.611 111.456 243.523 111.184C243.435 110.904 243.307 110.664 243.139 110.464C242.979 110.264 242.783 110.112 242.551 110.008C242.327 109.896 242.075 109.84 241.795 109.84C241.515 109.84 241.259 109.896 241.027 110.008C240.803 110.112 240.607 110.264 240.439 110.464C240.279 110.664 240.155 110.904 240.067 111.184C239.979 111.456 239.935 111.76 239.935 112.096ZM245.487 109.168H246.495L247.203 112.54C247.259 112.82 247.311 113.092 247.359 113.356C247.407 113.62 247.451 113.888 247.491 114.16H247.539C247.595 113.888 247.651 113.62 247.707 113.356C247.763 113.084 247.823 112.812 247.887 112.54L248.595 109.516H249.435L250.155 112.54C250.219 112.82 250.279 113.092 250.335 113.356C250.391 113.62 250.451 113.888 250.515 114.16H250.563C250.619 113.888 250.667 113.62 250.707 113.356C250.755 113.092 250.803 112.82 250.851 112.54L251.559 109.168H252.495L251.223 115H250.035L249.339 112.048C249.283 111.768 249.231 111.492 249.183 111.22C249.135 110.94 249.079 110.652 249.015 110.356H248.967C248.919 110.612 248.871 110.876 248.823 111.148C248.775 111.42 248.715 111.724 248.643 112.06L247.971 115H246.795L245.487 109.168Z" fill="black"/>
<path d="M209.414 116.2H252.591V116.8H209.414V116.2Z" fill="black"/>
<rect width="134" height="66" fill="#C4C4C4"/>
<path d="M40.7461 12.7832C40.7461 11.8105 40.9766 11.0273 41.4375 10.4336C41.9023 9.83984 42.5273 9.54297 43.3125 9.54297C44.0078 9.54297 44.5488 9.78125 44.9355 10.2578L45.0059 9.66016H46.541V15.7891C46.541 16.3438 46.4141 16.8262 46.1602 17.2363C45.9102 17.6465 45.5566 17.959 45.0996 18.1738C44.6426 18.3887 44.1074 18.4961 43.4941 18.4961C43.0293 18.4961 42.5762 18.4023 42.1348 18.2148C41.6934 18.0312 41.3594 17.793 41.1328 17.5L41.8828 16.4688C42.3047 16.9414 42.8164 17.1777 43.418 17.1777C43.8672 17.1777 44.2168 17.0566 44.4668 16.8145C44.7168 16.5762 44.8418 16.2363 44.8418 15.7949V15.4551C44.4512 15.8965 43.9375 16.1172 43.3008 16.1172C42.5391 16.1172 41.9219 15.8203 41.4492 15.2266C40.9805 14.6289 40.7461 13.8379 40.7461 12.8535V12.7832ZM42.4395 12.9062C42.4395 13.4805 42.5547 13.9316 42.7852 14.2598C43.0156 14.584 43.332 14.7461 43.7344 14.7461C44.25 14.7461 44.6191 14.5527 44.8418 14.166V11.5C44.6152 11.1133 44.25 10.9199 43.7461 10.9199C43.3398 10.9199 43.0195 11.0859 42.7852 11.418C42.5547 11.75 42.4395 12.2461 42.4395 12.9062ZM49.6348 16H47.9355V9.66016H49.6348V16ZM47.8359 8.01953C47.8359 7.76562 47.9199 7.55664 48.0879 7.39258C48.2598 7.22852 48.4922 7.14648 48.7852 7.14648C49.0742 7.14648 49.3047 7.22852 49.4766 7.39258C49.6484 7.55664 49.7344 7.76562 49.7344 8.01953C49.7344 8.27734 49.6465 8.48828 49.4707 8.65234C49.2988 8.81641 49.0703 8.89844 48.7852 8.89844C48.5 8.89844 48.2695 8.81641 48.0938 8.65234C47.9219 8.48828 47.8359 8.27734 47.8359 8.01953ZM53.4082 13.9316L54.5859 9.66016H56.3555L54.2168 16H52.5996L50.4609 9.66016H52.2305L53.4082 13.9316ZM59.9414 16.1172C59.0117 16.1172 58.2539 15.832 57.668 15.2617C57.0859 14.6914 56.7949 13.9316 56.7949 12.9824V12.8184C56.7949 12.1816 56.918 11.6133 57.1641 11.1133C57.4102 10.6094 57.7578 10.2227 58.207 9.95312C58.6602 9.67969 59.1758 9.54297 59.7539 9.54297C60.6211 9.54297 61.3027 9.81641 61.7988 10.3633C62.2988 10.9102 62.5488 11.6855 62.5488 12.6895V13.3809H58.5117C58.5664 13.7949 58.7305 14.127 59.0039 14.377C59.2812 14.627 59.6309 14.752 60.0527 14.752C60.7051 14.752 61.2148 14.5156 61.582 14.043L62.4141 14.9746C62.1602 15.334 61.8164 15.6152 61.3828 15.8184C60.9492 16.0176 60.4688 16.1172 59.9414 16.1172ZM59.748 10.9141C59.4121 10.9141 59.1387 11.0273 58.9277 11.2539C58.7207 11.4805 58.5879 11.8047 58.5293 12.2266H60.8848V12.0918C60.877 11.7168 60.7754 11.4277 60.5801 11.2246C60.3848 11.0176 60.1074 10.9141 59.748 10.9141ZM70.5645 16H68.8066L65.3848 10.3867V16H63.627V7.46875H65.3848L68.8125 13.0938V7.46875H70.5645V16ZM75.6621 16C75.584 15.8477 75.5273 15.6582 75.4922 15.4316C75.082 15.8887 74.5488 16.1172 73.8926 16.1172C73.2715 16.1172 72.7559 15.9375 72.3457 15.5781C71.9395 15.2188 71.7363 14.7656 71.7363 14.2188C71.7363 13.5469 71.9844 13.0312 72.4805 12.6719C72.9805 12.3125 73.7012 12.1309 74.6426 12.127H75.4219V11.7637C75.4219 11.4707 75.3457 11.2363 75.1934 11.0605C75.0449 10.8848 74.8086 10.7969 74.4844 10.7969C74.1992 10.7969 73.9746 10.8652 73.8105 11.002C73.6504 11.1387 73.5703 11.3262 73.5703 11.5645H71.877C71.877 11.1973 71.9902 10.8574 72.2168 10.5449C72.4434 10.2324 72.7637 9.98828 73.1777 9.8125C73.5918 9.63281 74.0566 9.54297 74.5723 9.54297C75.3535 9.54297 75.9727 9.74023 76.4297 10.1348C76.8906 10.5254 77.1211 11.0762 77.1211 11.7871V14.5352C77.125 15.1367 77.209 15.5918 77.373 15.9004V16H75.6621ZM74.2617 14.8223C74.5117 14.8223 74.7422 14.7676 74.9531 14.6582C75.1641 14.5449 75.3203 14.3945 75.4219 14.207V13.1172H74.7891C73.9414 13.1172 73.4902 13.4102 73.4355 13.9961L73.4297 14.0957C73.4297 14.3066 73.5039 14.4805 73.6523 14.6172C73.8008 14.7539 74.0039 14.8223 74.2617 14.8223ZM80.0098 9.66016L80.0625 10.3691C80.5117 9.81836 81.1191 9.54297 81.8848 9.54297C82.7012 9.54297 83.2617 9.86523 83.5664 10.5098C84.0117 9.86523 84.6465 9.54297 85.4707 9.54297C86.1582 9.54297 86.6699 9.74414 87.0059 10.1465C87.3418 10.5449 87.5098 11.1465 87.5098 11.9512V16H85.8105V11.957C85.8105 11.5977 85.7402 11.3359 85.5996 11.1719C85.459 11.0039 85.2109 10.9199 84.8555 10.9199C84.3477 10.9199 83.9961 11.1621 83.8008 11.6465L83.8066 16H82.1133V11.9629C82.1133 11.5957 82.041 11.3301 81.8965 11.166C81.752 11.002 81.5059 10.9199 81.1582 10.9199C80.6777 10.9199 80.3301 11.1191 80.1152 11.5176V16H78.4219V9.66016H80.0098ZM91.7344 16.1172C90.8047 16.1172 90.0469 15.832 89.4609 15.2617C88.8789 14.6914 88.5879 13.9316 88.5879 12.9824V12.8184C88.5879 12.1816 88.7109 11.6133 88.957 11.1133C89.2031 10.6094 89.5508 10.2227 90 9.95312C90.4531 9.67969 90.9688 9.54297 91.5469 9.54297C92.4141 9.54297 93.0957 9.81641 93.5918 10.3633C94.0918 10.9102 94.3418 11.6855 94.3418 12.6895V13.3809H90.3047C90.3594 13.7949 90.5234 14.127 90.7969 14.377C91.0742 14.627 91.4238 14.752 91.8457 14.752C92.498 14.752 93.0078 14.5156 93.375 14.043L94.207 14.9746C93.9531 15.334 93.6094 15.6152 93.1758 15.8184C92.7422 16.0176 92.2617 16.1172 91.7344 16.1172ZM91.541 10.9141C91.2051 10.9141 90.9316 11.0273 90.7207 11.2539C90.5137 11.4805 90.3809 11.8047 90.3223 12.2266H92.6777V12.0918C92.6699 11.7168 92.5684 11.4277 92.373 11.2246C92.1777 11.0176 91.9004 10.9141 91.541 10.9141Z" fill="black"/>
<path d="M23.6191 35.1172C22.7598 35.1172 22.0605 34.8359 21.5215 34.2734C20.9824 33.707 20.7129 32.9512 20.7129 32.0059V31.8066C20.7129 31.1777 20.832 30.6172 21.0703 30.125C21.3125 29.6289 21.6484 29.2422 22.0781 28.9648C22.5117 28.6836 22.9805 28.543 23.4844 28.543C24.3086 28.543 24.9492 28.8145 25.4062 29.3574C25.8633 29.9004 26.0918 30.6777 26.0918 31.6895V32.1406H21.7969C21.8125 32.7656 21.9941 33.2715 22.3418 33.6582C22.6934 34.041 23.1387 34.2324 23.6777 34.2324C24.0605 34.2324 24.3848 34.1543 24.6504 33.998C24.916 33.8418 25.1484 33.6348 25.3477 33.377L26.0098 33.8926C25.4785 34.709 24.6816 35.1172 23.6191 35.1172ZM23.4844 29.4336C23.0469 29.4336 22.6797 29.5938 22.3828 29.9141C22.0859 30.2305 21.9023 30.6758 21.832 31.25H25.0078V31.168C24.9766 30.6172 24.8281 30.1914 24.5625 29.8906C24.2969 29.5859 23.9375 29.4336 23.4844 29.4336ZM29.4785 30.9746L30.8848 28.6602H32.1504L30.0762 31.7949L32.2148 35H30.9609L29.4961 32.627L28.0312 35H26.7715L28.9102 31.7949L26.8359 28.6602H28.0898L29.4785 30.9746ZM35.8184 35.1172C34.959 35.1172 34.2598 34.8359 33.7207 34.2734C33.1816 33.707 32.9121 32.9512 32.9121 32.0059V31.8066C32.9121 31.1777 33.0312 30.6172 33.2695 30.125C33.5117 29.6289 33.8477 29.2422 34.2773 28.9648C34.7109 28.6836 35.1797 28.543 35.6836 28.543C36.5078 28.543 37.1484 28.8145 37.6055 29.3574C38.0625 29.9004 38.291 30.6777 38.291 31.6895V32.1406H33.9961C34.0117 32.7656 34.1934 33.2715 34.541 33.6582C34.8926 34.041 35.3379 34.2324 35.877 34.2324C36.2598 34.2324 36.584 34.1543 36.8496 33.998C37.1152 33.8418 37.3477 33.6348 37.5469 33.377L38.209 33.8926C37.6777 34.709 36.8809 35.1172 35.8184 35.1172ZM35.6836 29.4336C35.2461 29.4336 34.8789 29.5938 34.582 29.9141C34.2852 30.2305 34.1016 30.6758 34.0312 31.25H37.207V31.168C37.1758 30.6172 37.0273 30.1914 36.7617 29.8906C36.4961 29.5859 36.1367 29.4336 35.6836 29.4336ZM42.0938 34.2324C42.4805 34.2324 42.8184 34.1152 43.1074 33.8809C43.3965 33.6465 43.5566 33.3535 43.5879 33.002H44.6133C44.5938 33.3652 44.4688 33.7109 44.2383 34.0391C44.0078 34.3672 43.6992 34.6289 43.3125 34.8242C42.9297 35.0195 42.5234 35.1172 42.0938 35.1172C41.2305 35.1172 40.543 34.8301 40.0312 34.2559C39.5234 33.6777 39.2695 32.8887 39.2695 31.8887V31.707C39.2695 31.0898 39.3828 30.541 39.6094 30.0605C39.8359 29.5801 40.1602 29.207 40.582 28.9414C41.0078 28.6758 41.5098 28.543 42.0879 28.543C42.7988 28.543 43.3887 28.7559 43.8574 29.1816C44.3301 29.6074 44.582 30.1602 44.6133 30.8398H43.5879C43.5566 30.4297 43.4004 30.0938 43.1191 29.832C42.8418 29.5664 42.498 29.4336 42.0879 29.4336C41.5371 29.4336 41.1094 29.6328 40.8047 30.0312C40.5039 30.4258 40.3535 30.998 40.3535 31.748V31.9531C40.3535 32.6836 40.5039 33.2461 40.8047 33.6406C41.1055 34.0352 41.5352 34.2324 42.0938 34.2324ZM49.7461 34.373C49.3242 34.8691 48.7051 35.1172 47.8887 35.1172C47.2129 35.1172 46.6973 34.9219 46.3418 34.5312C45.9902 34.1367 45.8125 33.5547 45.8086 32.7852V28.6602H46.8926V32.7559C46.8926 33.7168 47.2832 34.1973 48.0645 34.1973C48.8926 34.1973 49.4434 33.8887 49.7168 33.2715V28.6602H50.8008V35H49.7695L49.7461 34.373ZM53.9238 27.125V28.6602H55.1074V29.498H53.9238V33.4297C53.9238 33.6836 53.9766 33.875 54.082 34.0039C54.1875 34.1289 54.3672 34.1914 54.6211 34.1914C54.7461 34.1914 54.918 34.168 55.1367 34.1211V35C54.8516 35.0781 54.5742 35.1172 54.3047 35.1172C53.8203 35.1172 53.4551 34.9707 53.209 34.6777C52.9629 34.3848 52.8398 33.9688 52.8398 33.4297V29.498H51.6855V28.6602H52.8398V27.125H53.9238ZM57.5566 35H56.4727V28.6602H57.5566V35ZM56.3848 26.9785C56.3848 26.8027 56.4375 26.6543 56.543 26.5332C56.6523 26.4121 56.8125 26.3516 57.0234 26.3516C57.2344 26.3516 57.3945 26.4121 57.5039 26.5332C57.6133 26.6543 57.668 26.8027 57.668 26.9785C57.668 27.1543 57.6133 27.3008 57.5039 27.418C57.3945 27.5352 57.2344 27.5938 57.0234 27.5938C56.8125 27.5938 56.6523 27.5352 56.543 27.418C56.4375 27.3008 56.3848 27.1543 56.3848 26.9785ZM59.0098 31.7715C59.0098 31.1504 59.1309 30.5918 59.373 30.0957C59.6191 29.5996 59.959 29.2168 60.3926 28.9473C60.8301 28.6777 61.3281 28.543 61.8867 28.543C62.75 28.543 63.4473 28.8418 63.9785 29.4395C64.5137 30.0371 64.7812 30.832 64.7812 31.8242V31.9004C64.7812 32.5176 64.6621 33.0723 64.4238 33.5645C64.1895 34.0527 63.8516 34.4336 63.4102 34.707C62.9727 34.9805 62.4688 35.1172 61.8984 35.1172C61.0391 35.1172 60.3418 34.8184 59.8066 34.2207C59.2754 33.623 59.0098 32.832 59.0098 31.8477V31.7715ZM60.0996 31.9004C60.0996 32.6035 60.2617 33.168 60.5859 33.5938C60.9141 34.0195 61.3516 34.2324 61.8984 34.2324C62.4492 34.2324 62.8867 34.0176 63.2109 33.5879C63.5352 33.1543 63.6973 32.5488 63.6973 31.7715C63.6973 31.0762 63.5312 30.5137 63.1992 30.084C62.8711 29.6504 62.4336 29.4336 61.8867 29.4336C61.3516 29.4336 60.9199 29.6465 60.5918 30.0723C60.2637 30.498 60.0996 31.1074 60.0996 31.9004ZM67.166 28.6602L67.2012 29.457C67.6855 28.8477 68.3184 28.543 69.0996 28.543C70.4395 28.543 71.1152 29.2988 71.127 30.8105V35H70.043V30.8047C70.0391 30.3477 69.9336 30.0098 69.7266 29.791C69.5234 29.5723 69.2051 29.4629 68.7715 29.4629C68.4199 29.4629 68.1113 29.5566 67.8457 29.7441C67.5801 29.9316 67.373 30.1777 67.2246 30.4824V35H66.1406V28.6602H67.166ZM78.2812 34.2324C78.668 34.2324 79.0059 34.1152 79.2949 33.8809C79.584 33.6465 79.7441 33.3535 79.7754 33.002H80.8008C80.7812 33.3652 80.6562 33.7109 80.4258 34.0391C80.1953 34.3672 79.8867 34.6289 79.5 34.8242C79.1172 35.0195 78.7109 35.1172 78.2812 35.1172C77.418 35.1172 76.7305 34.8301 76.2188 34.2559C75.7109 33.6777 75.457 32.8887 75.457 31.8887V31.707C75.457 31.0898 75.5703 30.541 75.7969 30.0605C76.0234 29.5801 76.3477 29.207 76.7695 28.9414C77.1953 28.6758 77.6973 28.543 78.2754 28.543C78.9863 28.543 79.5762 28.7559 80.0449 29.1816C80.5176 29.6074 80.7695 30.1602 80.8008 30.8398H79.7754C79.7441 30.4297 79.5879 30.0938 79.3066 29.832C79.0293 29.5664 78.6855 29.4336 78.2754 29.4336C77.7246 29.4336 77.2969 29.6328 76.9922 30.0312C76.6914 30.4258 76.541 30.998 76.541 31.748V31.9531C76.541 32.6836 76.6914 33.2461 76.9922 33.6406C77.293 34.0352 77.7227 34.2324 78.2812 34.2324ZM81.7324 31.7715C81.7324 31.1504 81.8535 30.5918 82.0957 30.0957C82.3418 29.5996 82.6816 29.2168 83.1152 28.9473C83.5527 28.6777 84.0508 28.543 84.6094 28.543C85.4727 28.543 86.1699 28.8418 86.7012 29.4395C87.2363 30.0371 87.5039 30.832 87.5039 31.8242V31.9004C87.5039 32.5176 87.3848 33.0723 87.1465 33.5645C86.9121 34.0527 86.5742 34.4336 86.1328 34.707C85.6953 34.9805 85.1914 35.1172 84.6211 35.1172C83.7617 35.1172 83.0645 34.8184 82.5293 34.2207C81.998 33.623 81.7324 32.832 81.7324 31.8477V31.7715ZM82.8223 31.9004C82.8223 32.6035 82.9844 33.168 83.3086 33.5938C83.6367 34.0195 84.0742 34.2324 84.6211 34.2324C85.1719 34.2324 85.6094 34.0176 85.9336 33.5879C86.2578 33.1543 86.4199 32.5488 86.4199 31.7715C86.4199 31.0762 86.2539 30.5137 85.9219 30.084C85.5938 29.6504 85.1562 29.4336 84.6094 29.4336C84.0742 29.4336 83.6426 29.6465 83.3145 30.0723C82.9863 30.498 82.8223 31.1074 82.8223 31.9004ZM89.8887 28.6602L89.9238 29.457C90.4082 28.8477 91.041 28.543 91.8223 28.543C93.1621 28.543 93.8379 29.2988 93.8496 30.8105V35H92.7656V30.8047C92.7617 30.3477 92.6562 30.0098 92.4492 29.791C92.2461 29.5723 91.9277 29.4629 91.4941 29.4629C91.1426 29.4629 90.834 29.5566 90.5684 29.7441C90.3027 29.9316 90.0957 30.1777 89.9473 30.4824V35H88.8633V28.6602H89.8887ZM96.9551 27.125V28.6602H98.1387V29.498H96.9551V33.4297C96.9551 33.6836 97.0078 33.875 97.1133 34.0039C97.2188 34.1289 97.3984 34.1914 97.6523 34.1914C97.7773 34.1914 97.9492 34.168 98.168 34.1211V35C97.8828 35.0781 97.6055 35.1172 97.3359 35.1172C96.8516 35.1172 96.4863 34.9707 96.2402 34.6777C95.9941 34.3848 95.8711 33.9688 95.8711 33.4297V29.498H94.7168V28.6602H95.8711V27.125H96.9551ZM102.041 35.1172C101.182 35.1172 100.482 34.8359 99.9434 34.2734C99.4043 33.707 99.1348 32.9512 99.1348 32.0059V31.8066C99.1348 31.1777 99.2539 30.6172 99.4922 30.125C99.7344 29.6289 100.07 29.2422 100.5 28.9648C100.934 28.6836 101.402 28.543 101.906 28.543C102.73 28.543 103.371 28.8145 103.828 29.3574C104.285 29.9004 104.514 30.6777 104.514 31.6895V32.1406H100.219C100.234 32.7656 100.416 33.2715 100.764 33.6582C101.115 34.041 101.561 34.2324 102.1 34.2324C102.482 34.2324 102.807 34.1543 103.072 33.998C103.338 33.8418 103.57 33.6348 103.77 33.377L104.432 33.8926C103.9 34.709 103.104 35.1172 102.041 35.1172ZM101.906 29.4336C101.469 29.4336 101.102 29.5938 100.805 29.9141C100.508 30.2305 100.324 30.6758 100.254 31.25H103.43V31.168C103.398 30.6172 103.25 30.1914 102.984 29.8906C102.719 29.5859 102.359 29.4336 101.906 29.4336ZM107.9 30.9746L109.307 28.6602H110.572L108.498 31.7949L110.637 35H109.383L107.918 32.627L106.453 35H105.193L107.332 31.7949L105.258 28.6602H106.512L107.9 30.9746ZM113.197 27.125V28.6602H114.381V29.498H113.197V33.4297C113.197 33.6836 113.25 33.875 113.355 34.0039C113.461 34.1289 113.641 34.1914 113.895 34.1914C114.02 34.1914 114.191 34.168 114.41 34.1211V35C114.125 35.0781 113.848 35.1172 113.578 35.1172C113.094 35.1172 112.729 34.9707 112.482 34.6777C112.236 34.3848 112.113 33.9688 112.113 33.4297V29.498H110.959V28.6602H112.113V27.125H113.197Z" fill="black"/>
<path d="M55.5814 49.972H53.9374V49.228L55.6174 49.168L55.7494 47.536H56.5654V49.168H59.4334V49.972H56.5654V52.744C56.5654 53.008 56.5894 53.24 56.6374 53.44C56.6854 53.632 56.7654 53.796 56.8774 53.932C56.9894 54.068 57.1414 54.172 57.3334 54.244C57.5254 54.308 57.7614 54.34 58.0414 54.34C58.3214 54.34 58.5734 54.316 58.7974 54.268C59.0214 54.22 59.2374 54.156 59.4454 54.076L59.6614 54.796C59.3974 54.892 59.1054 54.972 58.7854 55.036C58.4654 55.108 58.1454 55.144 57.8254 55.144C57.4014 55.144 57.0454 55.088 56.7574 54.976C56.4694 54.856 56.2374 54.692 56.0614 54.484C55.8934 54.268 55.7694 54.012 55.6894 53.716C55.6174 53.42 55.5814 53.092 55.5814 52.732V49.972ZM61.4207 46.456H62.4047V48.784L62.3567 50.164C62.6687 49.836 63.0007 49.564 63.3527 49.348C63.7047 49.132 64.1087 49.024 64.5647 49.024C65.2607 49.024 65.7687 49.224 66.0887 49.624C66.4167 50.016 66.5807 50.6 66.5807 51.376V55H65.5967V51.508C65.5967 50.956 65.4927 50.548 65.2847 50.284C65.0767 50.012 64.7327 49.876 64.2527 49.876C64.0767 49.876 63.9127 49.9 63.7607 49.948C63.6167 49.988 63.4727 50.052 63.3287 50.14C63.1847 50.228 63.0367 50.34 62.8847 50.476C62.7327 50.604 62.5727 50.756 62.4047 50.932V55H61.4207V46.456ZM68.58 49.168H72.276V55H71.292V49.972H68.58V49.168ZM71.676 47.968C71.444 47.968 71.252 47.9 71.1 47.764C70.956 47.628 70.884 47.444 70.884 47.212C70.884 46.98 70.956 46.796 71.1 46.66C71.252 46.516 71.444 46.444 71.676 46.444C71.9 46.444 72.088 46.516 72.24 46.66C72.392 46.796 72.468 46.98 72.468 47.212C72.468 47.444 72.392 47.628 72.24 47.764C72.088 47.9 71.9 47.968 71.676 47.968ZM76.0393 53.584C76.3673 53.824 76.7193 54.016 77.0953 54.16C77.4713 54.304 77.9233 54.376 78.4513 54.376C78.9793 54.376 79.3713 54.288 79.6273 54.112C79.8833 53.936 80.0113 53.72 80.0113 53.464C80.0113 53.24 79.8713 53.04 79.5913 52.864C79.3193 52.688 78.8273 52.512 78.1153 52.336C77.8113 52.264 77.5233 52.176 77.2513 52.072C76.9873 51.968 76.7553 51.848 76.5553 51.712C76.3553 51.568 76.1953 51.412 76.0753 51.244C75.9553 51.076 75.8953 50.888 75.8953 50.68C75.8953 50.448 75.9473 50.232 76.0513 50.032C76.1553 49.824 76.3073 49.648 76.5073 49.504C76.7153 49.352 76.9713 49.236 77.2753 49.156C77.5873 49.068 77.9433 49.024 78.3433 49.024C78.7833 49.024 79.2113 49.1 79.6273 49.252C80.0433 49.396 80.3953 49.568 80.6833 49.768L80.2033 50.404C79.9473 50.22 79.6633 50.072 79.3513 49.96C79.0393 49.848 78.7033 49.792 78.3433 49.792C78.0713 49.792 77.8433 49.816 77.6593 49.864C77.4753 49.904 77.3273 49.964 77.2153 50.044C77.1033 50.116 77.0233 50.204 76.9753 50.308C76.9273 50.412 76.9033 50.52 76.9033 50.632C76.9033 50.872 77.0673 51.072 77.3953 51.232C77.7233 51.384 78.1513 51.528 78.6793 51.664C79.4713 51.864 80.0553 52.092 80.4313 52.348C80.8153 52.604 81.0073 52.956 81.0073 53.404C81.0073 53.644 80.9513 53.868 80.8393 54.076C80.7273 54.284 80.5593 54.468 80.3353 54.628C80.1193 54.788 79.8473 54.912 79.5193 55C79.1993 55.096 78.8313 55.144 78.4153 55.144C77.8393 55.144 77.3073 55.056 76.8193 54.88C76.3393 54.696 75.9193 54.48 75.5593 54.232L76.0393 53.584Z" fill="black"/>
<path d="M199.178 104.467C199.436 104.369 199.566 104.08 199.467 103.822L197.862 99.6177C197.763 99.3597 197.474 99.2304 197.216 99.3289C196.959 99.4274 196.829 99.7164 196.928 99.9744L198.355 103.711L194.618 105.138C194.36 105.237 194.23 105.526 194.329 105.784C194.427 106.041 194.716 106.171 194.974 106.072L199.178 104.467ZM84.7958 53.4564L198.796 104.456L199.204 103.544L85.2042 52.5436L84.7958 53.4564Z" fill="#B5B5B5"/>
<path d="M199.178 103.467C199.436 103.369 199.566 103.08 199.467 102.822L197.862 98.6177C197.763 98.3597 197.474 98.2304 197.216 98.3289C196.959 98.4274 196.829 98.7164 196.928 98.9744L198.355 102.711L194.618 104.138C194.36 104.237 194.23 104.526 194.329 104.784C194.427 105.041 194.716 105.171 194.974 105.072L199.178 103.467ZM84.7958 52.4564L198.796 103.456L199.204 102.544L85.2042 51.5436L84.7958 52.4564Z" fill="black"/>
</svg>
