<svg width="277" height="66" viewBox="0 0 277 66" fill="none" xmlns="http://www.w3.org/2000/svg">
<rect x="184" y="35" width="93" height="31" fill="#C4C4C4"/>
<path d="M199.896 56.032H200.856L200.944 56.56H200.976C201.147 56.3893 201.342 56.2427 201.56 56.12C201.784 55.9973 202.046 55.936 202.344 55.936C202.792 55.936 203.12 56.08 203.328 56.368C203.536 56.656 203.64 57.0507 203.64 57.552V60H202.464V57.704C202.464 57.4373 202.422 57.2427 202.336 57.12C202.251 56.9973 202.099 56.936 201.88 56.936C201.72 56.936 201.579 56.9707 201.456 57.04C201.339 57.1093 201.211 57.2133 201.072 57.352V60H199.896V56.032ZM204.605 58.896C204.605 58.672 204.653 58.4773 204.749 58.312C204.845 58.1413 204.997 57.9973 205.205 57.88C205.419 57.7627 205.691 57.6693 206.021 57.6C206.352 57.5253 206.752 57.4747 207.221 57.448C207.2 57.2667 207.12 57.1253 206.981 57.024C206.848 56.9227 206.645 56.872 206.373 56.872C206.181 56.872 205.987 56.9067 205.789 56.976C205.597 57.04 205.389 57.128 205.165 57.24L204.749 56.472C205.021 56.3173 205.312 56.1893 205.621 56.088C205.936 55.9867 206.264 55.936 206.605 55.936C207.16 55.936 207.597 56.0827 207.917 56.376C208.237 56.6693 208.397 57.12 208.397 57.728V60H207.437L207.349 59.552H207.317C207.115 59.7067 206.893 59.8373 206.653 59.944C206.413 60.0453 206.165 60.096 205.909 60.096C205.707 60.096 205.525 60.064 205.365 60C205.205 59.9413 205.069 59.8587 204.957 59.752C204.845 59.64 204.757 59.512 204.693 59.368C204.635 59.224 204.605 59.0667 204.605 58.896ZM205.733 58.808C205.733 58.936 205.781 59.032 205.877 59.096C205.979 59.1547 206.115 59.184 206.285 59.184C206.461 59.184 206.627 59.1493 206.781 59.08C206.936 59.0053 207.083 58.9147 207.221 58.808V58.152C206.928 58.168 206.685 58.1947 206.493 58.232C206.301 58.2693 206.149 58.3173 206.037 58.376C205.925 58.4293 205.845 58.4933 205.797 58.568C205.755 58.6427 205.733 58.7227 205.733 58.808ZM209.202 56.032H210.082L210.17 56.528H210.202C210.277 56.3627 210.378 56.224 210.506 56.112C210.639 55.9947 210.821 55.936 211.05 55.936C211.226 55.936 211.373 55.992 211.49 56.104C211.613 56.2107 211.698 56.3707 211.746 56.584C211.821 56.4027 211.927 56.2507 212.066 56.128C212.21 56 212.394 55.936 212.618 55.936C212.895 55.936 213.111 56.0507 213.266 56.28C213.421 56.504 213.498 56.816 213.498 57.216V60H212.394V57.304C212.394 57.0587 212.319 56.936 212.17 56.936C212.026 56.936 211.903 57.064 211.802 57.32V60H210.898V57.304C210.898 57.0587 210.821 56.936 210.666 56.936C210.591 56.936 210.527 56.968 210.474 57.032C210.421 57.096 210.365 57.192 210.306 57.32V60H209.202V56.032ZM214.151 58.016C214.151 57.6907 214.207 57.4 214.319 57.144C214.436 56.888 214.591 56.672 214.783 56.496C214.975 56.3147 215.194 56.176 215.439 56.08C215.69 55.984 215.948 55.936 216.215 55.936C216.519 55.936 216.788 55.984 217.023 56.08C217.258 56.176 217.452 56.3093 217.607 56.48C217.762 56.6507 217.879 56.8533 217.959 57.088C218.039 57.3173 218.079 57.568 218.079 57.84C218.079 57.9467 218.074 58.048 218.063 58.144C218.052 58.24 218.042 58.312 218.031 58.36H215.359C215.402 58.6587 215.53 58.8747 215.743 59.008C215.962 59.136 216.218 59.2 216.511 59.2C216.692 59.2 216.863 59.1787 217.023 59.136C217.188 59.088 217.359 59.0187 217.535 58.928L217.919 59.632C217.695 59.776 217.444 59.8907 217.167 59.976C216.89 60.056 216.618 60.096 216.351 60.096C216.042 60.096 215.754 60.0507 215.487 59.96C215.22 59.864 214.988 59.728 214.791 59.552C214.594 59.3707 214.436 59.152 214.319 58.896C214.207 58.64 214.151 58.3467 214.151 58.016ZM217.015 57.584C217.015 57.36 216.954 57.1787 216.831 57.04C216.708 56.9013 216.511 56.832 216.239 56.832C216.026 56.832 215.836 56.8933 215.671 57.016C215.506 57.1387 215.396 57.328 215.343 57.584H217.015ZM219.98 56.576C219.98 56.4427 220.001 56.32 220.044 56.208C220.092 56.0907 220.156 55.9893 220.236 55.904C220.316 55.8187 220.412 55.752 220.524 55.704C220.641 55.656 220.769 55.632 220.908 55.632C221.046 55.632 221.172 55.656 221.284 55.704C221.401 55.752 221.5 55.8187 221.58 55.904C221.66 55.9893 221.721 56.0907 221.764 56.208C221.812 56.32 221.836 56.4427 221.836 56.576C221.836 56.8427 221.75 57.0667 221.58 57.248C221.409 57.424 221.185 57.512 220.908 57.512C220.63 57.512 220.406 57.424 220.236 57.248C220.065 57.0667 219.98 56.8427 219.98 56.576ZM219.98 59.16C219.98 59.0267 220.001 58.904 220.044 58.792C220.092 58.6747 220.156 58.5733 220.236 58.488C220.316 58.4027 220.412 58.336 220.524 58.288C220.641 58.24 220.769 58.216 220.908 58.216C221.046 58.216 221.172 58.24 221.284 58.288C221.401 58.336 221.5 58.4027 221.58 58.488C221.66 58.5733 221.721 58.6747 221.764 58.792C221.812 58.904 221.836 59.0267 221.836 59.16C221.836 59.4267 221.75 59.6507 221.58 59.832C221.409 60.008 221.185 60.096 220.908 60.096C220.63 60.096 220.406 60.008 220.236 59.832C220.065 59.6507 219.98 59.4267 219.98 59.16ZM228.622 54.784H229.798L230.326 56.632L230.502 57.352H230.526L230.702 56.632L231.206 54.784H232.382V60H231.43V58.296C231.43 58.152 231.435 57.976 231.446 57.768C231.456 57.5547 231.47 57.336 231.486 57.112C231.502 56.888 231.518 56.672 231.534 56.464C231.55 56.2507 231.566 56.0747 231.582 55.936H231.558L231.15 57.368L230.75 58.608H230.23L229.83 57.368L229.438 55.936H229.406C229.422 56.0747 229.438 56.2507 229.454 56.464C229.47 56.672 229.486 56.888 229.502 57.112C229.518 57.336 229.531 57.5547 229.542 57.768C229.552 57.976 229.558 58.152 229.558 58.296V60H228.622V54.784ZM233.53 56.032H236.298V60H235.122V56.952H233.53V56.032ZM235.658 55.448C235.429 55.448 235.24 55.384 235.09 55.256C234.946 55.128 234.874 54.9547 234.874 54.736C234.874 54.5173 234.946 54.3413 235.09 54.208C235.24 54.0693 235.429 54 235.658 54C235.888 54 236.074 54.0693 236.218 54.208C236.368 54.3413 236.442 54.5173 236.442 54.736C236.442 54.9547 236.368 55.128 236.218 55.256C236.074 55.384 235.888 55.448 235.658 55.448ZM238.231 58.016C238.231 57.6853 238.293 57.392 238.415 57.136C238.543 56.8747 238.711 56.656 238.919 56.48C239.133 56.304 239.378 56.1707 239.655 56.08C239.933 55.984 240.223 55.936 240.527 55.936C240.842 55.936 241.125 55.9867 241.375 56.088C241.631 56.1893 241.845 56.3173 242.015 56.472L241.471 57.2C241.178 56.992 240.885 56.888 240.591 56.888C240.25 56.888 239.973 56.9893 239.759 57.192C239.546 57.3947 239.439 57.6693 239.439 58.016C239.439 58.3627 239.541 58.6373 239.743 58.84C239.951 59.0427 240.221 59.144 240.551 59.144C240.759 59.144 240.951 59.1067 241.127 59.032C241.303 58.9573 241.461 58.8693 241.599 58.768L242.079 59.512C241.839 59.7147 241.573 59.864 241.279 59.96C240.991 60.0507 240.711 60.096 240.439 60.096C240.125 60.096 239.834 60.0507 239.567 59.96C239.301 59.864 239.066 59.728 238.863 59.552C238.666 59.376 238.511 59.16 238.399 58.904C238.287 58.6427 238.231 58.3467 238.231 58.016ZM243.068 54.392H244.244V55.768L244.18 56.528C244.26 56.4533 244.346 56.3813 244.436 56.312C244.532 56.2373 244.634 56.1733 244.74 56.12C244.852 56.0613 244.972 56.016 245.1 55.984C245.234 55.952 245.375 55.936 245.524 55.936C245.972 55.936 246.298 56.08 246.5 56.368C246.708 56.656 246.812 57.0507 246.812 57.552V60H245.636V57.704C245.636 57.4373 245.594 57.2427 245.508 57.12C245.423 56.9973 245.271 56.936 245.052 56.936C244.892 56.936 244.751 56.9707 244.628 57.04C244.511 57.1093 244.383 57.2133 244.244 57.352V60H243.068V54.392ZM247.777 58.896C247.777 58.672 247.825 58.4773 247.921 58.312C248.017 58.1413 248.169 57.9973 248.377 57.88C248.59 57.7627 248.862 57.6693 249.193 57.6C249.524 57.5253 249.924 57.4747 250.393 57.448C250.372 57.2667 250.292 57.1253 250.153 57.024C250.02 56.9227 249.817 56.872 249.545 56.872C249.353 56.872 249.158 56.9067 248.961 56.976C248.769 57.04 248.561 57.128 248.337 57.24L247.921 56.472C248.193 56.3173 248.484 56.1893 248.793 56.088C249.108 55.9867 249.436 55.936 249.777 55.936C250.332 55.936 250.769 56.0827 251.089 56.376C251.409 56.6693 251.569 57.12 251.569 57.728V60H250.609L250.521 59.552H250.489C250.286 59.7067 250.065 59.8373 249.825 59.944C249.585 60.0453 249.337 60.096 249.081 60.096C248.878 60.096 248.697 60.064 248.537 60C248.377 59.9413 248.241 59.8587 248.129 59.752C248.017 59.64 247.929 59.512 247.865 59.368C247.806 59.224 247.777 59.0667 247.777 58.896ZM248.905 58.808C248.905 58.936 248.953 59.032 249.049 59.096C249.15 59.1547 249.286 59.184 249.457 59.184C249.633 59.184 249.798 59.1493 249.953 59.08C250.108 59.0053 250.254 58.9147 250.393 58.808V58.152C250.1 58.168 249.857 58.1947 249.665 58.232C249.473 58.2693 249.321 58.3173 249.209 58.376C249.097 58.4293 249.017 58.4933 248.969 58.568C248.926 58.6427 248.905 58.7227 248.905 58.808ZM252.526 58.016C252.526 57.6907 252.582 57.4 252.694 57.144C252.811 56.888 252.966 56.672 253.158 56.496C253.35 56.3147 253.569 56.176 253.814 56.08C254.065 55.984 254.323 55.936 254.59 55.936C254.894 55.936 255.163 55.984 255.398 56.08C255.633 56.176 255.827 56.3093 255.982 56.48C256.137 56.6507 256.254 56.8533 256.334 57.088C256.414 57.3173 256.454 57.568 256.454 57.84C256.454 57.9467 256.449 58.048 256.438 58.144C256.427 58.24 256.417 58.312 256.406 58.36H253.734C253.777 58.6587 253.905 58.8747 254.118 59.008C254.337 59.136 254.593 59.2 254.886 59.2C255.067 59.2 255.238 59.1787 255.398 59.136C255.563 59.088 255.734 59.0187 255.91 58.928L256.294 59.632C256.07 59.776 255.819 59.8907 255.542 59.976C255.265 60.056 254.993 60.096 254.726 60.096C254.417 60.096 254.129 60.0507 253.862 59.96C253.595 59.864 253.363 59.728 253.166 59.552C252.969 59.3707 252.811 59.152 252.694 58.896C252.582 58.64 252.526 58.3467 252.526 58.016ZM255.39 57.584C255.39 57.36 255.329 57.1787 255.206 57.04C255.083 56.9013 254.886 56.832 254.614 56.832C254.401 56.832 254.211 56.8933 254.046 57.016C253.881 57.1387 253.771 57.328 253.718 57.584H255.39ZM257.379 54.392H259.707V58.496C259.707 58.6187 259.723 58.7227 259.755 58.808C259.792 58.888 259.84 58.9547 259.899 59.008C259.963 59.056 260.032 59.0907 260.107 59.112C260.187 59.1333 260.267 59.144 260.347 59.144C260.437 59.144 260.533 59.136 260.635 59.12C260.736 59.0987 260.848 59.064 260.971 59.016L261.235 59.88C261.128 59.912 261.029 59.9413 260.939 59.968C260.848 59.9947 260.757 60.016 260.667 60.032C260.576 60.0533 260.48 60.0693 260.379 60.08C260.277 60.0907 260.165 60.096 260.043 60.096C259.541 60.096 259.163 59.9493 258.907 59.656C258.656 59.3573 258.531 58.9547 258.531 58.448V55.32H257.379V54.392Z" fill="black"/>
<rect width="134" height="66" fill="#C4C4C4"/>
<path d="M57.7441 14.9219C57.4277 15.3008 56.9805 15.5957 56.4023 15.8066C55.8242 16.0137 55.1836 16.1172 54.4805 16.1172C53.7422 16.1172 53.0938 15.957 52.5352 15.6367C51.9805 15.3125 51.5508 14.8438 51.2461 14.2305C50.9453 13.6172 50.791 12.8965 50.7832 12.0684V11.4883C50.7832 10.6367 50.9258 9.90039 51.2109 9.2793C51.5 8.6543 51.9141 8.17773 52.4531 7.84961C52.9961 7.51758 53.6309 7.35156 54.3574 7.35156C55.3691 7.35156 56.1602 7.59375 56.7305 8.07812C57.3008 8.55859 57.6387 9.25977 57.7441 10.1816H56.0332C55.9551 9.69336 55.7812 9.33594 55.5117 9.10938C55.2461 8.88281 54.8789 8.76953 54.4102 8.76953C53.8125 8.76953 53.3574 8.99414 53.0449 9.44336C52.7324 9.89258 52.5742 10.5605 52.5703 11.4473V11.9922C52.5703 12.8867 52.7402 13.5625 53.0801 14.0195C53.4199 14.4766 53.918 14.7051 54.5742 14.7051C55.2344 14.7051 55.7051 14.5645 55.9863 14.2832V12.8125H54.3867V11.5176H57.7441V14.9219ZM60.8496 16H59.1504V7H60.8496V16ZM61.9863 12.7715C61.9863 12.1426 62.1074 11.582 62.3496 11.0898C62.5918 10.5977 62.9395 10.2168 63.3926 9.94727C63.8496 9.67773 64.3789 9.54297 64.9805 9.54297C65.8359 9.54297 66.5332 9.80469 67.0723 10.3281C67.6152 10.8516 67.918 11.5625 67.9805 12.4609L67.9922 12.8945C67.9922 13.8672 67.7207 14.6484 67.1777 15.2383C66.6348 15.8242 65.9062 16.1172 64.9922 16.1172C64.0781 16.1172 63.3477 15.8242 62.8008 15.2383C62.2578 14.6523 61.9863 13.8555 61.9863 12.8477V12.7715ZM63.6797 12.8945C63.6797 13.4961 63.793 13.957 64.0195 14.2773C64.2461 14.5938 64.5703 14.752 64.9922 14.752C65.4023 14.752 65.7227 14.5957 65.9531 14.2832C66.1836 13.9668 66.2988 13.4629 66.2988 12.7715C66.2988 12.1816 66.1836 11.7246 65.9531 11.4004C65.7227 11.0762 65.3984 10.9141 64.9805 10.9141C64.5664 10.9141 64.2461 11.0762 64.0195 11.4004C63.793 11.7207 63.6797 12.2188 63.6797 12.8945ZM74.748 12.8887C74.748 13.9043 74.5312 14.6973 74.0977 15.2676C73.6641 15.834 73.0586 16.1172 72.2812 16.1172C71.5938 16.1172 71.0449 15.8535 70.6348 15.3262L70.5586 16H69.0352V7H70.7285V10.2285C71.1191 9.77148 71.6328 9.54297 72.2695 9.54297C73.043 9.54297 73.6484 9.82812 74.0859 10.3984C74.5273 10.9648 74.748 11.7637 74.748 12.7949V12.8887ZM73.0547 12.7656C73.0547 12.125 72.9531 11.6582 72.75 11.3652C72.5469 11.0684 72.2441 10.9199 71.8418 10.9199C71.3027 10.9199 70.9316 11.1406 70.7285 11.582V14.084C70.9355 14.5293 71.3105 14.752 71.8535 14.752C72.4004 14.752 72.7598 14.4824 72.9316 13.9434C73.0137 13.6855 73.0547 13.293 73.0547 12.7656ZM79.4707 16C79.3926 15.8477 79.3359 15.6582 79.3008 15.4316C78.8906 15.8887 78.3574 16.1172 77.7012 16.1172C77.0801 16.1172 76.5645 15.9375 76.1543 15.5781C75.748 15.2188 75.5449 14.7656 75.5449 14.2188C75.5449 13.5469 75.793 13.0312 76.2891 12.6719C76.7891 12.3125 77.5098 12.1309 78.4512 12.127H79.2305V11.7637C79.2305 11.4707 79.1543 11.2363 79.002 11.0605C78.8535 10.8848 78.6172 10.7969 78.293 10.7969C78.0078 10.7969 77.7832 10.8652 77.6191 11.002C77.459 11.1387 77.3789 11.3262 77.3789 11.5645H75.6855C75.6855 11.1973 75.7988 10.8574 76.0254 10.5449C76.252 10.2324 76.5723 9.98828 76.9863 9.8125C77.4004 9.63281 77.8652 9.54297 78.3809 9.54297C79.1621 9.54297 79.7812 9.74023 80.2383 10.1348C80.6992 10.5254 80.9297 11.0762 80.9297 11.7871V14.5352C80.9336 15.1367 81.0176 15.5918 81.1816 15.9004V16H79.4707ZM78.0703 14.8223C78.3203 14.8223 78.5508 14.7676 78.7617 14.6582C78.9727 14.5449 79.1289 14.3945 79.2305 14.207V13.1172H78.5977C77.75 13.1172 77.2988 13.4102 77.2441 13.9961L77.2383 14.0957C77.2383 14.3066 77.3125 14.4805 77.4609 14.6172C77.6094 14.7539 77.8125 14.8223 78.0703 14.8223ZM84.0176 16H82.3184V7H84.0176V16Z" fill="black"/>
<path d="M23.6191 35.1172C22.7598 35.1172 22.0605 34.8359 21.5215 34.2734C20.9824 33.707 20.7129 32.9512 20.7129 32.0059V31.8066C20.7129 31.1777 20.832 30.6172 21.0703 30.125C21.3125 29.6289 21.6484 29.2422 22.0781 28.9648C22.5117 28.6836 22.9805 28.543 23.4844 28.543C24.3086 28.543 24.9492 28.8145 25.4062 29.3574C25.8633 29.9004 26.0918 30.6777 26.0918 31.6895V32.1406H21.7969C21.8125 32.7656 21.9941 33.2715 22.3418 33.6582C22.6934 34.041 23.1387 34.2324 23.6777 34.2324C24.0605 34.2324 24.3848 34.1543 24.6504 33.998C24.916 33.8418 25.1484 33.6348 25.3477 33.377L26.0098 33.8926C25.4785 34.709 24.6816 35.1172 23.6191 35.1172ZM23.4844 29.4336C23.0469 29.4336 22.6797 29.5938 22.3828 29.9141C22.0859 30.2305 21.9023 30.6758 21.832 31.25H25.0078V31.168C24.9766 30.6172 24.8281 30.1914 24.5625 29.8906C24.2969 29.5859 23.9375 29.4336 23.4844 29.4336ZM29.4785 30.9746L30.8848 28.6602H32.1504L30.0762 31.7949L32.2148 35H30.9609L29.4961 32.627L28.0312 35H26.7715L28.9102 31.7949L26.8359 28.6602H28.0898L29.4785 30.9746ZM35.8184 35.1172C34.959 35.1172 34.2598 34.8359 33.7207 34.2734C33.1816 33.707 32.9121 32.9512 32.9121 32.0059V31.8066C32.9121 31.1777 33.0312 30.6172 33.2695 30.125C33.5117 29.6289 33.8477 29.2422 34.2773 28.9648C34.7109 28.6836 35.1797 28.543 35.6836 28.543C36.5078 28.543 37.1484 28.8145 37.6055 29.3574C38.0625 29.9004 38.291 30.6777 38.291 31.6895V32.1406H33.9961C34.0117 32.7656 34.1934 33.2715 34.541 33.6582C34.8926 34.041 35.3379 34.2324 35.877 34.2324C36.2598 34.2324 36.584 34.1543 36.8496 33.998C37.1152 33.8418 37.3477 33.6348 37.5469 33.377L38.209 33.8926C37.6777 34.709 36.8809 35.1172 35.8184 35.1172ZM35.6836 29.4336C35.2461 29.4336 34.8789 29.5938 34.582 29.9141C34.2852 30.2305 34.1016 30.6758 34.0312 31.25H37.207V31.168C37.1758 30.6172 37.0273 30.1914 36.7617 29.8906C36.4961 29.5859 36.1367 29.4336 35.6836 29.4336ZM42.0938 34.2324C42.4805 34.2324 42.8184 34.1152 43.1074 33.8809C43.3965 33.6465 43.5566 33.3535 43.5879 33.002H44.6133C44.5938 33.3652 44.4688 33.7109 44.2383 34.0391C44.0078 34.3672 43.6992 34.6289 43.3125 34.8242C42.9297 35.0195 42.5234 35.1172 42.0938 35.1172C41.2305 35.1172 40.543 34.8301 40.0312 34.2559C39.5234 33.6777 39.2695 32.8887 39.2695 31.8887V31.707C39.2695 31.0898 39.3828 30.541 39.6094 30.0605C39.8359 29.5801 40.1602 29.207 40.582 28.9414C41.0078 28.6758 41.5098 28.543 42.0879 28.543C42.7988 28.543 43.3887 28.7559 43.8574 29.1816C44.3301 29.6074 44.582 30.1602 44.6133 30.8398H43.5879C43.5566 30.4297 43.4004 30.0938 43.1191 29.832C42.8418 29.5664 42.498 29.4336 42.0879 29.4336C41.5371 29.4336 41.1094 29.6328 40.8047 30.0312C40.5039 30.4258 40.3535 30.998 40.3535 31.748V31.9531C40.3535 32.6836 40.5039 33.2461 40.8047 33.6406C41.1055 34.0352 41.5352 34.2324 42.0938 34.2324ZM49.7461 34.373C49.3242 34.8691 48.7051 35.1172 47.8887 35.1172C47.2129 35.1172 46.6973 34.9219 46.3418 34.5312C45.9902 34.1367 45.8125 33.5547 45.8086 32.7852V28.6602H46.8926V32.7559C46.8926 33.7168 47.2832 34.1973 48.0645 34.1973C48.8926 34.1973 49.4434 33.8887 49.7168 33.2715V28.6602H50.8008V35H49.7695L49.7461 34.373ZM53.9238 27.125V28.6602H55.1074V29.498H53.9238V33.4297C53.9238 33.6836 53.9766 33.875 54.082 34.0039C54.1875 34.1289 54.3672 34.1914 54.6211 34.1914C54.7461 34.1914 54.918 34.168 55.1367 34.1211V35C54.8516 35.0781 54.5742 35.1172 54.3047 35.1172C53.8203 35.1172 53.4551 34.9707 53.209 34.6777C52.9629 34.3848 52.8398 33.9688 52.8398 33.4297V29.498H51.6855V28.6602H52.8398V27.125H53.9238ZM57.5566 35H56.4727V28.6602H57.5566V35ZM56.3848 26.9785C56.3848 26.8027 56.4375 26.6543 56.543 26.5332C56.6523 26.4121 56.8125 26.3516 57.0234 26.3516C57.2344 26.3516 57.3945 26.4121 57.5039 26.5332C57.6133 26.6543 57.668 26.8027 57.668 26.9785C57.668 27.1543 57.6133 27.3008 57.5039 27.418C57.3945 27.5352 57.2344 27.5938 57.0234 27.5938C56.8125 27.5938 56.6523 27.5352 56.543 27.418C56.4375 27.3008 56.3848 27.1543 56.3848 26.9785ZM59.0098 31.7715C59.0098 31.1504 59.1309 30.5918 59.373 30.0957C59.6191 29.5996 59.959 29.2168 60.3926 28.9473C60.8301 28.6777 61.3281 28.543 61.8867 28.543C62.75 28.543 63.4473 28.8418 63.9785 29.4395C64.5137 30.0371 64.7812 30.832 64.7812 31.8242V31.9004C64.7812 32.5176 64.6621 33.0723 64.4238 33.5645C64.1895 34.0527 63.8516 34.4336 63.4102 34.707C62.9727 34.9805 62.4688 35.1172 61.8984 35.1172C61.0391 35.1172 60.3418 34.8184 59.8066 34.2207C59.2754 33.623 59.0098 32.832 59.0098 31.8477V31.7715ZM60.0996 31.9004C60.0996 32.6035 60.2617 33.168 60.5859 33.5938C60.9141 34.0195 61.3516 34.2324 61.8984 34.2324C62.4492 34.2324 62.8867 34.0176 63.2109 33.5879C63.5352 33.1543 63.6973 32.5488 63.6973 31.7715C63.6973 31.0762 63.5312 30.5137 63.1992 30.084C62.8711 29.6504 62.4336 29.4336 61.8867 29.4336C61.3516 29.4336 60.9199 29.6465 60.5918 30.0723C60.2637 30.498 60.0996 31.1074 60.0996 31.9004ZM67.166 28.6602L67.2012 29.457C67.6855 28.8477 68.3184 28.543 69.0996 28.543C70.4395 28.543 71.1152 29.2988 71.127 30.8105V35H70.043V30.8047C70.0391 30.3477 69.9336 30.0098 69.7266 29.791C69.5234 29.5723 69.2051 29.4629 68.7715 29.4629C68.4199 29.4629 68.1113 29.5566 67.8457 29.7441C67.5801 29.9316 67.373 30.1777 67.2246 30.4824V35H66.1406V28.6602H67.166ZM78.2812 34.2324C78.668 34.2324 79.0059 34.1152 79.2949 33.8809C79.584 33.6465 79.7441 33.3535 79.7754 33.002H80.8008C80.7812 33.3652 80.6562 33.7109 80.4258 34.0391C80.1953 34.3672 79.8867 34.6289 79.5 34.8242C79.1172 35.0195 78.7109 35.1172 78.2812 35.1172C77.418 35.1172 76.7305 34.8301 76.2188 34.2559C75.7109 33.6777 75.457 32.8887 75.457 31.8887V31.707C75.457 31.0898 75.5703 30.541 75.7969 30.0605C76.0234 29.5801 76.3477 29.207 76.7695 28.9414C77.1953 28.6758 77.6973 28.543 78.2754 28.543C78.9863 28.543 79.5762 28.7559 80.0449 29.1816C80.5176 29.6074 80.7695 30.1602 80.8008 30.8398H79.7754C79.7441 30.4297 79.5879 30.0938 79.3066 29.832C79.0293 29.5664 78.6855 29.4336 78.2754 29.4336C77.7246 29.4336 77.2969 29.6328 76.9922 30.0312C76.6914 30.4258 76.541 30.998 76.541 31.748V31.9531C76.541 32.6836 76.6914 33.2461 76.9922 33.6406C77.293 34.0352 77.7227 34.2324 78.2812 34.2324ZM81.7324 31.7715C81.7324 31.1504 81.8535 30.5918 82.0957 30.0957C82.3418 29.5996 82.6816 29.2168 83.1152 28.9473C83.5527 28.6777 84.0508 28.543 84.6094 28.543C85.4727 28.543 86.1699 28.8418 86.7012 29.4395C87.2363 30.0371 87.5039 30.832 87.5039 31.8242V31.9004C87.5039 32.5176 87.3848 33.0723 87.1465 33.5645C86.9121 34.0527 86.5742 34.4336 86.1328 34.707C85.6953 34.9805 85.1914 35.1172 84.6211 35.1172C83.7617 35.1172 83.0645 34.8184 82.5293 34.2207C81.998 33.623 81.7324 32.832 81.7324 31.8477V31.7715ZM82.8223 31.9004C82.8223 32.6035 82.9844 33.168 83.3086 33.5938C83.6367 34.0195 84.0742 34.2324 84.6211 34.2324C85.1719 34.2324 85.6094 34.0176 85.9336 33.5879C86.2578 33.1543 86.4199 32.5488 86.4199 31.7715C86.4199 31.0762 86.2539 30.5137 85.9219 30.084C85.5938 29.6504 85.1562 29.4336 84.6094 29.4336C84.0742 29.4336 83.6426 29.6465 83.3145 30.0723C82.9863 30.498 82.8223 31.1074 82.8223 31.9004ZM89.8887 28.6602L89.9238 29.457C90.4082 28.8477 91.041 28.543 91.8223 28.543C93.1621 28.543 93.8379 29.2988 93.8496 30.8105V35H92.7656V30.8047C92.7617 30.3477 92.6562 30.0098 92.4492 29.791C92.2461 29.5723 91.9277 29.4629 91.4941 29.4629C91.1426 29.4629 90.834 29.5566 90.5684 29.7441C90.3027 29.9316 90.0957 30.1777 89.9473 30.4824V35H88.8633V28.6602H89.8887ZM96.9551 27.125V28.6602H98.1387V29.498H96.9551V33.4297C96.9551 33.6836 97.0078 33.875 97.1133 34.0039C97.2188 34.1289 97.3984 34.1914 97.6523 34.1914C97.7773 34.1914 97.9492 34.168 98.168 34.1211V35C97.8828 35.0781 97.6055 35.1172 97.3359 35.1172C96.8516 35.1172 96.4863 34.9707 96.2402 34.6777C95.9941 34.3848 95.8711 33.9688 95.8711 33.4297V29.498H94.7168V28.6602H95.8711V27.125H96.9551ZM102.041 35.1172C101.182 35.1172 100.482 34.8359 99.9434 34.2734C99.4043 33.707 99.1348 32.9512 99.1348 32.0059V31.8066C99.1348 31.1777 99.2539 30.6172 99.4922 30.125C99.7344 29.6289 100.07 29.2422 100.5 28.9648C100.934 28.6836 101.402 28.543 101.906 28.543C102.73 28.543 103.371 28.8145 103.828 29.3574C104.285 29.9004 104.514 30.6777 104.514 31.6895V32.1406H100.219C100.234 32.7656 100.416 33.2715 100.764 33.6582C101.115 34.041 101.561 34.2324 102.1 34.2324C102.482 34.2324 102.807 34.1543 103.072 33.998C103.338 33.8418 103.57 33.6348 103.77 33.377L104.432 33.8926C103.9 34.709 103.104 35.1172 102.041 35.1172ZM101.906 29.4336C101.469 29.4336 101.102 29.5938 100.805 29.9141C100.508 30.2305 100.324 30.6758 100.254 31.25H103.43V31.168C103.398 30.6172 103.25 30.1914 102.984 29.8906C102.719 29.5859 102.359 29.4336 101.906 29.4336ZM107.9 30.9746L109.307 28.6602H110.572L108.498 31.7949L110.637 35H109.383L107.918 32.627L106.453 35H105.193L107.332 31.7949L105.258 28.6602H106.512L107.9 30.9746ZM113.197 27.125V28.6602H114.381V29.498H113.197V33.4297C113.197 33.6836 113.25 33.875 113.355 34.0039C113.461 34.1289 113.641 34.1914 113.895 34.1914C114.02 34.1914 114.191 34.168 114.41 34.1211V35C114.125 35.0781 113.848 35.1172 113.578 35.1172C113.094 35.1172 112.729 34.9707 112.482 34.6777C112.236 34.3848 112.113 33.9688 112.113 33.4297V29.498H110.959V28.6602H112.113V27.125H113.197Z" fill="black"/>
<path d="M55.5814 49.972H53.9374V49.228L55.6174 49.168L55.7494 47.536H56.5654V49.168H59.4334V49.972H56.5654V52.744C56.5654 53.008 56.5894 53.24 56.6374 53.44C56.6854 53.632 56.7654 53.796 56.8774 53.932C56.9894 54.068 57.1414 54.172 57.3334 54.244C57.5254 54.308 57.7614 54.34 58.0414 54.34C58.3214 54.34 58.5734 54.316 58.7974 54.268C59.0214 54.22 59.2374 54.156 59.4454 54.076L59.6614 54.796C59.3974 54.892 59.1054 54.972 58.7854 55.036C58.4654 55.108 58.1454 55.144 57.8254 55.144C57.4014 55.144 57.0454 55.088 56.7574 54.976C56.4694 54.856 56.2374 54.692 56.0614 54.484C55.8934 54.268 55.7694 54.012 55.6894 53.716C55.6174 53.42 55.5814 53.092 55.5814 52.732V49.972ZM61.4207 46.456H62.4047V48.784L62.3567 50.164C62.6687 49.836 63.0007 49.564 63.3527 49.348C63.7047 49.132 64.1087 49.024 64.5647 49.024C65.2607 49.024 65.7687 49.224 66.0887 49.624C66.4167 50.016 66.5807 50.6 66.5807 51.376V55H65.5967V51.508C65.5967 50.956 65.4927 50.548 65.2847 50.284C65.0767 50.012 64.7327 49.876 64.2527 49.876C64.0767 49.876 63.9127 49.9 63.7607 49.948C63.6167 49.988 63.4727 50.052 63.3287 50.14C63.1847 50.228 63.0367 50.34 62.8847 50.476C62.7327 50.604 62.5727 50.756 62.4047 50.932V55H61.4207V46.456ZM68.58 49.168H72.276V55H71.292V49.972H68.58V49.168ZM71.676 47.968C71.444 47.968 71.252 47.9 71.1 47.764C70.956 47.628 70.884 47.444 70.884 47.212C70.884 46.98 70.956 46.796 71.1 46.66C71.252 46.516 71.444 46.444 71.676 46.444C71.9 46.444 72.088 46.516 72.24 46.66C72.392 46.796 72.468 46.98 72.468 47.212C72.468 47.444 72.392 47.628 72.24 47.764C72.088 47.9 71.9 47.968 71.676 47.968ZM76.0393 53.584C76.3673 53.824 76.7193 54.016 77.0953 54.16C77.4713 54.304 77.9233 54.376 78.4513 54.376C78.9793 54.376 79.3713 54.288 79.6273 54.112C79.8833 53.936 80.0113 53.72 80.0113 53.464C80.0113 53.24 79.8713 53.04 79.5913 52.864C79.3193 52.688 78.8273 52.512 78.1153 52.336C77.8113 52.264 77.5233 52.176 77.2513 52.072C76.9873 51.968 76.7553 51.848 76.5553 51.712C76.3553 51.568 76.1953 51.412 76.0753 51.244C75.9553 51.076 75.8953 50.888 75.8953 50.68C75.8953 50.448 75.9473 50.232 76.0513 50.032C76.1553 49.824 76.3073 49.648 76.5073 49.504C76.7153 49.352 76.9713 49.236 77.2753 49.156C77.5873 49.068 77.9433 49.024 78.3433 49.024C78.7833 49.024 79.2113 49.1 79.6273 49.252C80.0433 49.396 80.3953 49.568 80.6833 49.768L80.2033 50.404C79.9473 50.22 79.6633 50.072 79.3513 49.96C79.0393 49.848 78.7033 49.792 78.3433 49.792C78.0713 49.792 77.8433 49.816 77.6593 49.864C77.4753 49.904 77.3273 49.964 77.2153 50.044C77.1033 50.116 77.0233 50.204 76.9753 50.308C76.9273 50.412 76.9033 50.52 76.9033 50.632C76.9033 50.872 77.0673 51.072 77.3953 51.232C77.7233 51.384 78.1513 51.528 78.6793 51.664C79.4713 51.864 80.0553 52.092 80.4313 52.348C80.8153 52.604 81.0073 52.956 81.0073 53.404C81.0073 53.644 80.9513 53.868 80.8393 54.076C80.7273 54.284 80.5593 54.468 80.3353 54.628C80.1193 54.788 79.8473 54.912 79.5193 55C79.1993 55.096 78.8313 55.144 78.4153 55.144C77.8393 55.144 77.3073 55.056 76.8193 54.88C76.3393 54.696 75.9193 54.48 75.5593 54.232L76.0393 53.584Z" fill="black"/>
<path d="M199.354 53.3536C199.549 53.1583 199.549 52.8417 199.354 52.6464L196.172 49.4645C195.976 49.2692 195.66 49.2692 195.464 49.4645C195.269 49.6597 195.269 49.9763 195.464 50.1716L198.293 53L195.464 55.8284C195.269 56.0237 195.269 56.3403 195.464 56.5355C195.66 56.7308 195.976 56.7308 196.172 56.5355L199.354 53.3536ZM85 53.5H199V52.5H85V53.5Z" fill="#B5B5B5"/>
<path d="M199.354 52.3536C199.549 52.1583 199.549 51.8417 199.354 51.6464L196.172 48.4645C195.976 48.2692 195.66 48.2692 195.464 48.4645C195.269 48.6597 195.269 48.9763 195.464 49.1716L198.293 52L195.464 54.8284C195.269 55.0237 195.269 55.3403 195.464 55.5355C195.66 55.7308 195.976 55.7308 196.172 55.5355L199.354 52.3536ZM85 52.5H199V51.5H85V52.5Z" fill="black"/>
<path d="M209.51 41.168H210.518L211.226 44.54C211.282 44.82 211.334 45.092 211.382 45.356C211.43 45.62 211.474 45.888 211.514 46.16H211.562C211.618 45.888 211.674 45.62 211.73 45.356C211.786 45.084 211.846 44.812 211.91 44.54L212.618 41.516H213.458L214.178 44.54C214.242 44.82 214.302 45.092 214.358 45.356C214.414 45.62 214.474 45.888 214.538 46.16H214.586C214.642 45.888 214.69 45.62 214.73 45.356C214.778 45.092 214.826 44.82 214.874 44.54L215.582 41.168H216.518L215.246 47H214.058L213.362 44.048C213.306 43.768 213.254 43.492 213.206 43.22C213.158 42.94 213.102 42.652 213.038 42.356H212.99C212.942 42.612 212.894 42.876 212.846 43.148C212.798 43.42 212.738 43.724 212.666 44.06L211.994 47H210.818L209.51 41.168ZM217.689 41.168H221.385V47H220.401V41.972H217.689V41.168ZM220.785 39.968C220.553 39.968 220.361 39.9 220.209 39.764C220.065 39.628 219.993 39.444 219.993 39.212C219.993 38.98 220.065 38.796 220.209 38.66C220.361 38.516 220.553 38.444 220.785 38.444C221.009 38.444 221.197 38.516 221.349 38.66C221.501 38.796 221.577 38.98 221.577 39.212C221.577 39.444 221.501 39.628 221.349 39.764C221.197 39.9 221.009 39.968 220.785 39.968ZM224.921 41.168H225.737L225.821 42.164H225.869C226.173 41.836 226.501 41.564 226.853 41.348C227.205 41.132 227.609 41.024 228.065 41.024C228.761 41.024 229.269 41.224 229.589 41.624C229.917 42.016 230.081 42.6 230.081 43.376V47H229.097V43.508C229.097 42.956 228.993 42.548 228.785 42.284C228.577 42.012 228.233 41.876 227.753 41.876C227.577 41.876 227.413 41.9 227.261 41.948C227.117 41.988 226.973 42.052 226.829 42.14C226.685 42.228 226.537 42.34 226.385 42.476C226.233 42.604 226.073 42.756 225.905 42.932V47H224.921V41.168ZM231.72 44.096C231.72 43.624 231.792 43.2 231.936 42.824C232.088 42.44 232.284 42.116 232.524 41.852C232.772 41.588 233.056 41.384 233.376 41.24C233.696 41.096 234.028 41.024 234.372 41.024C234.732 41.024 235.048 41.092 235.32 41.228C235.592 41.364 235.864 41.548 236.136 41.78L236.1 40.7V38.456H237.084V47H236.268L236.184 46.232H236.148C235.908 46.48 235.62 46.696 235.284 46.88C234.956 47.056 234.612 47.144 234.252 47.144C233.868 47.144 233.52 47.076 233.208 46.94C232.904 46.804 232.64 46.608 232.416 46.352C232.192 46.088 232.02 45.768 231.9 45.392C231.78 45.016 231.72 44.584 231.72 44.096ZM232.74 44.084C232.74 44.788 232.888 45.336 233.184 45.728C233.488 46.12 233.912 46.316 234.456 46.316C235.032 46.316 235.58 46.024 236.1 45.44V42.536C235.836 42.288 235.576 42.112 235.32 42.008C235.072 41.904 234.82 41.852 234.564 41.852C234.308 41.852 234.068 41.908 233.844 42.02C233.628 42.124 233.436 42.276 233.268 42.476C233.108 42.668 232.98 42.9 232.884 43.172C232.788 43.444 232.74 43.748 232.74 44.084ZM238.915 44.096C238.915 43.608 238.991 43.176 239.143 42.8C239.303 42.416 239.515 42.092 239.779 41.828C240.043 41.564 240.347 41.364 240.691 41.228C241.043 41.092 241.411 41.024 241.795 41.024C242.179 41.024 242.543 41.092 242.887 41.228C243.239 41.364 243.547 41.564 243.811 41.828C244.075 42.092 244.283 42.416 244.435 42.8C244.595 43.176 244.675 43.608 244.675 44.096C244.675 44.576 244.595 45.008 244.435 45.392C244.283 45.768 244.075 46.088 243.811 46.352C243.547 46.608 243.239 46.804 242.887 46.94C242.543 47.076 242.179 47.144 241.795 47.144C241.411 47.144 241.043 47.076 240.691 46.94C240.347 46.804 240.043 46.608 239.779 46.352C239.515 46.088 239.303 45.768 239.143 45.392C238.991 45.008 238.915 44.576 238.915 44.096ZM239.935 44.096C239.935 44.432 239.979 44.736 240.067 45.008C240.155 45.28 240.279 45.516 240.439 45.716C240.607 45.908 240.803 46.06 241.027 46.172C241.259 46.276 241.515 46.328 241.795 46.328C242.075 46.328 242.327 46.276 242.551 46.172C242.783 46.06 242.979 45.908 243.139 45.716C243.307 45.516 243.435 45.28 243.523 45.008C243.611 44.736 243.655 44.432 243.655 44.096C243.655 43.76 243.611 43.456 243.523 43.184C243.435 42.904 243.307 42.664 243.139 42.464C242.979 42.264 242.783 42.112 242.551 42.008C242.327 41.896 242.075 41.84 241.795 41.84C241.515 41.84 241.259 41.896 241.027 42.008C240.803 42.112 240.607 42.264 240.439 42.464C240.279 42.664 240.155 42.904 240.067 43.184C239.979 43.456 239.935 43.76 239.935 44.096ZM245.487 41.168H246.495L247.203 44.54C247.259 44.82 247.311 45.092 247.359 45.356C247.407 45.62 247.451 45.888 247.491 46.16H247.539C247.595 45.888 247.651 45.62 247.707 45.356C247.763 45.084 247.823 44.812 247.887 44.54L248.595 41.516H249.435L250.155 44.54C250.219 44.82 250.279 45.092 250.335 45.356C250.391 45.62 250.451 45.888 250.515 46.16H250.563C250.619 45.888 250.667 45.62 250.707 45.356C250.755 45.092 250.803 44.82 250.851 44.54L251.559 41.168H252.495L251.223 47H250.035L249.339 44.048C249.283 43.768 249.231 43.492 249.183 43.22C249.135 42.94 249.079 42.652 249.015 42.356H248.967C248.919 42.612 248.871 42.876 248.823 43.148C248.775 43.42 248.715 43.724 248.643 44.06L247.971 47H246.795L245.487 41.168Z" fill="black"/>
<path d="M209.414 48.2H252.591V48.8H209.414V48.2Z" fill="black"/>
</svg>
