<svg width="277" height="76" viewBox="0 0 277 76" fill="none" xmlns="http://www.w3.org/2000/svg">
<rect x="184" y="45" width="93" height="31" fill="#C4C4C4"/>
<path d="M209.51 51.168H210.518L211.226 54.54C211.282 54.82 211.334 55.092 211.382 55.356C211.43 55.62 211.474 55.888 211.514 56.16H211.562C211.618 55.888 211.674 55.62 211.73 55.356C211.786 55.084 211.846 54.812 211.91 54.54L212.618 51.516H213.458L214.178 54.54C214.242 54.82 214.302 55.092 214.358 55.356C214.414 55.62 214.474 55.888 214.538 56.16H214.586C214.642 55.888 214.69 55.62 214.73 55.356C214.778 55.092 214.826 54.82 214.874 54.54L215.582 51.168H216.518L215.246 57H214.058L213.362 54.048C213.306 53.768 213.254 53.492 213.206 53.22C213.158 52.94 213.102 52.652 213.038 52.356H212.99C212.942 52.612 212.894 52.876 212.846 53.148C212.798 53.42 212.738 53.724 212.666 54.06L211.994 57H210.818L209.51 51.168ZM217.689 51.168H221.385V57H220.401V51.972H217.689V51.168ZM220.785 49.968C220.553 49.968 220.361 49.9 220.209 49.764C220.065 49.628 219.993 49.444 219.993 49.212C219.993 48.98 220.065 48.796 220.209 48.66C220.361 48.516 220.553 48.444 220.785 48.444C221.009 48.444 221.197 48.516 221.349 48.66C221.501 48.796 221.577 48.98 221.577 49.212C221.577 49.444 221.501 49.628 221.349 49.764C221.197 49.9 221.009 49.968 220.785 49.968ZM224.921 51.168H225.737L225.821 52.164H225.869C226.173 51.836 226.501 51.564 226.853 51.348C227.205 51.132 227.609 51.024 228.065 51.024C228.761 51.024 229.269 51.224 229.589 51.624C229.917 52.016 230.081 52.6 230.081 53.376V57H229.097V53.508C229.097 52.956 228.993 52.548 228.785 52.284C228.577 52.012 228.233 51.876 227.753 51.876C227.577 51.876 227.413 51.9 227.261 51.948C227.117 51.988 226.973 52.052 226.829 52.14C226.685 52.228 226.537 52.34 226.385 52.476C226.233 52.604 226.073 52.756 225.905 52.932V57H224.921V51.168ZM231.72 54.096C231.72 53.624 231.792 53.2 231.936 52.824C232.088 52.44 232.284 52.116 232.524 51.852C232.772 51.588 233.056 51.384 233.376 51.24C233.696 51.096 234.028 51.024 234.372 51.024C234.732 51.024 235.048 51.092 235.32 51.228C235.592 51.364 235.864 51.548 236.136 51.78L236.1 50.7V48.456H237.084V57H236.268L236.184 56.232H236.148C235.908 56.48 235.62 56.696 235.284 56.88C234.956 57.056 234.612 57.144 234.252 57.144C233.868 57.144 233.52 57.076 233.208 56.94C232.904 56.804 232.64 56.608 232.416 56.352C232.192 56.088 232.02 55.768 231.9 55.392C231.78 55.016 231.72 54.584 231.72 54.096ZM232.74 54.084C232.74 54.788 232.888 55.336 233.184 55.728C233.488 56.12 233.912 56.316 234.456 56.316C235.032 56.316 235.58 56.024 236.1 55.44V52.536C235.836 52.288 235.576 52.112 235.32 52.008C235.072 51.904 234.82 51.852 234.564 51.852C234.308 51.852 234.068 51.908 233.844 52.02C233.628 52.124 233.436 52.276 233.268 52.476C233.108 52.668 232.98 52.9 232.884 53.172C232.788 53.444 232.74 53.748 232.74 54.084ZM238.915 54.096C238.915 53.608 238.991 53.176 239.143 52.8C239.303 52.416 239.515 52.092 239.779 51.828C240.043 51.564 240.347 51.364 240.691 51.228C241.043 51.092 241.411 51.024 241.795 51.024C242.179 51.024 242.543 51.092 242.887 51.228C243.239 51.364 243.547 51.564 243.811 51.828C244.075 52.092 244.283 52.416 244.435 52.8C244.595 53.176 244.675 53.608 244.675 54.096C244.675 54.576 244.595 55.008 244.435 55.392C244.283 55.768 244.075 56.088 243.811 56.352C243.547 56.608 243.239 56.804 242.887 56.94C242.543 57.076 242.179 57.144 241.795 57.144C241.411 57.144 241.043 57.076 240.691 56.94C240.347 56.804 240.043 56.608 239.779 56.352C239.515 56.088 239.303 55.768 239.143 55.392C238.991 55.008 238.915 54.576 238.915 54.096ZM239.935 54.096C239.935 54.432 239.979 54.736 240.067 55.008C240.155 55.28 240.279 55.516 240.439 55.716C240.607 55.908 240.803 56.06 241.027 56.172C241.259 56.276 241.515 56.328 241.795 56.328C242.075 56.328 242.327 56.276 242.551 56.172C242.783 56.06 242.979 55.908 243.139 55.716C243.307 55.516 243.435 55.28 243.523 55.008C243.611 54.736 243.655 54.432 243.655 54.096C243.655 53.76 243.611 53.456 243.523 53.184C243.435 52.904 243.307 52.664 243.139 52.464C242.979 52.264 242.783 52.112 242.551 52.008C242.327 51.896 242.075 51.84 241.795 51.84C241.515 51.84 241.259 51.896 241.027 52.008C240.803 52.112 240.607 52.264 240.439 52.464C240.279 52.664 240.155 52.904 240.067 53.184C239.979 53.456 239.935 53.76 239.935 54.096ZM245.487 51.168H246.495L247.203 54.54C247.259 54.82 247.311 55.092 247.359 55.356C247.407 55.62 247.451 55.888 247.491 56.16H247.539C247.595 55.888 247.651 55.62 247.707 55.356C247.763 55.084 247.823 54.812 247.887 54.54L248.595 51.516H249.435L250.155 54.54C250.219 54.82 250.279 55.092 250.335 55.356C250.391 55.62 250.451 55.888 250.515 56.16H250.563C250.619 55.888 250.667 55.62 250.707 55.356C250.755 55.092 250.803 54.82 250.851 54.54L251.559 51.168H252.495L251.223 57H250.035L249.339 54.048C249.283 53.768 249.231 53.492 249.183 53.22C249.135 52.94 249.079 52.652 249.015 52.356H248.967C248.919 52.612 248.871 52.876 248.823 53.148C248.775 53.42 248.715 53.724 248.643 54.06L247.971 57H246.795L245.487 51.168Z" fill="black"/>
<path d="M209.414 58.2H252.591V58.8H209.414V58.2Z" fill="black"/>
<rect x="184" width="93" height="43" fill="#C4C4C4"/>
<path d="M207.892 26.496C207.892 26.6453 207.98 26.7573 208.156 26.832C208.337 26.912 208.585 26.952 208.9 26.952C209.22 26.952 209.478 26.904 209.676 26.808C209.873 26.7173 209.972 26.6027 209.972 26.464C209.972 26.336 209.913 26.2507 209.796 26.208C209.678 26.1707 209.505 26.152 209.276 26.152H208.78C208.636 26.152 208.516 26.1467 208.42 26.136C208.329 26.1307 208.246 26.12 208.172 26.104C208.07 26.168 207.998 26.2293 207.956 26.288C207.913 26.352 207.892 26.4213 207.892 26.496ZM206.932 26.672C206.932 26.3467 207.137 26.0827 207.548 25.88V25.848C207.441 25.7787 207.348 25.6907 207.268 25.584C207.188 25.4773 207.148 25.3387 207.148 25.168C207.148 25.0347 207.19 24.9013 207.276 24.768C207.366 24.6347 207.481 24.52 207.62 24.424V24.392C207.476 24.296 207.353 24.1627 207.252 23.992C207.15 23.816 207.1 23.6107 207.1 23.376C207.1 23.136 207.145 22.928 207.236 22.752C207.332 22.5707 207.457 22.4213 207.612 22.304C207.766 22.1813 207.945 22.0907 208.148 22.032C208.356 21.968 208.572 21.936 208.796 21.936C209.041 21.936 209.26 21.968 209.452 22.032H211.06V22.888H210.252C210.3 22.9467 210.342 23.024 210.38 23.12C210.417 23.2107 210.436 23.3093 210.436 23.416C210.436 23.6453 210.393 23.8427 210.308 24.008C210.222 24.1733 210.105 24.312 209.956 24.424C209.812 24.5307 209.638 24.6107 209.436 24.664C209.238 24.7173 209.025 24.744 208.796 24.744C208.625 24.744 208.444 24.7173 208.252 24.664C208.193 24.7067 208.148 24.7493 208.116 24.792C208.089 24.8347 208.076 24.888 208.076 24.952C208.076 25.0587 208.129 25.136 208.236 25.184C208.342 25.232 208.513 25.256 208.748 25.256H209.484C210.006 25.256 210.404 25.3333 210.676 25.488C210.953 25.6427 211.092 25.8987 211.092 26.256C211.092 26.464 211.036 26.656 210.924 26.832C210.812 27.008 210.654 27.1573 210.452 27.28C210.249 27.408 210.001 27.5067 209.708 27.576C209.414 27.6507 209.089 27.688 208.732 27.688C208.476 27.688 208.236 27.6667 208.012 27.624C207.793 27.5867 207.604 27.5253 207.444 27.44C207.284 27.36 207.158 27.256 207.068 27.128C206.977 27 206.932 26.848 206.932 26.672ZM208.796 24.032C208.961 24.032 209.102 23.9787 209.22 23.872C209.342 23.76 209.404 23.5947 209.404 23.376C209.404 23.1627 209.342 23.0027 209.22 22.896C209.102 22.784 208.961 22.728 208.796 22.728C208.63 22.728 208.489 22.784 208.372 22.896C208.26 23.0027 208.204 23.1627 208.204 23.376C208.204 23.5947 208.26 23.76 208.372 23.872C208.489 23.9787 208.63 24.032 208.796 24.032ZM211.753 24.016C211.753 23.6907 211.809 23.4 211.921 23.144C212.038 22.888 212.193 22.672 212.385 22.496C212.577 22.3147 212.795 22.176 213.041 22.08C213.291 21.984 213.55 21.936 213.817 21.936C214.121 21.936 214.39 21.984 214.625 22.08C214.859 22.176 215.054 22.3093 215.209 22.48C215.363 22.6507 215.481 22.8533 215.561 23.088C215.641 23.3173 215.681 23.568 215.681 23.84C215.681 23.9467 215.675 24.048 215.665 24.144C215.654 24.24 215.643 24.312 215.633 24.36H212.961C213.003 24.6587 213.131 24.8747 213.345 25.008C213.563 25.136 213.819 25.2 214.113 25.2C214.294 25.2 214.465 25.1787 214.625 25.136C214.79 25.088 214.961 25.0187 215.137 24.928L215.521 25.632C215.297 25.776 215.046 25.8907 214.769 25.976C214.491 26.056 214.219 26.096 213.953 26.096C213.643 26.096 213.355 26.0507 213.089 25.96C212.822 25.864 212.59 25.728 212.393 25.552C212.195 25.3707 212.038 25.152 211.921 24.896C211.809 24.64 211.753 24.3467 211.753 24.016ZM214.617 23.584C214.617 23.36 214.555 23.1787 214.433 23.04C214.31 22.9013 214.113 22.832 213.841 22.832C213.627 22.832 213.438 22.8933 213.273 23.016C213.107 23.1387 212.998 23.328 212.945 23.584H214.617ZM217.501 22.952H216.501V22.08L217.557 22.032L217.709 20.976H218.677V22.032H220.357V22.952H218.677V24.344C218.677 24.648 218.744 24.864 218.877 24.992C219.011 25.1147 219.221 25.176 219.509 25.176C219.664 25.176 219.805 25.1627 219.933 25.136C220.061 25.1093 220.184 25.0747 220.301 25.032L220.509 25.88C220.333 25.9333 220.136 25.9813 219.917 26.024C219.704 26.072 219.469 26.096 219.213 26.096C218.899 26.096 218.632 26.0533 218.413 25.968C218.195 25.8827 218.016 25.7653 217.877 25.616C217.744 25.4613 217.648 25.2773 217.589 25.064C217.531 24.8507 217.501 24.6133 217.501 24.352V22.952ZM222.714 21.776H221.154V20.784H225.458V21.776H223.898V26H222.714V21.776ZM226.279 20.392H227.455V21.768L227.391 22.528C227.471 22.4533 227.556 22.3813 227.647 22.312C227.743 22.2373 227.844 22.1733 227.951 22.12C228.063 22.0613 228.183 22.016 228.311 21.984C228.444 21.952 228.586 21.936 228.735 21.936C229.183 21.936 229.508 22.08 229.711 22.368C229.919 22.656 230.023 23.0507 230.023 23.552V26H228.847V23.704C228.847 23.4373 228.804 23.2427 228.719 23.12C228.634 22.9973 228.482 22.936 228.263 22.936C228.103 22.936 227.962 22.9707 227.839 23.04C227.722 23.1093 227.594 23.2133 227.455 23.352V26H226.279V20.392ZM231.132 22.032H233.9V26H232.724V22.952H231.132V22.032ZM233.26 21.448C233.031 21.448 232.841 21.384 232.692 21.256C232.548 21.128 232.476 20.9547 232.476 20.736C232.476 20.5173 232.548 20.3413 232.692 20.208C232.841 20.0693 233.031 20 233.26 20C233.489 20 233.676 20.0693 233.82 20.208C233.969 20.3413 234.044 20.5173 234.044 20.736C234.044 20.9547 233.969 21.128 233.82 21.256C233.676 21.384 233.489 21.448 233.26 21.448ZM236.249 24.752C236.478 24.896 236.708 25.0107 236.937 25.096C237.172 25.1813 237.422 25.224 237.689 25.224C237.961 25.224 238.156 25.1947 238.273 25.136C238.39 25.0773 238.449 24.9947 238.449 24.888C238.449 24.7653 238.35 24.6667 238.153 24.592C237.961 24.512 237.705 24.4267 237.385 24.336C237.209 24.288 237.036 24.232 236.865 24.168C236.7 24.0987 236.55 24.0187 236.417 23.928C236.284 23.832 236.174 23.7227 236.089 23.6C236.009 23.4773 235.969 23.336 235.969 23.176C235.969 22.9947 236.012 22.8267 236.097 22.672C236.182 22.5173 236.302 22.3867 236.457 22.28C236.617 22.1733 236.809 22.0907 237.033 22.032C237.262 21.968 237.518 21.936 237.801 21.936C238.153 21.936 238.473 21.9947 238.761 22.112C239.054 22.224 239.305 22.3467 239.513 22.48L238.985 23.184C238.804 23.0773 238.617 22.9893 238.425 22.92C238.233 22.8453 238.033 22.808 237.825 22.808C237.574 22.808 237.396 22.8347 237.289 22.888C237.188 22.9413 237.137 23.0187 237.137 23.12C237.137 23.1787 237.164 23.232 237.217 23.28C237.27 23.328 237.342 23.3707 237.433 23.408C237.524 23.4453 237.63 23.4827 237.753 23.52C237.881 23.552 238.014 23.5867 238.153 23.624C238.35 23.6773 238.537 23.7387 238.713 23.808C238.889 23.872 239.044 23.9493 239.177 24.04C239.31 24.1307 239.417 24.24 239.497 24.368C239.577 24.496 239.617 24.6453 239.617 24.816C239.617 24.9973 239.574 25.1653 239.489 25.32C239.404 25.4747 239.278 25.6107 239.113 25.728C238.953 25.84 238.75 25.9307 238.505 26C238.265 26.064 237.985 26.096 237.665 26.096C237.308 26.096 236.958 26.0373 236.617 25.92C236.276 25.8027 235.977 25.6587 235.721 25.488L236.249 24.752ZM241.566 22.576C241.566 22.4427 241.587 22.32 241.63 22.208C241.678 22.0907 241.742 21.9893 241.822 21.904C241.902 21.8187 241.998 21.752 242.11 21.704C242.227 21.656 242.355 21.632 242.494 21.632C242.632 21.632 242.758 21.656 242.87 21.704C242.987 21.752 243.086 21.8187 243.166 21.904C243.246 21.9893 243.307 22.0907 243.35 22.208C243.398 22.32 243.422 22.4427 243.422 22.576C243.422 22.8427 243.336 23.0667 243.166 23.248C242.995 23.424 242.771 23.512 242.494 23.512C242.216 23.512 241.992 23.424 241.822 23.248C241.651 23.0667 241.566 22.8427 241.566 22.576ZM241.566 25.16C241.566 25.0267 241.587 24.904 241.63 24.792C241.678 24.6747 241.742 24.5733 241.822 24.488C241.902 24.4027 241.998 24.336 242.11 24.288C242.227 24.24 242.355 24.216 242.494 24.216C242.632 24.216 242.758 24.24 242.87 24.288C242.987 24.336 243.086 24.4027 243.166 24.488C243.246 24.5733 243.307 24.6747 243.35 24.792C243.398 24.904 243.422 25.0267 243.422 25.16C243.422 25.4267 243.336 25.6507 243.166 25.832C242.995 26.008 242.771 26.096 242.494 26.096C242.216 26.096 241.992 26.008 241.822 25.832C241.651 25.6507 241.566 25.4267 241.566 25.16ZM253.864 21.72C253.805 21.6933 253.738 21.672 253.664 21.656C253.589 21.6347 253.506 21.624 253.416 21.624C253.213 21.624 253.058 21.6827 252.952 21.8C252.85 21.912 252.784 22.0613 252.752 22.248L252.696 22.688H253.616V23.544H252.6L252.416 25.056C252.384 25.296 252.336 25.52 252.272 25.728C252.213 25.936 252.122 26.1173 252 26.272C251.882 26.4267 251.728 26.5467 251.536 26.632C251.349 26.7227 251.112 26.768 250.824 26.768C250.648 26.768 250.493 26.7547 250.36 26.728C250.226 26.7067 250.125 26.6773 250.056 26.64L250.215 25.776C250.349 25.8133 250.493 25.8373 250.648 25.848C250.754 25.8427 250.845 25.824 250.92 25.792C250.994 25.76 251.056 25.7013 251.104 25.616C251.157 25.5307 251.202 25.416 251.24 25.272C251.277 25.128 251.312 24.9413 251.344 24.712L251.48 23.544H250.784V22.736L251.384 22.688H251.576L251.616 22.344C251.658 22.0507 251.72 21.8 251.799 21.592C251.88 21.384 251.986 21.2133 252.12 21.08C252.253 20.9467 252.416 20.848 252.608 20.784C252.805 20.72 253.042 20.688 253.32 20.688C253.373 20.688 253.434 20.6933 253.504 20.704C253.578 20.7093 253.65 20.72 253.72 20.736C253.794 20.7467 253.864 20.7627 253.928 20.784C253.992 20.8 254.045 20.8187 254.088 20.84L253.864 21.72ZM205.069 34.752C205.299 34.896 205.528 35.0107 205.757 35.096C205.992 35.1813 206.243 35.224 206.509 35.224C206.781 35.224 206.976 35.1947 207.093 35.136C207.211 35.0773 207.269 34.9947 207.269 34.888C207.269 34.7653 207.171 34.6667 206.973 34.592C206.781 34.512 206.525 34.4267 206.205 34.336C206.029 34.288 205.856 34.232 205.685 34.168C205.52 34.0987 205.371 34.0187 205.237 33.928C205.104 33.832 204.995 33.7227 204.909 33.6C204.829 33.4773 204.789 33.336 204.789 33.176C204.789 32.9947 204.832 32.8267 204.917 32.672C205.003 32.5173 205.123 32.3867 205.277 32.28C205.437 32.1733 205.629 32.0907 205.853 32.032C206.083 31.968 206.339 31.936 206.621 31.936C206.973 31.936 207.293 31.9947 207.581 32.112C207.875 32.224 208.125 32.3467 208.333 32.48L207.805 33.184C207.624 33.0773 207.437 32.9893 207.245 32.92C207.053 32.8453 206.853 32.808 206.645 32.808C206.395 32.808 206.216 32.8347 206.109 32.888C206.008 32.9413 205.957 33.0187 205.957 33.12C205.957 33.1787 205.984 33.232 206.037 33.28C206.091 33.328 206.163 33.3707 206.253 33.408C206.344 33.4453 206.451 33.4827 206.573 33.52C206.701 33.552 206.835 33.5867 206.973 33.624C207.171 33.6773 207.357 33.7387 207.533 33.808C207.709 33.872 207.864 33.9493 207.997 34.04C208.131 34.1307 208.237 34.24 208.317 34.368C208.397 34.496 208.437 34.6453 208.437 34.816C208.437 34.9973 208.395 35.1653 208.309 35.32C208.224 35.4747 208.099 35.6107 207.933 35.728C207.773 35.84 207.571 35.9307 207.325 36C207.085 36.064 206.805 36.096 206.485 36.096C206.128 36.096 205.779 36.0373 205.437 35.92C205.096 35.8027 204.797 35.6587 204.541 35.488L205.069 34.752ZM209.49 30.392H210.666V31.768L210.602 32.528C210.682 32.4533 210.767 32.3813 210.858 32.312C210.954 32.2373 211.055 32.1733 211.162 32.12C211.274 32.0613 211.394 32.016 211.522 31.984C211.655 31.952 211.797 31.936 211.946 31.936C212.394 31.936 212.719 32.08 212.922 32.368C213.13 32.656 213.234 33.0507 213.234 33.552V36H212.058V33.704C212.058 33.4373 212.015 33.2427 211.93 33.12C211.845 32.9973 211.693 32.936 211.474 32.936C211.314 32.936 211.173 32.9707 211.05 33.04C210.933 33.1093 210.805 33.2133 210.666 33.352V36H209.49V30.392ZM214.087 34.016C214.087 33.6853 214.143 33.392 214.255 33.136C214.367 32.8747 214.516 32.656 214.703 32.48C214.895 32.304 215.111 32.1707 215.351 32.08C215.596 31.984 215.85 31.936 216.111 31.936C216.372 31.936 216.623 31.984 216.863 32.08C217.108 32.1707 217.324 32.304 217.511 32.48C217.703 32.656 217.855 32.8747 217.967 33.136C218.079 33.392 218.135 33.6853 218.135 34.016C218.135 34.3467 218.079 34.6427 217.967 34.904C217.855 35.16 217.703 35.376 217.511 35.552C217.324 35.728 217.108 35.864 216.863 35.96C216.623 36.0507 216.372 36.096 216.111 36.096C215.85 36.096 215.596 36.0507 215.351 35.96C215.111 35.864 214.895 35.728 214.703 35.552C214.516 35.376 214.367 35.16 214.255 34.904C214.143 34.6427 214.087 34.3467 214.087 34.016ZM215.295 34.016C215.295 34.3627 215.362 34.6373 215.495 34.84C215.634 35.0427 215.839 35.144 216.111 35.144C216.383 35.144 216.586 35.0427 216.719 34.84C216.858 34.6373 216.927 34.3627 216.927 34.016C216.927 33.6693 216.858 33.3947 216.719 33.192C216.586 32.9893 216.383 32.888 216.111 32.888C215.839 32.888 215.634 32.9893 215.495 33.192C215.362 33.3947 215.295 33.6693 215.295 34.016ZM218.884 34.016C218.884 33.6853 218.94 33.392 219.052 33.136C219.164 32.8747 219.313 32.656 219.5 32.48C219.692 32.304 219.908 32.1707 220.148 32.08C220.393 31.984 220.646 31.936 220.908 31.936C221.169 31.936 221.42 31.984 221.66 32.08C221.905 32.1707 222.121 32.304 222.308 32.48C222.5 32.656 222.652 32.8747 222.764 33.136C222.876 33.392 222.932 33.6853 222.932 34.016C222.932 34.3467 222.876 34.6427 222.764 34.904C222.652 35.16 222.5 35.376 222.308 35.552C222.121 35.728 221.905 35.864 221.66 35.96C221.42 36.0507 221.169 36.096 220.908 36.096C220.646 36.096 220.393 36.0507 220.148 35.96C219.908 35.864 219.692 35.728 219.5 35.552C219.313 35.376 219.164 35.16 219.052 34.904C218.94 34.6427 218.884 34.3467 218.884 34.016ZM220.092 34.016C220.092 34.3627 220.158 34.6373 220.292 34.84C220.43 35.0427 220.636 35.144 220.908 35.144C221.18 35.144 221.382 35.0427 221.516 34.84C221.654 34.6373 221.724 34.3627 221.724 34.016C221.724 33.6693 221.654 33.3947 221.516 33.192C221.382 32.9893 221.18 32.888 220.908 32.888C220.636 32.888 220.43 32.9893 220.292 33.192C220.158 33.3947 220.092 33.6693 220.092 34.016ZM224.697 32.952H223.697V32.08L224.753 32.032L224.905 30.976H225.873V32.032H227.553V32.952H225.873V34.344C225.873 34.648 225.939 34.864 226.073 34.992C226.206 35.1147 226.417 35.176 226.705 35.176C226.859 35.176 227.001 35.1627 227.129 35.136C227.257 35.1093 227.379 35.0747 227.497 35.032L227.705 35.88C227.529 35.9333 227.331 35.9813 227.113 36.024C226.899 36.072 226.665 36.096 226.409 36.096C226.094 36.096 225.827 36.0533 225.609 35.968C225.39 35.8827 225.211 35.7653 225.073 35.616C224.939 35.4613 224.843 35.2773 224.785 35.064C224.726 34.8507 224.697 34.6133 224.697 34.352V32.952ZM228.134 30.784H229.334L229.502 33.56C229.507 33.784 229.512 34.0053 229.518 34.224C229.523 34.4427 229.528 34.664 229.534 34.888H229.558C229.6 34.664 229.646 34.4427 229.694 34.224C229.747 34.0053 229.795 33.784 229.838 33.56L230.198 32.112H230.91L231.254 33.56C231.296 33.7733 231.342 33.992 231.39 34.216C231.438 34.44 231.483 34.664 231.526 34.888H231.558C231.568 34.664 231.574 34.4427 231.574 34.224C231.579 34 231.587 33.7787 231.598 33.56L231.75 30.784H232.87L232.222 36H230.99L230.662 34.36C230.63 34.1947 230.6 34.0267 230.574 33.856C230.547 33.68 230.528 33.5147 230.518 33.36H230.494C230.478 33.5147 230.456 33.68 230.43 33.856C230.408 34.0267 230.382 34.1947 230.35 34.36L230.038 36H228.83L228.134 30.784ZM233.338 34.016C233.338 33.6907 233.394 33.4 233.506 33.144C233.624 32.888 233.778 32.672 233.97 32.496C234.162 32.3147 234.381 32.176 234.626 32.08C234.877 31.984 235.136 31.936 235.402 31.936C235.706 31.936 235.976 31.984 236.21 32.08C236.445 32.176 236.64 32.3093 236.794 32.48C236.949 32.6507 237.066 32.8533 237.146 33.088C237.226 33.3173 237.266 33.568 237.266 33.84C237.266 33.9467 237.261 34.048 237.25 34.144C237.24 34.24 237.229 34.312 237.218 34.36H234.546C234.589 34.6587 234.717 34.8747 234.93 35.008C235.149 35.136 235.405 35.2 235.698 35.2C235.88 35.2 236.05 35.1787 236.21 35.136C236.376 35.088 236.546 35.0187 236.722 34.928L237.106 35.632C236.882 35.776 236.632 35.8907 236.354 35.976C236.077 36.056 235.805 36.096 235.538 36.096C235.229 36.096 234.941 36.0507 234.674 35.96C234.408 35.864 234.176 35.728 233.978 35.552C233.781 35.3707 233.624 35.152 233.506 34.896C233.394 34.64 233.338 34.3467 233.338 34.016ZM236.202 33.584C236.202 33.36 236.141 33.1787 236.018 33.04C235.896 32.9013 235.698 32.832 235.426 32.832C235.213 32.832 235.024 32.8933 234.858 33.016C234.693 33.1387 234.584 33.328 234.53 33.584H236.202ZM238.271 30.392H239.447V31.768L239.415 32.392C239.57 32.248 239.743 32.136 239.935 32.056C240.133 31.976 240.327 31.936 240.519 31.936C240.765 31.936 240.986 31.984 241.183 32.08C241.386 32.176 241.554 32.312 241.687 32.488C241.826 32.6587 241.933 32.8693 242.007 33.12C242.082 33.3653 242.119 33.64 242.119 33.944C242.119 34.2853 242.071 34.5893 241.975 34.856C241.879 35.1227 241.751 35.3493 241.591 35.536C241.431 35.7173 241.247 35.856 241.039 35.952C240.837 36.048 240.623 36.096 240.399 36.096C240.213 36.096 240.026 36.0507 239.839 35.96C239.658 35.8693 239.485 35.7387 239.319 35.568H239.287L239.191 36H238.271V30.392ZM239.447 34.872C239.559 34.968 239.674 35.0373 239.791 35.08C239.914 35.1173 240.029 35.136 240.135 35.136C240.354 35.136 240.538 35.0453 240.687 34.864C240.837 34.6773 240.911 34.3787 240.911 33.968C240.911 33.2533 240.669 32.896 240.183 32.896C239.933 32.896 239.687 33.0187 239.447 33.264V34.872ZM243.964 32.576C243.964 32.4427 243.986 32.32 244.028 32.208C244.076 32.0907 244.14 31.9893 244.22 31.904C244.3 31.8187 244.396 31.752 244.508 31.704C244.626 31.656 244.754 31.632 244.892 31.632C245.031 31.632 245.156 31.656 245.268 31.704C245.386 31.752 245.484 31.8187 245.564 31.904C245.644 31.9893 245.706 32.0907 245.748 32.208C245.796 32.32 245.82 32.4427 245.82 32.576C245.82 32.8427 245.735 33.0667 245.564 33.248C245.394 33.424 245.17 33.512 244.892 33.512C244.615 33.512 244.391 33.424 244.22 33.248C244.05 33.0667 243.964 32.8427 243.964 32.576ZM243.964 35.16C243.964 35.0267 243.986 34.904 244.028 34.792C244.076 34.6747 244.14 34.5733 244.22 34.488C244.3 34.4027 244.396 34.336 244.508 34.288C244.626 34.24 244.754 34.216 244.892 34.216C245.031 34.216 245.156 34.24 245.268 34.288C245.386 34.336 245.484 34.4027 245.564 34.488C245.644 34.5733 245.706 34.6747 245.748 34.792C245.796 34.904 245.82 35.0267 245.82 35.16C245.82 35.4267 245.735 35.6507 245.564 35.832C245.394 36.008 245.17 36.096 244.892 36.096C244.615 36.096 244.391 36.008 244.22 35.832C244.05 35.6507 243.964 35.4267 243.964 35.16ZM256.262 31.72C256.203 31.6933 256.137 31.672 256.062 31.656C255.987 31.6347 255.905 31.624 255.814 31.624C255.611 31.624 255.457 31.6827 255.35 31.8C255.249 31.912 255.182 32.0613 255.15 32.248L255.094 32.688H256.014V33.544H254.998L254.814 35.056C254.782 35.296 254.734 35.52 254.67 35.728C254.611 35.936 254.521 36.1173 254.398 36.272C254.281 36.4267 254.126 36.5467 253.934 36.632C253.747 36.7227 253.51 36.768 253.222 36.768C253.046 36.768 252.891 36.7547 252.758 36.728C252.625 36.7067 252.523 36.6773 252.454 36.64L252.614 35.776C252.747 35.8133 252.891 35.8373 253.046 35.848C253.153 35.8427 253.243 35.824 253.318 35.792C253.393 35.76 253.454 35.7013 253.502 35.616C253.555 35.5307 253.601 35.416 253.638 35.272C253.675 35.128 253.71 34.9413 253.742 34.712L253.878 33.544H253.182V32.736L253.782 32.688H253.974L254.014 32.344C254.057 32.0507 254.118 31.8 254.198 31.592C254.278 31.384 254.385 31.2133 254.518 31.08C254.651 30.9467 254.814 30.848 255.006 30.784C255.203 30.72 255.441 30.688 255.718 30.688C255.771 30.688 255.833 30.6933 255.902 30.704C255.977 30.7093 256.049 30.72 256.118 30.736C256.193 30.7467 256.262 30.7627 256.326 30.784C256.39 30.8 256.443 30.8187 256.486 30.84L256.262 31.72Z" fill="black"/>
<path d="M200.465 10.584C200.793 10.824 201.145 11.016 201.521 11.16C201.897 11.304 202.349 11.376 202.877 11.376C203.405 11.376 203.797 11.288 204.053 11.112C204.309 10.936 204.437 10.72 204.437 10.464C204.437 10.24 204.297 10.04 204.017 9.864C203.745 9.688 203.253 9.512 202.541 9.336C202.237 9.264 201.949 9.176 201.677 9.072C201.413 8.968 201.181 8.848 200.981 8.712C200.781 8.568 200.621 8.412 200.501 8.244C200.381 8.076 200.321 7.888 200.321 7.68C200.321 7.448 200.373 7.232 200.477 7.032C200.581 6.824 200.733 6.648 200.933 6.504C201.141 6.352 201.397 6.236 201.701 6.156C202.013 6.068 202.369 6.024 202.769 6.024C203.209 6.024 203.637 6.1 204.053 6.252C204.469 6.396 204.821 6.568 205.109 6.768L204.629 7.404C204.373 7.22 204.089 7.072 203.777 6.96C203.465 6.848 203.129 6.792 202.769 6.792C202.497 6.792 202.269 6.816 202.085 6.864C201.901 6.904 201.753 6.964 201.641 7.044C201.529 7.116 201.449 7.204 201.401 7.308C201.353 7.412 201.329 7.52 201.329 7.632C201.329 7.872 201.493 8.072 201.821 8.232C202.149 8.384 202.577 8.528 203.105 8.664C203.897 8.864 204.481 9.092 204.857 9.348C205.241 9.604 205.433 9.956 205.433 10.404C205.433 10.644 205.377 10.868 205.265 11.076C205.153 11.284 204.985 11.468 204.761 11.628C204.545 11.788 204.273 11.912 203.945 12C203.625 12.096 203.257 12.144 202.841 12.144C202.265 12.144 201.733 12.056 201.245 11.88C200.765 11.696 200.345 11.48 199.985 11.232L200.465 10.584ZM208.416 12.492V14.46H207.432V6.168H208.248L208.332 6.912H208.368C208.64 6.656 208.952 6.444 209.304 6.276C209.664 6.108 210.024 6.024 210.384 6.024C210.776 6.024 211.12 6.096 211.416 6.24C211.72 6.376 211.972 6.576 212.172 6.84C212.38 7.096 212.536 7.408 212.64 7.776C212.744 8.136 212.796 8.544 212.796 9C212.796 9.496 212.724 9.94 212.58 10.332C212.436 10.716 212.24 11.044 211.992 11.316C211.752 11.588 211.472 11.796 211.152 11.94C210.832 12.076 210.496 12.144 210.144 12.144C209.872 12.144 209.576 12.08 209.256 11.952C208.944 11.816 208.656 11.628 208.392 11.388L208.416 12.492ZM208.416 10.632C208.696 10.88 208.976 11.056 209.256 11.16C209.536 11.264 209.776 11.316 209.976 11.316C210.504 11.316 210.936 11.112 211.272 10.704C211.608 10.296 211.776 9.728 211.776 9C211.776 8.68 211.744 8.388 211.68 8.124C211.616 7.86 211.516 7.636 211.38 7.452C211.252 7.26 211.084 7.112 210.876 7.008C210.668 6.904 210.42 6.852 210.132 6.852C209.876 6.852 209.6 6.924 209.304 7.068C209.016 7.204 208.72 7.424 208.416 7.728V10.632ZM214.592 6.168H218.288V12H217.304V6.972H214.592V6.168ZM217.688 4.968C217.456 4.968 217.264 4.9 217.112 4.764C216.968 4.628 216.896 4.444 216.896 4.212C216.896 3.98 216.968 3.796 217.112 3.66C217.264 3.516 217.456 3.444 217.688 3.444C217.912 3.444 218.1 3.516 218.252 3.66C218.404 3.796 218.48 3.98 218.48 4.212C218.48 4.444 218.404 4.628 218.252 4.764C218.1 4.9 217.912 4.968 217.688 4.968ZM221.427 9.096C221.427 8.624 221.499 8.2 221.643 7.824C221.795 7.44 221.991 7.116 222.231 6.852C222.479 6.588 222.763 6.384 223.083 6.24C223.403 6.096 223.735 6.024 224.079 6.024C224.439 6.024 224.755 6.092 225.027 6.228C225.299 6.364 225.571 6.548 225.843 6.78L225.807 5.7V3.456H226.791V12H225.975L225.891 11.232H225.855C225.615 11.48 225.327 11.696 224.991 11.88C224.663 12.056 224.319 12.144 223.959 12.144C223.575 12.144 223.227 12.076 222.915 11.94C222.611 11.804 222.347 11.608 222.123 11.352C221.899 11.088 221.727 10.768 221.607 10.392C221.487 10.016 221.427 9.584 221.427 9.096ZM222.447 9.084C222.447 9.788 222.595 10.336 222.891 10.728C223.195 11.12 223.619 11.316 224.163 11.316C224.739 11.316 225.287 11.024 225.807 10.44V7.536C225.543 7.288 225.283 7.112 225.027 7.008C224.779 6.904 224.527 6.852 224.271 6.852C224.015 6.852 223.775 6.908 223.551 7.02C223.335 7.124 223.143 7.276 222.975 7.476C222.815 7.668 222.687 7.9 222.591 8.172C222.495 8.444 222.447 8.748 222.447 9.084ZM228.73 9.096C228.73 8.616 228.814 8.188 228.982 7.812C229.15 7.428 229.37 7.104 229.642 6.84C229.922 6.576 230.238 6.376 230.59 6.24C230.95 6.096 231.318 6.024 231.694 6.024C232.11 6.024 232.482 6.092 232.81 6.228C233.138 6.356 233.414 6.54 233.638 6.78C233.87 7.02 234.046 7.308 234.166 7.644C234.286 7.98 234.346 8.352 234.346 8.76C234.346 8.864 234.342 8.968 234.334 9.072C234.334 9.168 234.326 9.252 234.31 9.324H229.75C229.758 9.636 229.818 9.916 229.93 10.164C230.05 10.412 230.206 10.624 230.398 10.8C230.598 10.976 230.83 11.112 231.094 11.208C231.366 11.304 231.662 11.352 231.982 11.352C232.326 11.352 232.638 11.304 232.918 11.208C233.206 11.112 233.486 10.98 233.758 10.812L234.106 11.46C233.818 11.644 233.49 11.804 233.122 11.94C232.754 12.076 232.334 12.144 231.862 12.144C231.43 12.144 231.022 12.076 230.638 11.94C230.262 11.796 229.93 11.596 229.642 11.34C229.362 11.076 229.138 10.756 228.97 10.38C228.81 10.004 228.73 9.576 228.73 9.096ZM233.434 8.616C233.434 8.032 233.282 7.584 232.978 7.272C232.674 6.96 232.25 6.804 231.706 6.804C231.466 6.804 231.234 6.844 231.01 6.924C230.794 7.004 230.598 7.124 230.422 7.284C230.246 7.436 230.098 7.624 229.978 7.848C229.858 8.072 229.778 8.328 229.738 8.616H233.434ZM236.85 6.168H237.666L237.75 7.548H237.786C238.09 7.076 238.462 6.704 238.902 6.432C239.35 6.16 239.846 6.024 240.39 6.024C240.606 6.024 240.806 6.044 240.99 6.084C241.174 6.116 241.358 6.176 241.542 6.264L241.314 7.116C241.106 7.044 240.93 6.992 240.786 6.96C240.65 6.928 240.466 6.912 240.234 6.912C239.794 6.912 239.37 7.04 238.962 7.296C238.562 7.544 238.186 7.972 237.834 8.58V12H236.85V6.168ZM243.013 6.168H243.781L243.865 6.936H243.901C244.045 6.664 244.213 6.444 244.405 6.276C244.605 6.108 244.873 6.024 245.209 6.024C245.801 6.024 246.169 6.36 246.313 7.032C246.489 6.728 246.681 6.484 246.889 6.3C247.097 6.116 247.365 6.024 247.693 6.024C248.101 6.024 248.413 6.18 248.629 6.492C248.853 6.796 248.965 7.24 248.965 7.824V12H248.017V7.908C248.017 7.22 247.805 6.876 247.381 6.876C247.173 6.876 246.993 6.952 246.841 7.104C246.689 7.248 246.537 7.472 246.385 7.776V12H245.593V7.908C245.593 7.22 245.373 6.876 244.933 6.876C244.725 6.876 244.549 6.952 244.405 7.104C244.261 7.248 244.113 7.472 243.961 7.776V12H243.013V6.168ZM250.46 10.488C250.46 10.16 250.536 9.876 250.688 9.636C250.848 9.388 251.096 9.176 251.432 9C251.776 8.824 252.216 8.68 252.752 8.568C253.288 8.456 253.932 8.368 254.684 8.304C254.676 8.104 254.644 7.916 254.588 7.74C254.532 7.564 254.444 7.412 254.324 7.284C254.204 7.148 254.044 7.04 253.844 6.96C253.652 6.88 253.416 6.84 253.136 6.84C252.752 6.84 252.384 6.916 252.032 7.068C251.68 7.212 251.368 7.368 251.096 7.536L250.712 6.864C250.856 6.768 251.024 6.672 251.216 6.576C251.416 6.472 251.624 6.38 251.84 6.3C252.064 6.22 252.3 6.156 252.548 6.108C252.796 6.052 253.048 6.024 253.304 6.024C254.104 6.024 254.696 6.244 255.08 6.684C255.472 7.116 255.668 7.696 255.668 8.424V12H254.864L254.78 11.208H254.744C254.416 11.464 254.052 11.684 253.652 11.868C253.26 12.052 252.856 12.144 252.44 12.144C252.168 12.144 251.912 12.104 251.672 12.024C251.432 11.952 251.22 11.848 251.036 11.712C250.86 11.568 250.72 11.396 250.616 11.196C250.512 10.988 250.46 10.752 250.46 10.488ZM251.42 10.416C251.42 10.584 251.456 10.728 251.528 10.848C251.6 10.96 251.692 11.056 251.804 11.136C251.924 11.208 252.06 11.264 252.212 11.304C252.372 11.336 252.536 11.352 252.704 11.352C253.04 11.352 253.368 11.28 253.688 11.136C254.016 10.984 254.348 10.768 254.684 10.488V8.952C254.06 9 253.536 9.068 253.112 9.156C252.696 9.244 252.36 9.352 252.104 9.48C251.856 9.6 251.68 9.74 251.576 9.9C251.472 10.052 251.42 10.224 251.42 10.416ZM257.8 6.168H258.616L258.7 7.164H258.748C259.052 6.836 259.38 6.564 259.732 6.348C260.084 6.132 260.488 6.024 260.944 6.024C261.64 6.024 262.148 6.224 262.468 6.624C262.796 7.016 262.96 7.6 262.96 8.376V12H261.976V8.508C261.976 7.956 261.872 7.548 261.664 7.284C261.456 7.012 261.112 6.876 260.632 6.876C260.456 6.876 260.292 6.9 260.14 6.948C259.996 6.988 259.852 7.052 259.708 7.14C259.564 7.228 259.416 7.34 259.264 7.476C259.112 7.604 258.952 7.756 258.784 7.932V12H257.8V6.168Z" fill="black"/>
<path d="M199.121 13.2H263.884V13.8H199.121V13.2Z" fill="black"/>
<rect y="10" width="134" height="66" fill="#C4C4C4"/>
<path d="M57.7441 24.9219C57.4277 25.3008 56.9805 25.5957 56.4023 25.8066C55.8242 26.0137 55.1836 26.1172 54.4805 26.1172C53.7422 26.1172 53.0938 25.957 52.5352 25.6367C51.9805 25.3125 51.5508 24.8438 51.2461 24.2305C50.9453 23.6172 50.791 22.8965 50.7832 22.0684V21.4883C50.7832 20.6367 50.9258 19.9004 51.2109 19.2793C51.5 18.6543 51.9141 18.1777 52.4531 17.8496C52.9961 17.5176 53.6309 17.3516 54.3574 17.3516C55.3691 17.3516 56.1602 17.5938 56.7305 18.0781C57.3008 18.5586 57.6387 19.2598 57.7441 20.1816H56.0332C55.9551 19.6934 55.7812 19.3359 55.5117 19.1094C55.2461 18.8828 54.8789 18.7695 54.4102 18.7695C53.8125 18.7695 53.3574 18.9941 53.0449 19.4434C52.7324 19.8926 52.5742 20.5605 52.5703 21.4473V21.9922C52.5703 22.8867 52.7402 23.5625 53.0801 24.0195C53.4199 24.4766 53.918 24.7051 54.5742 24.7051C55.2344 24.7051 55.7051 24.5645 55.9863 24.2832V22.8125H54.3867V21.5176H57.7441V24.9219ZM60.8496 26H59.1504V17H60.8496V26ZM61.9863 22.7715C61.9863 22.1426 62.1074 21.582 62.3496 21.0898C62.5918 20.5977 62.9395 20.2168 63.3926 19.9473C63.8496 19.6777 64.3789 19.543 64.9805 19.543C65.8359 19.543 66.5332 19.8047 67.0723 20.3281C67.6152 20.8516 67.918 21.5625 67.9805 22.4609L67.9922 22.8945C67.9922 23.8672 67.7207 24.6484 67.1777 25.2383C66.6348 25.8242 65.9062 26.1172 64.9922 26.1172C64.0781 26.1172 63.3477 25.8242 62.8008 25.2383C62.2578 24.6523 61.9863 23.8555 61.9863 22.8477V22.7715ZM63.6797 22.8945C63.6797 23.4961 63.793 23.957 64.0195 24.2773C64.2461 24.5938 64.5703 24.752 64.9922 24.752C65.4023 24.752 65.7227 24.5957 65.9531 24.2832C66.1836 23.9668 66.2988 23.4629 66.2988 22.7715C66.2988 22.1816 66.1836 21.7246 65.9531 21.4004C65.7227 21.0762 65.3984 20.9141 64.9805 20.9141C64.5664 20.9141 64.2461 21.0762 64.0195 21.4004C63.793 21.7207 63.6797 22.2188 63.6797 22.8945ZM74.748 22.8887C74.748 23.9043 74.5312 24.6973 74.0977 25.2676C73.6641 25.834 73.0586 26.1172 72.2812 26.1172C71.5938 26.1172 71.0449 25.8535 70.6348 25.3262L70.5586 26H69.0352V17H70.7285V20.2285C71.1191 19.7715 71.6328 19.543 72.2695 19.543C73.043 19.543 73.6484 19.8281 74.0859 20.3984C74.5273 20.9648 74.748 21.7637 74.748 22.7949V22.8887ZM73.0547 22.7656C73.0547 22.125 72.9531 21.6582 72.75 21.3652C72.5469 21.0684 72.2441 20.9199 71.8418 20.9199C71.3027 20.9199 70.9316 21.1406 70.7285 21.582V24.084C70.9355 24.5293 71.3105 24.752 71.8535 24.752C72.4004 24.752 72.7598 24.4824 72.9316 23.9434C73.0137 23.6855 73.0547 23.293 73.0547 22.7656ZM79.4707 26C79.3926 25.8477 79.3359 25.6582 79.3008 25.4316C78.8906 25.8887 78.3574 26.1172 77.7012 26.1172C77.0801 26.1172 76.5645 25.9375 76.1543 25.5781C75.748 25.2188 75.5449 24.7656 75.5449 24.2188C75.5449 23.5469 75.793 23.0312 76.2891 22.6719C76.7891 22.3125 77.5098 22.1309 78.4512 22.127H79.2305V21.7637C79.2305 21.4707 79.1543 21.2363 79.002 21.0605C78.8535 20.8848 78.6172 20.7969 78.293 20.7969C78.0078 20.7969 77.7832 20.8652 77.6191 21.002C77.459 21.1387 77.3789 21.3262 77.3789 21.5645H75.6855C75.6855 21.1973 75.7988 20.8574 76.0254 20.5449C76.252 20.2324 76.5723 19.9883 76.9863 19.8125C77.4004 19.6328 77.8652 19.543 78.3809 19.543C79.1621 19.543 79.7812 19.7402 80.2383 20.1348C80.6992 20.5254 80.9297 21.0762 80.9297 21.7871V24.5352C80.9336 25.1367 81.0176 25.5918 81.1816 25.9004V26H79.4707ZM78.0703 24.8223C78.3203 24.8223 78.5508 24.7676 78.7617 24.6582C78.9727 24.5449 79.1289 24.3945 79.2305 24.207V23.1172H78.5977C77.75 23.1172 77.2988 23.4102 77.2441 23.9961L77.2383 24.0957C77.2383 24.3066 77.3125 24.4805 77.4609 24.6172C77.6094 24.7539 77.8125 24.8223 78.0703 24.8223ZM84.0176 26H82.3184V17H84.0176V26Z" fill="black"/>
<path d="M23.6191 45.1172C22.7598 45.1172 22.0605 44.8359 21.5215 44.2734C20.9824 43.707 20.7129 42.9512 20.7129 42.0059V41.8066C20.7129 41.1777 20.832 40.6172 21.0703 40.125C21.3125 39.6289 21.6484 39.2422 22.0781 38.9648C22.5117 38.6836 22.9805 38.543 23.4844 38.543C24.3086 38.543 24.9492 38.8145 25.4062 39.3574C25.8633 39.9004 26.0918 40.6777 26.0918 41.6895V42.1406H21.7969C21.8125 42.7656 21.9941 43.2715 22.3418 43.6582C22.6934 44.041 23.1387 44.2324 23.6777 44.2324C24.0605 44.2324 24.3848 44.1543 24.6504 43.998C24.916 43.8418 25.1484 43.6348 25.3477 43.377L26.0098 43.8926C25.4785 44.709 24.6816 45.1172 23.6191 45.1172ZM23.4844 39.4336C23.0469 39.4336 22.6797 39.5938 22.3828 39.9141C22.0859 40.2305 21.9023 40.6758 21.832 41.25H25.0078V41.168C24.9766 40.6172 24.8281 40.1914 24.5625 39.8906C24.2969 39.5859 23.9375 39.4336 23.4844 39.4336ZM29.4785 40.9746L30.8848 38.6602H32.1504L30.0762 41.7949L32.2148 45H30.9609L29.4961 42.627L28.0312 45H26.7715L28.9102 41.7949L26.8359 38.6602H28.0898L29.4785 40.9746ZM35.8184 45.1172C34.959 45.1172 34.2598 44.8359 33.7207 44.2734C33.1816 43.707 32.9121 42.9512 32.9121 42.0059V41.8066C32.9121 41.1777 33.0312 40.6172 33.2695 40.125C33.5117 39.6289 33.8477 39.2422 34.2773 38.9648C34.7109 38.6836 35.1797 38.543 35.6836 38.543C36.5078 38.543 37.1484 38.8145 37.6055 39.3574C38.0625 39.9004 38.291 40.6777 38.291 41.6895V42.1406H33.9961C34.0117 42.7656 34.1934 43.2715 34.541 43.6582C34.8926 44.041 35.3379 44.2324 35.877 44.2324C36.2598 44.2324 36.584 44.1543 36.8496 43.998C37.1152 43.8418 37.3477 43.6348 37.5469 43.377L38.209 43.8926C37.6777 44.709 36.8809 45.1172 35.8184 45.1172ZM35.6836 39.4336C35.2461 39.4336 34.8789 39.5938 34.582 39.9141C34.2852 40.2305 34.1016 40.6758 34.0312 41.25H37.207V41.168C37.1758 40.6172 37.0273 40.1914 36.7617 39.8906C36.4961 39.5859 36.1367 39.4336 35.6836 39.4336ZM42.0938 44.2324C42.4805 44.2324 42.8184 44.1152 43.1074 43.8809C43.3965 43.6465 43.5566 43.3535 43.5879 43.002H44.6133C44.5938 43.3652 44.4688 43.7109 44.2383 44.0391C44.0078 44.3672 43.6992 44.6289 43.3125 44.8242C42.9297 45.0195 42.5234 45.1172 42.0938 45.1172C41.2305 45.1172 40.543 44.8301 40.0312 44.2559C39.5234 43.6777 39.2695 42.8887 39.2695 41.8887V41.707C39.2695 41.0898 39.3828 40.541 39.6094 40.0605C39.8359 39.5801 40.1602 39.207 40.582 38.9414C41.0078 38.6758 41.5098 38.543 42.0879 38.543C42.7988 38.543 43.3887 38.7559 43.8574 39.1816C44.3301 39.6074 44.582 40.1602 44.6133 40.8398H43.5879C43.5566 40.4297 43.4004 40.0938 43.1191 39.832C42.8418 39.5664 42.498 39.4336 42.0879 39.4336C41.5371 39.4336 41.1094 39.6328 40.8047 40.0312C40.5039 40.4258 40.3535 40.998 40.3535 41.748V41.9531C40.3535 42.6836 40.5039 43.2461 40.8047 43.6406C41.1055 44.0352 41.5352 44.2324 42.0938 44.2324ZM49.7461 44.373C49.3242 44.8691 48.7051 45.1172 47.8887 45.1172C47.2129 45.1172 46.6973 44.9219 46.3418 44.5312C45.9902 44.1367 45.8125 43.5547 45.8086 42.7852V38.6602H46.8926V42.7559C46.8926 43.7168 47.2832 44.1973 48.0645 44.1973C48.8926 44.1973 49.4434 43.8887 49.7168 43.2715V38.6602H50.8008V45H49.7695L49.7461 44.373ZM53.9238 37.125V38.6602H55.1074V39.498H53.9238V43.4297C53.9238 43.6836 53.9766 43.875 54.082 44.0039C54.1875 44.1289 54.3672 44.1914 54.6211 44.1914C54.7461 44.1914 54.918 44.168 55.1367 44.1211V45C54.8516 45.0781 54.5742 45.1172 54.3047 45.1172C53.8203 45.1172 53.4551 44.9707 53.209 44.6777C52.9629 44.3848 52.8398 43.9688 52.8398 43.4297V39.498H51.6855V38.6602H52.8398V37.125H53.9238ZM57.5566 45H56.4727V38.6602H57.5566V45ZM56.3848 36.9785C56.3848 36.8027 56.4375 36.6543 56.543 36.5332C56.6523 36.4121 56.8125 36.3516 57.0234 36.3516C57.2344 36.3516 57.3945 36.4121 57.5039 36.5332C57.6133 36.6543 57.668 36.8027 57.668 36.9785C57.668 37.1543 57.6133 37.3008 57.5039 37.418C57.3945 37.5352 57.2344 37.5938 57.0234 37.5938C56.8125 37.5938 56.6523 37.5352 56.543 37.418C56.4375 37.3008 56.3848 37.1543 56.3848 36.9785ZM59.0098 41.7715C59.0098 41.1504 59.1309 40.5918 59.373 40.0957C59.6191 39.5996 59.959 39.2168 60.3926 38.9473C60.8301 38.6777 61.3281 38.543 61.8867 38.543C62.75 38.543 63.4473 38.8418 63.9785 39.4395C64.5137 40.0371 64.7812 40.832 64.7812 41.8242V41.9004C64.7812 42.5176 64.6621 43.0723 64.4238 43.5645C64.1895 44.0527 63.8516 44.4336 63.4102 44.707C62.9727 44.9805 62.4688 45.1172 61.8984 45.1172C61.0391 45.1172 60.3418 44.8184 59.8066 44.2207C59.2754 43.623 59.0098 42.832 59.0098 41.8477V41.7715ZM60.0996 41.9004C60.0996 42.6035 60.2617 43.168 60.5859 43.5938C60.9141 44.0195 61.3516 44.2324 61.8984 44.2324C62.4492 44.2324 62.8867 44.0176 63.2109 43.5879C63.5352 43.1543 63.6973 42.5488 63.6973 41.7715C63.6973 41.0762 63.5312 40.5137 63.1992 40.084C62.8711 39.6504 62.4336 39.4336 61.8867 39.4336C61.3516 39.4336 60.9199 39.6465 60.5918 40.0723C60.2637 40.498 60.0996 41.1074 60.0996 41.9004ZM67.166 38.6602L67.2012 39.457C67.6855 38.8477 68.3184 38.543 69.0996 38.543C70.4395 38.543 71.1152 39.2988 71.127 40.8105V45H70.043V40.8047C70.0391 40.3477 69.9336 40.0098 69.7266 39.791C69.5234 39.5723 69.2051 39.4629 68.7715 39.4629C68.4199 39.4629 68.1113 39.5566 67.8457 39.7441C67.5801 39.9316 67.373 40.1777 67.2246 40.4824V45H66.1406V38.6602H67.166ZM78.2812 44.2324C78.668 44.2324 79.0059 44.1152 79.2949 43.8809C79.584 43.6465 79.7441 43.3535 79.7754 43.002H80.8008C80.7812 43.3652 80.6562 43.7109 80.4258 44.0391C80.1953 44.3672 79.8867 44.6289 79.5 44.8242C79.1172 45.0195 78.7109 45.1172 78.2812 45.1172C77.418 45.1172 76.7305 44.8301 76.2188 44.2559C75.7109 43.6777 75.457 42.8887 75.457 41.8887V41.707C75.457 41.0898 75.5703 40.541 75.7969 40.0605C76.0234 39.5801 76.3477 39.207 76.7695 38.9414C77.1953 38.6758 77.6973 38.543 78.2754 38.543C78.9863 38.543 79.5762 38.7559 80.0449 39.1816C80.5176 39.6074 80.7695 40.1602 80.8008 40.8398H79.7754C79.7441 40.4297 79.5879 40.0938 79.3066 39.832C79.0293 39.5664 78.6855 39.4336 78.2754 39.4336C77.7246 39.4336 77.2969 39.6328 76.9922 40.0312C76.6914 40.4258 76.541 40.998 76.541 41.748V41.9531C76.541 42.6836 76.6914 43.2461 76.9922 43.6406C77.293 44.0352 77.7227 44.2324 78.2812 44.2324ZM81.7324 41.7715C81.7324 41.1504 81.8535 40.5918 82.0957 40.0957C82.3418 39.5996 82.6816 39.2168 83.1152 38.9473C83.5527 38.6777 84.0508 38.543 84.6094 38.543C85.4727 38.543 86.1699 38.8418 86.7012 39.4395C87.2363 40.0371 87.5039 40.832 87.5039 41.8242V41.9004C87.5039 42.5176 87.3848 43.0723 87.1465 43.5645C86.9121 44.0527 86.5742 44.4336 86.1328 44.707C85.6953 44.9805 85.1914 45.1172 84.6211 45.1172C83.7617 45.1172 83.0645 44.8184 82.5293 44.2207C81.998 43.623 81.7324 42.832 81.7324 41.8477V41.7715ZM82.8223 41.9004C82.8223 42.6035 82.9844 43.168 83.3086 43.5938C83.6367 44.0195 84.0742 44.2324 84.6211 44.2324C85.1719 44.2324 85.6094 44.0176 85.9336 43.5879C86.2578 43.1543 86.4199 42.5488 86.4199 41.7715C86.4199 41.0762 86.2539 40.5137 85.9219 40.084C85.5938 39.6504 85.1562 39.4336 84.6094 39.4336C84.0742 39.4336 83.6426 39.6465 83.3145 40.0723C82.9863 40.498 82.8223 41.1074 82.8223 41.9004ZM89.8887 38.6602L89.9238 39.457C90.4082 38.8477 91.041 38.543 91.8223 38.543C93.1621 38.543 93.8379 39.2988 93.8496 40.8105V45H92.7656V40.8047C92.7617 40.3477 92.6562 40.0098 92.4492 39.791C92.2461 39.5723 91.9277 39.4629 91.4941 39.4629C91.1426 39.4629 90.834 39.5566 90.5684 39.7441C90.3027 39.9316 90.0957 40.1777 89.9473 40.4824V45H88.8633V38.6602H89.8887ZM96.9551 37.125V38.6602H98.1387V39.498H96.9551V43.4297C96.9551 43.6836 97.0078 43.875 97.1133 44.0039C97.2188 44.1289 97.3984 44.1914 97.6523 44.1914C97.7773 44.1914 97.9492 44.168 98.168 44.1211V45C97.8828 45.0781 97.6055 45.1172 97.3359 45.1172C96.8516 45.1172 96.4863 44.9707 96.2402 44.6777C95.9941 44.3848 95.8711 43.9688 95.8711 43.4297V39.498H94.7168V38.6602H95.8711V37.125H96.9551ZM102.041 45.1172C101.182 45.1172 100.482 44.8359 99.9434 44.2734C99.4043 43.707 99.1348 42.9512 99.1348 42.0059V41.8066C99.1348 41.1777 99.2539 40.6172 99.4922 40.125C99.7344 39.6289 100.07 39.2422 100.5 38.9648C100.934 38.6836 101.402 38.543 101.906 38.543C102.73 38.543 103.371 38.8145 103.828 39.3574C104.285 39.9004 104.514 40.6777 104.514 41.6895V42.1406H100.219C100.234 42.7656 100.416 43.2715 100.764 43.6582C101.115 44.041 101.561 44.2324 102.1 44.2324C102.482 44.2324 102.807 44.1543 103.072 43.998C103.338 43.8418 103.57 43.6348 103.77 43.377L104.432 43.8926C103.9 44.709 103.104 45.1172 102.041 45.1172ZM101.906 39.4336C101.469 39.4336 101.102 39.5938 100.805 39.9141C100.508 40.2305 100.324 40.6758 100.254 41.25H103.43V41.168C103.398 40.6172 103.25 40.1914 102.984 39.8906C102.719 39.5859 102.359 39.4336 101.906 39.4336ZM107.9 40.9746L109.307 38.6602H110.572L108.498 41.7949L110.637 45H109.383L107.918 42.627L106.453 45H105.193L107.332 41.7949L105.258 38.6602H106.512L107.9 40.9746ZM113.197 37.125V38.6602H114.381V39.498H113.197V43.4297C113.197 43.6836 113.25 43.875 113.355 44.0039C113.461 44.1289 113.641 44.1914 113.895 44.1914C114.02 44.1914 114.191 44.168 114.41 44.1211V45C114.125 45.0781 113.848 45.1172 113.578 45.1172C113.094 45.1172 112.729 44.9707 112.482 44.6777C112.236 44.3848 112.113 43.9688 112.113 43.4297V39.498H110.959V38.6602H112.113V37.125H113.197Z" fill="black"/>
<path d="M55.5814 59.972H53.9374V59.228L55.6174 59.168L55.7494 57.536H56.5654V59.168H59.4334V59.972H56.5654V62.744C56.5654 63.008 56.5894 63.24 56.6374 63.44C56.6854 63.632 56.7654 63.796 56.8774 63.932C56.9894 64.068 57.1414 64.172 57.3334 64.244C57.5254 64.308 57.7614 64.34 58.0414 64.34C58.3214 64.34 58.5734 64.316 58.7974 64.268C59.0214 64.22 59.2374 64.156 59.4454 64.076L59.6614 64.796C59.3974 64.892 59.1054 64.972 58.7854 65.036C58.4654 65.108 58.1454 65.144 57.8254 65.144C57.4014 65.144 57.0454 65.088 56.7574 64.976C56.4694 64.856 56.2374 64.692 56.0614 64.484C55.8934 64.268 55.7694 64.012 55.6894 63.716C55.6174 63.42 55.5814 63.092 55.5814 62.732V59.972ZM61.4207 56.456H62.4047V58.784L62.3567 60.164C62.6687 59.836 63.0007 59.564 63.3527 59.348C63.7047 59.132 64.1087 59.024 64.5647 59.024C65.2607 59.024 65.7687 59.224 66.0887 59.624C66.4167 60.016 66.5807 60.6 66.5807 61.376V65H65.5967V61.508C65.5967 60.956 65.4927 60.548 65.2847 60.284C65.0767 60.012 64.7327 59.876 64.2527 59.876C64.0767 59.876 63.9127 59.9 63.7607 59.948C63.6167 59.988 63.4727 60.052 63.3287 60.14C63.1847 60.228 63.0367 60.34 62.8847 60.476C62.7327 60.604 62.5727 60.756 62.4047 60.932V65H61.4207V56.456ZM68.58 59.168H72.276V65H71.292V59.972H68.58V59.168ZM71.676 57.968C71.444 57.968 71.252 57.9 71.1 57.764C70.956 57.628 70.884 57.444 70.884 57.212C70.884 56.98 70.956 56.796 71.1 56.66C71.252 56.516 71.444 56.444 71.676 56.444C71.9 56.444 72.088 56.516 72.24 56.66C72.392 56.796 72.468 56.98 72.468 57.212C72.468 57.444 72.392 57.628 72.24 57.764C72.088 57.9 71.9 57.968 71.676 57.968ZM76.0393 63.584C76.3673 63.824 76.7193 64.016 77.0953 64.16C77.4713 64.304 77.9233 64.376 78.4513 64.376C78.9793 64.376 79.3713 64.288 79.6273 64.112C79.8833 63.936 80.0113 63.72 80.0113 63.464C80.0113 63.24 79.8713 63.04 79.5913 62.864C79.3193 62.688 78.8273 62.512 78.1153 62.336C77.8113 62.264 77.5233 62.176 77.2513 62.072C76.9873 61.968 76.7553 61.848 76.5553 61.712C76.3553 61.568 76.1953 61.412 76.0753 61.244C75.9553 61.076 75.8953 60.888 75.8953 60.68C75.8953 60.448 75.9473 60.232 76.0513 60.032C76.1553 59.824 76.3073 59.648 76.5073 59.504C76.7153 59.352 76.9713 59.236 77.2753 59.156C77.5873 59.068 77.9433 59.024 78.3433 59.024C78.7833 59.024 79.2113 59.1 79.6273 59.252C80.0433 59.396 80.3953 59.568 80.6833 59.768L80.2033 60.404C79.9473 60.22 79.6633 60.072 79.3513 59.96C79.0393 59.848 78.7033 59.792 78.3433 59.792C78.0713 59.792 77.8433 59.816 77.6593 59.864C77.4753 59.904 77.3273 59.964 77.2153 60.044C77.1033 60.116 77.0233 60.204 76.9753 60.308C76.9273 60.412 76.9033 60.52 76.9033 60.632C76.9033 60.872 77.0673 61.072 77.3953 61.232C77.7233 61.384 78.1513 61.528 78.6793 61.664C79.4713 61.864 80.0553 62.092 80.4313 62.348C80.8153 62.604 81.0073 62.956 81.0073 63.404C81.0073 63.644 80.9513 63.868 80.8393 64.076C80.7273 64.284 80.5593 64.468 80.3353 64.628C80.1193 64.788 79.8473 64.912 79.5193 65C79.1993 65.096 78.8313 65.144 78.4153 65.144C77.8393 65.144 77.3073 65.056 76.8193 64.88C76.3393 64.696 75.9193 64.48 75.5593 64.232L76.0393 63.584Z" fill="black"/>
<path d="M199.354 63.3536C199.549 63.1583 199.549 62.8417 199.354 62.6464L196.172 59.4645C195.976 59.2692 195.66 59.2692 195.464 59.4645C195.269 59.6597 195.269 59.9763 195.464 60.1716L198.293 63L195.464 65.8284C195.269 66.0237 195.269 66.3403 195.464 66.5355C195.66 66.7308 195.976 66.7308 196.172 66.5355L199.354 63.3536ZM85 63.5H199V62.5H85V63.5Z" fill="#B5B5B5"/>
<path d="M199.354 62.3536C199.549 62.1583 199.549 61.8417 199.354 61.6464L196.172 58.4645C195.976 58.2692 195.66 58.2692 195.464 58.4645C195.269 58.6597 195.269 58.9763 195.464 59.1716L198.293 62L195.464 64.8284C195.269 65.0237 195.269 65.3403 195.464 65.5355C195.66 65.7308 195.976 65.7308 196.172 65.5355L199.354 62.3536ZM85 62.5H199V61.5H85V62.5Z" fill="black"/>
</svg>
