<svg width="277" height="135" viewBox="0 0 277 135" fill="none" xmlns="http://www.w3.org/2000/svg">
<rect x="184" y="104" width="93" height="31" fill="#C4C4C4"/>
<path d="M209.51 110.168H210.518L211.226 113.54C211.282 113.82 211.334 114.092 211.382 114.356C211.43 114.62 211.474 114.888 211.514 115.16H211.562C211.618 114.888 211.674 114.62 211.73 114.356C211.786 114.084 211.846 113.812 211.91 113.54L212.618 110.516H213.458L214.178 113.54C214.242 113.82 214.302 114.092 214.358 114.356C214.414 114.62 214.474 114.888 214.538 115.16H214.586C214.642 114.888 214.69 114.62 214.73 114.356C214.778 114.092 214.826 113.82 214.874 113.54L215.582 110.168H216.518L215.246 116H214.058L213.362 113.048C213.306 112.768 213.254 112.492 213.206 112.22C213.158 111.94 213.102 111.652 213.038 111.356H212.99C212.942 111.612 212.894 111.876 212.846 112.148C212.798 112.42 212.738 112.724 212.666 113.06L211.994 116H210.818L209.51 110.168ZM217.689 110.168H221.385V116H220.401V110.972H217.689V110.168ZM220.785 108.968C220.553 108.968 220.361 108.9 220.209 108.764C220.065 108.628 219.993 108.444 219.993 108.212C219.993 107.98 220.065 107.796 220.209 107.66C220.361 107.516 220.553 107.444 220.785 107.444C221.009 107.444 221.197 107.516 221.349 107.66C221.501 107.796 221.577 107.98 221.577 108.212C221.577 108.444 221.501 108.628 221.349 108.764C221.197 108.9 221.009 108.968 220.785 108.968ZM224.921 110.168H225.737L225.821 111.164H225.869C226.173 110.836 226.501 110.564 226.853 110.348C227.205 110.132 227.609 110.024 228.065 110.024C228.761 110.024 229.269 110.224 229.589 110.624C229.917 111.016 230.081 111.6 230.081 112.376V116H229.097V112.508C229.097 111.956 228.993 111.548 228.785 111.284C228.577 111.012 228.233 110.876 227.753 110.876C227.577 110.876 227.413 110.9 227.261 110.948C227.117 110.988 226.973 111.052 226.829 111.14C226.685 111.228 226.537 111.34 226.385 111.476C226.233 111.604 226.073 111.756 225.905 111.932V116H224.921V110.168ZM231.72 113.096C231.72 112.624 231.792 112.2 231.936 111.824C232.088 111.44 232.284 111.116 232.524 110.852C232.772 110.588 233.056 110.384 233.376 110.24C233.696 110.096 234.028 110.024 234.372 110.024C234.732 110.024 235.048 110.092 235.32 110.228C235.592 110.364 235.864 110.548 236.136 110.78L236.1 109.7V107.456H237.084V116H236.268L236.184 115.232H236.148C235.908 115.48 235.62 115.696 235.284 115.88C234.956 116.056 234.612 116.144 234.252 116.144C233.868 116.144 233.52 116.076 233.208 115.94C232.904 115.804 232.64 115.608 232.416 115.352C232.192 115.088 232.02 114.768 231.9 114.392C231.78 114.016 231.72 113.584 231.72 113.096ZM232.74 113.084C232.74 113.788 232.888 114.336 233.184 114.728C233.488 115.12 233.912 115.316 234.456 115.316C235.032 115.316 235.58 115.024 236.1 114.44V111.536C235.836 111.288 235.576 111.112 235.32 111.008C235.072 110.904 234.82 110.852 234.564 110.852C234.308 110.852 234.068 110.908 233.844 111.02C233.628 111.124 233.436 111.276 233.268 111.476C233.108 111.668 232.98 111.9 232.884 112.172C232.788 112.444 232.74 112.748 232.74 113.084ZM238.915 113.096C238.915 112.608 238.991 112.176 239.143 111.8C239.303 111.416 239.515 111.092 239.779 110.828C240.043 110.564 240.347 110.364 240.691 110.228C241.043 110.092 241.411 110.024 241.795 110.024C242.179 110.024 242.543 110.092 242.887 110.228C243.239 110.364 243.547 110.564 243.811 110.828C244.075 111.092 244.283 111.416 244.435 111.8C244.595 112.176 244.675 112.608 244.675 113.096C244.675 113.576 244.595 114.008 244.435 114.392C244.283 114.768 244.075 115.088 243.811 115.352C243.547 115.608 243.239 115.804 242.887 115.94C242.543 116.076 242.179 116.144 241.795 116.144C241.411 116.144 241.043 116.076 240.691 115.94C240.347 115.804 240.043 115.608 239.779 115.352C239.515 115.088 239.303 114.768 239.143 114.392C238.991 114.008 238.915 113.576 238.915 113.096ZM239.935 113.096C239.935 113.432 239.979 113.736 240.067 114.008C240.155 114.28 240.279 114.516 240.439 114.716C240.607 114.908 240.803 115.06 241.027 115.172C241.259 115.276 241.515 115.328 241.795 115.328C242.075 115.328 242.327 115.276 242.551 115.172C242.783 115.06 242.979 114.908 243.139 114.716C243.307 114.516 243.435 114.28 243.523 114.008C243.611 113.736 243.655 113.432 243.655 113.096C243.655 112.76 243.611 112.456 243.523 112.184C243.435 111.904 243.307 111.664 243.139 111.464C242.979 111.264 242.783 111.112 242.551 111.008C242.327 110.896 242.075 110.84 241.795 110.84C241.515 110.84 241.259 110.896 241.027 111.008C240.803 111.112 240.607 111.264 240.439 111.464C240.279 111.664 240.155 111.904 240.067 112.184C239.979 112.456 239.935 112.76 239.935 113.096ZM245.487 110.168H246.495L247.203 113.54C247.259 113.82 247.311 114.092 247.359 114.356C247.407 114.62 247.451 114.888 247.491 115.16H247.539C247.595 114.888 247.651 114.62 247.707 114.356C247.763 114.084 247.823 113.812 247.887 113.54L248.595 110.516H249.435L250.155 113.54C250.219 113.82 250.279 114.092 250.335 114.356C250.391 114.62 250.451 114.888 250.515 115.16H250.563C250.619 114.888 250.667 114.62 250.707 114.356C250.755 114.092 250.803 113.82 250.851 113.54L251.559 110.168H252.495L251.223 116H250.035L249.339 113.048C249.283 112.768 249.231 112.492 249.183 112.22C249.135 111.94 249.079 111.652 249.015 111.356H248.967C248.919 111.612 248.871 111.876 248.823 112.148C248.775 112.42 248.715 112.724 248.643 113.06L247.971 116H246.795L245.487 110.168Z" fill="black"/>
<path d="M209.414 117.2H252.591V117.8H209.414V117.2Z" fill="black"/>
<rect x="184" y="59" width="93" height="43" fill="#C4C4C4"/>
<path d="M207.892 85.496C207.892 85.6453 207.98 85.7573 208.156 85.832C208.337 85.912 208.585 85.952 208.9 85.952C209.22 85.952 209.478 85.904 209.676 85.808C209.873 85.7173 209.972 85.6027 209.972 85.464C209.972 85.336 209.913 85.2507 209.796 85.208C209.678 85.1707 209.505 85.152 209.276 85.152H208.78C208.636 85.152 208.516 85.1467 208.42 85.136C208.329 85.1307 208.246 85.12 208.172 85.104C208.07 85.168 207.998 85.2293 207.956 85.288C207.913 85.352 207.892 85.4213 207.892 85.496ZM206.932 85.672C206.932 85.3467 207.137 85.0827 207.548 84.88V84.848C207.441 84.7787 207.348 84.6907 207.268 84.584C207.188 84.4773 207.148 84.3387 207.148 84.168C207.148 84.0347 207.19 83.9013 207.276 83.768C207.366 83.6347 207.481 83.52 207.62 83.424V83.392C207.476 83.296 207.353 83.1627 207.252 82.992C207.15 82.816 207.1 82.6107 207.1 82.376C207.1 82.136 207.145 81.928 207.236 81.752C207.332 81.5707 207.457 81.4213 207.612 81.304C207.766 81.1813 207.945 81.0907 208.148 81.032C208.356 80.968 208.572 80.936 208.796 80.936C209.041 80.936 209.26 80.968 209.452 81.032H211.06V81.888H210.252C210.3 81.9467 210.342 82.024 210.38 82.12C210.417 82.2107 210.436 82.3093 210.436 82.416C210.436 82.6453 210.393 82.8427 210.308 83.008C210.222 83.1733 210.105 83.312 209.956 83.424C209.812 83.5307 209.638 83.6107 209.436 83.664C209.238 83.7173 209.025 83.744 208.796 83.744C208.625 83.744 208.444 83.7173 208.252 83.664C208.193 83.7067 208.148 83.7493 208.116 83.792C208.089 83.8347 208.076 83.888 208.076 83.952C208.076 84.0587 208.129 84.136 208.236 84.184C208.342 84.232 208.513 84.256 208.748 84.256H209.484C210.006 84.256 210.404 84.3333 210.676 84.488C210.953 84.6427 211.092 84.8987 211.092 85.256C211.092 85.464 211.036 85.656 210.924 85.832C210.812 86.008 210.654 86.1573 210.452 86.28C210.249 86.408 210.001 86.5067 209.708 86.576C209.414 86.6507 209.089 86.688 208.732 86.688C208.476 86.688 208.236 86.6667 208.012 86.624C207.793 86.5867 207.604 86.5253 207.444 86.44C207.284 86.36 207.158 86.256 207.068 86.128C206.977 86 206.932 85.848 206.932 85.672ZM208.796 83.032C208.961 83.032 209.102 82.9787 209.22 82.872C209.342 82.76 209.404 82.5947 209.404 82.376C209.404 82.1627 209.342 82.0027 209.22 81.896C209.102 81.784 208.961 81.728 208.796 81.728C208.63 81.728 208.489 81.784 208.372 81.896C208.26 82.0027 208.204 82.1627 208.204 82.376C208.204 82.5947 208.26 82.76 208.372 82.872C208.489 82.9787 208.63 83.032 208.796 83.032ZM211.753 83.016C211.753 82.6907 211.809 82.4 211.921 82.144C212.038 81.888 212.193 81.672 212.385 81.496C212.577 81.3147 212.795 81.176 213.041 81.08C213.291 80.984 213.55 80.936 213.817 80.936C214.121 80.936 214.39 80.984 214.625 81.08C214.859 81.176 215.054 81.3093 215.209 81.48C215.363 81.6507 215.481 81.8533 215.561 82.088C215.641 82.3173 215.681 82.568 215.681 82.84C215.681 82.9467 215.675 83.048 215.665 83.144C215.654 83.24 215.643 83.312 215.633 83.36H212.961C213.003 83.6587 213.131 83.8747 213.345 84.008C213.563 84.136 213.819 84.2 214.113 84.2C214.294 84.2 214.465 84.1787 214.625 84.136C214.79 84.088 214.961 84.0187 215.137 83.928L215.521 84.632C215.297 84.776 215.046 84.8907 214.769 84.976C214.491 85.056 214.219 85.096 213.953 85.096C213.643 85.096 213.355 85.0507 213.089 84.96C212.822 84.864 212.59 84.728 212.393 84.552C212.195 84.3707 212.038 84.152 211.921 83.896C211.809 83.64 211.753 83.3467 211.753 83.016ZM214.617 82.584C214.617 82.36 214.555 82.1787 214.433 82.04C214.31 81.9013 214.113 81.832 213.841 81.832C213.627 81.832 213.438 81.8933 213.273 82.016C213.107 82.1387 212.998 82.328 212.945 82.584H214.617ZM217.501 81.952H216.501V81.08L217.557 81.032L217.709 79.976H218.677V81.032H220.357V81.952H218.677V83.344C218.677 83.648 218.744 83.864 218.877 83.992C219.011 84.1147 219.221 84.176 219.509 84.176C219.664 84.176 219.805 84.1627 219.933 84.136C220.061 84.1093 220.184 84.0747 220.301 84.032L220.509 84.88C220.333 84.9333 220.136 84.9813 219.917 85.024C219.704 85.072 219.469 85.096 219.213 85.096C218.899 85.096 218.632 85.0533 218.413 84.968C218.195 84.8827 218.016 84.7653 217.877 84.616C217.744 84.4613 217.648 84.2773 217.589 84.064C217.531 83.8507 217.501 83.6133 217.501 83.352V81.952ZM222.714 80.776H221.154V79.784H225.458V80.776H223.898V85H222.714V80.776ZM226.279 79.392H227.455V80.768L227.391 81.528C227.471 81.4533 227.556 81.3813 227.647 81.312C227.743 81.2373 227.844 81.1733 227.951 81.12C228.063 81.0613 228.183 81.016 228.311 80.984C228.444 80.952 228.586 80.936 228.735 80.936C229.183 80.936 229.508 81.08 229.711 81.368C229.919 81.656 230.023 82.0507 230.023 82.552V85H228.847V82.704C228.847 82.4373 228.804 82.2427 228.719 82.12C228.634 81.9973 228.482 81.936 228.263 81.936C228.103 81.936 227.962 81.9707 227.839 82.04C227.722 82.1093 227.594 82.2133 227.455 82.352V85H226.279V79.392ZM231.132 81.032H233.9V85H232.724V81.952H231.132V81.032ZM233.26 80.448C233.031 80.448 232.841 80.384 232.692 80.256C232.548 80.128 232.476 79.9547 232.476 79.736C232.476 79.5173 232.548 79.3413 232.692 79.208C232.841 79.0693 233.031 79 233.26 79C233.489 79 233.676 79.0693 233.82 79.208C233.969 79.3413 234.044 79.5173 234.044 79.736C234.044 79.9547 233.969 80.128 233.82 80.256C233.676 80.384 233.489 80.448 233.26 80.448ZM236.249 83.752C236.478 83.896 236.708 84.0107 236.937 84.096C237.172 84.1813 237.422 84.224 237.689 84.224C237.961 84.224 238.156 84.1947 238.273 84.136C238.39 84.0773 238.449 83.9947 238.449 83.888C238.449 83.7653 238.35 83.6667 238.153 83.592C237.961 83.512 237.705 83.4267 237.385 83.336C237.209 83.288 237.036 83.232 236.865 83.168C236.7 83.0987 236.55 83.0187 236.417 82.928C236.284 82.832 236.174 82.7227 236.089 82.6C236.009 82.4773 235.969 82.336 235.969 82.176C235.969 81.9947 236.012 81.8267 236.097 81.672C236.182 81.5173 236.302 81.3867 236.457 81.28C236.617 81.1733 236.809 81.0907 237.033 81.032C237.262 80.968 237.518 80.936 237.801 80.936C238.153 80.936 238.473 80.9947 238.761 81.112C239.054 81.224 239.305 81.3467 239.513 81.48L238.985 82.184C238.804 82.0773 238.617 81.9893 238.425 81.92C238.233 81.8453 238.033 81.808 237.825 81.808C237.574 81.808 237.396 81.8347 237.289 81.888C237.188 81.9413 237.137 82.0187 237.137 82.12C237.137 82.1787 237.164 82.232 237.217 82.28C237.27 82.328 237.342 82.3707 237.433 82.408C237.524 82.4453 237.63 82.4827 237.753 82.52C237.881 82.552 238.014 82.5867 238.153 82.624C238.35 82.6773 238.537 82.7387 238.713 82.808C238.889 82.872 239.044 82.9493 239.177 83.04C239.31 83.1307 239.417 83.24 239.497 83.368C239.577 83.496 239.617 83.6453 239.617 83.816C239.617 83.9973 239.574 84.1653 239.489 84.32C239.404 84.4747 239.278 84.6107 239.113 84.728C238.953 84.84 238.75 84.9307 238.505 85C238.265 85.064 237.985 85.096 237.665 85.096C237.308 85.096 236.958 85.0373 236.617 84.92C236.276 84.8027 235.977 84.6587 235.721 84.488L236.249 83.752ZM241.566 81.576C241.566 81.4427 241.587 81.32 241.63 81.208C241.678 81.0907 241.742 80.9893 241.822 80.904C241.902 80.8187 241.998 80.752 242.11 80.704C242.227 80.656 242.355 80.632 242.494 80.632C242.632 80.632 242.758 80.656 242.87 80.704C242.987 80.752 243.086 80.8187 243.166 80.904C243.246 80.9893 243.307 81.0907 243.35 81.208C243.398 81.32 243.422 81.4427 243.422 81.576C243.422 81.8427 243.336 82.0667 243.166 82.248C242.995 82.424 242.771 82.512 242.494 82.512C242.216 82.512 241.992 82.424 241.822 82.248C241.651 82.0667 241.566 81.8427 241.566 81.576ZM241.566 84.16C241.566 84.0267 241.587 83.904 241.63 83.792C241.678 83.6747 241.742 83.5733 241.822 83.488C241.902 83.4027 241.998 83.336 242.11 83.288C242.227 83.24 242.355 83.216 242.494 83.216C242.632 83.216 242.758 83.24 242.87 83.288C242.987 83.336 243.086 83.4027 243.166 83.488C243.246 83.5733 243.307 83.6747 243.35 83.792C243.398 83.904 243.422 84.0267 243.422 84.16C243.422 84.4267 243.336 84.6507 243.166 84.832C242.995 85.008 242.771 85.096 242.494 85.096C242.216 85.096 241.992 85.008 241.822 84.832C241.651 84.6507 241.566 84.4267 241.566 84.16ZM253.864 80.72C253.805 80.6933 253.738 80.672 253.664 80.656C253.589 80.6347 253.506 80.624 253.416 80.624C253.213 80.624 253.058 80.6827 252.952 80.8C252.85 80.912 252.784 81.0613 252.752 81.248L252.696 81.688H253.616V82.544H252.6L252.416 84.056C252.384 84.296 252.336 84.52 252.272 84.728C252.213 84.936 252.122 85.1173 252 85.272C251.882 85.4267 251.728 85.5467 251.536 85.632C251.349 85.7227 251.112 85.768 250.824 85.768C250.648 85.768 250.493 85.7547 250.36 85.728C250.226 85.7067 250.125 85.6773 250.056 85.64L250.215 84.776C250.349 84.8133 250.493 84.8373 250.648 84.848C250.754 84.8427 250.845 84.824 250.92 84.792C250.994 84.76 251.056 84.7013 251.104 84.616C251.157 84.5307 251.202 84.416 251.24 84.272C251.277 84.128 251.312 83.9413 251.344 83.712L251.48 82.544H250.784V81.736L251.384 81.688H251.576L251.616 81.344C251.658 81.0507 251.72 80.8 251.799 80.592C251.88 80.384 251.986 80.2133 252.12 80.08C252.253 79.9467 252.416 79.848 252.608 79.784C252.805 79.72 253.042 79.688 253.32 79.688C253.373 79.688 253.434 79.6933 253.504 79.704C253.578 79.7093 253.65 79.72 253.72 79.736C253.794 79.7467 253.864 79.7627 253.928 79.784C253.992 79.8 254.045 79.8187 254.088 79.84L253.864 80.72ZM205.069 93.752C205.299 93.896 205.528 94.0107 205.757 94.096C205.992 94.1813 206.243 94.224 206.509 94.224C206.781 94.224 206.976 94.1947 207.093 94.136C207.211 94.0773 207.269 93.9947 207.269 93.888C207.269 93.7653 207.171 93.6667 206.973 93.592C206.781 93.512 206.525 93.4267 206.205 93.336C206.029 93.288 205.856 93.232 205.685 93.168C205.52 93.0987 205.371 93.0187 205.237 92.928C205.104 92.832 204.995 92.7227 204.909 92.6C204.829 92.4773 204.789 92.336 204.789 92.176C204.789 91.9947 204.832 91.8267 204.917 91.672C205.003 91.5173 205.123 91.3867 205.277 91.28C205.437 91.1733 205.629 91.0907 205.853 91.032C206.083 90.968 206.339 90.936 206.621 90.936C206.973 90.936 207.293 90.9947 207.581 91.112C207.875 91.224 208.125 91.3467 208.333 91.48L207.805 92.184C207.624 92.0773 207.437 91.9893 207.245 91.92C207.053 91.8453 206.853 91.808 206.645 91.808C206.395 91.808 206.216 91.8347 206.109 91.888C206.008 91.9413 205.957 92.0187 205.957 92.12C205.957 92.1787 205.984 92.232 206.037 92.28C206.091 92.328 206.163 92.3707 206.253 92.408C206.344 92.4453 206.451 92.4827 206.573 92.52C206.701 92.552 206.835 92.5867 206.973 92.624C207.171 92.6773 207.357 92.7387 207.533 92.808C207.709 92.872 207.864 92.9493 207.997 93.04C208.131 93.1307 208.237 93.24 208.317 93.368C208.397 93.496 208.437 93.6453 208.437 93.816C208.437 93.9973 208.395 94.1653 208.309 94.32C208.224 94.4747 208.099 94.6107 207.933 94.728C207.773 94.84 207.571 94.9307 207.325 95C207.085 95.064 206.805 95.096 206.485 95.096C206.128 95.096 205.779 95.0373 205.437 94.92C205.096 94.8027 204.797 94.6587 204.541 94.488L205.069 93.752ZM209.49 89.392H210.666V90.768L210.602 91.528C210.682 91.4533 210.767 91.3813 210.858 91.312C210.954 91.2373 211.055 91.1733 211.162 91.12C211.274 91.0613 211.394 91.016 211.522 90.984C211.655 90.952 211.797 90.936 211.946 90.936C212.394 90.936 212.719 91.08 212.922 91.368C213.13 91.656 213.234 92.0507 213.234 92.552V95H212.058V92.704C212.058 92.4373 212.015 92.2427 211.93 92.12C211.845 91.9973 211.693 91.936 211.474 91.936C211.314 91.936 211.173 91.9707 211.05 92.04C210.933 92.1093 210.805 92.2133 210.666 92.352V95H209.49V89.392ZM214.087 93.016C214.087 92.6853 214.143 92.392 214.255 92.136C214.367 91.8747 214.516 91.656 214.703 91.48C214.895 91.304 215.111 91.1707 215.351 91.08C215.596 90.984 215.85 90.936 216.111 90.936C216.372 90.936 216.623 90.984 216.863 91.08C217.108 91.1707 217.324 91.304 217.511 91.48C217.703 91.656 217.855 91.8747 217.967 92.136C218.079 92.392 218.135 92.6853 218.135 93.016C218.135 93.3467 218.079 93.6427 217.967 93.904C217.855 94.16 217.703 94.376 217.511 94.552C217.324 94.728 217.108 94.864 216.863 94.96C216.623 95.0507 216.372 95.096 216.111 95.096C215.85 95.096 215.596 95.0507 215.351 94.96C215.111 94.864 214.895 94.728 214.703 94.552C214.516 94.376 214.367 94.16 214.255 93.904C214.143 93.6427 214.087 93.3467 214.087 93.016ZM215.295 93.016C215.295 93.3627 215.362 93.6373 215.495 93.84C215.634 94.0427 215.839 94.144 216.111 94.144C216.383 94.144 216.586 94.0427 216.719 93.84C216.858 93.6373 216.927 93.3627 216.927 93.016C216.927 92.6693 216.858 92.3947 216.719 92.192C216.586 91.9893 216.383 91.888 216.111 91.888C215.839 91.888 215.634 91.9893 215.495 92.192C215.362 92.3947 215.295 92.6693 215.295 93.016ZM218.884 93.016C218.884 92.6853 218.94 92.392 219.052 92.136C219.164 91.8747 219.313 91.656 219.5 91.48C219.692 91.304 219.908 91.1707 220.148 91.08C220.393 90.984 220.646 90.936 220.908 90.936C221.169 90.936 221.42 90.984 221.66 91.08C221.905 91.1707 222.121 91.304 222.308 91.48C222.5 91.656 222.652 91.8747 222.764 92.136C222.876 92.392 222.932 92.6853 222.932 93.016C222.932 93.3467 222.876 93.6427 222.764 93.904C222.652 94.16 222.5 94.376 222.308 94.552C222.121 94.728 221.905 94.864 221.66 94.96C221.42 95.0507 221.169 95.096 220.908 95.096C220.646 95.096 220.393 95.0507 220.148 94.96C219.908 94.864 219.692 94.728 219.5 94.552C219.313 94.376 219.164 94.16 219.052 93.904C218.94 93.6427 218.884 93.3467 218.884 93.016ZM220.092 93.016C220.092 93.3627 220.158 93.6373 220.292 93.84C220.43 94.0427 220.636 94.144 220.908 94.144C221.18 94.144 221.382 94.0427 221.516 93.84C221.654 93.6373 221.724 93.3627 221.724 93.016C221.724 92.6693 221.654 92.3947 221.516 92.192C221.382 91.9893 221.18 91.888 220.908 91.888C220.636 91.888 220.43 91.9893 220.292 92.192C220.158 92.3947 220.092 92.6693 220.092 93.016ZM224.697 91.952H223.697V91.08L224.753 91.032L224.905 89.976H225.873V91.032H227.553V91.952H225.873V93.344C225.873 93.648 225.939 93.864 226.073 93.992C226.206 94.1147 226.417 94.176 226.705 94.176C226.859 94.176 227.001 94.1627 227.129 94.136C227.257 94.1093 227.379 94.0747 227.497 94.032L227.705 94.88C227.529 94.9333 227.331 94.9813 227.113 95.024C226.899 95.072 226.665 95.096 226.409 95.096C226.094 95.096 225.827 95.0533 225.609 94.968C225.39 94.8827 225.211 94.7653 225.073 94.616C224.939 94.4613 224.843 94.2773 224.785 94.064C224.726 93.8507 224.697 93.6133 224.697 93.352V91.952ZM228.134 89.784H229.334L229.502 92.56C229.507 92.784 229.512 93.0053 229.518 93.224C229.523 93.4427 229.528 93.664 229.534 93.888H229.558C229.6 93.664 229.646 93.4427 229.694 93.224C229.747 93.0053 229.795 92.784 229.838 92.56L230.198 91.112H230.91L231.254 92.56C231.296 92.7733 231.342 92.992 231.39 93.216C231.438 93.44 231.483 93.664 231.526 93.888H231.558C231.568 93.664 231.574 93.4427 231.574 93.224C231.579 93 231.587 92.7787 231.598 92.56L231.75 89.784H232.87L232.222 95H230.99L230.662 93.36C230.63 93.1947 230.6 93.0267 230.574 92.856C230.547 92.68 230.528 92.5147 230.518 92.36H230.494C230.478 92.5147 230.456 92.68 230.43 92.856C230.408 93.0267 230.382 93.1947 230.35 93.36L230.038 95H228.83L228.134 89.784ZM233.338 93.016C233.338 92.6907 233.394 92.4 233.506 92.144C233.624 91.888 233.778 91.672 233.97 91.496C234.162 91.3147 234.381 91.176 234.626 91.08C234.877 90.984 235.136 90.936 235.402 90.936C235.706 90.936 235.976 90.984 236.21 91.08C236.445 91.176 236.64 91.3093 236.794 91.48C236.949 91.6507 237.066 91.8533 237.146 92.088C237.226 92.3173 237.266 92.568 237.266 92.84C237.266 92.9467 237.261 93.048 237.25 93.144C237.24 93.24 237.229 93.312 237.218 93.36H234.546C234.589 93.6587 234.717 93.8747 234.93 94.008C235.149 94.136 235.405 94.2 235.698 94.2C235.88 94.2 236.05 94.1787 236.21 94.136C236.376 94.088 236.546 94.0187 236.722 93.928L237.106 94.632C236.882 94.776 236.632 94.8907 236.354 94.976C236.077 95.056 235.805 95.096 235.538 95.096C235.229 95.096 234.941 95.0507 234.674 94.96C234.408 94.864 234.176 94.728 233.978 94.552C233.781 94.3707 233.624 94.152 233.506 93.896C233.394 93.64 233.338 93.3467 233.338 93.016ZM236.202 92.584C236.202 92.36 236.141 92.1787 236.018 92.04C235.896 91.9013 235.698 91.832 235.426 91.832C235.213 91.832 235.024 91.8933 234.858 92.016C234.693 92.1387 234.584 92.328 234.53 92.584H236.202ZM238.271 89.392H239.447V90.768L239.415 91.392C239.57 91.248 239.743 91.136 239.935 91.056C240.133 90.976 240.327 90.936 240.519 90.936C240.765 90.936 240.986 90.984 241.183 91.08C241.386 91.176 241.554 91.312 241.687 91.488C241.826 91.6587 241.933 91.8693 242.007 92.12C242.082 92.3653 242.119 92.64 242.119 92.944C242.119 93.2853 242.071 93.5893 241.975 93.856C241.879 94.1227 241.751 94.3493 241.591 94.536C241.431 94.7173 241.247 94.856 241.039 94.952C240.837 95.048 240.623 95.096 240.399 95.096C240.213 95.096 240.026 95.0507 239.839 94.96C239.658 94.8693 239.485 94.7387 239.319 94.568H239.287L239.191 95H238.271V89.392ZM239.447 93.872C239.559 93.968 239.674 94.0373 239.791 94.08C239.914 94.1173 240.029 94.136 240.135 94.136C240.354 94.136 240.538 94.0453 240.687 93.864C240.837 93.6773 240.911 93.3787 240.911 92.968C240.911 92.2533 240.669 91.896 240.183 91.896C239.933 91.896 239.687 92.0187 239.447 92.264V93.872ZM243.964 91.576C243.964 91.4427 243.986 91.32 244.028 91.208C244.076 91.0907 244.14 90.9893 244.22 90.904C244.3 90.8187 244.396 90.752 244.508 90.704C244.626 90.656 244.754 90.632 244.892 90.632C245.031 90.632 245.156 90.656 245.268 90.704C245.386 90.752 245.484 90.8187 245.564 90.904C245.644 90.9893 245.706 91.0907 245.748 91.208C245.796 91.32 245.82 91.4427 245.82 91.576C245.82 91.8427 245.735 92.0667 245.564 92.248C245.394 92.424 245.17 92.512 244.892 92.512C244.615 92.512 244.391 92.424 244.22 92.248C244.05 92.0667 243.964 91.8427 243.964 91.576ZM243.964 94.16C243.964 94.0267 243.986 93.904 244.028 93.792C244.076 93.6747 244.14 93.5733 244.22 93.488C244.3 93.4027 244.396 93.336 244.508 93.288C244.626 93.24 244.754 93.216 244.892 93.216C245.031 93.216 245.156 93.24 245.268 93.288C245.386 93.336 245.484 93.4027 245.564 93.488C245.644 93.5733 245.706 93.6747 245.748 93.792C245.796 93.904 245.82 94.0267 245.82 94.16C245.82 94.4267 245.735 94.6507 245.564 94.832C245.394 95.008 245.17 95.096 244.892 95.096C244.615 95.096 244.391 95.008 244.22 94.832C244.05 94.6507 243.964 94.4267 243.964 94.16ZM256.262 90.72C256.203 90.6933 256.137 90.672 256.062 90.656C255.987 90.6347 255.905 90.624 255.814 90.624C255.611 90.624 255.457 90.6827 255.35 90.8C255.249 90.912 255.182 91.0613 255.15 91.248L255.094 91.688H256.014V92.544H254.998L254.814 94.056C254.782 94.296 254.734 94.52 254.67 94.728C254.611 94.936 254.521 95.1173 254.398 95.272C254.281 95.4267 254.126 95.5467 253.934 95.632C253.747 95.7227 253.51 95.768 253.222 95.768C253.046 95.768 252.891 95.7547 252.758 95.728C252.625 95.7067 252.523 95.6773 252.454 95.64L252.614 94.776C252.747 94.8133 252.891 94.8373 253.046 94.848C253.153 94.8427 253.243 94.824 253.318 94.792C253.393 94.76 253.454 94.7013 253.502 94.616C253.555 94.5307 253.601 94.416 253.638 94.272C253.675 94.128 253.71 93.9413 253.742 93.712L253.878 92.544H253.182V91.736L253.782 91.688H253.974L254.014 91.344C254.057 91.0507 254.118 90.8 254.198 90.592C254.278 90.384 254.385 90.2133 254.518 90.08C254.651 89.9467 254.814 89.848 255.006 89.784C255.203 89.72 255.441 89.688 255.718 89.688C255.771 89.688 255.833 89.6933 255.902 89.704C255.977 89.7093 256.049 89.72 256.118 89.736C256.193 89.7467 256.262 89.7627 256.326 89.784C256.39 89.8 256.443 89.8187 256.486 89.84L256.262 90.72Z" fill="black"/>
<path d="M200.465 69.584C200.793 69.824 201.145 70.016 201.521 70.16C201.897 70.304 202.349 70.376 202.877 70.376C203.405 70.376 203.797 70.288 204.053 70.112C204.309 69.936 204.437 69.72 204.437 69.464C204.437 69.24 204.297 69.04 204.017 68.864C203.745 68.688 203.253 68.512 202.541 68.336C202.237 68.264 201.949 68.176 201.677 68.072C201.413 67.968 201.181 67.848 200.981 67.712C200.781 67.568 200.621 67.412 200.501 67.244C200.381 67.076 200.321 66.888 200.321 66.68C200.321 66.448 200.373 66.232 200.477 66.032C200.581 65.824 200.733 65.648 200.933 65.504C201.141 65.352 201.397 65.236 201.701 65.156C202.013 65.068 202.369 65.024 202.769 65.024C203.209 65.024 203.637 65.1 204.053 65.252C204.469 65.396 204.821 65.568 205.109 65.768L204.629 66.404C204.373 66.22 204.089 66.072 203.777 65.96C203.465 65.848 203.129 65.792 202.769 65.792C202.497 65.792 202.269 65.816 202.085 65.864C201.901 65.904 201.753 65.964 201.641 66.044C201.529 66.116 201.449 66.204 201.401 66.308C201.353 66.412 201.329 66.52 201.329 66.632C201.329 66.872 201.493 67.072 201.821 67.232C202.149 67.384 202.577 67.528 203.105 67.664C203.897 67.864 204.481 68.092 204.857 68.348C205.241 68.604 205.433 68.956 205.433 69.404C205.433 69.644 205.377 69.868 205.265 70.076C205.153 70.284 204.985 70.468 204.761 70.628C204.545 70.788 204.273 70.912 203.945 71C203.625 71.096 203.257 71.144 202.841 71.144C202.265 71.144 201.733 71.056 201.245 70.88C200.765 70.696 200.345 70.48 199.985 70.232L200.465 69.584ZM208.416 71.492V73.46H207.432V65.168H208.248L208.332 65.912H208.368C208.64 65.656 208.952 65.444 209.304 65.276C209.664 65.108 210.024 65.024 210.384 65.024C210.776 65.024 211.12 65.096 211.416 65.24C211.72 65.376 211.972 65.576 212.172 65.84C212.38 66.096 212.536 66.408 212.64 66.776C212.744 67.136 212.796 67.544 212.796 68C212.796 68.496 212.724 68.94 212.58 69.332C212.436 69.716 212.24 70.044 211.992 70.316C211.752 70.588 211.472 70.796 211.152 70.94C210.832 71.076 210.496 71.144 210.144 71.144C209.872 71.144 209.576 71.08 209.256 70.952C208.944 70.816 208.656 70.628 208.392 70.388L208.416 71.492ZM208.416 69.632C208.696 69.88 208.976 70.056 209.256 70.16C209.536 70.264 209.776 70.316 209.976 70.316C210.504 70.316 210.936 70.112 211.272 69.704C211.608 69.296 211.776 68.728 211.776 68C211.776 67.68 211.744 67.388 211.68 67.124C211.616 66.86 211.516 66.636 211.38 66.452C211.252 66.26 211.084 66.112 210.876 66.008C210.668 65.904 210.42 65.852 210.132 65.852C209.876 65.852 209.6 65.924 209.304 66.068C209.016 66.204 208.72 66.424 208.416 66.728V69.632ZM214.592 65.168H218.288V71H217.304V65.972H214.592V65.168ZM217.688 63.968C217.456 63.968 217.264 63.9 217.112 63.764C216.968 63.628 216.896 63.444 216.896 63.212C216.896 62.98 216.968 62.796 217.112 62.66C217.264 62.516 217.456 62.444 217.688 62.444C217.912 62.444 218.1 62.516 218.252 62.66C218.404 62.796 218.48 62.98 218.48 63.212C218.48 63.444 218.404 63.628 218.252 63.764C218.1 63.9 217.912 63.968 217.688 63.968ZM221.427 68.096C221.427 67.624 221.499 67.2 221.643 66.824C221.795 66.44 221.991 66.116 222.231 65.852C222.479 65.588 222.763 65.384 223.083 65.24C223.403 65.096 223.735 65.024 224.079 65.024C224.439 65.024 224.755 65.092 225.027 65.228C225.299 65.364 225.571 65.548 225.843 65.78L225.807 64.7V62.456H226.791V71H225.975L225.891 70.232H225.855C225.615 70.48 225.327 70.696 224.991 70.88C224.663 71.056 224.319 71.144 223.959 71.144C223.575 71.144 223.227 71.076 222.915 70.94C222.611 70.804 222.347 70.608 222.123 70.352C221.899 70.088 221.727 69.768 221.607 69.392C221.487 69.016 221.427 68.584 221.427 68.096ZM222.447 68.084C222.447 68.788 222.595 69.336 222.891 69.728C223.195 70.12 223.619 70.316 224.163 70.316C224.739 70.316 225.287 70.024 225.807 69.44V66.536C225.543 66.288 225.283 66.112 225.027 66.008C224.779 65.904 224.527 65.852 224.271 65.852C224.015 65.852 223.775 65.908 223.551 66.02C223.335 66.124 223.143 66.276 222.975 66.476C222.815 66.668 222.687 66.9 222.591 67.172C222.495 67.444 222.447 67.748 222.447 68.084ZM228.73 68.096C228.73 67.616 228.814 67.188 228.982 66.812C229.15 66.428 229.37 66.104 229.642 65.84C229.922 65.576 230.238 65.376 230.59 65.24C230.95 65.096 231.318 65.024 231.694 65.024C232.11 65.024 232.482 65.092 232.81 65.228C233.138 65.356 233.414 65.54 233.638 65.78C233.87 66.02 234.046 66.308 234.166 66.644C234.286 66.98 234.346 67.352 234.346 67.76C234.346 67.864 234.342 67.968 234.334 68.072C234.334 68.168 234.326 68.252 234.31 68.324H229.75C229.758 68.636 229.818 68.916 229.93 69.164C230.05 69.412 230.206 69.624 230.398 69.8C230.598 69.976 230.83 70.112 231.094 70.208C231.366 70.304 231.662 70.352 231.982 70.352C232.326 70.352 232.638 70.304 232.918 70.208C233.206 70.112 233.486 69.98 233.758 69.812L234.106 70.46C233.818 70.644 233.49 70.804 233.122 70.94C232.754 71.076 232.334 71.144 231.862 71.144C231.43 71.144 231.022 71.076 230.638 70.94C230.262 70.796 229.93 70.596 229.642 70.34C229.362 70.076 229.138 69.756 228.97 69.38C228.81 69.004 228.73 68.576 228.73 68.096ZM233.434 67.616C233.434 67.032 233.282 66.584 232.978 66.272C232.674 65.96 232.25 65.804 231.706 65.804C231.466 65.804 231.234 65.844 231.01 65.924C230.794 66.004 230.598 66.124 230.422 66.284C230.246 66.436 230.098 66.624 229.978 66.848C229.858 67.072 229.778 67.328 229.738 67.616H233.434ZM236.85 65.168H237.666L237.75 66.548H237.786C238.09 66.076 238.462 65.704 238.902 65.432C239.35 65.16 239.846 65.024 240.39 65.024C240.606 65.024 240.806 65.044 240.99 65.084C241.174 65.116 241.358 65.176 241.542 65.264L241.314 66.116C241.106 66.044 240.93 65.992 240.786 65.96C240.65 65.928 240.466 65.912 240.234 65.912C239.794 65.912 239.37 66.04 238.962 66.296C238.562 66.544 238.186 66.972 237.834 67.58V71H236.85V65.168ZM243.013 65.168H243.781L243.865 65.936H243.901C244.045 65.664 244.213 65.444 244.405 65.276C244.605 65.108 244.873 65.024 245.209 65.024C245.801 65.024 246.169 65.36 246.313 66.032C246.489 65.728 246.681 65.484 246.889 65.3C247.097 65.116 247.365 65.024 247.693 65.024C248.101 65.024 248.413 65.18 248.629 65.492C248.853 65.796 248.965 66.24 248.965 66.824V71H248.017V66.908C248.017 66.22 247.805 65.876 247.381 65.876C247.173 65.876 246.993 65.952 246.841 66.104C246.689 66.248 246.537 66.472 246.385 66.776V71H245.593V66.908C245.593 66.22 245.373 65.876 244.933 65.876C244.725 65.876 244.549 65.952 244.405 66.104C244.261 66.248 244.113 66.472 243.961 66.776V71H243.013V65.168ZM250.46 69.488C250.46 69.16 250.536 68.876 250.688 68.636C250.848 68.388 251.096 68.176 251.432 68C251.776 67.824 252.216 67.68 252.752 67.568C253.288 67.456 253.932 67.368 254.684 67.304C254.676 67.104 254.644 66.916 254.588 66.74C254.532 66.564 254.444 66.412 254.324 66.284C254.204 66.148 254.044 66.04 253.844 65.96C253.652 65.88 253.416 65.84 253.136 65.84C252.752 65.84 252.384 65.916 252.032 66.068C251.68 66.212 251.368 66.368 251.096 66.536L250.712 65.864C250.856 65.768 251.024 65.672 251.216 65.576C251.416 65.472 251.624 65.38 251.84 65.3C252.064 65.22 252.3 65.156 252.548 65.108C252.796 65.052 253.048 65.024 253.304 65.024C254.104 65.024 254.696 65.244 255.08 65.684C255.472 66.116 255.668 66.696 255.668 67.424V71H254.864L254.78 70.208H254.744C254.416 70.464 254.052 70.684 253.652 70.868C253.26 71.052 252.856 71.144 252.44 71.144C252.168 71.144 251.912 71.104 251.672 71.024C251.432 70.952 251.22 70.848 251.036 70.712C250.86 70.568 250.72 70.396 250.616 70.196C250.512 69.988 250.46 69.752 250.46 69.488ZM251.42 69.416C251.42 69.584 251.456 69.728 251.528 69.848C251.6 69.96 251.692 70.056 251.804 70.136C251.924 70.208 252.06 70.264 252.212 70.304C252.372 70.336 252.536 70.352 252.704 70.352C253.04 70.352 253.368 70.28 253.688 70.136C254.016 69.984 254.348 69.768 254.684 69.488V67.952C254.06 68 253.536 68.068 253.112 68.156C252.696 68.244 252.36 68.352 252.104 68.48C251.856 68.6 251.68 68.74 251.576 68.9C251.472 69.052 251.42 69.224 251.42 69.416ZM257.8 65.168H258.616L258.7 66.164H258.748C259.052 65.836 259.38 65.564 259.732 65.348C260.084 65.132 260.488 65.024 260.944 65.024C261.64 65.024 262.148 65.224 262.468 65.624C262.796 66.016 262.96 66.6 262.96 67.376V71H261.976V67.508C261.976 66.956 261.872 66.548 261.664 66.284C261.456 66.012 261.112 65.876 260.632 65.876C260.456 65.876 260.292 65.9 260.14 65.948C259.996 65.988 259.852 66.052 259.708 66.14C259.564 66.228 259.416 66.34 259.264 66.476C259.112 66.604 258.952 66.756 258.784 66.932V71H257.8V65.168Z" fill="black"/>
<path d="M199.121 72.2H263.884V72.8H199.121V72.2Z" fill="black"/>
<rect y="69" width="134" height="66" fill="#C4C4C4"/>
<path d="M57.7441 83.9219C57.4277 84.3008 56.9805 84.5957 56.4023 84.8066C55.8242 85.0137 55.1836 85.1172 54.4805 85.1172C53.7422 85.1172 53.0938 84.957 52.5352 84.6367C51.9805 84.3125 51.5508 83.8438 51.2461 83.2305C50.9453 82.6172 50.791 81.8965 50.7832 81.0684V80.4883C50.7832 79.6367 50.9258 78.9004 51.2109 78.2793C51.5 77.6543 51.9141 77.1777 52.4531 76.8496C52.9961 76.5176 53.6309 76.3516 54.3574 76.3516C55.3691 76.3516 56.1602 76.5938 56.7305 77.0781C57.3008 77.5586 57.6387 78.2598 57.7441 79.1816H56.0332C55.9551 78.6934 55.7812 78.3359 55.5117 78.1094C55.2461 77.8828 54.8789 77.7695 54.4102 77.7695C53.8125 77.7695 53.3574 77.9941 53.0449 78.4434C52.7324 78.8926 52.5742 79.5605 52.5703 80.4473V80.9922C52.5703 81.8867 52.7402 82.5625 53.0801 83.0195C53.4199 83.4766 53.918 83.7051 54.5742 83.7051C55.2344 83.7051 55.7051 83.5645 55.9863 83.2832V81.8125H54.3867V80.5176H57.7441V83.9219ZM60.8496 85H59.1504V76H60.8496V85ZM61.9863 81.7715C61.9863 81.1426 62.1074 80.582 62.3496 80.0898C62.5918 79.5977 62.9395 79.2168 63.3926 78.9473C63.8496 78.6777 64.3789 78.543 64.9805 78.543C65.8359 78.543 66.5332 78.8047 67.0723 79.3281C67.6152 79.8516 67.918 80.5625 67.9805 81.4609L67.9922 81.8945C67.9922 82.8672 67.7207 83.6484 67.1777 84.2383C66.6348 84.8242 65.9062 85.1172 64.9922 85.1172C64.0781 85.1172 63.3477 84.8242 62.8008 84.2383C62.2578 83.6523 61.9863 82.8555 61.9863 81.8477V81.7715ZM63.6797 81.8945C63.6797 82.4961 63.793 82.957 64.0195 83.2773C64.2461 83.5938 64.5703 83.752 64.9922 83.752C65.4023 83.752 65.7227 83.5957 65.9531 83.2832C66.1836 82.9668 66.2988 82.4629 66.2988 81.7715C66.2988 81.1816 66.1836 80.7246 65.9531 80.4004C65.7227 80.0762 65.3984 79.9141 64.9805 79.9141C64.5664 79.9141 64.2461 80.0762 64.0195 80.4004C63.793 80.7207 63.6797 81.2188 63.6797 81.8945ZM74.748 81.8887C74.748 82.9043 74.5312 83.6973 74.0977 84.2676C73.6641 84.834 73.0586 85.1172 72.2812 85.1172C71.5938 85.1172 71.0449 84.8535 70.6348 84.3262L70.5586 85H69.0352V76H70.7285V79.2285C71.1191 78.7715 71.6328 78.543 72.2695 78.543C73.043 78.543 73.6484 78.8281 74.0859 79.3984C74.5273 79.9648 74.748 80.7637 74.748 81.7949V81.8887ZM73.0547 81.7656C73.0547 81.125 72.9531 80.6582 72.75 80.3652C72.5469 80.0684 72.2441 79.9199 71.8418 79.9199C71.3027 79.9199 70.9316 80.1406 70.7285 80.582V83.084C70.9355 83.5293 71.3105 83.752 71.8535 83.752C72.4004 83.752 72.7598 83.4824 72.9316 82.9434C73.0137 82.6855 73.0547 82.293 73.0547 81.7656ZM79.4707 85C79.3926 84.8477 79.3359 84.6582 79.3008 84.4316C78.8906 84.8887 78.3574 85.1172 77.7012 85.1172C77.0801 85.1172 76.5645 84.9375 76.1543 84.5781C75.748 84.2188 75.5449 83.7656 75.5449 83.2188C75.5449 82.5469 75.793 82.0312 76.2891 81.6719C76.7891 81.3125 77.5098 81.1309 78.4512 81.127H79.2305V80.7637C79.2305 80.4707 79.1543 80.2363 79.002 80.0605C78.8535 79.8848 78.6172 79.7969 78.293 79.7969C78.0078 79.7969 77.7832 79.8652 77.6191 80.002C77.459 80.1387 77.3789 80.3262 77.3789 80.5645H75.6855C75.6855 80.1973 75.7988 79.8574 76.0254 79.5449C76.252 79.2324 76.5723 78.9883 76.9863 78.8125C77.4004 78.6328 77.8652 78.543 78.3809 78.543C79.1621 78.543 79.7812 78.7402 80.2383 79.1348C80.6992 79.5254 80.9297 80.0762 80.9297 80.7871V83.5352C80.9336 84.1367 81.0176 84.5918 81.1816 84.9004V85H79.4707ZM78.0703 83.8223C78.3203 83.8223 78.5508 83.7676 78.7617 83.6582C78.9727 83.5449 79.1289 83.3945 79.2305 83.207V82.1172H78.5977C77.75 82.1172 77.2988 82.4102 77.2441 82.9961L77.2383 83.0957C77.2383 83.3066 77.3125 83.4805 77.4609 83.6172C77.6094 83.7539 77.8125 83.8223 78.0703 83.8223ZM84.0176 85H82.3184V76H84.0176V85Z" fill="black"/>
<path d="M23.6191 104.117C22.7598 104.117 22.0605 103.836 21.5215 103.273C20.9824 102.707 20.7129 101.951 20.7129 101.006V100.807C20.7129 100.178 20.832 99.6172 21.0703 99.125C21.3125 98.6289 21.6484 98.2422 22.0781 97.9648C22.5117 97.6836 22.9805 97.543 23.4844 97.543C24.3086 97.543 24.9492 97.8145 25.4062 98.3574C25.8633 98.9004 26.0918 99.6777 26.0918 100.689V101.141H21.7969C21.8125 101.766 21.9941 102.271 22.3418 102.658C22.6934 103.041 23.1387 103.232 23.6777 103.232C24.0605 103.232 24.3848 103.154 24.6504 102.998C24.916 102.842 25.1484 102.635 25.3477 102.377L26.0098 102.893C25.4785 103.709 24.6816 104.117 23.6191 104.117ZM23.4844 98.4336C23.0469 98.4336 22.6797 98.5938 22.3828 98.9141C22.0859 99.2305 21.9023 99.6758 21.832 100.25H25.0078V100.168C24.9766 99.6172 24.8281 99.1914 24.5625 98.8906C24.2969 98.5859 23.9375 98.4336 23.4844 98.4336ZM29.4785 99.9746L30.8848 97.6602H32.1504L30.0762 100.795L32.2148 104H30.9609L29.4961 101.627L28.0312 104H26.7715L28.9102 100.795L26.8359 97.6602H28.0898L29.4785 99.9746ZM35.8184 104.117C34.959 104.117 34.2598 103.836 33.7207 103.273C33.1816 102.707 32.9121 101.951 32.9121 101.006V100.807C32.9121 100.178 33.0312 99.6172 33.2695 99.125C33.5117 98.6289 33.8477 98.2422 34.2773 97.9648C34.7109 97.6836 35.1797 97.543 35.6836 97.543C36.5078 97.543 37.1484 97.8145 37.6055 98.3574C38.0625 98.9004 38.291 99.6777 38.291 100.689V101.141H33.9961C34.0117 101.766 34.1934 102.271 34.541 102.658C34.8926 103.041 35.3379 103.232 35.877 103.232C36.2598 103.232 36.584 103.154 36.8496 102.998C37.1152 102.842 37.3477 102.635 37.5469 102.377L38.209 102.893C37.6777 103.709 36.8809 104.117 35.8184 104.117ZM35.6836 98.4336C35.2461 98.4336 34.8789 98.5938 34.582 98.9141C34.2852 99.2305 34.1016 99.6758 34.0312 100.25H37.207V100.168C37.1758 99.6172 37.0273 99.1914 36.7617 98.8906C36.4961 98.5859 36.1367 98.4336 35.6836 98.4336ZM42.0938 103.232C42.4805 103.232 42.8184 103.115 43.1074 102.881C43.3965 102.646 43.5566 102.354 43.5879 102.002H44.6133C44.5938 102.365 44.4688 102.711 44.2383 103.039C44.0078 103.367 43.6992 103.629 43.3125 103.824C42.9297 104.02 42.5234 104.117 42.0938 104.117C41.2305 104.117 40.543 103.83 40.0312 103.256C39.5234 102.678 39.2695 101.889 39.2695 100.889V100.707C39.2695 100.09 39.3828 99.541 39.6094 99.0605C39.8359 98.5801 40.1602 98.207 40.582 97.9414C41.0078 97.6758 41.5098 97.543 42.0879 97.543C42.7988 97.543 43.3887 97.7559 43.8574 98.1816C44.3301 98.6074 44.582 99.1602 44.6133 99.8398H43.5879C43.5566 99.4297 43.4004 99.0938 43.1191 98.832C42.8418 98.5664 42.498 98.4336 42.0879 98.4336C41.5371 98.4336 41.1094 98.6328 40.8047 99.0312C40.5039 99.4258 40.3535 99.998 40.3535 100.748V100.953C40.3535 101.684 40.5039 102.246 40.8047 102.641C41.1055 103.035 41.5352 103.232 42.0938 103.232ZM49.7461 103.373C49.3242 103.869 48.7051 104.117 47.8887 104.117C47.2129 104.117 46.6973 103.922 46.3418 103.531C45.9902 103.137 45.8125 102.555 45.8086 101.785V97.6602H46.8926V101.756C46.8926 102.717 47.2832 103.197 48.0645 103.197C48.8926 103.197 49.4434 102.889 49.7168 102.271V97.6602H50.8008V104H49.7695L49.7461 103.373ZM53.9238 96.125V97.6602H55.1074V98.498H53.9238V102.43C53.9238 102.684 53.9766 102.875 54.082 103.004C54.1875 103.129 54.3672 103.191 54.6211 103.191C54.7461 103.191 54.918 103.168 55.1367 103.121V104C54.8516 104.078 54.5742 104.117 54.3047 104.117C53.8203 104.117 53.4551 103.971 53.209 103.678C52.9629 103.385 52.8398 102.969 52.8398 102.43V98.498H51.6855V97.6602H52.8398V96.125H53.9238ZM57.5566 104H56.4727V97.6602H57.5566V104ZM56.3848 95.9785C56.3848 95.8027 56.4375 95.6543 56.543 95.5332C56.6523 95.4121 56.8125 95.3516 57.0234 95.3516C57.2344 95.3516 57.3945 95.4121 57.5039 95.5332C57.6133 95.6543 57.668 95.8027 57.668 95.9785C57.668 96.1543 57.6133 96.3008 57.5039 96.418C57.3945 96.5352 57.2344 96.5938 57.0234 96.5938C56.8125 96.5938 56.6523 96.5352 56.543 96.418C56.4375 96.3008 56.3848 96.1543 56.3848 95.9785ZM59.0098 100.771C59.0098 100.15 59.1309 99.5918 59.373 99.0957C59.6191 98.5996 59.959 98.2168 60.3926 97.9473C60.8301 97.6777 61.3281 97.543 61.8867 97.543C62.75 97.543 63.4473 97.8418 63.9785 98.4395C64.5137 99.0371 64.7812 99.832 64.7812 100.824V100.9C64.7812 101.518 64.6621 102.072 64.4238 102.564C64.1895 103.053 63.8516 103.434 63.4102 103.707C62.9727 103.98 62.4688 104.117 61.8984 104.117C61.0391 104.117 60.3418 103.818 59.8066 103.221C59.2754 102.623 59.0098 101.832 59.0098 100.848V100.771ZM60.0996 100.9C60.0996 101.604 60.2617 102.168 60.5859 102.594C60.9141 103.02 61.3516 103.232 61.8984 103.232C62.4492 103.232 62.8867 103.018 63.2109 102.588C63.5352 102.154 63.6973 101.549 63.6973 100.771C63.6973 100.076 63.5312 99.5137 63.1992 99.084C62.8711 98.6504 62.4336 98.4336 61.8867 98.4336C61.3516 98.4336 60.9199 98.6465 60.5918 99.0723C60.2637 99.498 60.0996 100.107 60.0996 100.9ZM67.166 97.6602L67.2012 98.457C67.6855 97.8477 68.3184 97.543 69.0996 97.543C70.4395 97.543 71.1152 98.2988 71.127 99.8105V104H70.043V99.8047C70.0391 99.3477 69.9336 99.0098 69.7266 98.791C69.5234 98.5723 69.2051 98.4629 68.7715 98.4629C68.4199 98.4629 68.1113 98.5566 67.8457 98.7441C67.5801 98.9316 67.373 99.1777 67.2246 99.4824V104H66.1406V97.6602H67.166ZM78.2812 103.232C78.668 103.232 79.0059 103.115 79.2949 102.881C79.584 102.646 79.7441 102.354 79.7754 102.002H80.8008C80.7812 102.365 80.6562 102.711 80.4258 103.039C80.1953 103.367 79.8867 103.629 79.5 103.824C79.1172 104.02 78.7109 104.117 78.2812 104.117C77.418 104.117 76.7305 103.83 76.2188 103.256C75.7109 102.678 75.457 101.889 75.457 100.889V100.707C75.457 100.09 75.5703 99.541 75.7969 99.0605C76.0234 98.5801 76.3477 98.207 76.7695 97.9414C77.1953 97.6758 77.6973 97.543 78.2754 97.543C78.9863 97.543 79.5762 97.7559 80.0449 98.1816C80.5176 98.6074 80.7695 99.1602 80.8008 99.8398H79.7754C79.7441 99.4297 79.5879 99.0938 79.3066 98.832C79.0293 98.5664 78.6855 98.4336 78.2754 98.4336C77.7246 98.4336 77.2969 98.6328 76.9922 99.0312C76.6914 99.4258 76.541 99.998 76.541 100.748V100.953C76.541 101.684 76.6914 102.246 76.9922 102.641C77.293 103.035 77.7227 103.232 78.2812 103.232ZM81.7324 100.771C81.7324 100.15 81.8535 99.5918 82.0957 99.0957C82.3418 98.5996 82.6816 98.2168 83.1152 97.9473C83.5527 97.6777 84.0508 97.543 84.6094 97.543C85.4727 97.543 86.1699 97.8418 86.7012 98.4395C87.2363 99.0371 87.5039 99.832 87.5039 100.824V100.9C87.5039 101.518 87.3848 102.072 87.1465 102.564C86.9121 103.053 86.5742 103.434 86.1328 103.707C85.6953 103.98 85.1914 104.117 84.6211 104.117C83.7617 104.117 83.0645 103.818 82.5293 103.221C81.998 102.623 81.7324 101.832 81.7324 100.848V100.771ZM82.8223 100.9C82.8223 101.604 82.9844 102.168 83.3086 102.594C83.6367 103.02 84.0742 103.232 84.6211 103.232C85.1719 103.232 85.6094 103.018 85.9336 102.588C86.2578 102.154 86.4199 101.549 86.4199 100.771C86.4199 100.076 86.2539 99.5137 85.9219 99.084C85.5938 98.6504 85.1562 98.4336 84.6094 98.4336C84.0742 98.4336 83.6426 98.6465 83.3145 99.0723C82.9863 99.498 82.8223 100.107 82.8223 100.9ZM89.8887 97.6602L89.9238 98.457C90.4082 97.8477 91.041 97.543 91.8223 97.543C93.1621 97.543 93.8379 98.2988 93.8496 99.8105V104H92.7656V99.8047C92.7617 99.3477 92.6562 99.0098 92.4492 98.791C92.2461 98.5723 91.9277 98.4629 91.4941 98.4629C91.1426 98.4629 90.834 98.5566 90.5684 98.7441C90.3027 98.9316 90.0957 99.1777 89.9473 99.4824V104H88.8633V97.6602H89.8887ZM96.9551 96.125V97.6602H98.1387V98.498H96.9551V102.43C96.9551 102.684 97.0078 102.875 97.1133 103.004C97.2188 103.129 97.3984 103.191 97.6523 103.191C97.7773 103.191 97.9492 103.168 98.168 103.121V104C97.8828 104.078 97.6055 104.117 97.3359 104.117C96.8516 104.117 96.4863 103.971 96.2402 103.678C95.9941 103.385 95.8711 102.969 95.8711 102.43V98.498H94.7168V97.6602H95.8711V96.125H96.9551ZM102.041 104.117C101.182 104.117 100.482 103.836 99.9434 103.273C99.4043 102.707 99.1348 101.951 99.1348 101.006V100.807C99.1348 100.178 99.2539 99.6172 99.4922 99.125C99.7344 98.6289 100.07 98.2422 100.5 97.9648C100.934 97.6836 101.402 97.543 101.906 97.543C102.73 97.543 103.371 97.8145 103.828 98.3574C104.285 98.9004 104.514 99.6777 104.514 100.689V101.141H100.219C100.234 101.766 100.416 102.271 100.764 102.658C101.115 103.041 101.561 103.232 102.1 103.232C102.482 103.232 102.807 103.154 103.072 102.998C103.338 102.842 103.57 102.635 103.77 102.377L104.432 102.893C103.9 103.709 103.104 104.117 102.041 104.117ZM101.906 98.4336C101.469 98.4336 101.102 98.5938 100.805 98.9141C100.508 99.2305 100.324 99.6758 100.254 100.25H103.43V100.168C103.398 99.6172 103.25 99.1914 102.984 98.8906C102.719 98.5859 102.359 98.4336 101.906 98.4336ZM107.9 99.9746L109.307 97.6602H110.572L108.498 100.795L110.637 104H109.383L107.918 101.627L106.453 104H105.193L107.332 100.795L105.258 97.6602H106.512L107.9 99.9746ZM113.197 96.125V97.6602H114.381V98.498H113.197V102.43C113.197 102.684 113.25 102.875 113.355 103.004C113.461 103.129 113.641 103.191 113.895 103.191C114.02 103.191 114.191 103.168 114.41 103.121V104C114.125 104.078 113.848 104.117 113.578 104.117C113.094 104.117 112.729 103.971 112.482 103.678C112.236 103.385 112.113 102.969 112.113 102.43V98.498H110.959V97.6602H112.113V96.125H113.197Z" fill="black"/>
<path d="M55.5814 118.972H53.9374V118.228L55.6174 118.168L55.7494 116.536H56.5654V118.168H59.4334V118.972H56.5654V121.744C56.5654 122.008 56.5894 122.24 56.6374 122.44C56.6854 122.632 56.7654 122.796 56.8774 122.932C56.9894 123.068 57.1414 123.172 57.3334 123.244C57.5254 123.308 57.7614 123.34 58.0414 123.34C58.3214 123.34 58.5734 123.316 58.7974 123.268C59.0214 123.22 59.2374 123.156 59.4454 123.076L59.6614 123.796C59.3974 123.892 59.1054 123.972 58.7854 124.036C58.4654 124.108 58.1454 124.144 57.8254 124.144C57.4014 124.144 57.0454 124.088 56.7574 123.976C56.4694 123.856 56.2374 123.692 56.0614 123.484C55.8934 123.268 55.7694 123.012 55.6894 122.716C55.6174 122.42 55.5814 122.092 55.5814 121.732V118.972ZM61.4207 115.456H62.4047V117.784L62.3567 119.164C62.6687 118.836 63.0007 118.564 63.3527 118.348C63.7047 118.132 64.1087 118.024 64.5647 118.024C65.2607 118.024 65.7687 118.224 66.0887 118.624C66.4167 119.016 66.5807 119.6 66.5807 120.376V124H65.5967V120.508C65.5967 119.956 65.4927 119.548 65.2847 119.284C65.0767 119.012 64.7327 118.876 64.2527 118.876C64.0767 118.876 63.9127 118.9 63.7607 118.948C63.6167 118.988 63.4727 119.052 63.3287 119.14C63.1847 119.228 63.0367 119.34 62.8847 119.476C62.7327 119.604 62.5727 119.756 62.4047 119.932V124H61.4207V115.456ZM68.58 118.168H72.276V124H71.292V118.972H68.58V118.168ZM71.676 116.968C71.444 116.968 71.252 116.9 71.1 116.764C70.956 116.628 70.884 116.444 70.884 116.212C70.884 115.98 70.956 115.796 71.1 115.66C71.252 115.516 71.444 115.444 71.676 115.444C71.9 115.444 72.088 115.516 72.24 115.66C72.392 115.796 72.468 115.98 72.468 116.212C72.468 116.444 72.392 116.628 72.24 116.764C72.088 116.9 71.9 116.968 71.676 116.968ZM76.0393 122.584C76.3673 122.824 76.7193 123.016 77.0953 123.16C77.4713 123.304 77.9233 123.376 78.4513 123.376C78.9793 123.376 79.3713 123.288 79.6273 123.112C79.8833 122.936 80.0113 122.72 80.0113 122.464C80.0113 122.24 79.8713 122.04 79.5913 121.864C79.3193 121.688 78.8273 121.512 78.1153 121.336C77.8113 121.264 77.5233 121.176 77.2513 121.072C76.9873 120.968 76.7553 120.848 76.5553 120.712C76.3553 120.568 76.1953 120.412 76.0753 120.244C75.9553 120.076 75.8953 119.888 75.8953 119.68C75.8953 119.448 75.9473 119.232 76.0513 119.032C76.1553 118.824 76.3073 118.648 76.5073 118.504C76.7153 118.352 76.9713 118.236 77.2753 118.156C77.5873 118.068 77.9433 118.024 78.3433 118.024C78.7833 118.024 79.2113 118.1 79.6273 118.252C80.0433 118.396 80.3953 118.568 80.6833 118.768L80.2033 119.404C79.9473 119.22 79.6633 119.072 79.3513 118.96C79.0393 118.848 78.7033 118.792 78.3433 118.792C78.0713 118.792 77.8433 118.816 77.6593 118.864C77.4753 118.904 77.3273 118.964 77.2153 119.044C77.1033 119.116 77.0233 119.204 76.9753 119.308C76.9273 119.412 76.9033 119.52 76.9033 119.632C76.9033 119.872 77.0673 120.072 77.3953 120.232C77.7233 120.384 78.1513 120.528 78.6793 120.664C79.4713 120.864 80.0553 121.092 80.4313 121.348C80.8153 121.604 81.0073 121.956 81.0073 122.404C81.0073 122.644 80.9513 122.868 80.8393 123.076C80.7273 123.284 80.5593 123.468 80.3353 123.628C80.1193 123.788 79.8473 123.912 79.5193 124C79.1993 124.096 78.8313 124.144 78.4153 124.144C77.8393 124.144 77.3073 124.056 76.8193 123.88C76.3393 123.696 75.9193 123.48 75.5593 123.232L76.0393 122.584Z" fill="black"/>
<rect width="134" height="66" fill="#C4C4C4"/>
<path d="M20.2246 14.248C20.2246 14.041 20.1211 13.8789 19.9141 13.7617C19.7109 13.6406 19.3828 13.5332 18.9297 13.4395C17.4219 13.123 16.668 12.4824 16.668 11.5176C16.668 10.9551 16.9004 10.4863 17.3652 10.1113C17.834 9.73242 18.4453 9.54297 19.1992 9.54297C20.0039 9.54297 20.6465 9.73242 21.127 10.1113C21.6113 10.4902 21.8535 10.9824 21.8535 11.5879H20.1602C20.1602 11.3457 20.082 11.1465 19.9258 10.9902C19.7695 10.8301 19.5254 10.75 19.1934 10.75C18.9082 10.75 18.6875 10.8145 18.5312 10.9434C18.375 11.0723 18.2969 11.2363 18.2969 11.4355C18.2969 11.623 18.3848 11.7754 18.5605 11.8926C18.7402 12.0059 19.041 12.1055 19.4629 12.1914C19.8848 12.2734 20.2402 12.3672 20.5293 12.4727C21.4238 12.8008 21.8711 13.3691 21.8711 14.1777C21.8711 14.7559 21.623 15.2246 21.127 15.584C20.6309 15.9395 19.9902 16.1172 19.2051 16.1172C18.6738 16.1172 18.2012 16.0234 17.7871 15.8359C17.377 15.6445 17.0547 15.3848 16.8203 15.0566C16.5859 14.7246 16.4688 14.3672 16.4688 13.9844H18.0742C18.0898 14.2852 18.2012 14.5156 18.4082 14.6758C18.6152 14.8359 18.8926 14.916 19.2402 14.916C19.5645 14.916 19.8086 14.8555 19.9727 14.7344C20.1406 14.6094 20.2246 14.4473 20.2246 14.248ZM28.6738 12.8887C28.6738 13.8652 28.4512 14.6484 28.0059 15.2383C27.5645 15.8242 26.9668 16.1172 26.2129 16.1172C25.5723 16.1172 25.0547 15.8945 24.6602 15.4492V18.4375H22.9668V9.66016H24.5371L24.5957 10.2812C25.0059 9.78906 25.541 9.54297 26.2012 9.54297C26.9824 9.54297 27.5898 9.83203 28.0234 10.4102C28.457 10.9883 28.6738 11.7852 28.6738 12.8008V12.8887ZM26.9805 12.7656C26.9805 12.1758 26.875 11.7207 26.6641 11.4004C26.457 11.0801 26.1543 10.9199 25.7559 10.9199C25.2246 10.9199 24.8594 11.123 24.6602 11.5293V14.125C24.8672 14.543 25.2363 14.752 25.7676 14.752C26.5762 14.752 26.9805 14.0898 26.9805 12.7656ZM31.5156 16H29.8164V9.66016H31.5156V16ZM29.7168 8.01953C29.7168 7.76562 29.8008 7.55664 29.9688 7.39258C30.1406 7.22852 30.373 7.14648 30.666 7.14648C30.9551 7.14648 31.1855 7.22852 31.3574 7.39258C31.5293 7.55664 31.6152 7.76562 31.6152 8.01953C31.6152 8.27734 31.5273 8.48828 31.3516 8.65234C31.1797 8.81641 30.9512 8.89844 30.666 8.89844C30.3809 8.89844 30.1504 8.81641 29.9746 8.65234C29.8027 8.48828 29.7168 8.27734 29.7168 8.01953ZM32.6523 12.7832C32.6523 11.7949 32.873 11.0078 33.3145 10.4219C33.7598 9.83594 34.3672 9.54297 35.1367 9.54297C35.7539 9.54297 36.2637 9.77344 36.666 10.2344V7H38.3652V16H36.8359L36.7539 15.3262C36.332 15.8535 35.7891 16.1172 35.125 16.1172C34.3789 16.1172 33.7793 15.8242 33.3262 15.2383C32.877 14.6484 32.6523 13.8301 32.6523 12.7832ZM34.3457 12.9062C34.3457 13.5 34.4492 13.9551 34.6562 14.2715C34.8633 14.5879 35.1641 14.7461 35.5586 14.7461C36.082 14.7461 36.4512 14.5254 36.666 14.084V11.582C36.4551 11.1406 36.0898 10.9199 35.5703 10.9199C34.7539 10.9199 34.3457 11.582 34.3457 12.9062ZM42.5957 16.1172C41.666 16.1172 40.9082 15.832 40.3223 15.2617C39.7402 14.6914 39.4492 13.9316 39.4492 12.9824V12.8184C39.4492 12.1816 39.5723 11.6133 39.8184 11.1133C40.0645 10.6094 40.4121 10.2227 40.8613 9.95312C41.3145 9.67969 41.8301 9.54297 42.4082 9.54297C43.2754 9.54297 43.957 9.81641 44.4531 10.3633C44.9531 10.9102 45.2031 11.6855 45.2031 12.6895V13.3809H41.166C41.2207 13.7949 41.3848 14.127 41.6582 14.377C41.9355 14.627 42.2852 14.752 42.707 14.752C43.3594 14.752 43.8691 14.5156 44.2363 14.043L45.0684 14.9746C44.8145 15.334 44.4707 15.6152 44.0371 15.8184C43.6035 16.0176 43.123 16.1172 42.5957 16.1172ZM42.4023 10.9141C42.0664 10.9141 41.793 11.0273 41.582 11.2539C41.375 11.4805 41.2422 11.8047 41.1836 12.2266H43.5391V12.0918C43.5312 11.7168 43.4297 11.4277 43.2344 11.2246C43.0391 11.0176 42.7617 10.9141 42.4023 10.9141ZM49.7324 11.248C49.502 11.2168 49.2988 11.2012 49.123 11.2012C48.4824 11.2012 48.0625 11.418 47.8633 11.8516V16H46.1699V9.66016H47.7695L47.8164 10.416C48.1562 9.83398 48.627 9.54297 49.2285 9.54297C49.416 9.54297 49.5918 9.56836 49.7559 9.61914L49.7324 11.248ZM52.1406 9.66016L52.1934 10.3691C52.6426 9.81836 53.25 9.54297 54.0156 9.54297C54.832 9.54297 55.3926 9.86523 55.6973 10.5098C56.1426 9.86523 56.7773 9.54297 57.6016 9.54297C58.2891 9.54297 58.8008 9.74414 59.1367 10.1465C59.4727 10.5449 59.6406 11.1465 59.6406 11.9512V16H57.9414V11.957C57.9414 11.5977 57.8711 11.3359 57.7305 11.1719C57.5898 11.0039 57.3418 10.9199 56.9863 10.9199C56.4785 10.9199 56.127 11.1621 55.9316 11.6465L55.9375 16H54.2441V11.9629C54.2441 11.5957 54.1719 11.3301 54.0273 11.166C53.8828 11.002 53.6367 10.9199 53.2891 10.9199C52.8086 10.9199 52.4609 11.1191 52.2461 11.5176V16H50.5527V9.66016H52.1406ZM64.6211 16C64.543 15.8477 64.4863 15.6582 64.4512 15.4316C64.041 15.8887 63.5078 16.1172 62.8516 16.1172C62.2305 16.1172 61.7148 15.9375 61.3047 15.5781C60.8984 15.2188 60.6953 14.7656 60.6953 14.2188C60.6953 13.5469 60.9434 13.0312 61.4395 12.6719C61.9395 12.3125 62.6602 12.1309 63.6016 12.127H64.3809V11.7637C64.3809 11.4707 64.3047 11.2363 64.1523 11.0605C64.0039 10.8848 63.7676 10.7969 63.4434 10.7969C63.1582 10.7969 62.9336 10.8652 62.7695 11.002C62.6094 11.1387 62.5293 11.3262 62.5293 11.5645H60.8359C60.8359 11.1973 60.9492 10.8574 61.1758 10.5449C61.4023 10.2324 61.7227 9.98828 62.1367 9.8125C62.5508 9.63281 63.0156 9.54297 63.5312 9.54297C64.3125 9.54297 64.9316 9.74023 65.3887 10.1348C65.8496 10.5254 66.0801 11.0762 66.0801 11.7871V14.5352C66.084 15.1367 66.168 15.5918 66.332 15.9004V16H64.6211ZM63.2207 14.8223C63.4707 14.8223 63.7012 14.7676 63.9121 14.6582C64.123 14.5449 64.2793 14.3945 64.3809 14.207V13.1172H63.748C62.9004 13.1172 62.4492 13.4102 62.3945 13.9961L62.3887 14.0957C62.3887 14.3066 62.4629 14.4805 62.6113 14.6172C62.7598 14.7539 62.9629 14.8223 63.2207 14.8223ZM68.9395 9.66016L68.9922 10.3926C69.4453 9.82617 70.0527 9.54297 70.8145 9.54297C71.4863 9.54297 71.9863 9.74023 72.3145 10.1348C72.6426 10.5293 72.8105 11.1191 72.8184 11.9043V16H71.125V11.9453C71.125 11.5859 71.0469 11.3262 70.8906 11.166C70.7344 11.002 70.4746 10.9199 70.1113 10.9199C69.6348 10.9199 69.2773 11.123 69.0391 11.5293V16H67.3457V9.66016H68.9395ZM74.1953 15.168C74.1953 14.8984 74.2852 14.6797 74.4648 14.5117C74.6484 14.3438 74.877 14.2598 75.1504 14.2598C75.4277 14.2598 75.6562 14.3438 75.8359 14.5117C76.0195 14.6797 76.1113 14.8984 76.1113 15.168C76.1113 15.4336 76.0215 15.6504 75.8418 15.8184C75.6621 15.9824 75.4316 16.0645 75.1504 16.0645C74.873 16.0645 74.6445 15.9824 74.4648 15.8184C74.2852 15.6504 74.1953 15.4336 74.1953 15.168ZM77.3535 12.7832C77.3535 11.8105 77.584 11.0273 78.0449 10.4336C78.5098 9.83984 79.1348 9.54297 79.9199 9.54297C80.6152 9.54297 81.1562 9.78125 81.543 10.2578L81.6133 9.66016H83.1484V15.7891C83.1484 16.3438 83.0215 16.8262 82.7676 17.2363C82.5176 17.6465 82.1641 17.959 81.707 18.1738C81.25 18.3887 80.7148 18.4961 80.1016 18.4961C79.6367 18.4961 79.1836 18.4023 78.7422 18.2148C78.3008 18.0312 77.9668 17.793 77.7402 17.5L78.4902 16.4688C78.9121 16.9414 79.4238 17.1777 80.0254 17.1777C80.4746 17.1777 80.8242 17.0566 81.0742 16.8145C81.3242 16.5762 81.4492 16.2363 81.4492 15.7949V15.4551C81.0586 15.8965 80.5449 16.1172 79.9082 16.1172C79.1465 16.1172 78.5293 15.8203 78.0566 15.2266C77.5879 14.6289 77.3535 13.8379 77.3535 12.8535V12.7832ZM79.0469 12.9062C79.0469 13.4805 79.1621 13.9316 79.3926 14.2598C79.623 14.584 79.9395 14.7461 80.3418 14.7461C80.8574 14.7461 81.2266 14.5527 81.4492 14.166V11.5C81.2227 11.1133 80.8574 10.9199 80.3535 10.9199C79.9473 10.9199 79.627 11.0859 79.3926 11.418C79.1621 11.75 79.0469 12.2461 79.0469 12.9062ZM87.373 16.1172C86.4434 16.1172 85.6855 15.832 85.0996 15.2617C84.5176 14.6914 84.2266 13.9316 84.2266 12.9824V12.8184C84.2266 12.1816 84.3496 11.6133 84.5957 11.1133C84.8418 10.6094 85.1895 10.2227 85.6387 9.95312C86.0918 9.67969 86.6074 9.54297 87.1855 9.54297C88.0527 9.54297 88.7344 9.81641 89.2305 10.3633C89.7305 10.9102 89.9805 11.6855 89.9805 12.6895V13.3809H85.9434C85.998 13.7949 86.1621 14.127 86.4355 14.377C86.7129 14.627 87.0625 14.752 87.4844 14.752C88.1367 14.752 88.6465 14.5156 89.0137 14.043L89.8457 14.9746C89.5918 15.334 89.248 15.6152 88.8145 15.8184C88.3809 16.0176 87.9004 16.1172 87.373 16.1172ZM87.1797 10.9141C86.8438 10.9141 86.5703 11.0273 86.3594 11.2539C86.1523 11.4805 86.0195 11.8047 85.9609 12.2266H88.3164V12.0918C88.3086 11.7168 88.207 11.4277 88.0117 11.2246C87.8164 11.0176 87.5391 10.9141 87.1797 10.9141ZM92.9746 8.10156V9.66016H94.0586V10.9023H92.9746V14.0664C92.9746 14.3008 93.0195 14.4688 93.1094 14.5703C93.1992 14.6719 93.3711 14.7227 93.625 14.7227C93.8125 14.7227 93.9785 14.709 94.123 14.6816V15.9648C93.791 16.0664 93.4492 16.1172 93.0977 16.1172C91.9102 16.1172 91.3047 15.5176 91.2812 14.3184V10.9023H90.3555V9.66016H91.2812V8.10156H92.9746ZM101.535 8.89258H98.9219V16H97.1641V8.89258H94.5859V7.46875H101.535V8.89258ZM104.084 10.3516C104.533 9.8125 105.098 9.54297 105.777 9.54297C107.152 9.54297 107.85 10.3418 107.869 11.9395V16H106.176V11.9863C106.176 11.623 106.098 11.3555 105.941 11.1836C105.785 11.0078 105.525 10.9199 105.162 10.9199C104.666 10.9199 104.307 11.1113 104.084 11.4941V16H102.391V7H104.084V10.3516ZM110.934 16H109.234V9.66016H110.934V16ZM109.135 8.01953C109.135 7.76562 109.219 7.55664 109.387 7.39258C109.559 7.22852 109.791 7.14648 110.084 7.14648C110.373 7.14648 110.604 7.22852 110.775 7.39258C110.947 7.55664 111.033 7.76562 111.033 8.01953C111.033 8.27734 110.945 8.48828 110.77 8.65234C110.598 8.81641 110.369 8.89844 110.084 8.89844C109.799 8.89844 109.568 8.81641 109.393 8.65234C109.221 8.48828 109.135 8.27734 109.135 8.01953ZM115.768 14.248C115.768 14.041 115.664 13.8789 115.457 13.7617C115.254 13.6406 114.926 13.5332 114.473 13.4395C112.965 13.123 112.211 12.4824 112.211 11.5176C112.211 10.9551 112.443 10.4863 112.908 10.1113C113.377 9.73242 113.988 9.54297 114.742 9.54297C115.547 9.54297 116.189 9.73242 116.67 10.1113C117.154 10.4902 117.396 10.9824 117.396 11.5879H115.703C115.703 11.3457 115.625 11.1465 115.469 10.9902C115.312 10.8301 115.068 10.75 114.736 10.75C114.451 10.75 114.23 10.8145 114.074 10.9434C113.918 11.0723 113.84 11.2363 113.84 11.4355C113.84 11.623 113.928 11.7754 114.104 11.8926C114.283 12.0059 114.584 12.1055 115.006 12.1914C115.428 12.2734 115.783 12.3672 116.072 12.4727C116.967 12.8008 117.414 13.3691 117.414 14.1777C117.414 14.7559 117.166 15.2246 116.67 15.584C116.174 15.9395 115.533 16.1172 114.748 16.1172C114.217 16.1172 113.744 16.0234 113.33 15.8359C112.92 15.6445 112.598 15.3848 112.363 15.0566C112.129 14.7246 112.012 14.3672 112.012 13.9844H113.617C113.633 14.2852 113.744 14.5156 113.951 14.6758C114.158 14.8359 114.436 14.916 114.783 14.916C115.107 14.916 115.352 14.8555 115.516 14.7344C115.684 14.6094 115.768 14.4473 115.768 14.248Z" fill="black"/>
<path d="M23.6191 35.1172C22.7598 35.1172 22.0605 34.8359 21.5215 34.2734C20.9824 33.707 20.7129 32.9512 20.7129 32.0059V31.8066C20.7129 31.1777 20.832 30.6172 21.0703 30.125C21.3125 29.6289 21.6484 29.2422 22.0781 28.9648C22.5117 28.6836 22.9805 28.543 23.4844 28.543C24.3086 28.543 24.9492 28.8145 25.4062 29.3574C25.8633 29.9004 26.0918 30.6777 26.0918 31.6895V32.1406H21.7969C21.8125 32.7656 21.9941 33.2715 22.3418 33.6582C22.6934 34.041 23.1387 34.2324 23.6777 34.2324C24.0605 34.2324 24.3848 34.1543 24.6504 33.998C24.916 33.8418 25.1484 33.6348 25.3477 33.377L26.0098 33.8926C25.4785 34.709 24.6816 35.1172 23.6191 35.1172ZM23.4844 29.4336C23.0469 29.4336 22.6797 29.5938 22.3828 29.9141C22.0859 30.2305 21.9023 30.6758 21.832 31.25H25.0078V31.168C24.9766 30.6172 24.8281 30.1914 24.5625 29.8906C24.2969 29.5859 23.9375 29.4336 23.4844 29.4336ZM29.4785 30.9746L30.8848 28.6602H32.1504L30.0762 31.7949L32.2148 35H30.9609L29.4961 32.627L28.0312 35H26.7715L28.9102 31.7949L26.8359 28.6602H28.0898L29.4785 30.9746ZM35.8184 35.1172C34.959 35.1172 34.2598 34.8359 33.7207 34.2734C33.1816 33.707 32.9121 32.9512 32.9121 32.0059V31.8066C32.9121 31.1777 33.0312 30.6172 33.2695 30.125C33.5117 29.6289 33.8477 29.2422 34.2773 28.9648C34.7109 28.6836 35.1797 28.543 35.6836 28.543C36.5078 28.543 37.1484 28.8145 37.6055 29.3574C38.0625 29.9004 38.291 30.6777 38.291 31.6895V32.1406H33.9961C34.0117 32.7656 34.1934 33.2715 34.541 33.6582C34.8926 34.041 35.3379 34.2324 35.877 34.2324C36.2598 34.2324 36.584 34.1543 36.8496 33.998C37.1152 33.8418 37.3477 33.6348 37.5469 33.377L38.209 33.8926C37.6777 34.709 36.8809 35.1172 35.8184 35.1172ZM35.6836 29.4336C35.2461 29.4336 34.8789 29.5938 34.582 29.9141C34.2852 30.2305 34.1016 30.6758 34.0312 31.25H37.207V31.168C37.1758 30.6172 37.0273 30.1914 36.7617 29.8906C36.4961 29.5859 36.1367 29.4336 35.6836 29.4336ZM42.0938 34.2324C42.4805 34.2324 42.8184 34.1152 43.1074 33.8809C43.3965 33.6465 43.5566 33.3535 43.5879 33.002H44.6133C44.5938 33.3652 44.4688 33.7109 44.2383 34.0391C44.0078 34.3672 43.6992 34.6289 43.3125 34.8242C42.9297 35.0195 42.5234 35.1172 42.0938 35.1172C41.2305 35.1172 40.543 34.8301 40.0312 34.2559C39.5234 33.6777 39.2695 32.8887 39.2695 31.8887V31.707C39.2695 31.0898 39.3828 30.541 39.6094 30.0605C39.8359 29.5801 40.1602 29.207 40.582 28.9414C41.0078 28.6758 41.5098 28.543 42.0879 28.543C42.7988 28.543 43.3887 28.7559 43.8574 29.1816C44.3301 29.6074 44.582 30.1602 44.6133 30.8398H43.5879C43.5566 30.4297 43.4004 30.0938 43.1191 29.832C42.8418 29.5664 42.498 29.4336 42.0879 29.4336C41.5371 29.4336 41.1094 29.6328 40.8047 30.0312C40.5039 30.4258 40.3535 30.998 40.3535 31.748V31.9531C40.3535 32.6836 40.5039 33.2461 40.8047 33.6406C41.1055 34.0352 41.5352 34.2324 42.0938 34.2324ZM49.7461 34.373C49.3242 34.8691 48.7051 35.1172 47.8887 35.1172C47.2129 35.1172 46.6973 34.9219 46.3418 34.5312C45.9902 34.1367 45.8125 33.5547 45.8086 32.7852V28.6602H46.8926V32.7559C46.8926 33.7168 47.2832 34.1973 48.0645 34.1973C48.8926 34.1973 49.4434 33.8887 49.7168 33.2715V28.6602H50.8008V35H49.7695L49.7461 34.373ZM53.9238 27.125V28.6602H55.1074V29.498H53.9238V33.4297C53.9238 33.6836 53.9766 33.875 54.082 34.0039C54.1875 34.1289 54.3672 34.1914 54.6211 34.1914C54.7461 34.1914 54.918 34.168 55.1367 34.1211V35C54.8516 35.0781 54.5742 35.1172 54.3047 35.1172C53.8203 35.1172 53.4551 34.9707 53.209 34.6777C52.9629 34.3848 52.8398 33.9688 52.8398 33.4297V29.498H51.6855V28.6602H52.8398V27.125H53.9238ZM57.5566 35H56.4727V28.6602H57.5566V35ZM56.3848 26.9785C56.3848 26.8027 56.4375 26.6543 56.543 26.5332C56.6523 26.4121 56.8125 26.3516 57.0234 26.3516C57.2344 26.3516 57.3945 26.4121 57.5039 26.5332C57.6133 26.6543 57.668 26.8027 57.668 26.9785C57.668 27.1543 57.6133 27.3008 57.5039 27.418C57.3945 27.5352 57.2344 27.5938 57.0234 27.5938C56.8125 27.5938 56.6523 27.5352 56.543 27.418C56.4375 27.3008 56.3848 27.1543 56.3848 26.9785ZM59.0098 31.7715C59.0098 31.1504 59.1309 30.5918 59.373 30.0957C59.6191 29.5996 59.959 29.2168 60.3926 28.9473C60.8301 28.6777 61.3281 28.543 61.8867 28.543C62.75 28.543 63.4473 28.8418 63.9785 29.4395C64.5137 30.0371 64.7812 30.832 64.7812 31.8242V31.9004C64.7812 32.5176 64.6621 33.0723 64.4238 33.5645C64.1895 34.0527 63.8516 34.4336 63.4102 34.707C62.9727 34.9805 62.4688 35.1172 61.8984 35.1172C61.0391 35.1172 60.3418 34.8184 59.8066 34.2207C59.2754 33.623 59.0098 32.832 59.0098 31.8477V31.7715ZM60.0996 31.9004C60.0996 32.6035 60.2617 33.168 60.5859 33.5938C60.9141 34.0195 61.3516 34.2324 61.8984 34.2324C62.4492 34.2324 62.8867 34.0176 63.2109 33.5879C63.5352 33.1543 63.6973 32.5488 63.6973 31.7715C63.6973 31.0762 63.5312 30.5137 63.1992 30.084C62.8711 29.6504 62.4336 29.4336 61.8867 29.4336C61.3516 29.4336 60.9199 29.6465 60.5918 30.0723C60.2637 30.498 60.0996 31.1074 60.0996 31.9004ZM67.166 28.6602L67.2012 29.457C67.6855 28.8477 68.3184 28.543 69.0996 28.543C70.4395 28.543 71.1152 29.2988 71.127 30.8105V35H70.043V30.8047C70.0391 30.3477 69.9336 30.0098 69.7266 29.791C69.5234 29.5723 69.2051 29.4629 68.7715 29.4629C68.4199 29.4629 68.1113 29.5566 67.8457 29.7441C67.5801 29.9316 67.373 30.1777 67.2246 30.4824V35H66.1406V28.6602H67.166ZM78.2812 34.2324C78.668 34.2324 79.0059 34.1152 79.2949 33.8809C79.584 33.6465 79.7441 33.3535 79.7754 33.002H80.8008C80.7812 33.3652 80.6562 33.7109 80.4258 34.0391C80.1953 34.3672 79.8867 34.6289 79.5 34.8242C79.1172 35.0195 78.7109 35.1172 78.2812 35.1172C77.418 35.1172 76.7305 34.8301 76.2188 34.2559C75.7109 33.6777 75.457 32.8887 75.457 31.8887V31.707C75.457 31.0898 75.5703 30.541 75.7969 30.0605C76.0234 29.5801 76.3477 29.207 76.7695 28.9414C77.1953 28.6758 77.6973 28.543 78.2754 28.543C78.9863 28.543 79.5762 28.7559 80.0449 29.1816C80.5176 29.6074 80.7695 30.1602 80.8008 30.8398H79.7754C79.7441 30.4297 79.5879 30.0938 79.3066 29.832C79.0293 29.5664 78.6855 29.4336 78.2754 29.4336C77.7246 29.4336 77.2969 29.6328 76.9922 30.0312C76.6914 30.4258 76.541 30.998 76.541 31.748V31.9531C76.541 32.6836 76.6914 33.2461 76.9922 33.6406C77.293 34.0352 77.7227 34.2324 78.2812 34.2324ZM81.7324 31.7715C81.7324 31.1504 81.8535 30.5918 82.0957 30.0957C82.3418 29.5996 82.6816 29.2168 83.1152 28.9473C83.5527 28.6777 84.0508 28.543 84.6094 28.543C85.4727 28.543 86.1699 28.8418 86.7012 29.4395C87.2363 30.0371 87.5039 30.832 87.5039 31.8242V31.9004C87.5039 32.5176 87.3848 33.0723 87.1465 33.5645C86.9121 34.0527 86.5742 34.4336 86.1328 34.707C85.6953 34.9805 85.1914 35.1172 84.6211 35.1172C83.7617 35.1172 83.0645 34.8184 82.5293 34.2207C81.998 33.623 81.7324 32.832 81.7324 31.8477V31.7715ZM82.8223 31.9004C82.8223 32.6035 82.9844 33.168 83.3086 33.5938C83.6367 34.0195 84.0742 34.2324 84.6211 34.2324C85.1719 34.2324 85.6094 34.0176 85.9336 33.5879C86.2578 33.1543 86.4199 32.5488 86.4199 31.7715C86.4199 31.0762 86.2539 30.5137 85.9219 30.084C85.5938 29.6504 85.1562 29.4336 84.6094 29.4336C84.0742 29.4336 83.6426 29.6465 83.3145 30.0723C82.9863 30.498 82.8223 31.1074 82.8223 31.9004ZM89.8887 28.6602L89.9238 29.457C90.4082 28.8477 91.041 28.543 91.8223 28.543C93.1621 28.543 93.8379 29.2988 93.8496 30.8105V35H92.7656V30.8047C92.7617 30.3477 92.6562 30.0098 92.4492 29.791C92.2461 29.5723 91.9277 29.4629 91.4941 29.4629C91.1426 29.4629 90.834 29.5566 90.5684 29.7441C90.3027 29.9316 90.0957 30.1777 89.9473 30.4824V35H88.8633V28.6602H89.8887ZM96.9551 27.125V28.6602H98.1387V29.498H96.9551V33.4297C96.9551 33.6836 97.0078 33.875 97.1133 34.0039C97.2188 34.1289 97.3984 34.1914 97.6523 34.1914C97.7773 34.1914 97.9492 34.168 98.168 34.1211V35C97.8828 35.0781 97.6055 35.1172 97.3359 35.1172C96.8516 35.1172 96.4863 34.9707 96.2402 34.6777C95.9941 34.3848 95.8711 33.9688 95.8711 33.4297V29.498H94.7168V28.6602H95.8711V27.125H96.9551ZM102.041 35.1172C101.182 35.1172 100.482 34.8359 99.9434 34.2734C99.4043 33.707 99.1348 32.9512 99.1348 32.0059V31.8066C99.1348 31.1777 99.2539 30.6172 99.4922 30.125C99.7344 29.6289 100.07 29.2422 100.5 28.9648C100.934 28.6836 101.402 28.543 101.906 28.543C102.73 28.543 103.371 28.8145 103.828 29.3574C104.285 29.9004 104.514 30.6777 104.514 31.6895V32.1406H100.219C100.234 32.7656 100.416 33.2715 100.764 33.6582C101.115 34.041 101.561 34.2324 102.1 34.2324C102.482 34.2324 102.807 34.1543 103.072 33.998C103.338 33.8418 103.57 33.6348 103.77 33.377L104.432 33.8926C103.9 34.709 103.104 35.1172 102.041 35.1172ZM101.906 29.4336C101.469 29.4336 101.102 29.5938 100.805 29.9141C100.508 30.2305 100.324 30.6758 100.254 31.25H103.43V31.168C103.398 30.6172 103.25 30.1914 102.984 29.8906C102.719 29.5859 102.359 29.4336 101.906 29.4336ZM107.9 30.9746L109.307 28.6602H110.572L108.498 31.7949L110.637 35H109.383L107.918 32.627L106.453 35H105.193L107.332 31.7949L105.258 28.6602H106.512L107.9 30.9746ZM113.197 27.125V28.6602H114.381V29.498H113.197V33.4297C113.197 33.6836 113.25 33.875 113.355 34.0039C113.461 34.1289 113.641 34.1914 113.895 34.1914C114.02 34.1914 114.191 34.168 114.41 34.1211V35C114.125 35.0781 113.848 35.1172 113.578 35.1172C113.094 35.1172 112.729 34.9707 112.482 34.6777C112.236 34.3848 112.113 33.9688 112.113 33.4297V29.498H110.959V28.6602H112.113V27.125H113.197Z" fill="black"/>
<path d="M55.5814 49.972H53.9374V49.228L55.6174 49.168L55.7494 47.536H56.5654V49.168H59.4334V49.972H56.5654V52.744C56.5654 53.008 56.5894 53.24 56.6374 53.44C56.6854 53.632 56.7654 53.796 56.8774 53.932C56.9894 54.068 57.1414 54.172 57.3334 54.244C57.5254 54.308 57.7614 54.34 58.0414 54.34C58.3214 54.34 58.5734 54.316 58.7974 54.268C59.0214 54.22 59.2374 54.156 59.4454 54.076L59.6614 54.796C59.3974 54.892 59.1054 54.972 58.7854 55.036C58.4654 55.108 58.1454 55.144 57.8254 55.144C57.4014 55.144 57.0454 55.088 56.7574 54.976C56.4694 54.856 56.2374 54.692 56.0614 54.484C55.8934 54.268 55.7694 54.012 55.6894 53.716C55.6174 53.42 55.5814 53.092 55.5814 52.732V49.972ZM61.4207 46.456H62.4047V48.784L62.3567 50.164C62.6687 49.836 63.0007 49.564 63.3527 49.348C63.7047 49.132 64.1087 49.024 64.5647 49.024C65.2607 49.024 65.7687 49.224 66.0887 49.624C66.4167 50.016 66.5807 50.6 66.5807 51.376V55H65.5967V51.508C65.5967 50.956 65.4927 50.548 65.2847 50.284C65.0767 50.012 64.7327 49.876 64.2527 49.876C64.0767 49.876 63.9127 49.9 63.7607 49.948C63.6167 49.988 63.4727 50.052 63.3287 50.14C63.1847 50.228 63.0367 50.34 62.8847 50.476C62.7327 50.604 62.5727 50.756 62.4047 50.932V55H61.4207V46.456ZM68.58 49.168H72.276V55H71.292V49.972H68.58V49.168ZM71.676 47.968C71.444 47.968 71.252 47.9 71.1 47.764C70.956 47.628 70.884 47.444 70.884 47.212C70.884 46.98 70.956 46.796 71.1 46.66C71.252 46.516 71.444 46.444 71.676 46.444C71.9 46.444 72.088 46.516 72.24 46.66C72.392 46.796 72.468 46.98 72.468 47.212C72.468 47.444 72.392 47.628 72.24 47.764C72.088 47.9 71.9 47.968 71.676 47.968ZM76.0393 53.584C76.3673 53.824 76.7193 54.016 77.0953 54.16C77.4713 54.304 77.9233 54.376 78.4513 54.376C78.9793 54.376 79.3713 54.288 79.6273 54.112C79.8833 53.936 80.0113 53.72 80.0113 53.464C80.0113 53.24 79.8713 53.04 79.5913 52.864C79.3193 52.688 78.8273 52.512 78.1153 52.336C77.8113 52.264 77.5233 52.176 77.2513 52.072C76.9873 51.968 76.7553 51.848 76.5553 51.712C76.3553 51.568 76.1953 51.412 76.0753 51.244C75.9553 51.076 75.8953 50.888 75.8953 50.68C75.8953 50.448 75.9473 50.232 76.0513 50.032C76.1553 49.824 76.3073 49.648 76.5073 49.504C76.7153 49.352 76.9713 49.236 77.2753 49.156C77.5873 49.068 77.9433 49.024 78.3433 49.024C78.7833 49.024 79.2113 49.1 79.6273 49.252C80.0433 49.396 80.3953 49.568 80.6833 49.768L80.2033 50.404C79.9473 50.22 79.6633 50.072 79.3513 49.96C79.0393 49.848 78.7033 49.792 78.3433 49.792C78.0713 49.792 77.8433 49.816 77.6593 49.864C77.4753 49.904 77.3273 49.964 77.2153 50.044C77.1033 50.116 77.0233 50.204 76.9753 50.308C76.9273 50.412 76.9033 50.52 76.9033 50.632C76.9033 50.872 77.0673 51.072 77.3953 51.232C77.7233 51.384 78.1513 51.528 78.6793 51.664C79.4713 51.864 80.0553 52.092 80.4313 52.348C80.8153 52.604 81.0073 52.956 81.0073 53.404C81.0073 53.644 80.9513 53.868 80.8393 54.076C80.7273 54.284 80.5593 54.468 80.3353 54.628C80.1193 54.788 79.8473 54.912 79.5193 55C79.1993 55.096 78.8313 55.144 78.4153 55.144C77.8393 55.144 77.3073 55.056 76.8193 54.88C76.3393 54.696 75.9193 54.48 75.5593 54.232L76.0393 53.584Z" fill="black"/>
<path d="M199.354 122.354C199.549 122.158 199.549 121.842 199.354 121.646L196.172 118.464C195.976 118.269 195.66 118.269 195.464 118.464C195.269 118.66 195.269 118.976 195.464 119.172L198.293 122L195.464 124.828C195.269 125.024 195.269 125.34 195.464 125.536C195.66 125.731 195.976 125.731 196.172 125.536L199.354 122.354ZM85 122.5H199V121.5H85V122.5Z" fill="#B5B5B5"/>
<path d="M199.354 121.354C199.549 121.158 199.549 120.842 199.354 120.646L196.172 117.464C195.976 117.269 195.66 117.269 195.464 117.464C195.269 117.66 195.269 117.976 195.464 118.172L198.293 121L195.464 123.828C195.269 124.024 195.269 124.34 195.464 124.536C195.66 124.731 195.976 124.731 196.172 124.536L199.354 121.354ZM85 121.5H199V120.5H85V121.5Z" fill="black"/>
<path d="M197.279 75.4151C197.508 75.2611 197.569 74.9505 197.415 74.7212L194.906 70.9856C194.752 70.7564 194.441 70.6953 194.212 70.8493C193.983 71.0033 193.922 71.3139 194.076 71.5432L196.306 74.8637L192.986 77.0939C192.756 77.2479 192.695 77.5585 192.849 77.7878C193.003 78.017 193.314 78.078 193.543 77.9241L197.279 75.4151ZM84.9036 53.4906L196.904 75.4906L197.096 74.5094L85.0964 52.5094L84.9036 53.4906Z" fill="#B5B5B5"/>
<path d="M197.279 74.4151C197.508 74.2611 197.569 73.9505 197.415 73.7212L194.906 69.9856C194.752 69.7564 194.441 69.6953 194.212 69.8493C193.983 70.0033 193.922 70.3139 194.076 70.5432L196.306 73.8637L192.986 76.0939C192.756 76.2479 192.695 76.5585 192.849 76.7878C193.003 77.017 193.314 77.078 193.543 76.9241L197.279 74.4151ZM84.9036 52.4906L196.904 74.4906L197.096 73.5094L85.0964 51.5094L84.9036 52.4906Z" fill="black"/>
</svg>
